<?xml version="1.0" encoding="utf-8" standalone="no"?>
<!DOCTYPE svg PUBLIC "-//W3C//DTD SVG 1.1//EN"
  "http://www.w3.org/Graphics/SVG/1.1/DTD/svg11.dtd">
<!-- Created with matplotlib (https://matplotlib.org/) -->
<svg height="212.485225pt" version="1.1" viewBox="0 0 641.99952 212.485225" width="641.99952pt" xmlns="http://www.w3.org/2000/svg" xmlns:xlink="http://www.w3.org/1999/xlink">
 <metadata>
  <rdf:RDF xmlns:cc="http://creativecommons.org/ns#" xmlns:dc="http://purl.org/dc/elements/1.1/" xmlns:rdf="http://www.w3.org/1999/02/22-rdf-syntax-ns#">
   <cc:Work>
    <dc:type rdf:resource="http://purl.org/dc/dcmitype/StillImage"/>
    <dc:date>2020-11-25T14:21:51.567954</dc:date>
    <dc:format>image/svg+xml</dc:format>
    <dc:creator>
     <cc:Agent>
      <dc:title>Matplotlib v3.3.3, https://matplotlib.org/</dc:title>
     </cc:Agent>
    </dc:creator>
   </cc:Work>
  </rdf:RDF>
 </metadata>
 <defs>
  <style type="text/css">*{stroke-linecap:butt;stroke-linejoin:round;}</style>
 </defs>
 <g id="figure_1">
  <g id="patch_1">
   <path d="M 0 212.485225 
L 641.99952 212.485225 
L 641.99952 0 
L 0 0 
z
" style="fill:#ffffff;"/>
  </g>
  <g id="axes_1">
   <g id="patch_2">
    <path d="M 46.12525 170.614424 
L 211.506312 170.614424 
L 211.506312 34.122885 
L 46.12525 34.122885 
z
" style="fill:#ffffff;"/>
   </g>
   <g id="matplotlib.axis_1">
    <g id="xtick_1">
     <g id="line2d_1">
      <path clip-path="url(#p0dbf338027)" d="M 53.642571 170.614424 
L 53.642571 34.122885 
" style="fill:none;stroke:#cccccc;stroke-dasharray:1,1.65;stroke-dashoffset:0;"/>
     </g>
     <g id="text_1">
      <!-- 0 -->
      <g style="fill:#262626;" transform="translate(51.193009 185.965221)scale(0.077 -0.077)">
       <defs>
        <path d="M 31.78125 66.40625 
Q 24.171875 66.40625 20.328125 58.90625 
Q 16.5 51.421875 16.5 36.375 
Q 16.5 21.390625 20.328125 13.890625 
Q 24.171875 6.390625 31.78125 6.390625 
Q 39.453125 6.390625 43.28125 13.890625 
Q 47.125 21.390625 47.125 36.375 
Q 47.125 51.421875 43.28125 58.90625 
Q 39.453125 66.40625 31.78125 66.40625 
z
M 31.78125 74.21875 
Q 44.046875 74.21875 50.515625 64.515625 
Q 56.984375 54.828125 56.984375 36.375 
Q 56.984375 17.96875 50.515625 8.265625 
Q 44.046875 -1.421875 31.78125 -1.421875 
Q 19.53125 -1.421875 13.0625 8.265625 
Q 6.59375 17.96875 6.59375 36.375 
Q 6.59375 54.828125 13.0625 64.515625 
Q 19.53125 74.21875 31.78125 74.21875 
z
" id="DejaVuSans-48"/>
       </defs>
       <use xlink:href="#DejaVuSans-48"/>
      </g>
     </g>
    </g>
    <g id="xtick_2">
     <g id="line2d_2">
      <path clip-path="url(#p0dbf338027)" d="M 90.241003 170.614424 
L 90.241003 34.122885 
" style="fill:none;stroke:#cccccc;stroke-dasharray:1,1.65;stroke-dashoffset:0;"/>
     </g>
     <g id="text_2">
      <!-- 10000 -->
      <g style="fill:#262626;" transform="translate(77.99319 185.965221)scale(0.077 -0.077)">
       <defs>
        <path d="M 12.40625 8.296875 
L 28.515625 8.296875 
L 28.515625 63.921875 
L 10.984375 60.40625 
L 10.984375 69.390625 
L 28.421875 72.90625 
L 38.28125 72.90625 
L 38.28125 8.296875 
L 54.390625 8.296875 
L 54.390625 0 
L 12.40625 0 
z
" id="DejaVuSans-49"/>
       </defs>
       <use xlink:href="#DejaVuSans-49"/>
       <use x="63.623047" xlink:href="#DejaVuSans-48"/>
       <use x="127.246094" xlink:href="#DejaVuSans-48"/>
       <use x="190.869141" xlink:href="#DejaVuSans-48"/>
       <use x="254.492188" xlink:href="#DejaVuSans-48"/>
      </g>
     </g>
    </g>
    <g id="xtick_3">
     <g id="line2d_3">
      <path clip-path="url(#p0dbf338027)" d="M 126.839435 170.614424 
L 126.839435 34.122885 
" style="fill:none;stroke:#cccccc;stroke-dasharray:1,1.65;stroke-dashoffset:0;"/>
     </g>
     <g id="text_3">
      <!-- 20000 -->
      <g style="fill:#262626;" transform="translate(114.591622 185.965221)scale(0.077 -0.077)">
       <defs>
        <path d="M 19.1875 8.296875 
L 53.609375 8.296875 
L 53.609375 0 
L 7.328125 0 
L 7.328125 8.296875 
Q 12.9375 14.109375 22.625 23.890625 
Q 32.328125 33.6875 34.8125 36.53125 
Q 39.546875 41.84375 41.421875 45.53125 
Q 43.3125 49.21875 43.3125 52.78125 
Q 43.3125 58.59375 39.234375 62.25 
Q 35.15625 65.921875 28.609375 65.921875 
Q 23.96875 65.921875 18.8125 64.3125 
Q 13.671875 62.703125 7.8125 59.421875 
L 7.8125 69.390625 
Q 13.765625 71.78125 18.9375 73 
Q 24.125 74.21875 28.421875 74.21875 
Q 39.75 74.21875 46.484375 68.546875 
Q 53.21875 62.890625 53.21875 53.421875 
Q 53.21875 48.921875 51.53125 44.890625 
Q 49.859375 40.875 45.40625 35.40625 
Q 44.1875 33.984375 37.640625 27.21875 
Q 31.109375 20.453125 19.1875 8.296875 
z
" id="DejaVuSans-50"/>
       </defs>
       <use xlink:href="#DejaVuSans-50"/>
       <use x="63.623047" xlink:href="#DejaVuSans-48"/>
       <use x="127.246094" xlink:href="#DejaVuSans-48"/>
       <use x="190.869141" xlink:href="#DejaVuSans-48"/>
       <use x="254.492188" xlink:href="#DejaVuSans-48"/>
      </g>
     </g>
    </g>
    <g id="xtick_4">
     <g id="line2d_4">
      <path clip-path="url(#p0dbf338027)" d="M 163.437867 170.614424 
L 163.437867 34.122885 
" style="fill:none;stroke:#cccccc;stroke-dasharray:1,1.65;stroke-dashoffset:0;"/>
     </g>
     <g id="text_4">
      <!-- 30000 -->
      <g style="fill:#262626;" transform="translate(151.190054 185.965221)scale(0.077 -0.077)">
       <defs>
        <path d="M 40.578125 39.3125 
Q 47.65625 37.796875 51.625 33 
Q 55.609375 28.21875 55.609375 21.1875 
Q 55.609375 10.40625 48.1875 4.484375 
Q 40.765625 -1.421875 27.09375 -1.421875 
Q 22.515625 -1.421875 17.65625 -0.515625 
Q 12.796875 0.390625 7.625 2.203125 
L 7.625 11.71875 
Q 11.71875 9.328125 16.59375 8.109375 
Q 21.484375 6.890625 26.8125 6.890625 
Q 36.078125 6.890625 40.9375 10.546875 
Q 45.796875 14.203125 45.796875 21.1875 
Q 45.796875 27.640625 41.28125 31.265625 
Q 36.765625 34.90625 28.71875 34.90625 
L 20.21875 34.90625 
L 20.21875 43.015625 
L 29.109375 43.015625 
Q 36.375 43.015625 40.234375 45.921875 
Q 44.09375 48.828125 44.09375 54.296875 
Q 44.09375 59.90625 40.109375 62.90625 
Q 36.140625 65.921875 28.71875 65.921875 
Q 24.65625 65.921875 20.015625 65.03125 
Q 15.375 64.15625 9.8125 62.3125 
L 9.8125 71.09375 
Q 15.4375 72.65625 20.34375 73.4375 
Q 25.25 74.21875 29.59375 74.21875 
Q 40.828125 74.21875 47.359375 69.109375 
Q 53.90625 64.015625 53.90625 55.328125 
Q 53.90625 49.265625 50.4375 45.09375 
Q 46.96875 40.921875 40.578125 39.3125 
z
" id="DejaVuSans-51"/>
       </defs>
       <use xlink:href="#DejaVuSans-51"/>
       <use x="63.623047" xlink:href="#DejaVuSans-48"/>
       <use x="127.246094" xlink:href="#DejaVuSans-48"/>
       <use x="190.869141" xlink:href="#DejaVuSans-48"/>
       <use x="254.492188" xlink:href="#DejaVuSans-48"/>
      </g>
     </g>
    </g>
    <g id="xtick_5">
     <g id="line2d_5">
      <path clip-path="url(#p0dbf338027)" d="M 200.036299 170.614424 
L 200.036299 34.122885 
" style="fill:none;stroke:#cccccc;stroke-dasharray:1,1.65;stroke-dashoffset:0;"/>
     </g>
     <g id="text_5">
      <!-- 40000 -->
      <g style="fill:#262626;" transform="translate(187.788486 185.965221)scale(0.077 -0.077)">
       <defs>
        <path d="M 37.796875 64.3125 
L 12.890625 25.390625 
L 37.796875 25.390625 
z
M 35.203125 72.90625 
L 47.609375 72.90625 
L 47.609375 25.390625 
L 58.015625 25.390625 
L 58.015625 17.1875 
L 47.609375 17.1875 
L 47.609375 0 
L 37.796875 0 
L 37.796875 17.1875 
L 4.890625 17.1875 
L 4.890625 26.703125 
z
" id="DejaVuSans-52"/>
       </defs>
       <use xlink:href="#DejaVuSans-52"/>
       <use x="63.623047" xlink:href="#DejaVuSans-48"/>
       <use x="127.246094" xlink:href="#DejaVuSans-48"/>
       <use x="190.869141" xlink:href="#DejaVuSans-48"/>
       <use x="254.492188" xlink:href="#DejaVuSans-48"/>
      </g>
     </g>
    </g>
    <g id="text_6">
     <!-- Predicted -->
     <g style="fill:#262626;" transform="translate(109.100719 197.949268)scale(0.084 -0.084)">
      <defs>
       <path d="M 19.671875 64.796875 
L 19.671875 37.40625 
L 32.078125 37.40625 
Q 38.96875 37.40625 42.71875 40.96875 
Q 46.484375 44.53125 46.484375 51.125 
Q 46.484375 57.671875 42.71875 61.234375 
Q 38.96875 64.796875 32.078125 64.796875 
z
M 9.8125 72.90625 
L 32.078125 72.90625 
Q 44.34375 72.90625 50.609375 67.359375 
Q 56.890625 61.8125 56.890625 51.125 
Q 56.890625 40.328125 50.609375 34.8125 
Q 44.34375 29.296875 32.078125 29.296875 
L 19.671875 29.296875 
L 19.671875 0 
L 9.8125 0 
z
" id="DejaVuSans-80"/>
       <path d="M 41.109375 46.296875 
Q 39.59375 47.171875 37.8125 47.578125 
Q 36.03125 48 33.890625 48 
Q 26.265625 48 22.1875 43.046875 
Q 18.109375 38.09375 18.109375 28.8125 
L 18.109375 0 
L 9.078125 0 
L 9.078125 54.6875 
L 18.109375 54.6875 
L 18.109375 46.1875 
Q 20.953125 51.171875 25.484375 53.578125 
Q 30.03125 56 36.53125 56 
Q 37.453125 56 38.578125 55.875 
Q 39.703125 55.765625 41.0625 55.515625 
z
" id="DejaVuSans-114"/>
       <path d="M 56.203125 29.59375 
L 56.203125 25.203125 
L 14.890625 25.203125 
Q 15.484375 15.921875 20.484375 11.0625 
Q 25.484375 6.203125 34.421875 6.203125 
Q 39.59375 6.203125 44.453125 7.46875 
Q 49.3125 8.734375 54.109375 11.28125 
L 54.109375 2.78125 
Q 49.265625 0.734375 44.1875 -0.34375 
Q 39.109375 -1.421875 33.890625 -1.421875 
Q 20.796875 -1.421875 13.15625 6.1875 
Q 5.515625 13.8125 5.515625 26.8125 
Q 5.515625 40.234375 12.765625 48.109375 
Q 20.015625 56 32.328125 56 
Q 43.359375 56 49.78125 48.890625 
Q 56.203125 41.796875 56.203125 29.59375 
z
M 47.21875 32.234375 
Q 47.125 39.59375 43.09375 43.984375 
Q 39.0625 48.390625 32.421875 48.390625 
Q 24.90625 48.390625 20.390625 44.140625 
Q 15.875 39.890625 15.1875 32.171875 
z
" id="DejaVuSans-101"/>
       <path d="M 45.40625 46.390625 
L 45.40625 75.984375 
L 54.390625 75.984375 
L 54.390625 0 
L 45.40625 0 
L 45.40625 8.203125 
Q 42.578125 3.328125 38.25 0.953125 
Q 33.9375 -1.421875 27.875 -1.421875 
Q 17.96875 -1.421875 11.734375 6.484375 
Q 5.515625 14.40625 5.515625 27.296875 
Q 5.515625 40.1875 11.734375 48.09375 
Q 17.96875 56 27.875 56 
Q 33.9375 56 38.25 53.625 
Q 42.578125 51.265625 45.40625 46.390625 
z
M 14.796875 27.296875 
Q 14.796875 17.390625 18.875 11.75 
Q 22.953125 6.109375 30.078125 6.109375 
Q 37.203125 6.109375 41.296875 11.75 
Q 45.40625 17.390625 45.40625 27.296875 
Q 45.40625 37.203125 41.296875 42.84375 
Q 37.203125 48.484375 30.078125 48.484375 
Q 22.953125 48.484375 18.875 42.84375 
Q 14.796875 37.203125 14.796875 27.296875 
z
" id="DejaVuSans-100"/>
       <path d="M 9.421875 54.6875 
L 18.40625 54.6875 
L 18.40625 0 
L 9.421875 0 
z
M 9.421875 75.984375 
L 18.40625 75.984375 
L 18.40625 64.59375 
L 9.421875 64.59375 
z
" id="DejaVuSans-105"/>
       <path d="M 48.78125 52.59375 
L 48.78125 44.1875 
Q 44.96875 46.296875 41.140625 47.34375 
Q 37.3125 48.390625 33.40625 48.390625 
Q 24.65625 48.390625 19.8125 42.84375 
Q 14.984375 37.3125 14.984375 27.296875 
Q 14.984375 17.28125 19.8125 11.734375 
Q 24.65625 6.203125 33.40625 6.203125 
Q 37.3125 6.203125 41.140625 7.25 
Q 44.96875 8.296875 48.78125 10.40625 
L 48.78125 2.09375 
Q 45.015625 0.34375 40.984375 -0.53125 
Q 36.96875 -1.421875 32.421875 -1.421875 
Q 20.0625 -1.421875 12.78125 6.34375 
Q 5.515625 14.109375 5.515625 27.296875 
Q 5.515625 40.671875 12.859375 48.328125 
Q 20.21875 56 33.015625 56 
Q 37.15625 56 41.109375 55.140625 
Q 45.0625 54.296875 48.78125 52.59375 
z
" id="DejaVuSans-99"/>
       <path d="M 18.3125 70.21875 
L 18.3125 54.6875 
L 36.8125 54.6875 
L 36.8125 47.703125 
L 18.3125 47.703125 
L 18.3125 18.015625 
Q 18.3125 11.328125 20.140625 9.421875 
Q 21.96875 7.515625 27.59375 7.515625 
L 36.8125 7.515625 
L 36.8125 0 
L 27.59375 0 
Q 17.1875 0 13.234375 3.875 
Q 9.28125 7.765625 9.28125 18.015625 
L 9.28125 47.703125 
L 2.6875 47.703125 
L 2.6875 54.6875 
L 9.28125 54.6875 
L 9.28125 70.21875 
z
" id="DejaVuSans-116"/>
      </defs>
      <use xlink:href="#DejaVuSans-80"/>
      <use x="58.552734" xlink:href="#DejaVuSans-114"/>
      <use x="97.416016" xlink:href="#DejaVuSans-101"/>
      <use x="158.939453" xlink:href="#DejaVuSans-100"/>
      <use x="222.416016" xlink:href="#DejaVuSans-105"/>
      <use x="250.199219" xlink:href="#DejaVuSans-99"/>
      <use x="305.179688" xlink:href="#DejaVuSans-116"/>
      <use x="344.388672" xlink:href="#DejaVuSans-101"/>
      <use x="405.912109" xlink:href="#DejaVuSans-100"/>
     </g>
    </g>
   </g>
   <g id="matplotlib.axis_2">
    <g id="ytick_1">
     <g id="line2d_6">
      <path clip-path="url(#p0dbf338027)" d="M 46.12525 164.586925 
L 211.506312 164.586925 
" style="fill:none;stroke:#cccccc;stroke-dasharray:1,1.65;stroke-dashoffset:0;"/>
     </g>
     <g id="text_7">
      <!-- 0 -->
      <g style="fill:#262626;" transform="translate(31.726125 167.512324)scale(0.077 -0.077)">
       <use xlink:href="#DejaVuSans-48"/>
      </g>
     </g>
    </g>
    <g id="ytick_2">
     <g id="line2d_7">
      <path clip-path="url(#p0dbf338027)" d="M 46.12525 133.040077 
L 211.506312 133.040077 
" style="fill:none;stroke:#cccccc;stroke-dasharray:1,1.65;stroke-dashoffset:0;"/>
     </g>
     <g id="text_8">
      <!-- 10000 -->
      <g style="fill:#262626;" transform="translate(12.129625 135.965476)scale(0.077 -0.077)">
       <use xlink:href="#DejaVuSans-49"/>
       <use x="63.623047" xlink:href="#DejaVuSans-48"/>
       <use x="127.246094" xlink:href="#DejaVuSans-48"/>
       <use x="190.869141" xlink:href="#DejaVuSans-48"/>
       <use x="254.492188" xlink:href="#DejaVuSans-48"/>
      </g>
     </g>
    </g>
    <g id="ytick_3">
     <g id="line2d_8">
      <path clip-path="url(#p0dbf338027)" d="M 46.12525 101.493229 
L 211.506312 101.493229 
" style="fill:none;stroke:#cccccc;stroke-dasharray:1,1.65;stroke-dashoffset:0;"/>
     </g>
     <g id="text_9">
      <!-- 20000 -->
      <g style="fill:#262626;" transform="translate(12.129625 104.418628)scale(0.077 -0.077)">
       <use xlink:href="#DejaVuSans-50"/>
       <use x="63.623047" xlink:href="#DejaVuSans-48"/>
       <use x="127.246094" xlink:href="#DejaVuSans-48"/>
       <use x="190.869141" xlink:href="#DejaVuSans-48"/>
       <use x="254.492188" xlink:href="#DejaVuSans-48"/>
      </g>
     </g>
    </g>
    <g id="ytick_4">
     <g id="line2d_9">
      <path clip-path="url(#p0dbf338027)" d="M 46.12525 69.946381 
L 211.506312 69.946381 
" style="fill:none;stroke:#cccccc;stroke-dasharray:1,1.65;stroke-dashoffset:0;"/>
     </g>
     <g id="text_10">
      <!-- 30000 -->
      <g style="fill:#262626;" transform="translate(12.129625 72.87178)scale(0.077 -0.077)">
       <use xlink:href="#DejaVuSans-51"/>
       <use x="63.623047" xlink:href="#DejaVuSans-48"/>
       <use x="127.246094" xlink:href="#DejaVuSans-48"/>
       <use x="190.869141" xlink:href="#DejaVuSans-48"/>
       <use x="254.492188" xlink:href="#DejaVuSans-48"/>
      </g>
     </g>
    </g>
    <g id="ytick_5">
     <g id="line2d_10">
      <path clip-path="url(#p0dbf338027)" d="M 46.12525 38.399533 
L 211.506312 38.399533 
" style="fill:none;stroke:#cccccc;stroke-dasharray:1,1.65;stroke-dashoffset:0;"/>
     </g>
     <g id="text_11">
      <!-- 40000 -->
      <g style="fill:#262626;" transform="translate(12.129625 41.324932)scale(0.077 -0.077)">
       <use xlink:href="#DejaVuSans-52"/>
       <use x="63.623047" xlink:href="#DejaVuSans-48"/>
       <use x="127.246094" xlink:href="#DejaVuSans-48"/>
       <use x="190.869141" xlink:href="#DejaVuSans-48"/>
       <use x="254.492188" xlink:href="#DejaVuSans-48"/>
      </g>
     </g>
    </g>
    <g id="text_12">
     <!-- Measured Fluorescent Intensity -->
     <g style="fill:#262626;" transform="translate(6.382687 168.253529)rotate(-90)scale(0.084 -0.084)">
      <defs>
       <path d="M 9.8125 72.90625 
L 24.515625 72.90625 
L 43.109375 23.296875 
L 61.8125 72.90625 
L 76.515625 72.90625 
L 76.515625 0 
L 66.890625 0 
L 66.890625 64.015625 
L 48.09375 14.015625 
L 38.1875 14.015625 
L 19.390625 64.015625 
L 19.390625 0 
L 9.8125 0 
z
" id="DejaVuSans-77"/>
       <path d="M 34.28125 27.484375 
Q 23.390625 27.484375 19.1875 25 
Q 14.984375 22.515625 14.984375 16.5 
Q 14.984375 11.71875 18.140625 8.90625 
Q 21.296875 6.109375 26.703125 6.109375 
Q 34.1875 6.109375 38.703125 11.40625 
Q 43.21875 16.703125 43.21875 25.484375 
L 43.21875 27.484375 
z
M 52.203125 31.203125 
L 52.203125 0 
L 43.21875 0 
L 43.21875 8.296875 
Q 40.140625 3.328125 35.546875 0.953125 
Q 30.953125 -1.421875 24.3125 -1.421875 
Q 15.921875 -1.421875 10.953125 3.296875 
Q 6 8.015625 6 15.921875 
Q 6 25.140625 12.171875 29.828125 
Q 18.359375 34.515625 30.609375 34.515625 
L 43.21875 34.515625 
L 43.21875 35.40625 
Q 43.21875 41.609375 39.140625 45 
Q 35.0625 48.390625 27.6875 48.390625 
Q 23 48.390625 18.546875 47.265625 
Q 14.109375 46.140625 10.015625 43.890625 
L 10.015625 52.203125 
Q 14.9375 54.109375 19.578125 55.046875 
Q 24.21875 56 28.609375 56 
Q 40.484375 56 46.34375 49.84375 
Q 52.203125 43.703125 52.203125 31.203125 
z
" id="DejaVuSans-97"/>
       <path d="M 44.28125 53.078125 
L 44.28125 44.578125 
Q 40.484375 46.53125 36.375 47.5 
Q 32.28125 48.484375 27.875 48.484375 
Q 21.1875 48.484375 17.84375 46.4375 
Q 14.5 44.390625 14.5 40.28125 
Q 14.5 37.15625 16.890625 35.375 
Q 19.28125 33.59375 26.515625 31.984375 
L 29.59375 31.296875 
Q 39.15625 29.25 43.1875 25.515625 
Q 47.21875 21.78125 47.21875 15.09375 
Q 47.21875 7.46875 41.1875 3.015625 
Q 35.15625 -1.421875 24.609375 -1.421875 
Q 20.21875 -1.421875 15.453125 -0.5625 
Q 10.6875 0.296875 5.421875 2 
L 5.421875 11.28125 
Q 10.40625 8.6875 15.234375 7.390625 
Q 20.0625 6.109375 24.8125 6.109375 
Q 31.15625 6.109375 34.5625 8.28125 
Q 37.984375 10.453125 37.984375 14.40625 
Q 37.984375 18.0625 35.515625 20.015625 
Q 33.0625 21.96875 24.703125 23.78125 
L 21.578125 24.515625 
Q 13.234375 26.265625 9.515625 29.90625 
Q 5.8125 33.546875 5.8125 39.890625 
Q 5.8125 47.609375 11.28125 51.796875 
Q 16.75 56 26.8125 56 
Q 31.78125 56 36.171875 55.265625 
Q 40.578125 54.546875 44.28125 53.078125 
z
" id="DejaVuSans-115"/>
       <path d="M 8.5 21.578125 
L 8.5 54.6875 
L 17.484375 54.6875 
L 17.484375 21.921875 
Q 17.484375 14.15625 20.5 10.265625 
Q 23.53125 6.390625 29.59375 6.390625 
Q 36.859375 6.390625 41.078125 11.03125 
Q 45.3125 15.671875 45.3125 23.6875 
L 45.3125 54.6875 
L 54.296875 54.6875 
L 54.296875 0 
L 45.3125 0 
L 45.3125 8.40625 
Q 42.046875 3.421875 37.71875 1 
Q 33.40625 -1.421875 27.6875 -1.421875 
Q 18.265625 -1.421875 13.375 4.4375 
Q 8.5 10.296875 8.5 21.578125 
z
M 31.109375 56 
z
" id="DejaVuSans-117"/>
       <path id="DejaVuSans-32"/>
       <path d="M 9.8125 72.90625 
L 51.703125 72.90625 
L 51.703125 64.59375 
L 19.671875 64.59375 
L 19.671875 43.109375 
L 48.578125 43.109375 
L 48.578125 34.8125 
L 19.671875 34.8125 
L 19.671875 0 
L 9.8125 0 
z
" id="DejaVuSans-70"/>
       <path d="M 9.421875 75.984375 
L 18.40625 75.984375 
L 18.40625 0 
L 9.421875 0 
z
" id="DejaVuSans-108"/>
       <path d="M 30.609375 48.390625 
Q 23.390625 48.390625 19.1875 42.75 
Q 14.984375 37.109375 14.984375 27.296875 
Q 14.984375 17.484375 19.15625 11.84375 
Q 23.34375 6.203125 30.609375 6.203125 
Q 37.796875 6.203125 41.984375 11.859375 
Q 46.1875 17.53125 46.1875 27.296875 
Q 46.1875 37.015625 41.984375 42.703125 
Q 37.796875 48.390625 30.609375 48.390625 
z
M 30.609375 56 
Q 42.328125 56 49.015625 48.375 
Q 55.71875 40.765625 55.71875 27.296875 
Q 55.71875 13.875 49.015625 6.21875 
Q 42.328125 -1.421875 30.609375 -1.421875 
Q 18.84375 -1.421875 12.171875 6.21875 
Q 5.515625 13.875 5.515625 27.296875 
Q 5.515625 40.765625 12.171875 48.375 
Q 18.84375 56 30.609375 56 
z
" id="DejaVuSans-111"/>
       <path d="M 54.890625 33.015625 
L 54.890625 0 
L 45.90625 0 
L 45.90625 32.71875 
Q 45.90625 40.484375 42.875 44.328125 
Q 39.84375 48.1875 33.796875 48.1875 
Q 26.515625 48.1875 22.3125 43.546875 
Q 18.109375 38.921875 18.109375 30.90625 
L 18.109375 0 
L 9.078125 0 
L 9.078125 54.6875 
L 18.109375 54.6875 
L 18.109375 46.1875 
Q 21.34375 51.125 25.703125 53.5625 
Q 30.078125 56 35.796875 56 
Q 45.21875 56 50.046875 50.171875 
Q 54.890625 44.34375 54.890625 33.015625 
z
" id="DejaVuSans-110"/>
       <path d="M 9.8125 72.90625 
L 19.671875 72.90625 
L 19.671875 0 
L 9.8125 0 
z
" id="DejaVuSans-73"/>
       <path d="M 32.171875 -5.078125 
Q 28.375 -14.84375 24.75 -17.8125 
Q 21.140625 -20.796875 15.09375 -20.796875 
L 7.90625 -20.796875 
L 7.90625 -13.28125 
L 13.1875 -13.28125 
Q 16.890625 -13.28125 18.9375 -11.515625 
Q 21 -9.765625 23.484375 -3.21875 
L 25.09375 0.875 
L 2.984375 54.6875 
L 12.5 54.6875 
L 29.59375 11.921875 
L 46.6875 54.6875 
L 56.203125 54.6875 
z
" id="DejaVuSans-121"/>
      </defs>
      <use xlink:href="#DejaVuSans-77"/>
      <use x="86.279297" xlink:href="#DejaVuSans-101"/>
      <use x="147.802734" xlink:href="#DejaVuSans-97"/>
      <use x="209.082031" xlink:href="#DejaVuSans-115"/>
      <use x="261.181641" xlink:href="#DejaVuSans-117"/>
      <use x="324.560547" xlink:href="#DejaVuSans-114"/>
      <use x="363.423828" xlink:href="#DejaVuSans-101"/>
      <use x="424.947266" xlink:href="#DejaVuSans-100"/>
      <use x="488.423828" xlink:href="#DejaVuSans-32"/>
      <use x="520.210938" xlink:href="#DejaVuSans-70"/>
      <use x="577.730469" xlink:href="#DejaVuSans-108"/>
      <use x="605.513672" xlink:href="#DejaVuSans-117"/>
      <use x="668.892578" xlink:href="#DejaVuSans-111"/>
      <use x="730.074219" xlink:href="#DejaVuSans-114"/>
      <use x="768.9375" xlink:href="#DejaVuSans-101"/>
      <use x="830.460938" xlink:href="#DejaVuSans-115"/>
      <use x="882.560547" xlink:href="#DejaVuSans-99"/>
      <use x="937.541016" xlink:href="#DejaVuSans-101"/>
      <use x="999.064453" xlink:href="#DejaVuSans-110"/>
      <use x="1062.443359" xlink:href="#DejaVuSans-116"/>
      <use x="1101.652344" xlink:href="#DejaVuSans-32"/>
      <use x="1133.439453" xlink:href="#DejaVuSans-73"/>
      <use x="1162.931641" xlink:href="#DejaVuSans-110"/>
      <use x="1226.310547" xlink:href="#DejaVuSans-116"/>
      <use x="1265.519531" xlink:href="#DejaVuSans-101"/>
      <use x="1327.042969" xlink:href="#DejaVuSans-110"/>
      <use x="1390.421875" xlink:href="#DejaVuSans-115"/>
      <use x="1442.521484" xlink:href="#DejaVuSans-105"/>
      <use x="1470.304688" xlink:href="#DejaVuSans-116"/>
      <use x="1509.513672" xlink:href="#DejaVuSans-121"/>
     </g>
    </g>
   </g>
   <g id="line2d_11">
    <path clip-path="url(#p0dbf338027)" d="M 53.642571 164.410263 
L 56.71139 158.627726 
L 61.104045 153.195358 
L 68.200742 150.567506 
L 86.3239 132.163075 
L 109.796311 114.288631 
" style="fill:none;stroke:#0173b2;stroke-linecap:round;stroke-width:1.5;"/>
    <defs>
     <path d="M 0 3 
C 0.795609 3 1.55874 2.683901 2.12132 2.12132 
C 2.683901 1.55874 3 0.795609 3 0 
C 3 -0.795609 2.683901 -1.55874 2.12132 -2.12132 
C 1.55874 -2.683901 0.795609 -3 0 -3 
C -0.795609 -3 -1.55874 -2.683901 -2.12132 -2.12132 
C -2.683901 -1.55874 -3 -0.795609 -3 0 
C -3 0.795609 -2.683901 1.55874 -2.12132 2.12132 
C -1.55874 2.683901 -0.795609 3 0 3 
z
" id="mf21d3eaa40" style="stroke:#ffffff;stroke-width:0.75;"/>
    </defs>
    <g clip-path="url(#p0dbf338027)">
     <use style="fill:#0173b2;stroke:#ffffff;stroke-width:0.75;" x="53.642571" xlink:href="#mf21d3eaa40" y="164.410263"/>
     <use style="fill:#0173b2;stroke:#ffffff;stroke-width:0.75;" x="56.71139" xlink:href="#mf21d3eaa40" y="158.627726"/>
     <use style="fill:#0173b2;stroke:#ffffff;stroke-width:0.75;" x="61.104045" xlink:href="#mf21d3eaa40" y="153.195358"/>
     <use style="fill:#0173b2;stroke:#ffffff;stroke-width:0.75;" x="68.200742" xlink:href="#mf21d3eaa40" y="150.567506"/>
     <use style="fill:#0173b2;stroke:#ffffff;stroke-width:0.75;" x="86.3239" xlink:href="#mf21d3eaa40" y="132.163075"/>
     <use style="fill:#0173b2;stroke:#ffffff;stroke-width:0.75;" x="109.796311" xlink:href="#mf21d3eaa40" y="114.288631"/>
    </g>
   </g>
   <g id="line2d_12">
    <path clip-path="url(#p0dbf338027)" d="M 53.642571 164.410263 
L 68.920519 148.990164 
L 84.832294 137.595442 
L 104.080981 123.39936 
L 138.751895 92.379345 
L 173.656023 74.678408 
" style="fill:none;stroke:#0173b2;stroke-dasharray:6,2.25;stroke-dashoffset:0;stroke-width:1.5;"/>
    <defs>
     <path d="M -1.5 3 
L 0 1.5 
L 1.5 3 
L 3 1.5 
L 1.5 0 
L 3 -1.5 
L 1.5 -3 
L 0 -1.5 
L -1.5 -3 
L -3 -1.5 
L -1.5 0 
L -3 1.5 
z
" id="mab75f3b1e4" style="stroke:#ffffff;stroke-linejoin:miter;stroke-width:0.75;"/>
    </defs>
    <g clip-path="url(#p0dbf338027)">
     <use style="fill:#0173b2;stroke:#ffffff;stroke-linejoin:miter;stroke-width:0.75;" x="53.642571" xlink:href="#mab75f3b1e4" y="164.410263"/>
     <use style="fill:#0173b2;stroke:#ffffff;stroke-linejoin:miter;stroke-width:0.75;" x="68.920519" xlink:href="#mab75f3b1e4" y="148.990164"/>
     <use style="fill:#0173b2;stroke:#ffffff;stroke-linejoin:miter;stroke-width:0.75;" x="84.832294" xlink:href="#mab75f3b1e4" y="137.595442"/>
     <use style="fill:#0173b2;stroke:#ffffff;stroke-linejoin:miter;stroke-width:0.75;" x="104.080981" xlink:href="#mab75f3b1e4" y="123.39936"/>
     <use style="fill:#0173b2;stroke:#ffffff;stroke-linejoin:miter;stroke-width:0.75;" x="138.751895" xlink:href="#mab75f3b1e4" y="92.379345"/>
     <use style="fill:#0173b2;stroke:#ffffff;stroke-linejoin:miter;stroke-width:0.75;" x="173.656023" xlink:href="#mab75f3b1e4" y="74.678408"/>
    </g>
   </g>
   <g id="line2d_13">
    <path clip-path="url(#p0dbf338027)" d="M 53.642571 164.410263 
L 63.310985 157.050383 
L 82.714118 138.649107 
L 111.556401 103.070572 
L 137.084152 78.359926 
L 161.032304 52.595615 
" style="fill:none;stroke:#0173b2;stroke-dasharray:1.5,1.5;stroke-dashoffset:0;stroke-width:1.5;"/>
    <defs>
     <path d="M -2.12132 -2.12132 
L -2.12132 2.12132 
L 2.12132 2.12132 
L 2.12132 -2.12132 
z
" id="m597114db25" style="stroke:#ffffff;stroke-linejoin:miter;stroke-width:0.75;"/>
    </defs>
    <g clip-path="url(#p0dbf338027)">
     <use style="fill:#0173b2;stroke:#ffffff;stroke-linejoin:miter;stroke-width:0.75;" x="53.642571" xlink:href="#m597114db25" y="164.410263"/>
     <use style="fill:#0173b2;stroke:#ffffff;stroke-linejoin:miter;stroke-width:0.75;" x="63.310985" xlink:href="#m597114db25" y="157.050383"/>
     <use style="fill:#0173b2;stroke:#ffffff;stroke-linejoin:miter;stroke-width:0.75;" x="82.714118" xlink:href="#m597114db25" y="138.649107"/>
     <use style="fill:#0173b2;stroke:#ffffff;stroke-linejoin:miter;stroke-width:0.75;" x="111.556401" xlink:href="#m597114db25" y="103.070572"/>
     <use style="fill:#0173b2;stroke:#ffffff;stroke-linejoin:miter;stroke-width:0.75;" x="137.084152" xlink:href="#m597114db25" y="78.359926"/>
     <use style="fill:#0173b2;stroke:#ffffff;stroke-linejoin:miter;stroke-width:0.75;" x="161.032304" xlink:href="#m597114db25" y="52.595615"/>
    </g>
   </g>
   <g id="line2d_14">
    <path clip-path="url(#p0dbf338027)" d="M 53.642571 164.410263 
L 112.699151 140.750127 
L 129.15456 118.493826 
L 158.56928 66.968359 
L 182.241499 49.09076 
L 203.988991 40.327046 
" style="fill:none;stroke:#0173b2;stroke-dasharray:4.5,1.875,2.25,1.875;stroke-dashoffset:0;stroke-width:1.5;"/>
    <defs>
     <path d="M -1 3 
L 1 3 
L 1 1 
L 3 1 
L 3 -1 
L 1 -1 
L 1 -3 
L -1 -3 
L -1 -1 
L -3 -1 
L -3 1 
L -1 1 
z
" id="m1252516822" style="stroke:#ffffff;stroke-linejoin:miter;stroke-width:0.75;"/>
    </defs>
    <g clip-path="url(#p0dbf338027)">
     <use style="fill:#0173b2;stroke:#ffffff;stroke-linejoin:miter;stroke-width:0.75;" x="53.642571" xlink:href="#m1252516822" y="164.410263"/>
     <use style="fill:#0173b2;stroke:#ffffff;stroke-linejoin:miter;stroke-width:0.75;" x="112.699151" xlink:href="#m1252516822" y="140.750127"/>
     <use style="fill:#0173b2;stroke:#ffffff;stroke-linejoin:miter;stroke-width:0.75;" x="129.15456" xlink:href="#m1252516822" y="118.493826"/>
     <use style="fill:#0173b2;stroke:#ffffff;stroke-linejoin:miter;stroke-width:0.75;" x="158.56928" xlink:href="#m1252516822" y="66.968359"/>
     <use style="fill:#0173b2;stroke:#ffffff;stroke-linejoin:miter;stroke-width:0.75;" x="182.241499" xlink:href="#m1252516822" y="49.09076"/>
     <use style="fill:#0173b2;stroke:#ffffff;stroke-linejoin:miter;stroke-width:0.75;" x="203.988991" xlink:href="#m1252516822" y="40.327046"/>
    </g>
   </g>
   <g id="line2d_15">
    <path clip-path="url(#p0dbf338027)" d="M 53.642571 164.400799 
L 54.262937 164.400799 
L 55.185332 164.031701 
L 56.731552 163.659448 
L 61.186244 162.918097 
L 68.065045 160.877016 
" style="fill:none;stroke:#de8f05;stroke-linecap:round;stroke-width:1.5;"/>
    <defs>
     <path d="M 0 3 
C 0.795609 3 1.55874 2.683901 2.12132 2.12132 
C 2.683901 1.55874 3 0.795609 3 0 
C 3 -0.795609 2.683901 -1.55874 2.12132 -2.12132 
C 1.55874 -2.683901 0.795609 -3 0 -3 
C -0.795609 -3 -1.55874 -2.683901 -2.12132 -2.12132 
C -2.683901 -1.55874 -3 -0.795609 -3 0 
C -3 0.795609 -2.683901 1.55874 -2.12132 2.12132 
C -1.55874 2.683901 -0.795609 3 0 3 
z
" id="mab15c35855" style="stroke:#ffffff;stroke-width:0.75;"/>
    </defs>
    <g clip-path="url(#p0dbf338027)">
     <use style="fill:#de8f05;stroke:#ffffff;stroke-width:0.75;" x="53.642571" xlink:href="#mab15c35855" y="164.400799"/>
     <use style="fill:#de8f05;stroke:#ffffff;stroke-width:0.75;" x="54.262937" xlink:href="#mab15c35855" y="164.400799"/>
     <use style="fill:#de8f05;stroke:#ffffff;stroke-width:0.75;" x="55.185332" xlink:href="#mab15c35855" y="164.031701"/>
     <use style="fill:#de8f05;stroke:#ffffff;stroke-width:0.75;" x="56.731552" xlink:href="#mab15c35855" y="163.659448"/>
     <use style="fill:#de8f05;stroke:#ffffff;stroke-width:0.75;" x="61.186244" xlink:href="#mab15c35855" y="162.918097"/>
     <use style="fill:#de8f05;stroke:#ffffff;stroke-width:0.75;" x="68.065045" xlink:href="#mab15c35855" y="160.877016"/>
    </g>
   </g>
   <g id="line2d_16">
    <path clip-path="url(#p0dbf338027)" d="M 53.642571 164.400799 
L 55.862436 162.173591 
L 59.008782 161.43224 
L 63.932808 157.905303 
L 76.251375 148.813501 
L 92.104901 140.463051 
" style="fill:none;stroke:#de8f05;stroke-dasharray:6,2.25;stroke-dashoffset:0;stroke-width:1.5;"/>
    <defs>
     <path d="M -1.5 3 
L 0 1.5 
L 1.5 3 
L 3 1.5 
L 1.5 0 
L 3 -1.5 
L 1.5 -3 
L 0 -1.5 
L -1.5 -3 
L -3 -1.5 
L -1.5 0 
L -3 1.5 
z
" id="mfa9da9e7ea" style="stroke:#ffffff;stroke-linejoin:miter;stroke-width:0.75;"/>
    </defs>
    <g clip-path="url(#p0dbf338027)">
     <use style="fill:#de8f05;stroke:#ffffff;stroke-linejoin:miter;stroke-width:0.75;" x="53.642571" xlink:href="#mfa9da9e7ea" y="164.400799"/>
     <use style="fill:#de8f05;stroke:#ffffff;stroke-linejoin:miter;stroke-width:0.75;" x="55.862436" xlink:href="#mfa9da9e7ea" y="162.173591"/>
     <use style="fill:#de8f05;stroke:#ffffff;stroke-linejoin:miter;stroke-width:0.75;" x="59.008782" xlink:href="#mfa9da9e7ea" y="161.43224"/>
     <use style="fill:#de8f05;stroke:#ffffff;stroke-linejoin:miter;stroke-width:0.75;" x="63.932808" xlink:href="#mfa9da9e7ea" y="157.905303"/>
     <use style="fill:#de8f05;stroke:#ffffff;stroke-linejoin:miter;stroke-width:0.75;" x="76.251375" xlink:href="#mfa9da9e7ea" y="148.813501"/>
     <use style="fill:#de8f05;stroke:#ffffff;stroke-linejoin:miter;stroke-width:0.75;" x="92.104901" xlink:href="#mfa9da9e7ea" y="140.463051"/>
    </g>
   </g>
   <g id="line2d_17">
    <path clip-path="url(#p0dbf338027)" d="M 53.642571 164.400799 
L 55.047243 162.731971 
L 57.000729 160.504763 
L 64.900576 146.214041 
L 75.59209 134.525934 
L 88.311822 120.976563 
" style="fill:none;stroke:#de8f05;stroke-dasharray:1.5,1.5;stroke-dashoffset:0;stroke-width:1.5;"/>
    <defs>
     <path d="M -2.12132 -2.12132 
L -2.12132 2.12132 
L 2.12132 2.12132 
L 2.12132 -2.12132 
z
" id="m52b05926f1" style="stroke:#ffffff;stroke-linejoin:miter;stroke-width:0.75;"/>
    </defs>
    <g clip-path="url(#p0dbf338027)">
     <use style="fill:#de8f05;stroke:#ffffff;stroke-linejoin:miter;stroke-width:0.75;" x="53.642571" xlink:href="#m52b05926f1" y="164.400799"/>
     <use style="fill:#de8f05;stroke:#ffffff;stroke-linejoin:miter;stroke-width:0.75;" x="55.047243" xlink:href="#m52b05926f1" y="162.731971"/>
     <use style="fill:#de8f05;stroke:#ffffff;stroke-linejoin:miter;stroke-width:0.75;" x="57.000729" xlink:href="#m52b05926f1" y="160.504763"/>
     <use style="fill:#de8f05;stroke:#ffffff;stroke-linejoin:miter;stroke-width:0.75;" x="64.900576" xlink:href="#m52b05926f1" y="146.214041"/>
     <use style="fill:#de8f05;stroke:#ffffff;stroke-linejoin:miter;stroke-width:0.75;" x="75.59209" xlink:href="#m52b05926f1" y="134.525934"/>
     <use style="fill:#de8f05;stroke:#ffffff;stroke-linejoin:miter;stroke-width:0.75;" x="88.311822" xlink:href="#m52b05926f1" y="120.976563"/>
    </g>
   </g>
   <g id="line2d_18">
    <path clip-path="url(#p0dbf338027)" d="M 53.642571 164.400799 
L 65.864719 159.763412 
L 74.605622 153.454043 
L 93.336647 131.740347 
L 109.142074 117.821878 
L 124.395812 101.679356 
" style="fill:none;stroke:#de8f05;stroke-dasharray:4.5,1.875,2.25,1.875;stroke-dashoffset:0;stroke-width:1.5;"/>
    <defs>
     <path d="M -1 3 
L 1 3 
L 1 1 
L 3 1 
L 3 -1 
L 1 -1 
L 1 -3 
L -1 -3 
L -1 -1 
L -3 -1 
L -3 1 
L -1 1 
z
" id="m3c3972bf09" style="stroke:#ffffff;stroke-linejoin:miter;stroke-width:0.75;"/>
    </defs>
    <g clip-path="url(#p0dbf338027)">
     <use style="fill:#de8f05;stroke:#ffffff;stroke-linejoin:miter;stroke-width:0.75;" x="53.642571" xlink:href="#m3c3972bf09" y="164.400799"/>
     <use style="fill:#de8f05;stroke:#ffffff;stroke-linejoin:miter;stroke-width:0.75;" x="65.864719" xlink:href="#m3c3972bf09" y="159.763412"/>
     <use style="fill:#de8f05;stroke:#ffffff;stroke-linejoin:miter;stroke-width:0.75;" x="74.605622" xlink:href="#m3c3972bf09" y="153.454043"/>
     <use style="fill:#de8f05;stroke:#ffffff;stroke-linejoin:miter;stroke-width:0.75;" x="93.336647" xlink:href="#m3c3972bf09" y="131.740347"/>
     <use style="fill:#de8f05;stroke:#ffffff;stroke-linejoin:miter;stroke-width:0.75;" x="109.142074" xlink:href="#m3c3972bf09" y="117.821878"/>
     <use style="fill:#de8f05;stroke:#ffffff;stroke-linejoin:miter;stroke-width:0.75;" x="124.395812" xlink:href="#m3c3972bf09" y="101.679356"/>
    </g>
   </g>
   <g id="line2d_19"/>
   <g id="line2d_20"/>
   <g id="line2d_21"/>
   <g id="line2d_22"/>
   <g id="line2d_23"/>
   <g id="line2d_24"/>
   <g id="patch_3">
    <path d="M 46.12525 170.614424 
L 46.12525 34.122885 
" style="fill:none;stroke:#cccccc;stroke-linecap:square;stroke-linejoin:miter;stroke-width:0.6;"/>
   </g>
   <g id="patch_4">
    <path d="M 211.506312 170.614424 
L 211.506312 34.122885 
" style="fill:none;stroke:#cccccc;stroke-linecap:square;stroke-linejoin:miter;stroke-width:0.6;"/>
   </g>
   <g id="patch_5">
    <path d="M 46.12525 170.614424 
L 211.506312 170.614424 
" style="fill:none;stroke:#cccccc;stroke-linecap:square;stroke-linejoin:miter;stroke-width:0.6;"/>
   </g>
   <g id="patch_6">
    <path d="M 46.12525 34.122885 
L 211.506312 34.122885 
" style="fill:none;stroke:#cccccc;stroke-linecap:square;stroke-linejoin:miter;stroke-width:0.6;"/>
   </g>
   <g id="text_13">
    <!-- a -->
    <g style="fill:#262626;" transform="translate(13.049038 12.1575)scale(0.16 -0.16)">
     <defs>
      <path d="M 32.90625 24.609375 
Q 27.4375 24.609375 24.671875 22.75 
Q 21.921875 20.90625 21.921875 17.28125 
Q 21.921875 13.96875 24.140625 12.078125 
Q 26.375 10.203125 30.328125 10.203125 
Q 35.25 10.203125 38.625 13.734375 
Q 42 17.28125 42 22.609375 
L 42 24.609375 
z
M 59.625 31.203125 
L 59.625 0 
L 42 0 
L 42 8.109375 
Q 38.484375 3.125 34.078125 0.84375 
Q 29.6875 -1.421875 23.390625 -1.421875 
Q 14.890625 -1.421875 9.59375 3.53125 
Q 4.296875 8.5 4.296875 16.40625 
Q 4.296875 26.03125 10.90625 30.515625 
Q 17.53125 35.015625 31.6875 35.015625 
L 42 35.015625 
L 42 36.375 
Q 42 40.53125 38.71875 42.453125 
Q 35.453125 44.390625 28.515625 44.390625 
Q 22.90625 44.390625 18.0625 43.265625 
Q 13.234375 42.140625 9.078125 39.890625 
L 9.078125 53.21875 
Q 14.703125 54.59375 20.359375 55.296875 
Q 26.03125 56 31.6875 56 
Q 46.484375 56 53.046875 50.171875 
Q 59.625 44.34375 59.625 31.203125 
z
" id="DejaVuSans-Bold-97"/>
     </defs>
     <use xlink:href="#DejaVuSans-Bold-97"/>
    </g>
   </g>
   <g id="legend_1">
    <g id="patch_7">
     <path d="M 164.217375 166.764424 
L 206.116312 166.764424 
Q 207.656312 166.764424 207.656312 165.224424 
L 207.656312 74.222236 
Q 207.656312 72.682236 206.116312 72.682236 
L 164.217375 72.682236 
Q 162.677375 72.682236 162.677375 74.222236 
L 162.677375 165.224424 
Q 162.677375 166.764424 164.217375 166.764424 
z
" style="fill:#ffffff;opacity:0.8;stroke:#cccccc;stroke-linejoin:miter;"/>
    </g>
    <g id="text_14">
     <!-- Clone -->
     <g style="fill:#262626;" transform="translate(171.917375 82.144924)scale(0.084 -0.084)">
      <defs>
       <path d="M 64.40625 67.28125 
L 64.40625 56.890625 
Q 59.421875 61.53125 53.78125 63.8125 
Q 48.140625 66.109375 41.796875 66.109375 
Q 29.296875 66.109375 22.65625 58.46875 
Q 16.015625 50.828125 16.015625 36.375 
Q 16.015625 21.96875 22.65625 14.328125 
Q 29.296875 6.6875 41.796875 6.6875 
Q 48.140625 6.6875 53.78125 8.984375 
Q 59.421875 11.28125 64.40625 15.921875 
L 64.40625 5.609375 
Q 59.234375 2.09375 53.4375 0.328125 
Q 47.65625 -1.421875 41.21875 -1.421875 
Q 24.65625 -1.421875 15.125 8.703125 
Q 5.609375 18.84375 5.609375 36.375 
Q 5.609375 53.953125 15.125 64.078125 
Q 24.65625 74.21875 41.21875 74.21875 
Q 47.75 74.21875 53.53125 72.484375 
Q 59.328125 70.75 64.40625 67.28125 
z
" id="DejaVuSans-67"/>
      </defs>
      <use xlink:href="#DejaVuSans-67"/>
      <use x="69.824219" xlink:href="#DejaVuSans-108"/>
      <use x="97.607422" xlink:href="#DejaVuSans-111"/>
      <use x="158.789062" xlink:href="#DejaVuSans-110"/>
      <use x="222.167969" xlink:href="#DejaVuSans-101"/>
     </g>
    </g>
    <g id="line2d_25">
     <path d="M 165.757375 90.897658 
L 181.157375 90.897658 
" style="fill:none;stroke:#0173b2;stroke-linecap:round;stroke-width:1.5;"/>
    </g>
    <g id="line2d_26"/>
    <g id="text_15">
     <!-- C5 -->
     <g style="fill:#262626;" transform="translate(187.317375 93.592658)scale(0.077 -0.077)">
      <defs>
       <path d="M 10.796875 72.90625 
L 49.515625 72.90625 
L 49.515625 64.59375 
L 19.828125 64.59375 
L 19.828125 46.734375 
Q 21.96875 47.46875 24.109375 47.828125 
Q 26.265625 48.1875 28.421875 48.1875 
Q 40.625 48.1875 47.75 41.5 
Q 54.890625 34.8125 54.890625 23.390625 
Q 54.890625 11.625 47.5625 5.09375 
Q 40.234375 -1.421875 26.90625 -1.421875 
Q 22.3125 -1.421875 17.546875 -0.640625 
Q 12.796875 0.140625 7.71875 1.703125 
L 7.71875 11.625 
Q 12.109375 9.234375 16.796875 8.0625 
Q 21.484375 6.890625 26.703125 6.890625 
Q 35.15625 6.890625 40.078125 11.328125 
Q 45.015625 15.765625 45.015625 23.390625 
Q 45.015625 31 40.078125 35.4375 
Q 35.15625 39.890625 26.703125 39.890625 
Q 22.75 39.890625 18.8125 39.015625 
Q 14.890625 38.140625 10.796875 36.28125 
z
" id="DejaVuSans-53"/>
      </defs>
      <use xlink:href="#DejaVuSans-67"/>
      <use x="69.824219" xlink:href="#DejaVuSans-53"/>
     </g>
    </g>
    <g id="line2d_27">
     <path d="M 165.757375 102.199814 
L 181.157375 102.199814 
" style="fill:none;stroke:#de8f05;stroke-linecap:round;stroke-width:1.5;"/>
    </g>
    <g id="line2d_28"/>
    <g id="text_16">
     <!-- B22 -->
     <g style="fill:#262626;" transform="translate(187.317375 104.894814)scale(0.077 -0.077)">
      <defs>
       <path d="M 19.671875 34.8125 
L 19.671875 8.109375 
L 35.5 8.109375 
Q 43.453125 8.109375 47.28125 11.40625 
Q 51.125 14.703125 51.125 21.484375 
Q 51.125 28.328125 47.28125 31.5625 
Q 43.453125 34.8125 35.5 34.8125 
z
M 19.671875 64.796875 
L 19.671875 42.828125 
L 34.28125 42.828125 
Q 41.5 42.828125 45.03125 45.53125 
Q 48.578125 48.25 48.578125 53.8125 
Q 48.578125 59.328125 45.03125 62.0625 
Q 41.5 64.796875 34.28125 64.796875 
z
M 9.8125 72.90625 
L 35.015625 72.90625 
Q 46.296875 72.90625 52.390625 68.21875 
Q 58.5 63.53125 58.5 54.890625 
Q 58.5 48.1875 55.375 44.234375 
Q 52.25 40.28125 46.1875 39.3125 
Q 53.46875 37.75 57.5 32.78125 
Q 61.53125 27.828125 61.53125 20.40625 
Q 61.53125 10.640625 54.890625 5.3125 
Q 48.25 0 35.984375 0 
L 9.8125 0 
z
" id="DejaVuSans-66"/>
      </defs>
      <use xlink:href="#DejaVuSans-66"/>
      <use x="68.603516" xlink:href="#DejaVuSans-50"/>
      <use x="132.226562" xlink:href="#DejaVuSans-50"/>
     </g>
    </g>
    <g id="text_17">
     <!-- Valency -->
     <g style="fill:#262626;" transform="translate(171.917375 116.728861)scale(0.084 -0.084)">
      <defs>
       <path d="M 28.609375 0 
L 0.78125 72.90625 
L 11.078125 72.90625 
L 34.1875 11.53125 
L 57.328125 72.90625 
L 67.578125 72.90625 
L 39.796875 0 
z
" id="DejaVuSans-86"/>
      </defs>
      <use xlink:href="#DejaVuSans-86"/>
      <use x="60.658203" xlink:href="#DejaVuSans-97"/>
      <use x="121.9375" xlink:href="#DejaVuSans-108"/>
      <use x="149.720703" xlink:href="#DejaVuSans-101"/>
      <use x="211.244141" xlink:href="#DejaVuSans-110"/>
      <use x="274.623047" xlink:href="#DejaVuSans-99"/>
      <use x="329.603516" xlink:href="#DejaVuSans-121"/>
     </g>
    </g>
    <g id="line2d_29">
     <path d="M 165.757375 125.481596 
L 181.157375 125.481596 
" style="fill:none;stroke:#333333;stroke-linecap:round;stroke-width:1.5;"/>
    </g>
    <g id="line2d_30">
     <defs>
      <path d="M 0 3 
C 0.795609 3 1.55874 2.683901 2.12132 2.12132 
C 2.683901 1.55874 3 0.795609 3 0 
C 3 -0.795609 2.683901 -1.55874 2.12132 -2.12132 
C 1.55874 -2.683901 0.795609 -3 0 -3 
C -0.795609 -3 -1.55874 -2.683901 -2.12132 -2.12132 
C -2.683901 -1.55874 -3 -0.795609 -3 0 
C -3 0.795609 -2.683901 1.55874 -2.12132 2.12132 
C -1.55874 2.683901 -0.795609 3 0 3 
z
" id="m66700c2eb2" style="stroke:#333333;"/>
     </defs>
     <g>
      <use style="fill:#333333;stroke:#333333;" x="173.457375" xlink:href="#m66700c2eb2" y="125.481596"/>
     </g>
    </g>
    <g id="text_18">
     <!-- 1 -->
     <g style="fill:#262626;" transform="translate(187.317375 128.176596)scale(0.077 -0.077)">
      <use xlink:href="#DejaVuSans-49"/>
     </g>
    </g>
    <g id="line2d_31">
     <path d="M 165.757375 136.783752 
L 181.157375 136.783752 
" style="fill:none;stroke:#333333;stroke-dasharray:6,2.25;stroke-dashoffset:0;stroke-width:1.5;"/>
    </g>
    <g id="line2d_32">
     <defs>
      <path d="M -1.5 3 
L 0 1.5 
L 1.5 3 
L 3 1.5 
L 1.5 0 
L 3 -1.5 
L 1.5 -3 
L 0 -1.5 
L -1.5 -3 
L -3 -1.5 
L -1.5 0 
L -3 1.5 
z
" id="m610d4577b7" style="stroke:#333333;stroke-linejoin:miter;"/>
     </defs>
     <g>
      <use style="fill:#333333;stroke:#333333;stroke-linejoin:miter;" x="173.457375" xlink:href="#m610d4577b7" y="136.783752"/>
     </g>
    </g>
    <g id="text_19">
     <!-- 2 -->
     <g style="fill:#262626;" transform="translate(187.317375 139.478752)scale(0.077 -0.077)">
      <use xlink:href="#DejaVuSans-50"/>
     </g>
    </g>
    <g id="line2d_33">
     <path d="M 165.757375 148.085908 
L 181.157375 148.085908 
" style="fill:none;stroke:#333333;stroke-dasharray:1.5,1.5;stroke-dashoffset:0;stroke-width:1.5;"/>
    </g>
    <g id="line2d_34">
     <defs>
      <path d="M -2.12132 -2.12132 
L -2.12132 2.12132 
L 2.12132 2.12132 
L 2.12132 -2.12132 
z
" id="md0f4e9de65" style="stroke:#333333;stroke-linejoin:miter;"/>
     </defs>
     <g>
      <use style="fill:#333333;stroke:#333333;stroke-linejoin:miter;" x="173.457375" xlink:href="#md0f4e9de65" y="148.085908"/>
     </g>
    </g>
    <g id="text_20">
     <!-- 4 -->
     <g style="fill:#262626;" transform="translate(187.317375 150.780908)scale(0.077 -0.077)">
      <use xlink:href="#DejaVuSans-52"/>
     </g>
    </g>
    <g id="line2d_35">
     <path d="M 165.757375 159.388064 
L 181.157375 159.388064 
" style="fill:none;stroke:#333333;stroke-dasharray:4.5,1.875,2.25,1.875;stroke-dashoffset:0;stroke-width:1.5;"/>
    </g>
    <g id="line2d_36">
     <defs>
      <path d="M -1 3 
L 1 3 
L 1 1 
L 3 1 
L 3 -1 
L 1 -1 
L 1 -3 
L -1 -3 
L -1 -1 
L -3 -1 
L -3 1 
L -1 1 
z
" id="m692becbb6e" style="stroke:#333333;stroke-linejoin:miter;"/>
     </defs>
     <g>
      <use style="fill:#333333;stroke:#333333;stroke-linejoin:miter;" x="173.457375" xlink:href="#m692becbb6e" y="159.388064"/>
     </g>
    </g>
    <g id="text_21">
     <!-- 8 -->
     <g style="fill:#262626;" transform="translate(187.317375 162.083064)scale(0.077 -0.077)">
      <defs>
       <path d="M 31.78125 34.625 
Q 24.75 34.625 20.71875 30.859375 
Q 16.703125 27.09375 16.703125 20.515625 
Q 16.703125 13.921875 20.71875 10.15625 
Q 24.75 6.390625 31.78125 6.390625 
Q 38.8125 6.390625 42.859375 10.171875 
Q 46.921875 13.96875 46.921875 20.515625 
Q 46.921875 27.09375 42.890625 30.859375 
Q 38.875 34.625 31.78125 34.625 
z
M 21.921875 38.8125 
Q 15.578125 40.375 12.03125 44.71875 
Q 8.5 49.078125 8.5 55.328125 
Q 8.5 64.0625 14.71875 69.140625 
Q 20.953125 74.21875 31.78125 74.21875 
Q 42.671875 74.21875 48.875 69.140625 
Q 55.078125 64.0625 55.078125 55.328125 
Q 55.078125 49.078125 51.53125 44.71875 
Q 48 40.375 41.703125 38.8125 
Q 48.828125 37.15625 52.796875 32.3125 
Q 56.78125 27.484375 56.78125 20.515625 
Q 56.78125 9.90625 50.3125 4.234375 
Q 43.84375 -1.421875 31.78125 -1.421875 
Q 19.734375 -1.421875 13.25 4.234375 
Q 6.78125 9.90625 6.78125 20.515625 
Q 6.78125 27.484375 10.78125 32.3125 
Q 14.796875 37.15625 21.921875 38.8125 
z
M 18.3125 54.390625 
Q 18.3125 48.734375 21.84375 45.5625 
Q 25.390625 42.390625 31.78125 42.390625 
Q 38.140625 42.390625 41.71875 45.5625 
Q 45.3125 48.734375 45.3125 54.390625 
Q 45.3125 60.0625 41.71875 63.234375 
Q 38.140625 66.40625 31.78125 66.40625 
Q 25.390625 66.40625 21.84375 63.234375 
Q 18.3125 60.0625 18.3125 54.390625 
z
" id="DejaVuSans-56"/>
      </defs>
      <use xlink:href="#DejaVuSans-56"/>
     </g>
    </g>
   </g>
  </g>
  <g id="axes_2">
   <g id="patch_8">
    <path d="M 257.813916 170.614424 
L 423.194978 170.614424 
L 423.194978 34.122885 
L 257.813916 34.122885 
z
" style="fill:#ffffff;"/>
   </g>
   <g id="matplotlib.axis_3">
    <g id="xtick_6">
     <g id="line2d_37">
      <path clip-path="url(#p4454be6414)" d="M 257.813916 170.614424 
L 257.813916 34.122885 
" style="fill:none;stroke:#cccccc;stroke-dasharray:1,1.65;stroke-dashoffset:0;"/>
     </g>
     <g id="text_22">
      <!-- $\mathdefault{10^{4}}$ -->
      <g style="fill:#262626;" transform="translate(251.037916 185.965221)scale(0.077 -0.077)">
       <use transform="translate(0 0.684375)" xlink:href="#DejaVuSans-49"/>
       <use transform="translate(63.623047 0.684375)" xlink:href="#DejaVuSans-48"/>
       <use transform="translate(128.203125 38.965625)scale(0.7)" xlink:href="#DejaVuSans-52"/>
      </g>
     </g>
    </g>
    <g id="xtick_7">
     <g id="line2d_38">
      <path clip-path="url(#p4454be6414)" d="M 312.940936 170.614424 
L 312.940936 34.122885 
" style="fill:none;stroke:#cccccc;stroke-dasharray:1,1.65;stroke-dashoffset:0;"/>
     </g>
     <g id="text_23">
      <!-- $\mathdefault{10^{5}}$ -->
      <g style="fill:#262626;" transform="translate(306.164936 185.965221)scale(0.077 -0.077)">
       <use transform="translate(0 0.684375)" xlink:href="#DejaVuSans-49"/>
       <use transform="translate(63.623047 0.684375)" xlink:href="#DejaVuSans-48"/>
       <use transform="translate(128.203125 38.965625)scale(0.7)" xlink:href="#DejaVuSans-53"/>
      </g>
     </g>
    </g>
    <g id="xtick_8">
     <g id="line2d_39">
      <path clip-path="url(#p4454be6414)" d="M 368.067957 170.614424 
L 368.067957 34.122885 
" style="fill:none;stroke:#cccccc;stroke-dasharray:1,1.65;stroke-dashoffset:0;"/>
     </g>
     <g id="text_24">
      <!-- $\mathdefault{10^{6}}$ -->
      <g style="fill:#262626;" transform="translate(361.291957 185.965221)scale(0.077 -0.077)">
       <defs>
        <path d="M 33.015625 40.375 
Q 26.375 40.375 22.484375 35.828125 
Q 18.609375 31.296875 18.609375 23.390625 
Q 18.609375 15.53125 22.484375 10.953125 
Q 26.375 6.390625 33.015625 6.390625 
Q 39.65625 6.390625 43.53125 10.953125 
Q 47.40625 15.53125 47.40625 23.390625 
Q 47.40625 31.296875 43.53125 35.828125 
Q 39.65625 40.375 33.015625 40.375 
z
M 52.59375 71.296875 
L 52.59375 62.3125 
Q 48.875 64.0625 45.09375 64.984375 
Q 41.3125 65.921875 37.59375 65.921875 
Q 27.828125 65.921875 22.671875 59.328125 
Q 17.53125 52.734375 16.796875 39.40625 
Q 19.671875 43.65625 24.015625 45.921875 
Q 28.375 48.1875 33.59375 48.1875 
Q 44.578125 48.1875 50.953125 41.515625 
Q 57.328125 34.859375 57.328125 23.390625 
Q 57.328125 12.15625 50.6875 5.359375 
Q 44.046875 -1.421875 33.015625 -1.421875 
Q 20.359375 -1.421875 13.671875 8.265625 
Q 6.984375 17.96875 6.984375 36.375 
Q 6.984375 53.65625 15.1875 63.9375 
Q 23.390625 74.21875 37.203125 74.21875 
Q 40.921875 74.21875 44.703125 73.484375 
Q 48.484375 72.75 52.59375 71.296875 
z
" id="DejaVuSans-54"/>
       </defs>
       <use transform="translate(0 0.765625)" xlink:href="#DejaVuSans-49"/>
       <use transform="translate(63.623047 0.765625)" xlink:href="#DejaVuSans-48"/>
       <use transform="translate(128.203125 39.046875)scale(0.7)" xlink:href="#DejaVuSans-54"/>
      </g>
     </g>
    </g>
    <g id="xtick_9">
     <g id="line2d_40">
      <path clip-path="url(#p4454be6414)" d="M 423.194978 170.614424 
L 423.194978 34.122885 
" style="fill:none;stroke:#cccccc;stroke-dasharray:1,1.65;stroke-dashoffset:0;"/>
     </g>
     <g id="text_25">
      <!-- $\mathdefault{10^{7}}$ -->
      <g style="fill:#262626;" transform="translate(416.418978 185.965221)scale(0.077 -0.077)">
       <defs>
        <path d="M 8.203125 72.90625 
L 55.078125 72.90625 
L 55.078125 68.703125 
L 28.609375 0 
L 18.3125 0 
L 43.21875 64.59375 
L 8.203125 64.59375 
z
" id="DejaVuSans-55"/>
       </defs>
       <use transform="translate(0 0.684375)" xlink:href="#DejaVuSans-49"/>
       <use transform="translate(63.623047 0.684375)" xlink:href="#DejaVuSans-48"/>
       <use transform="translate(128.203125 38.965625)scale(0.7)" xlink:href="#DejaVuSans-55"/>
      </g>
     </g>
    </g>
    <g id="xtick_10"/>
    <g id="xtick_11"/>
    <g id="xtick_12"/>
    <g id="xtick_13"/>
    <g id="xtick_14"/>
    <g id="xtick_15"/>
    <g id="xtick_16"/>
    <g id="xtick_17"/>
    <g id="xtick_18"/>
    <g id="xtick_19"/>
    <g id="xtick_20"/>
    <g id="xtick_21"/>
    <g id="xtick_22"/>
    <g id="xtick_23"/>
    <g id="xtick_24"/>
    <g id="xtick_25"/>
    <g id="xtick_26"/>
    <g id="xtick_27"/>
    <g id="xtick_28"/>
    <g id="xtick_29"/>
    <g id="xtick_30"/>
    <g id="xtick_31"/>
    <g id="xtick_32"/>
    <g id="xtick_33"/>
    <g id="text_26">
     <!-- Receptor Abundance -->
     <g style="fill:#262626;" transform="translate(296.694509 197.949268)scale(0.084 -0.084)">
      <defs>
       <path d="M 44.390625 34.1875 
Q 47.5625 33.109375 50.5625 29.59375 
Q 53.5625 26.078125 56.59375 19.921875 
L 66.609375 0 
L 56 0 
L 46.6875 18.703125 
Q 43.0625 26.03125 39.671875 28.421875 
Q 36.28125 30.8125 30.421875 30.8125 
L 19.671875 30.8125 
L 19.671875 0 
L 9.8125 0 
L 9.8125 72.90625 
L 32.078125 72.90625 
Q 44.578125 72.90625 50.734375 67.671875 
Q 56.890625 62.453125 56.890625 51.90625 
Q 56.890625 45.015625 53.6875 40.46875 
Q 50.484375 35.9375 44.390625 34.1875 
z
M 19.671875 64.796875 
L 19.671875 38.921875 
L 32.078125 38.921875 
Q 39.203125 38.921875 42.84375 42.21875 
Q 46.484375 45.515625 46.484375 51.90625 
Q 46.484375 58.296875 42.84375 61.546875 
Q 39.203125 64.796875 32.078125 64.796875 
z
" id="DejaVuSans-82"/>
       <path d="M 18.109375 8.203125 
L 18.109375 -20.796875 
L 9.078125 -20.796875 
L 9.078125 54.6875 
L 18.109375 54.6875 
L 18.109375 46.390625 
Q 20.953125 51.265625 25.265625 53.625 
Q 29.59375 56 35.59375 56 
Q 45.5625 56 51.78125 48.09375 
Q 58.015625 40.1875 58.015625 27.296875 
Q 58.015625 14.40625 51.78125 6.484375 
Q 45.5625 -1.421875 35.59375 -1.421875 
Q 29.59375 -1.421875 25.265625 0.953125 
Q 20.953125 3.328125 18.109375 8.203125 
z
M 48.6875 27.296875 
Q 48.6875 37.203125 44.609375 42.84375 
Q 40.53125 48.484375 33.40625 48.484375 
Q 26.265625 48.484375 22.1875 42.84375 
Q 18.109375 37.203125 18.109375 27.296875 
Q 18.109375 17.390625 22.1875 11.75 
Q 26.265625 6.109375 33.40625 6.109375 
Q 40.53125 6.109375 44.609375 11.75 
Q 48.6875 17.390625 48.6875 27.296875 
z
" id="DejaVuSans-112"/>
       <path d="M 34.1875 63.1875 
L 20.796875 26.90625 
L 47.609375 26.90625 
z
M 28.609375 72.90625 
L 39.796875 72.90625 
L 67.578125 0 
L 57.328125 0 
L 50.6875 18.703125 
L 17.828125 18.703125 
L 11.1875 0 
L 0.78125 0 
z
" id="DejaVuSans-65"/>
       <path d="M 48.6875 27.296875 
Q 48.6875 37.203125 44.609375 42.84375 
Q 40.53125 48.484375 33.40625 48.484375 
Q 26.265625 48.484375 22.1875 42.84375 
Q 18.109375 37.203125 18.109375 27.296875 
Q 18.109375 17.390625 22.1875 11.75 
Q 26.265625 6.109375 33.40625 6.109375 
Q 40.53125 6.109375 44.609375 11.75 
Q 48.6875 17.390625 48.6875 27.296875 
z
M 18.109375 46.390625 
Q 20.953125 51.265625 25.265625 53.625 
Q 29.59375 56 35.59375 56 
Q 45.5625 56 51.78125 48.09375 
Q 58.015625 40.1875 58.015625 27.296875 
Q 58.015625 14.40625 51.78125 6.484375 
Q 45.5625 -1.421875 35.59375 -1.421875 
Q 29.59375 -1.421875 25.265625 0.953125 
Q 20.953125 3.328125 18.109375 8.203125 
L 18.109375 0 
L 9.078125 0 
L 9.078125 75.984375 
L 18.109375 75.984375 
z
" id="DejaVuSans-98"/>
      </defs>
      <use xlink:href="#DejaVuSans-82"/>
      <use x="64.982422" xlink:href="#DejaVuSans-101"/>
      <use x="126.505859" xlink:href="#DejaVuSans-99"/>
      <use x="181.486328" xlink:href="#DejaVuSans-101"/>
      <use x="243.009766" xlink:href="#DejaVuSans-112"/>
      <use x="306.486328" xlink:href="#DejaVuSans-116"/>
      <use x="345.695312" xlink:href="#DejaVuSans-111"/>
      <use x="406.876953" xlink:href="#DejaVuSans-114"/>
      <use x="447.990234" xlink:href="#DejaVuSans-32"/>
      <use x="479.777344" xlink:href="#DejaVuSans-65"/>
      <use x="548.185547" xlink:href="#DejaVuSans-98"/>
      <use x="611.662109" xlink:href="#DejaVuSans-117"/>
      <use x="675.041016" xlink:href="#DejaVuSans-110"/>
      <use x="738.419922" xlink:href="#DejaVuSans-100"/>
      <use x="801.896484" xlink:href="#DejaVuSans-97"/>
      <use x="863.175781" xlink:href="#DejaVuSans-110"/>
      <use x="926.554688" xlink:href="#DejaVuSans-99"/>
      <use x="981.535156" xlink:href="#DejaVuSans-101"/>
     </g>
    </g>
   </g>
   <g id="matplotlib.axis_4">
    <g id="ytick_6">
     <g id="line2d_41">
      <path clip-path="url(#p4454be6414)" d="M 257.813916 170.614424 
L 423.194978 170.614424 
" style="fill:none;stroke:#cccccc;stroke-dasharray:1,1.65;stroke-dashoffset:0;"/>
     </g>
     <g id="text_27">
      <!-- $\mathdefault{10^{1}}$ -->
      <g style="fill:#262626;" transform="translate(234.761916 173.539822)scale(0.077 -0.077)">
       <use transform="translate(0 0.684375)" xlink:href="#DejaVuSans-49"/>
       <use transform="translate(63.623047 0.684375)" xlink:href="#DejaVuSans-48"/>
       <use transform="translate(128.203125 38.965625)scale(0.7)" xlink:href="#DejaVuSans-49"/>
      </g>
     </g>
    </g>
    <g id="ytick_7">
     <g id="line2d_42">
      <path clip-path="url(#p4454be6414)" d="M 257.813916 136.491539 
L 423.194978 136.491539 
" style="fill:none;stroke:#cccccc;stroke-dasharray:1,1.65;stroke-dashoffset:0;"/>
     </g>
     <g id="text_28">
      <!-- $\mathdefault{10^{2}}$ -->
      <g style="fill:#262626;" transform="translate(234.761916 139.416937)scale(0.077 -0.077)">
       <use transform="translate(0 0.765625)" xlink:href="#DejaVuSans-49"/>
       <use transform="translate(63.623047 0.765625)" xlink:href="#DejaVuSans-48"/>
       <use transform="translate(128.203125 39.046875)scale(0.7)" xlink:href="#DejaVuSans-50"/>
      </g>
     </g>
    </g>
    <g id="ytick_8">
     <g id="line2d_43">
      <path clip-path="url(#p4454be6414)" d="M 257.813916 102.368654 
L 423.194978 102.368654 
" style="fill:none;stroke:#cccccc;stroke-dasharray:1,1.65;stroke-dashoffset:0;"/>
     </g>
     <g id="text_29">
      <!-- $\mathdefault{10^{3}}$ -->
      <g style="fill:#262626;" transform="translate(234.761916 105.294053)scale(0.077 -0.077)">
       <use transform="translate(0 0.765625)" xlink:href="#DejaVuSans-49"/>
       <use transform="translate(63.623047 0.765625)" xlink:href="#DejaVuSans-48"/>
       <use transform="translate(128.203125 39.046875)scale(0.7)" xlink:href="#DejaVuSans-51"/>
      </g>
     </g>
    </g>
    <g id="ytick_9">
     <g id="line2d_44">
      <path clip-path="url(#p4454be6414)" d="M 257.813916 68.24577 
L 423.194978 68.24577 
" style="fill:none;stroke:#cccccc;stroke-dasharray:1,1.65;stroke-dashoffset:0;"/>
     </g>
     <g id="text_30">
      <!-- $\mathdefault{10^{4}}$ -->
      <g style="fill:#262626;" transform="translate(234.761916 71.171168)scale(0.077 -0.077)">
       <use transform="translate(0 0.684375)" xlink:href="#DejaVuSans-49"/>
       <use transform="translate(63.623047 0.684375)" xlink:href="#DejaVuSans-48"/>
       <use transform="translate(128.203125 38.965625)scale(0.7)" xlink:href="#DejaVuSans-52"/>
      </g>
     </g>
    </g>
    <g id="ytick_10">
     <g id="line2d_45">
      <path clip-path="url(#p4454be6414)" d="M 257.813916 34.122885 
L 423.194978 34.122885 
" style="fill:none;stroke:#cccccc;stroke-dasharray:1,1.65;stroke-dashoffset:0;"/>
     </g>
     <g id="text_31">
      <!-- $\mathdefault{10^{5}}$ -->
      <g style="fill:#262626;" transform="translate(234.761916 37.048283)scale(0.077 -0.077)">
       <use transform="translate(0 0.684375)" xlink:href="#DejaVuSans-49"/>
       <use transform="translate(63.623047 0.684375)" xlink:href="#DejaVuSans-48"/>
       <use transform="translate(128.203125 38.965625)scale(0.7)" xlink:href="#DejaVuSans-53"/>
      </g>
     </g>
    </g>
    <g id="ytick_11"/>
    <g id="ytick_12"/>
    <g id="ytick_13"/>
    <g id="ytick_14"/>
    <g id="ytick_15"/>
    <g id="ytick_16"/>
    <g id="ytick_17"/>
    <g id="ytick_18"/>
    <g id="ytick_19"/>
    <g id="ytick_20"/>
    <g id="ytick_21"/>
    <g id="ytick_22"/>
    <g id="ytick_23"/>
    <g id="ytick_24"/>
    <g id="ytick_25"/>
    <g id="ytick_26"/>
    <g id="ytick_27"/>
    <g id="ytick_28"/>
    <g id="ytick_29"/>
    <g id="ytick_30"/>
    <g id="ytick_31"/>
    <g id="ytick_32"/>
    <g id="ytick_33"/>
    <g id="ytick_34"/>
    <g id="ytick_35"/>
    <g id="ytick_36"/>
    <g id="ytick_37"/>
    <g id="ytick_38"/>
    <g id="ytick_39"/>
    <g id="ytick_40"/>
    <g id="ytick_41"/>
    <g id="ytick_42"/>
    <g id="text_32">
     <!-- Ligand Bound -->
     <g style="fill:#262626;" transform="translate(229.014978 131.220029)rotate(-90)scale(0.084 -0.084)">
      <defs>
       <path d="M 9.8125 72.90625 
L 19.671875 72.90625 
L 19.671875 8.296875 
L 55.171875 8.296875 
L 55.171875 0 
L 9.8125 0 
z
" id="DejaVuSans-76"/>
       <path d="M 45.40625 27.984375 
Q 45.40625 37.75 41.375 43.109375 
Q 37.359375 48.484375 30.078125 48.484375 
Q 22.859375 48.484375 18.828125 43.109375 
Q 14.796875 37.75 14.796875 27.984375 
Q 14.796875 18.265625 18.828125 12.890625 
Q 22.859375 7.515625 30.078125 7.515625 
Q 37.359375 7.515625 41.375 12.890625 
Q 45.40625 18.265625 45.40625 27.984375 
z
M 54.390625 6.78125 
Q 54.390625 -7.171875 48.1875 -13.984375 
Q 42 -20.796875 29.203125 -20.796875 
Q 24.46875 -20.796875 20.265625 -20.09375 
Q 16.0625 -19.390625 12.109375 -17.921875 
L 12.109375 -9.1875 
Q 16.0625 -11.328125 19.921875 -12.34375 
Q 23.78125 -13.375 27.78125 -13.375 
Q 36.625 -13.375 41.015625 -8.765625 
Q 45.40625 -4.15625 45.40625 5.171875 
L 45.40625 9.625 
Q 42.625 4.78125 38.28125 2.390625 
Q 33.9375 0 27.875 0 
Q 17.828125 0 11.671875 7.65625 
Q 5.515625 15.328125 5.515625 27.984375 
Q 5.515625 40.671875 11.671875 48.328125 
Q 17.828125 56 27.875 56 
Q 33.9375 56 38.28125 53.609375 
Q 42.625 51.21875 45.40625 46.390625 
L 45.40625 54.6875 
L 54.390625 54.6875 
z
" id="DejaVuSans-103"/>
      </defs>
      <use xlink:href="#DejaVuSans-76"/>
      <use x="55.712891" xlink:href="#DejaVuSans-105"/>
      <use x="83.496094" xlink:href="#DejaVuSans-103"/>
      <use x="146.972656" xlink:href="#DejaVuSans-97"/>
      <use x="208.251953" xlink:href="#DejaVuSans-110"/>
      <use x="271.630859" xlink:href="#DejaVuSans-100"/>
      <use x="335.107422" xlink:href="#DejaVuSans-32"/>
      <use x="366.894531" xlink:href="#DejaVuSans-66"/>
      <use x="435.498047" xlink:href="#DejaVuSans-111"/>
      <use x="496.679688" xlink:href="#DejaVuSans-117"/>
      <use x="560.058594" xlink:href="#DejaVuSans-110"/>
      <use x="623.4375" xlink:href="#DejaVuSans-100"/>
     </g>
    </g>
   </g>
   <g id="line2d_46">
    <path clip-path="url(#p4454be6414)" d="M 297.285047 111.904944 
L 331.817679 88.538605 
L 392.718447 47.256738 
L 400.0297 42.819881 
" style="fill:none;stroke:#0173b2;stroke-linecap:round;stroke-width:1.5;"/>
    <g clip-path="url(#p4454be6414)">
     <use style="fill:#0173b2;stroke:#ffffff;stroke-width:0.75;" x="297.285047" xlink:href="#mf21d3eaa40" y="111.904944"/>
     <use style="fill:#0173b2;stroke:#ffffff;stroke-width:0.75;" x="331.817679" xlink:href="#mf21d3eaa40" y="88.538605"/>
     <use style="fill:#0173b2;stroke:#ffffff;stroke-width:0.75;" x="392.718447" xlink:href="#mf21d3eaa40" y="47.256738"/>
     <use style="fill:#0173b2;stroke:#ffffff;stroke-width:0.75;" x="400.0297" xlink:href="#mf21d3eaa40" y="42.819881"/>
    </g>
   </g>
   <g id="line2d_47">
    <path clip-path="url(#p4454be6414)" d="M 297.285047 120.933766 
L 331.817679 97.75172 
L 392.718447 51.008713 
L 400.0297 45.846116 
" style="fill:none;stroke:#de8f05;stroke-dasharray:6,2.25;stroke-dashoffset:0;stroke-width:1.5;"/>
    <g clip-path="url(#p4454be6414)">
     <use style="fill:#de8f05;stroke:#ffffff;stroke-linejoin:miter;stroke-width:0.75;" x="297.285047" xlink:href="#mfa9da9e7ea" y="120.933766"/>
     <use style="fill:#de8f05;stroke:#ffffff;stroke-linejoin:miter;stroke-width:0.75;" x="331.817679" xlink:href="#mfa9da9e7ea" y="97.75172"/>
     <use style="fill:#de8f05;stroke:#ffffff;stroke-linejoin:miter;stroke-width:0.75;" x="392.718447" xlink:href="#mfa9da9e7ea" y="51.008713"/>
     <use style="fill:#de8f05;stroke:#ffffff;stroke-linejoin:miter;stroke-width:0.75;" x="400.0297" xlink:href="#mfa9da9e7ea" y="45.846116"/>
    </g>
   </g>
   <g id="line2d_48">
    <path clip-path="url(#p4454be6414)" d="M 297.285047 126.849455 
L 331.817679 103.616012 
L 392.718447 57.319105 
L 400.0297 52.247896 
" style="fill:none;stroke:#029e73;stroke-dasharray:1.5,1.5;stroke-dashoffset:0;stroke-width:1.5;"/>
    <defs>
     <path d="M -2.12132 -2.12132 
L -2.12132 2.12132 
L 2.12132 2.12132 
L 2.12132 -2.12132 
z
" id="mf5d25b1717" style="stroke:#ffffff;stroke-linejoin:miter;stroke-width:0.75;"/>
    </defs>
    <g clip-path="url(#p4454be6414)">
     <use style="fill:#029e73;stroke:#ffffff;stroke-linejoin:miter;stroke-width:0.75;" x="297.285047" xlink:href="#mf5d25b1717" y="126.849455"/>
     <use style="fill:#029e73;stroke:#ffffff;stroke-linejoin:miter;stroke-width:0.75;" x="331.817679" xlink:href="#mf5d25b1717" y="103.616012"/>
     <use style="fill:#029e73;stroke:#ffffff;stroke-linejoin:miter;stroke-width:0.75;" x="392.718447" xlink:href="#mf5d25b1717" y="57.319105"/>
     <use style="fill:#029e73;stroke:#ffffff;stroke-linejoin:miter;stroke-width:0.75;" x="400.0297" xlink:href="#mf5d25b1717" y="52.247896"/>
    </g>
   </g>
   <g id="line2d_49">
    <path clip-path="url(#p4454be6414)" d="M 297.285047 136.531953 
L 331.817679 113.941219 
L 392.718447 64.662709 
L 400.0297 58.30184 
" style="fill:none;stroke:#d55e00;stroke-dasharray:4.5,1.875,2.25,1.875;stroke-dashoffset:0;stroke-width:1.5;"/>
    <defs>
     <path d="M -1 3 
L 1 3 
L 1 1 
L 3 1 
L 3 -1 
L 1 -1 
L 1 -3 
L -1 -3 
L -1 -1 
L -3 -1 
L -3 1 
L -1 1 
z
" id="m288e8ffe77" style="stroke:#ffffff;stroke-linejoin:miter;stroke-width:0.75;"/>
    </defs>
    <g clip-path="url(#p4454be6414)">
     <use style="fill:#d55e00;stroke:#ffffff;stroke-linejoin:miter;stroke-width:0.75;" x="297.285047" xlink:href="#m288e8ffe77" y="136.531953"/>
     <use style="fill:#d55e00;stroke:#ffffff;stroke-linejoin:miter;stroke-width:0.75;" x="331.817679" xlink:href="#m288e8ffe77" y="113.941219"/>
     <use style="fill:#d55e00;stroke:#ffffff;stroke-linejoin:miter;stroke-width:0.75;" x="392.718447" xlink:href="#m288e8ffe77" y="64.662709"/>
     <use style="fill:#d55e00;stroke:#ffffff;stroke-linejoin:miter;stroke-width:0.75;" x="400.0297" xlink:href="#m288e8ffe77" y="58.30184"/>
    </g>
   </g>
   <g id="line2d_50"/>
   <g id="line2d_51"/>
   <g id="line2d_52"/>
   <g id="line2d_53"/>
   <g id="patch_9">
    <path d="M 257.813916 170.614424 
L 257.813916 34.122885 
" style="fill:none;stroke:#cccccc;stroke-linecap:square;stroke-linejoin:miter;stroke-width:0.6;"/>
   </g>
   <g id="patch_10">
    <path d="M 423.194978 170.614424 
L 423.194978 34.122885 
" style="fill:none;stroke:#cccccc;stroke-linecap:square;stroke-linejoin:miter;stroke-width:0.6;"/>
   </g>
   <g id="patch_11">
    <path d="M 257.813916 170.614424 
L 423.194978 170.614424 
" style="fill:none;stroke:#cccccc;stroke-linecap:square;stroke-linejoin:miter;stroke-width:0.6;"/>
   </g>
   <g id="patch_12">
    <path d="M 257.813916 34.122885 
L 423.194978 34.122885 
" style="fill:none;stroke:#cccccc;stroke-linecap:square;stroke-linejoin:miter;stroke-width:0.6;"/>
   </g>
   <g id="text_33">
    <!-- b -->
    <g style="fill:#262626;" transform="translate(224.737703 12.1575)scale(0.16 -0.16)">
     <defs>
      <path d="M 37.5 11.28125 
Q 43.109375 11.28125 46.0625 15.375 
Q 49.03125 19.484375 49.03125 27.296875 
Q 49.03125 35.109375 46.0625 39.203125 
Q 43.109375 43.3125 37.5 43.3125 
Q 31.890625 43.3125 28.875 39.1875 
Q 25.875 35.0625 25.875 27.296875 
Q 25.875 19.53125 28.875 15.40625 
Q 31.890625 11.28125 37.5 11.28125 
z
M 25.875 46.6875 
Q 29.5 51.46875 33.890625 53.734375 
Q 38.28125 56 44 56 
Q 54.109375 56 60.59375 47.96875 
Q 67.09375 39.9375 67.09375 27.296875 
Q 67.09375 14.65625 60.59375 6.609375 
Q 54.109375 -1.421875 44 -1.421875 
Q 38.28125 -1.421875 33.890625 0.84375 
Q 29.5 3.125 25.875 7.90625 
L 25.875 0 
L 8.40625 0 
L 8.40625 75.984375 
L 25.875 75.984375 
z
" id="DejaVuSans-Bold-98"/>
     </defs>
     <use xlink:href="#DejaVuSans-Bold-98"/>
    </g>
   </g>
   <g id="legend_2">
    <g id="patch_13">
     <path d="M 332.550337 166.764424 
L 417.804978 166.764424 
Q 419.344978 166.764424 419.344978 165.224424 
L 419.344978 108.806174 
Q 419.344978 107.266174 417.804978 107.266174 
L 332.550337 107.266174 
Q 331.010337 107.266174 331.010337 108.806174 
L 331.010337 165.224424 
Q 331.010337 166.764424 332.550337 166.764424 
z
" style="fill:#ffffff;opacity:0.8;stroke:#cccccc;stroke-linejoin:miter;"/>
    </g>
    <g id="text_34">
     <!-- Ligand -->
     <g style="fill:#262626;" transform="translate(361.102408 116.728861)scale(0.084 -0.084)">
      <use xlink:href="#DejaVuSans-76"/>
      <use x="55.712891" xlink:href="#DejaVuSans-105"/>
      <use x="83.496094" xlink:href="#DejaVuSans-103"/>
      <use x="146.972656" xlink:href="#DejaVuSans-97"/>
      <use x="208.251953" xlink:href="#DejaVuSans-110"/>
      <use x="271.630859" xlink:href="#DejaVuSans-100"/>
     </g>
    </g>
    <g id="line2d_54">
     <path d="M 334.090337 125.481596 
L 349.490337 125.481596 
" style="fill:none;stroke:#0173b2;stroke-linecap:round;stroke-width:1.5;"/>
    </g>
    <g id="line2d_55">
     <defs>
      <path d="M 0 3 
C 0.795609 3 1.55874 2.683901 2.12132 2.12132 
C 2.683901 1.55874 3 0.795609 3 0 
C 3 -0.795609 2.683901 -1.55874 2.12132 -2.12132 
C 1.55874 -2.683901 0.795609 -3 0 -3 
C -0.795609 -3 -1.55874 -2.683901 -2.12132 -2.12132 
C -2.683901 -1.55874 -3 -0.795609 -3 0 
C -3 0.795609 -2.683901 1.55874 -2.12132 2.12132 
C -1.55874 2.683901 -0.795609 3 0 3 
z
" id="m1fc4325b2e" style="stroke:#0173b2;"/>
     </defs>
     <g>
      <use style="fill:#0173b2;stroke:#0173b2;" x="341.790337" xlink:href="#m1fc4325b2e" y="125.481596"/>
     </g>
    </g>
    <g id="text_35">
     <!-- Octovalent C5 -->
     <g style="fill:#262626;" transform="translate(355.650337 128.176596)scale(0.077 -0.077)">
      <defs>
       <path d="M 39.40625 66.21875 
Q 28.65625 66.21875 22.328125 58.203125 
Q 16.015625 50.203125 16.015625 36.375 
Q 16.015625 22.609375 22.328125 14.59375 
Q 28.65625 6.59375 39.40625 6.59375 
Q 50.140625 6.59375 56.421875 14.59375 
Q 62.703125 22.609375 62.703125 36.375 
Q 62.703125 50.203125 56.421875 58.203125 
Q 50.140625 66.21875 39.40625 66.21875 
z
M 39.40625 74.21875 
Q 54.734375 74.21875 63.90625 63.9375 
Q 73.09375 53.65625 73.09375 36.375 
Q 73.09375 19.140625 63.90625 8.859375 
Q 54.734375 -1.421875 39.40625 -1.421875 
Q 24.03125 -1.421875 14.8125 8.828125 
Q 5.609375 19.09375 5.609375 36.375 
Q 5.609375 53.65625 14.8125 63.9375 
Q 24.03125 74.21875 39.40625 74.21875 
z
" id="DejaVuSans-79"/>
       <path d="M 2.984375 54.6875 
L 12.5 54.6875 
L 29.59375 8.796875 
L 46.6875 54.6875 
L 56.203125 54.6875 
L 35.6875 0 
L 23.484375 0 
z
" id="DejaVuSans-118"/>
      </defs>
      <use xlink:href="#DejaVuSans-79"/>
      <use x="78.710938" xlink:href="#DejaVuSans-99"/>
      <use x="133.691406" xlink:href="#DejaVuSans-116"/>
      <use x="172.900391" xlink:href="#DejaVuSans-111"/>
      <use x="234.082031" xlink:href="#DejaVuSans-118"/>
      <use x="293.261719" xlink:href="#DejaVuSans-97"/>
      <use x="354.541016" xlink:href="#DejaVuSans-108"/>
      <use x="382.324219" xlink:href="#DejaVuSans-101"/>
      <use x="443.847656" xlink:href="#DejaVuSans-110"/>
      <use x="507.226562" xlink:href="#DejaVuSans-116"/>
      <use x="546.435547" xlink:href="#DejaVuSans-32"/>
      <use x="578.222656" xlink:href="#DejaVuSans-67"/>
      <use x="648.046875" xlink:href="#DejaVuSans-53"/>
     </g>
    </g>
    <g id="line2d_56">
     <path d="M 334.090337 136.783752 
L 349.490337 136.783752 
" style="fill:none;stroke:#de8f05;stroke-dasharray:6,2.25;stroke-dashoffset:0;stroke-width:1.5;"/>
    </g>
    <g id="line2d_57">
     <defs>
      <path d="M -1.5 3 
L 0 1.5 
L 1.5 3 
L 3 1.5 
L 1.5 0 
L 3 -1.5 
L 1.5 -3 
L 0 -1.5 
L -1.5 -3 
L -3 -1.5 
L -1.5 0 
L -3 1.5 
z
" id="mae205f9bc4" style="stroke:#de8f05;stroke-linejoin:miter;"/>
     </defs>
     <g>
      <use style="fill:#de8f05;stroke:#de8f05;stroke-linejoin:miter;" x="341.790337" xlink:href="#mae205f9bc4" y="136.783752"/>
     </g>
    </g>
    <g id="text_36">
     <!-- Tetravalent C5 -->
     <g style="fill:#262626;" transform="translate(355.650337 139.478752)scale(0.077 -0.077)">
      <defs>
       <path d="M -0.296875 72.90625 
L 61.375 72.90625 
L 61.375 64.59375 
L 35.5 64.59375 
L 35.5 0 
L 25.59375 0 
L 25.59375 64.59375 
L -0.296875 64.59375 
z
" id="DejaVuSans-84"/>
      </defs>
      <use xlink:href="#DejaVuSans-84"/>
      <use x="44.083984" xlink:href="#DejaVuSans-101"/>
      <use x="105.607422" xlink:href="#DejaVuSans-116"/>
      <use x="144.816406" xlink:href="#DejaVuSans-114"/>
      <use x="185.929688" xlink:href="#DejaVuSans-97"/>
      <use x="247.208984" xlink:href="#DejaVuSans-118"/>
      <use x="306.388672" xlink:href="#DejaVuSans-97"/>
      <use x="367.667969" xlink:href="#DejaVuSans-108"/>
      <use x="395.451172" xlink:href="#DejaVuSans-101"/>
      <use x="456.974609" xlink:href="#DejaVuSans-110"/>
      <use x="520.353516" xlink:href="#DejaVuSans-116"/>
      <use x="559.5625" xlink:href="#DejaVuSans-32"/>
      <use x="591.349609" xlink:href="#DejaVuSans-67"/>
      <use x="661.173828" xlink:href="#DejaVuSans-53"/>
     </g>
    </g>
    <g id="line2d_58">
     <path d="M 334.090337 148.085908 
L 349.490337 148.085908 
" style="fill:none;stroke:#029e73;stroke-dasharray:1.5,1.5;stroke-dashoffset:0;stroke-width:1.5;"/>
    </g>
    <g id="line2d_59">
     <defs>
      <path d="M -2.12132 -2.12132 
L -2.12132 2.12132 
L 2.12132 2.12132 
L 2.12132 -2.12132 
z
" id="m8e430ba501" style="stroke:#029e73;stroke-linejoin:miter;"/>
     </defs>
     <g>
      <use style="fill:#029e73;stroke:#029e73;stroke-linejoin:miter;" x="341.790337" xlink:href="#m8e430ba501" y="148.085908"/>
     </g>
    </g>
    <g id="text_37">
     <!-- Octovalent B22 -->
     <g style="fill:#262626;" transform="translate(355.650337 150.780908)scale(0.077 -0.077)">
      <use xlink:href="#DejaVuSans-79"/>
      <use x="78.710938" xlink:href="#DejaVuSans-99"/>
      <use x="133.691406" xlink:href="#DejaVuSans-116"/>
      <use x="172.900391" xlink:href="#DejaVuSans-111"/>
      <use x="234.082031" xlink:href="#DejaVuSans-118"/>
      <use x="293.261719" xlink:href="#DejaVuSans-97"/>
      <use x="354.541016" xlink:href="#DejaVuSans-108"/>
      <use x="382.324219" xlink:href="#DejaVuSans-101"/>
      <use x="443.847656" xlink:href="#DejaVuSans-110"/>
      <use x="507.226562" xlink:href="#DejaVuSans-116"/>
      <use x="546.435547" xlink:href="#DejaVuSans-32"/>
      <use x="578.222656" xlink:href="#DejaVuSans-66"/>
      <use x="646.826172" xlink:href="#DejaVuSans-50"/>
      <use x="710.449219" xlink:href="#DejaVuSans-50"/>
     </g>
    </g>
    <g id="line2d_60">
     <path d="M 334.090337 159.388064 
L 349.490337 159.388064 
" style="fill:none;stroke:#d55e00;stroke-dasharray:4.5,1.875,2.25,1.875;stroke-dashoffset:0;stroke-width:1.5;"/>
    </g>
    <g id="line2d_61">
     <defs>
      <path d="M -1 3 
L 1 3 
L 1 1 
L 3 1 
L 3 -1 
L 1 -1 
L 1 -3 
L -1 -3 
L -1 -1 
L -3 -1 
L -3 1 
L -1 1 
z
" id="m0ea7fdce40" style="stroke:#d55e00;stroke-linejoin:miter;"/>
     </defs>
     <g>
      <use style="fill:#d55e00;stroke:#d55e00;stroke-linejoin:miter;" x="341.790337" xlink:href="#m0ea7fdce40" y="159.388064"/>
     </g>
    </g>
    <g id="text_38">
     <!-- Tetravalent B22 -->
     <g style="fill:#262626;" transform="translate(355.650337 162.083064)scale(0.077 -0.077)">
      <use xlink:href="#DejaVuSans-84"/>
      <use x="44.083984" xlink:href="#DejaVuSans-101"/>
      <use x="105.607422" xlink:href="#DejaVuSans-116"/>
      <use x="144.816406" xlink:href="#DejaVuSans-114"/>
      <use x="185.929688" xlink:href="#DejaVuSans-97"/>
      <use x="247.208984" xlink:href="#DejaVuSans-118"/>
      <use x="306.388672" xlink:href="#DejaVuSans-97"/>
      <use x="367.667969" xlink:href="#DejaVuSans-108"/>
      <use x="395.451172" xlink:href="#DejaVuSans-101"/>
      <use x="456.974609" xlink:href="#DejaVuSans-110"/>
      <use x="520.353516" xlink:href="#DejaVuSans-116"/>
      <use x="559.5625" xlink:href="#DejaVuSans-32"/>
      <use x="591.349609" xlink:href="#DejaVuSans-66"/>
      <use x="659.953125" xlink:href="#DejaVuSans-50"/>
      <use x="723.576172" xlink:href="#DejaVuSans-50"/>
     </g>
    </g>
   </g>
  </g>
  <g id="axes_3">
   <g id="patch_14">
    <path d="M 476.618458 170.614424 
L 641.99952 170.614424 
L 641.99952 34.122885 
L 476.618458 34.122885 
z
" style="fill:#ffffff;"/>
   </g>
   <g id="matplotlib.axis_5">
    <g id="xtick_34">
     <g id="text_39">
      <!-- Octovalent C5 -->
      <g style="fill:#262626;" transform="translate(446.948717 208.576501)rotate(-25)scale(0.077 -0.077)">
       <use xlink:href="#DejaVuSans-79"/>
       <use x="78.710938" xlink:href="#DejaVuSans-99"/>
       <use x="133.691406" xlink:href="#DejaVuSans-116"/>
       <use x="172.900391" xlink:href="#DejaVuSans-111"/>
       <use x="234.082031" xlink:href="#DejaVuSans-118"/>
       <use x="293.261719" xlink:href="#DejaVuSans-97"/>
       <use x="354.541016" xlink:href="#DejaVuSans-108"/>
       <use x="382.324219" xlink:href="#DejaVuSans-101"/>
       <use x="443.847656" xlink:href="#DejaVuSans-110"/>
       <use x="507.226562" xlink:href="#DejaVuSans-116"/>
       <use x="546.435547" xlink:href="#DejaVuSans-32"/>
       <use x="578.222656" xlink:href="#DejaVuSans-67"/>
       <use x="648.046875" xlink:href="#DejaVuSans-53"/>
      </g>
     </g>
    </g>
    <g id="xtick_35">
     <g id="text_40">
      <!-- Tetravalent C5 -->
      <g style="fill:#262626;" transform="translate(487.379135 209.003101)rotate(-25)scale(0.077 -0.077)">
       <use xlink:href="#DejaVuSans-84"/>
       <use x="44.083984" xlink:href="#DejaVuSans-101"/>
       <use x="105.607422" xlink:href="#DejaVuSans-116"/>
       <use x="144.816406" xlink:href="#DejaVuSans-114"/>
       <use x="185.929688" xlink:href="#DejaVuSans-97"/>
       <use x="247.208984" xlink:href="#DejaVuSans-118"/>
       <use x="306.388672" xlink:href="#DejaVuSans-97"/>
       <use x="367.667969" xlink:href="#DejaVuSans-108"/>
       <use x="395.451172" xlink:href="#DejaVuSans-101"/>
       <use x="456.974609" xlink:href="#DejaVuSans-110"/>
       <use x="520.353516" xlink:href="#DejaVuSans-116"/>
       <use x="559.5625" xlink:href="#DejaVuSans-32"/>
       <use x="591.349609" xlink:href="#DejaVuSans-67"/>
       <use x="661.173828" xlink:href="#DejaVuSans-53"/>
      </g>
     </g>
    </g>
    <g id="xtick_36">
     <g id="text_41">
      <!-- Octovalent B22 -->
      <g style="fill:#262626;" transform="translate(525.284184 210.6073)rotate(-25)scale(0.077 -0.077)">
       <use xlink:href="#DejaVuSans-79"/>
       <use x="78.710938" xlink:href="#DejaVuSans-99"/>
       <use x="133.691406" xlink:href="#DejaVuSans-116"/>
       <use x="172.900391" xlink:href="#DejaVuSans-111"/>
       <use x="234.082031" xlink:href="#DejaVuSans-118"/>
       <use x="293.261719" xlink:href="#DejaVuSans-97"/>
       <use x="354.541016" xlink:href="#DejaVuSans-108"/>
       <use x="382.324219" xlink:href="#DejaVuSans-101"/>
       <use x="443.847656" xlink:href="#DejaVuSans-110"/>
       <use x="507.226562" xlink:href="#DejaVuSans-116"/>
       <use x="546.435547" xlink:href="#DejaVuSans-32"/>
       <use x="578.222656" xlink:href="#DejaVuSans-66"/>
       <use x="646.826172" xlink:href="#DejaVuSans-50"/>
       <use x="710.449219" xlink:href="#DejaVuSans-50"/>
      </g>
     </g>
    </g>
    <g id="xtick_37">
     <g id="text_42">
      <!-- Tetravalent B22 -->
      <g style="fill:#262626;" transform="translate(565.714603 211.033901)rotate(-25)scale(0.077 -0.077)">
       <use xlink:href="#DejaVuSans-84"/>
       <use x="44.083984" xlink:href="#DejaVuSans-101"/>
       <use x="105.607422" xlink:href="#DejaVuSans-116"/>
       <use x="144.816406" xlink:href="#DejaVuSans-114"/>
       <use x="185.929688" xlink:href="#DejaVuSans-97"/>
       <use x="247.208984" xlink:href="#DejaVuSans-118"/>
       <use x="306.388672" xlink:href="#DejaVuSans-97"/>
       <use x="367.667969" xlink:href="#DejaVuSans-108"/>
       <use x="395.451172" xlink:href="#DejaVuSans-101"/>
       <use x="456.974609" xlink:href="#DejaVuSans-110"/>
       <use x="520.353516" xlink:href="#DejaVuSans-116"/>
       <use x="559.5625" xlink:href="#DejaVuSans-32"/>
       <use x="591.349609" xlink:href="#DejaVuSans-66"/>
       <use x="659.953125" xlink:href="#DejaVuSans-50"/>
       <use x="723.576172" xlink:href="#DejaVuSans-50"/>
      </g>
     </g>
    </g>
   </g>
   <g id="matplotlib.axis_6">
    <g id="ytick_43">
     <g id="line2d_62">
      <path clip-path="url(#p12f9e83457)" d="M 476.618458 170.614424 
L 641.99952 170.614424 
" style="fill:none;stroke:#cccccc;stroke-dasharray:1,1.65;stroke-dashoffset:0;"/>
     </g>
     <g id="text_43">
      <!-- 0 -->
      <g style="fill:#262626;" transform="translate(462.219333 173.539822)scale(0.077 -0.077)">
       <use xlink:href="#DejaVuSans-48"/>
      </g>
     </g>
    </g>
    <g id="ytick_44">
     <g id="line2d_63">
      <path clip-path="url(#p12f9e83457)" d="M 476.618458 153.552981 
L 641.99952 153.552981 
" style="fill:none;stroke:#cccccc;stroke-dasharray:1,1.65;stroke-dashoffset:0;"/>
     </g>
     <g id="text_44">
      <!-- 25 -->
      <g style="fill:#262626;" transform="translate(457.320208 156.47838)scale(0.077 -0.077)">
       <use xlink:href="#DejaVuSans-50"/>
       <use x="63.623047" xlink:href="#DejaVuSans-53"/>
      </g>
     </g>
    </g>
    <g id="ytick_45">
     <g id="line2d_64">
      <path clip-path="url(#p12f9e83457)" d="M 476.618458 136.491539 
L 641.99952 136.491539 
" style="fill:none;stroke:#cccccc;stroke-dasharray:1,1.65;stroke-dashoffset:0;"/>
     </g>
     <g id="text_45">
      <!-- 50 -->
      <g style="fill:#262626;" transform="translate(457.320208 139.416937)scale(0.077 -0.077)">
       <use xlink:href="#DejaVuSans-53"/>
       <use x="63.623047" xlink:href="#DejaVuSans-48"/>
      </g>
     </g>
    </g>
    <g id="ytick_46">
     <g id="line2d_65">
      <path clip-path="url(#p12f9e83457)" d="M 476.618458 119.430097 
L 641.99952 119.430097 
" style="fill:none;stroke:#cccccc;stroke-dasharray:1,1.65;stroke-dashoffset:0;"/>
     </g>
     <g id="text_46">
      <!-- 75 -->
      <g style="fill:#262626;" transform="translate(457.320208 122.355495)scale(0.077 -0.077)">
       <use xlink:href="#DejaVuSans-55"/>
       <use x="63.623047" xlink:href="#DejaVuSans-53"/>
      </g>
     </g>
    </g>
    <g id="ytick_47">
     <g id="line2d_66">
      <path clip-path="url(#p12f9e83457)" d="M 476.618458 102.368654 
L 641.99952 102.368654 
" style="fill:none;stroke:#cccccc;stroke-dasharray:1,1.65;stroke-dashoffset:0;"/>
     </g>
     <g id="text_47">
      <!-- 100 -->
      <g style="fill:#262626;" transform="translate(452.421083 105.294053)scale(0.077 -0.077)">
       <use xlink:href="#DejaVuSans-49"/>
       <use x="63.623047" xlink:href="#DejaVuSans-48"/>
       <use x="127.246094" xlink:href="#DejaVuSans-48"/>
      </g>
     </g>
    </g>
    <g id="ytick_48">
     <g id="line2d_67">
      <path clip-path="url(#p12f9e83457)" d="M 476.618458 85.307212 
L 641.99952 85.307212 
" style="fill:none;stroke:#cccccc;stroke-dasharray:1,1.65;stroke-dashoffset:0;"/>
     </g>
     <g id="text_48">
      <!-- 125 -->
      <g style="fill:#262626;" transform="translate(452.421083 88.23261)scale(0.077 -0.077)">
       <use xlink:href="#DejaVuSans-49"/>
       <use x="63.623047" xlink:href="#DejaVuSans-50"/>
       <use x="127.246094" xlink:href="#DejaVuSans-53"/>
      </g>
     </g>
    </g>
    <g id="ytick_49">
     <g id="line2d_68">
      <path clip-path="url(#p12f9e83457)" d="M 476.618458 68.24577 
L 641.99952 68.24577 
" style="fill:none;stroke:#cccccc;stroke-dasharray:1,1.65;stroke-dashoffset:0;"/>
     </g>
     <g id="text_49">
      <!-- 150 -->
      <g style="fill:#262626;" transform="translate(452.421083 71.171168)scale(0.077 -0.077)">
       <use xlink:href="#DejaVuSans-49"/>
       <use x="63.623047" xlink:href="#DejaVuSans-53"/>
       <use x="127.246094" xlink:href="#DejaVuSans-48"/>
      </g>
     </g>
    </g>
    <g id="ytick_50">
     <g id="line2d_69">
      <path clip-path="url(#p12f9e83457)" d="M 476.618458 51.184327 
L 641.99952 51.184327 
" style="fill:none;stroke:#cccccc;stroke-dasharray:1,1.65;stroke-dashoffset:0;"/>
     </g>
     <g id="text_50">
      <!-- 175 -->
      <g style="fill:#262626;" transform="translate(452.421083 54.109726)scale(0.077 -0.077)">
       <use xlink:href="#DejaVuSans-49"/>
       <use x="63.623047" xlink:href="#DejaVuSans-55"/>
       <use x="127.246094" xlink:href="#DejaVuSans-53"/>
      </g>
     </g>
    </g>
    <g id="ytick_51">
     <g id="line2d_70">
      <path clip-path="url(#p12f9e83457)" d="M 476.618458 34.122885 
L 641.99952 34.122885 
" style="fill:none;stroke:#cccccc;stroke-dasharray:1,1.65;stroke-dashoffset:0;"/>
     </g>
     <g id="text_51">
      <!-- 200 -->
      <g style="fill:#262626;" transform="translate(452.421083 37.048283)scale(0.077 -0.077)">
       <use xlink:href="#DejaVuSans-50"/>
       <use x="63.623047" xlink:href="#DejaVuSans-48"/>
       <use x="127.246094" xlink:href="#DejaVuSans-48"/>
      </g>
     </g>
    </g>
    <g id="text_52">
     <!-- Binding Ratio -->
     <g style="fill:#262626;" transform="translate(446.674145 130.355748)rotate(-90)scale(0.084 -0.084)">
      <use xlink:href="#DejaVuSans-66"/>
      <use x="68.603516" xlink:href="#DejaVuSans-105"/>
      <use x="96.386719" xlink:href="#DejaVuSans-110"/>
      <use x="159.765625" xlink:href="#DejaVuSans-100"/>
      <use x="223.242188" xlink:href="#DejaVuSans-105"/>
      <use x="251.025391" xlink:href="#DejaVuSans-110"/>
      <use x="314.404297" xlink:href="#DejaVuSans-103"/>
      <use x="377.880859" xlink:href="#DejaVuSans-32"/>
      <use x="409.667969" xlink:href="#DejaVuSans-82"/>
      <use x="476.900391" xlink:href="#DejaVuSans-97"/>
      <use x="538.179688" xlink:href="#DejaVuSans-116"/>
      <use x="577.388672" xlink:href="#DejaVuSans-105"/>
      <use x="605.171875" xlink:href="#DejaVuSans-111"/>
     </g>
    </g>
   </g>
   <g id="patch_15">
    <path clip-path="url(#p12f9e83457)" d="M 480.752984 170.614424 
L 513.829197 170.614424 
L 513.829197 98.392017 
L 480.752984 98.392017 
z
" style="fill:#176d9c;stroke:#ffffff;stroke-linejoin:miter;"/>
   </g>
   <g id="patch_16">
    <path clip-path="url(#p12f9e83457)" d="M 522.09825 170.614424 
L 555.174462 170.614424 
L 555.174462 62.325798 
L 522.09825 62.325798 
z
" style="fill:#c38820;stroke:#ffffff;stroke-linejoin:miter;"/>
   </g>
   <g id="patch_17">
    <path clip-path="url(#p12f9e83457)" d="M 563.443515 170.614424 
L 596.519728 170.614424 
L 596.519728 65.820156 
L 563.443515 65.820156 
z
" style="fill:#158b6a;stroke:#ffffff;stroke-linejoin:miter;"/>
   </g>
   <g id="patch_18">
    <path clip-path="url(#p12f9e83457)" d="M 604.788781 170.614424 
L 637.864993 170.614424 
L 637.864993 36.74686 
L 604.788781 36.74686 
z
" style="fill:#ba611b;stroke:#ffffff;stroke-linejoin:miter;"/>
   </g>
   <g id="line2d_71">
    <path clip-path="url(#p12f9e83457)" d="M 0 0 
" style="fill:none;stroke:#424242;stroke-linecap:round;stroke-width:2.7;"/>
   </g>
   <g id="line2d_72">
    <path clip-path="url(#p12f9e83457)" d="M 0 0 
" style="fill:none;stroke:#424242;stroke-linecap:round;stroke-width:2.7;"/>
   </g>
   <g id="line2d_73">
    <path clip-path="url(#p12f9e83457)" d="M 0 0 
" style="fill:none;stroke:#424242;stroke-linecap:round;stroke-width:2.7;"/>
   </g>
   <g id="line2d_74">
    <path clip-path="url(#p12f9e83457)" d="M 0 0 
" style="fill:none;stroke:#424242;stroke-linecap:round;stroke-width:2.7;"/>
   </g>
   <g id="patch_19">
    <path d="M 476.618458 170.614424 
L 476.618458 34.122885 
" style="fill:none;stroke:#cccccc;stroke-linecap:square;stroke-linejoin:miter;stroke-width:0.6;"/>
   </g>
   <g id="patch_20">
    <path d="M 641.99952 170.614424 
L 641.99952 34.122885 
" style="fill:none;stroke:#cccccc;stroke-linecap:square;stroke-linejoin:miter;stroke-width:0.6;"/>
   </g>
   <g id="patch_21">
    <path d="M 476.618458 170.614424 
L 641.99952 170.614424 
" style="fill:none;stroke:#cccccc;stroke-linecap:square;stroke-linejoin:miter;stroke-width:0.6;"/>
   </g>
   <g id="patch_22">
    <path d="M 476.618458 34.122885 
L 641.99952 34.122885 
" style="fill:none;stroke:#cccccc;stroke-linecap:square;stroke-linejoin:miter;stroke-width:0.6;"/>
   </g>
   <g id="text_53">
    <!-- c -->
    <g style="fill:#262626;" transform="translate(443.542245 12.1575)scale(0.16 -0.16)">
     <defs>
      <path d="M 52.59375 52.984375 
L 52.59375 38.71875 
Q 49.03125 41.15625 45.4375 42.328125 
Q 41.84375 43.5 37.984375 43.5 
Q 30.671875 43.5 26.59375 39.234375 
Q 22.515625 34.96875 22.515625 27.296875 
Q 22.515625 19.625 26.59375 15.34375 
Q 30.671875 11.078125 37.984375 11.078125 
Q 42.09375 11.078125 45.78125 12.296875 
Q 49.46875 13.53125 52.59375 15.921875 
L 52.59375 1.609375 
Q 48.484375 0.09375 44.265625 -0.65625 
Q 40.046875 -1.421875 35.796875 -1.421875 
Q 21 -1.421875 12.640625 6.171875 
Q 4.296875 13.765625 4.296875 27.296875 
Q 4.296875 40.828125 12.640625 48.40625 
Q 21 56 35.796875 56 
Q 40.09375 56 44.265625 55.25 
Q 48.4375 54.5 52.59375 52.984375 
z
" id="DejaVuSans-Bold-99"/>
     </defs>
     <use xlink:href="#DejaVuSans-Bold-99"/>
    </g>
   </g>
  </g>
 </g>
 <defs>
  <clipPath id="p0dbf338027">
   <rect height="136.491539" width="165.381062" x="46.12525" y="34.122885"/>
  </clipPath>
  <clipPath id="p4454be6414">
   <rect height="136.491539" width="165.381062" x="257.813916" y="34.122885"/>
  </clipPath>
  <clipPath id="p12f9e83457">
   <rect height="136.491539" width="165.381062" x="476.618458" y="34.122885"/>
  </clipPath>
 </defs>
</svg>
