<?xml version="1.0" encoding="UTF-8" standalone="no"?>
<!DOCTYPE svg PUBLIC "-//W3C//DTD SVG 1.1//EN" "http://www.w3.org/Graphics/SVG/1.1/DTD/svg11.dtd">
<svg width="100%" height="100%" viewBox="0 0 4200 1500" version="1.1" xmlns="http://www.w3.org/2000/svg" xmlns:xlink="http://www.w3.org/1999/xlink" xml:space="preserve" xmlns:serif="http://www.serif.com/" style="fill-rule:evenodd;clip-rule:evenodd;stroke-linecap:round;stroke-linejoin:round;stroke-miterlimit:1.5;">
    <g transform="matrix(0.916697,0,0,1.01663,-50.7361,-226.322)">
        <circle cx="268.444" cy="560.898" r="114.602" style="fill:url(#_Radial1);stroke:rgb(255,204,0);stroke-width:26.79px;"/>
    </g>
    <g transform="matrix(0.313173,0,0,0.335801,2321.78,267.979)">
        <circle cx="268.444" cy="560.898" r="114.602" style="fill:url(#_Radial2);stroke:rgb(255,204,0);stroke-width:26.79px;"/>
    </g>
    <g transform="matrix(0.313173,0,0,0.335801,2321.78,267.979)">
        <circle cx="268.444" cy="560.898" r="114.602" style="fill:url(#_Radial3);stroke:rgb(255,204,0);stroke-width:26.79px;"/>
    </g>
    <g transform="matrix(0.313173,0,0,0.335801,2321.78,267.979)">
        <circle cx="268.444" cy="560.898" r="114.602" style="fill:url(#_Radial4);stroke:rgb(255,204,0);stroke-width:26.79px;"/>
    </g>
    <g transform="matrix(0.313173,0,0,0.335801,2073.38,354.198)">
        <circle cx="268.444" cy="560.898" r="114.602" style="fill:url(#_Radial5);stroke:rgb(255,204,0);stroke-width:26.79px;"/>
    </g>
    <g transform="matrix(0.313173,0,0,0.335801,2475.74,97.5945)">
        <circle cx="268.444" cy="560.898" r="114.602" style="fill:url(#_Radial6);stroke:rgb(255,204,0);stroke-width:26.79px;"/>
    </g>
    <g transform="matrix(0.313173,0,0,0.335801,1951.7,1039.03)">
        <circle cx="268.444" cy="560.898" r="114.602" style="fill:url(#_Radial7);stroke:rgb(255,204,0);stroke-width:26.79px;"/>
    </g>
    <g transform="matrix(0.313173,0,0,0.335801,3497.96,1064.74)">
        <circle cx="268.444" cy="560.898" r="114.602" style="fill:url(#_Radial8);stroke:rgb(255,204,0);stroke-width:26.79px;"/>
    </g>
    <g transform="matrix(0.313173,0,0,0.335801,2856.63,453.432)">
        <circle cx="268.444" cy="560.898" r="114.602" style="fill:url(#_Radial9);stroke:rgb(255,204,0);stroke-width:26.79px;"/>
    </g>
    <g transform="matrix(0.313173,0,0,0.335801,3626.23,120.023)">
        <circle cx="268.444" cy="560.898" r="114.602" style="fill:url(#_Radial10);stroke:rgb(255,204,0);stroke-width:26.79px;"/>
    </g>
    <g transform="matrix(0.313173,0,0,0.335801,2856.21,919.472)">
        <circle cx="268.444" cy="560.898" r="114.602" style="fill:url(#_Radial11);stroke:rgb(255,204,0);stroke-width:26.79px;"/>
    </g>
    <g transform="matrix(0.313173,0,0,0.335801,3926.94,245.318)">
        <circle cx="268.444" cy="560.898" r="114.602" style="fill:url(#_Radial12);stroke:rgb(255,204,0);stroke-width:26.79px;"/>
    </g>
    <g transform="matrix(0.313173,0,0,0.335801,2408.91,1067.4)">
        <circle cx="268.444" cy="560.898" r="114.602" style="fill:url(#_Radial13);stroke:rgb(255,204,0);stroke-width:26.79px;"/>
    </g>
    <g transform="matrix(0.313173,0,0,0.335801,3023.12,149.468)">
        <circle cx="268.444" cy="560.898" r="114.602" style="fill:url(#_Radial14);stroke:rgb(255,204,0);stroke-width:26.79px;"/>
    </g>
    <g transform="matrix(0.313173,0,0,0.335801,3879.52,1072.6)">
        <circle cx="268.444" cy="560.898" r="114.602" style="fill:url(#_Radial15);stroke:rgb(255,204,0);stroke-width:26.79px;"/>
    </g>
    <g transform="matrix(0.313173,0,0,0.335801,1864.01,224.915)">
        <circle cx="268.444" cy="560.898" r="114.602" style="fill:url(#_Radial16);stroke:rgb(255,204,0);stroke-width:26.79px;"/>
    </g>
    <g transform="matrix(0.313173,0,0,0.335801,1970.74,608.749)">
        <circle cx="268.444" cy="560.898" r="114.602" style="fill:url(#_Radial17);stroke:rgb(255,204,0);stroke-width:26.79px;"/>
    </g>
    <g transform="matrix(0.313173,0,0,0.335801,2680.5,615.246)">
        <circle cx="268.444" cy="560.898" r="114.602" style="fill:url(#_Radial18);stroke:rgb(255,204,0);stroke-width:26.79px;"/>
    </g>
    <g transform="matrix(0.916697,0,0,1.01663,853.045,-195.398)">
        <circle cx="268.444" cy="560.898" r="114.602" style="fill:url(#_Radial19);stroke:rgb(255,204,0);stroke-width:26.79px;"/>
    </g>
    <g transform="matrix(-0.507026,-1.10336,1.4766,-0.678544,-173.229,1128.29)">
        <path d="M174.439,409.25L174.439,445.288L102.094,391.23L174.439,337.173L174.439,373.211L307.33,373.211L307.33,409.25L174.439,409.25Z" style="fill:rgb(54,140,214);"/>
    </g>
    <g transform="matrix(0.566365,-1.0741,1.43746,0.757956,834.596,582.978)">
        <path d="M174.439,409.25L174.439,445.288L102.094,391.23L174.439,337.173L174.439,373.211L307.33,373.211L307.33,409.25L174.439,409.25Z" style="fill:rgb(54,140,214);"/>
    </g>
    <g transform="matrix(-0.649791,-1.28555,0.747259,-0.377708,1043.29,1063.24)">
        <path d="M174.439,399.88L174.439,445.288L102.094,391.23L174.439,337.173L174.439,382.581L307.33,382.581L307.33,399.88L174.439,399.88Z" style="fill:rgb(54,140,214);"/>
    </g>
    <g transform="matrix(0.640111,-1.2904,0.750077,0.372081,152.268,753.1)">
        <path d="M174.439,399.88L174.439,445.288L102.094,391.23L174.439,337.173L174.439,382.581L307.33,382.581L307.33,399.88L174.439,399.88Z" style="fill:rgb(54,140,214);"/>
    </g>
    <g transform="matrix(1.48345,0,0,1.25393,241.754,-298.298)">
        <path d="M314.15,423.37L413.949,523.169L314.15,622.969L214.351,523.169L314.15,423.37Z" style="fill:url(#_Radial20);stroke:rgb(255,197,0);stroke-width:17.25px;"/>
    </g>
    <g transform="matrix(1.48345,0,0,1.25393,1168.44,-290.28)">
        <path d="M314.15,423.37L413.949,523.169L314.15,622.969L214.351,523.169L314.15,423.37Z" style="fill:url(#_Radial21);stroke:rgb(255,197,0);stroke-width:17.25px;"/>
    </g>
    <g transform="matrix(2.17399,0,0,2.13871,910.376,84.3963)">
        <path d="M200.27,471.366L132.263,403.36L179.029,356.593L189.105,366.669L152.415,403.36L208.888,459.833L265.362,403.36L228.671,366.669L238.747,356.593L285.513,403.36L217.507,471.366L217.507,542.19L200.27,542.19L200.27,471.366Z" style="fill:rgb(25,10,152);"/>
    </g>
    <g transform="matrix(-0.557154,-0.717366,0.715664,-0.555832,1974.69,1433.55)">
        <path d="M200.27,471.366L132.263,403.36L179.029,356.593L189.105,366.669L152.415,403.36L208.888,459.833L265.362,403.36L228.671,366.669L238.747,356.593L285.513,403.36L217.507,471.366L217.507,542.19L200.27,542.19L200.27,471.366Z" style="fill:rgb(25,10,152);"/>
    </g>
    <g transform="matrix(-0.670557,0.612689,-0.611236,-0.668966,3064.77,1204.5)">
        <path d="M200.27,471.366L132.263,403.36L179.029,356.593L189.105,366.669L152.415,403.36L208.888,459.833L265.362,403.36L228.671,366.669L238.747,356.593L285.513,403.36L217.507,471.366L217.507,542.19L200.27,542.19L200.27,471.366Z" style="fill:rgb(25,10,152);"/>
    </g>
    <g transform="matrix(2.0955,0,0,2.0955,-77.0266,-117.275)">
        <path d="M236.291,596.012C198.051,591.723 168.284,559.244 168.284,519.867C168.284,492.969 182.388,468.04 205.445,454.187L215.22,470.455C197.874,480.877 187.264,499.631 187.264,519.867C187.264,551.682 213.094,577.513 244.909,577.513C276.725,577.513 302.555,551.682 302.555,519.867C302.555,499.272 291.568,480.242 273.732,469.945L283.222,453.508C306.93,467.196 321.534,492.492 321.534,519.867C321.534,559.244 291.768,591.723 253.528,596.012L253.528,661.305L236.291,661.305L236.291,596.012Z" style="fill:rgb(0,157,99);"/>
    </g>
    <g transform="matrix(0.892016,0,0,0.822033,2185.35,28.6554)">
        <path d="M236.291,596.012C198.051,591.723 168.284,559.244 168.284,519.867C168.284,492.969 182.388,468.04 205.445,454.187L215.22,470.455C197.874,480.877 187.264,499.631 187.264,519.867C187.264,551.682 213.094,577.513 244.909,577.513C276.725,577.513 302.555,551.682 302.555,519.867C302.555,499.272 291.568,480.242 273.732,469.945L283.222,453.508C306.93,467.196 321.534,492.492 321.534,519.867C321.534,559.244 291.768,591.723 253.528,596.012L253.528,661.305L236.291,661.305L236.291,596.012Z" style="fill:rgb(0,157,99);"/>
    </g>
    <g transform="matrix(0.630751,0.630751,-0.581265,0.581265,2820.04,95.0283)">
        <path d="M236.291,596.012C198.051,591.723 168.284,559.244 168.284,519.867C168.284,492.969 182.388,468.04 205.445,454.187L215.22,470.455C197.874,480.877 187.264,499.631 187.264,519.867C187.264,551.682 213.094,577.513 244.909,577.513C276.725,577.513 302.555,551.682 302.555,519.867C302.555,499.272 291.568,480.242 273.732,469.945L283.222,453.508C306.93,467.196 321.534,492.492 321.534,519.867C321.534,559.244 291.768,591.723 253.528,596.012L253.528,661.305L236.291,661.305L236.291,596.012Z" style="fill:rgb(0,157,99);"/>
    </g>
    <g transform="matrix(-0.630751,0.630751,-0.581265,-0.581265,4241.55,1240.81)">
        <path d="M236.291,596.012C198.051,591.723 168.284,559.244 168.284,519.867C168.284,492.969 182.388,468.04 205.445,454.187L215.22,470.455C197.874,480.877 187.264,499.631 187.264,519.867C187.264,551.682 213.094,577.513 244.909,577.513C276.725,577.513 302.555,551.682 302.555,519.867C302.555,499.272 291.568,480.242 273.732,469.945L283.222,453.508C306.93,467.196 321.534,492.492 321.534,519.867C321.534,559.244 291.768,591.723 253.528,596.012L253.528,661.305L236.291,661.305L236.291,596.012Z" style="fill:rgb(0,157,99);"/>
    </g>
    <g transform="matrix(0.632231,-0.629267,0.579898,0.582629,1700.39,394.412)">
        <path d="M236.291,596.012C198.051,591.723 168.284,559.244 168.284,519.867C168.284,492.969 182.388,468.04 205.445,454.187L215.22,470.455C197.874,480.877 187.264,499.631 187.264,519.867C187.264,551.682 213.094,577.513 244.909,577.513C276.725,577.513 302.555,551.682 302.555,519.867C302.555,499.272 291.568,480.242 273.732,469.945L283.222,453.508C306.93,467.196 321.534,492.492 321.534,519.867C321.534,559.244 291.768,591.723 253.528,596.012L253.528,661.305L236.291,661.305L236.291,596.012Z" style="fill:rgb(0,157,99);"/>
    </g>
    <g transform="matrix(0.00837518,-0.891977,0.821997,0.00771811,1626.58,1012.12)">
        <path d="M236.291,596.012C198.051,591.723 168.284,559.244 168.284,519.867C168.284,492.969 182.388,468.04 205.445,454.187L215.22,470.455C197.874,480.877 187.264,499.631 187.264,519.867C187.264,551.682 213.094,577.513 244.909,577.513C276.725,577.513 302.555,551.682 302.555,519.867C302.555,499.272 291.568,480.242 273.732,469.945L283.222,453.508C306.93,467.196 321.534,492.492 321.534,519.867C321.534,559.244 291.768,591.723 253.528,596.012L253.528,661.305L236.291,661.305L236.291,596.012Z" style="fill:rgb(0,157,99);"/>
    </g>
    <g transform="matrix(-0.000472588,0.892016,-0.822033,-0.000435511,3194.92,585.387)">
        <path d="M236.291,596.012C198.051,591.723 168.284,559.244 168.284,519.867C168.284,492.969 182.388,468.04 205.445,454.187L215.22,470.455C197.874,480.877 187.264,499.631 187.264,519.867C187.264,551.682 213.094,577.513 244.909,577.513C276.725,577.513 302.555,551.682 302.555,519.867C302.555,499.272 291.568,480.242 273.732,469.945L283.222,453.508C306.93,467.196 321.534,492.492 321.534,519.867C321.534,559.244 291.768,591.723 253.528,596.012L253.528,661.305L236.291,661.305L236.291,596.012Z" style="fill:rgb(0,157,99);"/>
    </g>
    <g transform="matrix(1.25,0,0,1.17391,-790.176,-76.5942)">
        <ellipse cx="2558.14" cy="751.769" rx="208.491" ry="230.542" style="fill:rgb(95,180,75);"/>
    </g>
    <g transform="matrix(-0.313173,1.04083e-16,-1.17961e-16,-0.335801,3395.63,1271.98)">
        <circle cx="268.444" cy="560.898" r="114.602" style="fill:url(#_Radial22);stroke:rgb(255,204,0);stroke-width:26.79px;"/>
    </g>
    <g transform="matrix(-0.229485,7.6118e-17,-8.6344e-17,-0.245292,3332.85,694.5)">
        <circle cx="268.444" cy="560.898" r="114.602" style="fill:url(#_Radial23);stroke:rgb(255,204,0);stroke-width:26.79px;"/>
    </g>
    <g transform="matrix(5.55112e-17,0.908314,-0.906159,1.11022e-16,4274.47,632.706)">
        <path d="M200.27,471.366L132.263,403.36L179.029,356.593L189.105,366.669L152.415,403.36L208.888,459.833L265.362,403.36L228.671,366.669L238.747,356.593L285.513,403.36L217.507,471.366L217.507,542.19L200.27,542.19L200.27,471.366Z" style="fill:rgb(25,10,152);"/>
    </g>
    <g transform="matrix(0.642275,0.642275,-0.640751,0.640751,3938.26,165.615)">
        <path d="M200.27,471.366L132.263,403.36L179.029,356.593L189.105,366.669L152.415,403.36L208.888,459.833L265.362,403.36L228.671,366.669L238.747,356.593L285.513,403.36L217.507,471.366L217.507,542.19L200.27,542.19L200.27,471.366Z" style="fill:rgb(25,10,152);"/>
    </g>
    <g transform="matrix(0.908314,-3.1225e-17,9.71445e-17,0.906159,3352.31,72.7949)">
        <path d="M200.27,471.366L132.263,403.36L179.029,356.593L189.105,366.669L152.415,403.36L208.888,459.833L265.362,403.36L228.671,366.669L238.747,356.593L285.513,403.36L217.507,471.366L217.507,542.19L200.27,542.19L200.27,471.366Z" style="fill:rgb(25,10,152);"/>
    </g>
    <g transform="matrix(0.670557,-0.612689,0.611236,0.668966,2886.15,415.009)">
        <path d="M200.27,471.366L132.263,403.36L179.029,356.593L189.105,366.669L152.415,403.36L208.888,459.833L265.362,403.36L228.671,366.669L238.747,356.593L285.513,403.36L217.507,471.366L217.507,542.19L200.27,542.19L200.27,471.366Z" style="fill:rgb(25,10,152);"/>
    </g>
    <g transform="matrix(0.670557,-0.612689,0.611236,0.668966,2886.15,415.009)">
        <path d="M200.27,471.366L132.263,403.36L179.029,356.593L189.105,366.669L152.415,403.36L208.888,459.833L265.362,403.36L228.671,366.669L238.747,356.593L285.513,403.36L217.507,471.366L217.507,542.19L200.27,542.19L200.27,471.366Z" style="fill:rgb(25,10,152);"/>
    </g>
    <g transform="matrix(-3.72966e-17,-0.908314,0.906159,-3.67761e-16,2820.34,1009.62)">
        <path d="M200.27,471.366L132.263,403.36L179.029,356.593L189.105,366.669L152.415,403.36L208.888,459.833L265.362,403.36L228.671,366.669L238.747,356.593L285.513,403.36L217.507,471.366L217.507,542.19L200.27,542.19L200.27,471.366Z" style="fill:rgb(25,10,152);"/>
    </g>
    <g transform="matrix(-0.630751,-0.630751,0.581265,-0.581265,3162.89,1539.06)">
        <path d="M236.291,596.012C198.051,591.723 168.284,559.244 168.284,519.867C168.284,492.969 182.388,468.04 205.445,454.187L215.22,470.455C197.874,480.877 187.264,499.631 187.264,519.867C187.264,551.682 213.094,577.513 244.909,577.513C276.725,577.513 302.555,551.682 302.555,519.867C302.555,499.272 291.568,480.242 273.732,469.945L283.222,453.508C306.93,467.196 321.534,492.492 321.534,519.867C321.534,559.244 291.768,591.723 253.528,596.012L253.528,661.305L236.291,661.305L236.291,596.012Z" style="fill:rgb(0,157,99);"/>
    </g>
    <g transform="matrix(-1.25,3.88578e-16,-3.88578e-16,-1.17391,6741.09,1696.11)">
        <ellipse cx="2558.14" cy="751.769" rx="208.491" ry="230.542" style="fill:rgb(97,75,180);"/>
    </g>
    <defs>
        <radialGradient id="_Radial1" cx="0" cy="0" r="1" gradientUnits="userSpaceOnUse" gradientTransform="matrix(114.602,0,0,114.602,268.444,560.898)"><stop offset="0" style="stop-color:white;stop-opacity:1"/><stop offset="0.48" style="stop-color:rgb(86,223,172);stop-opacity:1"/><stop offset="1" style="stop-color:rgb(34,213,147);stop-opacity:1"/></radialGradient>
        <radialGradient id="_Radial2" cx="0" cy="0" r="1" gradientUnits="userSpaceOnUse" gradientTransform="matrix(114.602,0,0,114.602,268.444,560.898)"><stop offset="0" style="stop-color:white;stop-opacity:1"/><stop offset="0.48" style="stop-color:rgb(86,223,172);stop-opacity:1"/><stop offset="1" style="stop-color:rgb(34,213,147);stop-opacity:1"/></radialGradient>
        <radialGradient id="_Radial3" cx="0" cy="0" r="1" gradientUnits="userSpaceOnUse" gradientTransform="matrix(114.602,0,0,114.602,268.444,560.898)"><stop offset="0" style="stop-color:white;stop-opacity:1"/><stop offset="0.48" style="stop-color:rgb(86,223,172);stop-opacity:1"/><stop offset="1" style="stop-color:rgb(34,213,147);stop-opacity:1"/></radialGradient>
        <radialGradient id="_Radial4" cx="0" cy="0" r="1" gradientUnits="userSpaceOnUse" gradientTransform="matrix(114.602,0,0,114.602,268.444,560.898)"><stop offset="0" style="stop-color:white;stop-opacity:1"/><stop offset="0.48" style="stop-color:rgb(86,223,172);stop-opacity:1"/><stop offset="1" style="stop-color:rgb(34,213,147);stop-opacity:1"/></radialGradient>
        <radialGradient id="_Radial5" cx="0" cy="0" r="1" gradientUnits="userSpaceOnUse" gradientTransform="matrix(114.602,0,0,114.602,268.444,560.898)"><stop offset="0" style="stop-color:white;stop-opacity:1"/><stop offset="0.48" style="stop-color:rgb(86,223,172);stop-opacity:1"/><stop offset="1" style="stop-color:rgb(34,213,147);stop-opacity:1"/></radialGradient>
        <radialGradient id="_Radial6" cx="0" cy="0" r="1" gradientUnits="userSpaceOnUse" gradientTransform="matrix(114.602,0,0,114.602,268.444,560.898)"><stop offset="0" style="stop-color:white;stop-opacity:1"/><stop offset="0.48" style="stop-color:rgb(86,223,172);stop-opacity:1"/><stop offset="1" style="stop-color:rgb(34,213,147);stop-opacity:1"/></radialGradient>
        <radialGradient id="_Radial7" cx="0" cy="0" r="1" gradientUnits="userSpaceOnUse" gradientTransform="matrix(114.602,0,0,114.602,268.444,560.898)"><stop offset="0" style="stop-color:white;stop-opacity:1"/><stop offset="0.48" style="stop-color:rgb(86,223,172);stop-opacity:1"/><stop offset="1" style="stop-color:rgb(34,213,147);stop-opacity:1"/></radialGradient>
        <radialGradient id="_Radial8" cx="0" cy="0" r="1" gradientUnits="userSpaceOnUse" gradientTransform="matrix(114.602,0,0,114.602,268.444,560.898)"><stop offset="0" style="stop-color:white;stop-opacity:1"/><stop offset="0.48" style="stop-color:rgb(86,223,172);stop-opacity:1"/><stop offset="1" style="stop-color:rgb(34,213,147);stop-opacity:1"/></radialGradient>
        <radialGradient id="_Radial9" cx="0" cy="0" r="1" gradientUnits="userSpaceOnUse" gradientTransform="matrix(114.602,0,0,114.602,268.444,560.898)"><stop offset="0" style="stop-color:white;stop-opacity:1"/><stop offset="0.48" style="stop-color:rgb(86,223,172);stop-opacity:1"/><stop offset="1" style="stop-color:rgb(34,213,147);stop-opacity:1"/></radialGradient>
        <radialGradient id="_Radial10" cx="0" cy="0" r="1" gradientUnits="userSpaceOnUse" gradientTransform="matrix(114.602,0,0,114.602,268.444,560.898)"><stop offset="0" style="stop-color:white;stop-opacity:1"/><stop offset="0.48" style="stop-color:rgb(86,223,172);stop-opacity:1"/><stop offset="1" style="stop-color:rgb(34,213,147);stop-opacity:1"/></radialGradient>
        <radialGradient id="_Radial11" cx="0" cy="0" r="1" gradientUnits="userSpaceOnUse" gradientTransform="matrix(114.602,0,0,114.602,268.444,560.898)"><stop offset="0" style="stop-color:white;stop-opacity:1"/><stop offset="0.48" style="stop-color:rgb(86,223,172);stop-opacity:1"/><stop offset="1" style="stop-color:rgb(34,213,147);stop-opacity:1"/></radialGradient>
        <radialGradient id="_Radial12" cx="0" cy="0" r="1" gradientUnits="userSpaceOnUse" gradientTransform="matrix(114.602,0,0,114.602,268.444,560.898)"><stop offset="0" style="stop-color:white;stop-opacity:1"/><stop offset="0.48" style="stop-color:rgb(86,223,172);stop-opacity:1"/><stop offset="1" style="stop-color:rgb(34,213,147);stop-opacity:1"/></radialGradient>
        <radialGradient id="_Radial13" cx="0" cy="0" r="1" gradientUnits="userSpaceOnUse" gradientTransform="matrix(114.602,0,0,114.602,268.444,560.898)"><stop offset="0" style="stop-color:white;stop-opacity:1"/><stop offset="0.48" style="stop-color:rgb(86,223,172);stop-opacity:1"/><stop offset="1" style="stop-color:rgb(34,213,147);stop-opacity:1"/></radialGradient>
        <radialGradient id="_Radial14" cx="0" cy="0" r="1" gradientUnits="userSpaceOnUse" gradientTransform="matrix(114.602,0,0,114.602,268.444,560.898)"><stop offset="0" style="stop-color:white;stop-opacity:1"/><stop offset="0.48" style="stop-color:rgb(86,223,172);stop-opacity:1"/><stop offset="1" style="stop-color:rgb(34,213,147);stop-opacity:1"/></radialGradient>
        <radialGradient id="_Radial15" cx="0" cy="0" r="1" gradientUnits="userSpaceOnUse" gradientTransform="matrix(114.602,0,0,114.602,268.444,560.898)"><stop offset="0" style="stop-color:white;stop-opacity:1"/><stop offset="0.48" style="stop-color:rgb(86,223,172);stop-opacity:1"/><stop offset="1" style="stop-color:rgb(34,213,147);stop-opacity:1"/></radialGradient>
        <radialGradient id="_Radial16" cx="0" cy="0" r="1" gradientUnits="userSpaceOnUse" gradientTransform="matrix(114.602,0,0,114.602,268.444,560.898)"><stop offset="0" style="stop-color:white;stop-opacity:1"/><stop offset="0.48" style="stop-color:rgb(86,223,172);stop-opacity:1"/><stop offset="1" style="stop-color:rgb(34,213,147);stop-opacity:1"/></radialGradient>
        <radialGradient id="_Radial17" cx="0" cy="0" r="1" gradientUnits="userSpaceOnUse" gradientTransform="matrix(114.602,0,0,114.602,268.444,560.898)"><stop offset="0" style="stop-color:white;stop-opacity:1"/><stop offset="0.48" style="stop-color:rgb(86,223,172);stop-opacity:1"/><stop offset="1" style="stop-color:rgb(34,213,147);stop-opacity:1"/></radialGradient>
        <radialGradient id="_Radial18" cx="0" cy="0" r="1" gradientUnits="userSpaceOnUse" gradientTransform="matrix(114.602,0,0,114.602,268.444,560.898)"><stop offset="0" style="stop-color:white;stop-opacity:1"/><stop offset="0.48" style="stop-color:rgb(86,223,172);stop-opacity:1"/><stop offset="1" style="stop-color:rgb(34,213,147);stop-opacity:1"/></radialGradient>
        <radialGradient id="_Radial19" cx="0" cy="0" r="1" gradientUnits="userSpaceOnUse" gradientTransform="matrix(114.602,0,0,114.602,268.444,560.898)"><stop offset="0" style="stop-color:white;stop-opacity:1"/><stop offset="0.48" style="stop-color:rgb(86,223,172);stop-opacity:1"/><stop offset="1" style="stop-color:rgb(34,213,147);stop-opacity:1"/></radialGradient>
        <radialGradient id="_Radial20" cx="0" cy="0" r="1" gradientUnits="userSpaceOnUse" gradientTransform="matrix(99.7992,0,0,99.7992,314.15,523.169)"><stop offset="0" style="stop-color:white;stop-opacity:1"/><stop offset="1" style="stop-color:rgb(51,30,225);stop-opacity:1"/></radialGradient>
        <radialGradient id="_Radial21" cx="0" cy="0" r="1" gradientUnits="userSpaceOnUse" gradientTransform="matrix(99.7992,0,0,99.7992,314.15,523.169)"><stop offset="0" style="stop-color:white;stop-opacity:1"/><stop offset="1" style="stop-color:rgb(51,30,225);stop-opacity:1"/></radialGradient>
        <radialGradient id="_Radial22" cx="0" cy="0" r="1" gradientUnits="userSpaceOnUse" gradientTransform="matrix(114.602,0,0,114.602,268.444,560.898)"><stop offset="0" style="stop-color:white;stop-opacity:1"/><stop offset="0.48" style="stop-color:rgb(86,223,172);stop-opacity:1"/><stop offset="1" style="stop-color:rgb(34,213,147);stop-opacity:1"/></radialGradient>
        <radialGradient id="_Radial23" cx="0" cy="0" r="1" gradientUnits="userSpaceOnUse" gradientTransform="matrix(114.602,0,0,114.602,268.444,560.898)"><stop offset="0" style="stop-color:white;stop-opacity:1"/><stop offset="0.48" style="stop-color:rgb(86,223,172);stop-opacity:1"/><stop offset="1" style="stop-color:rgb(34,213,147);stop-opacity:1"/></radialGradient>
    </defs>
</svg>
