<?xml version="1.0" encoding="UTF-8" standalone="no"?>
<!DOCTYPE svg PUBLIC "-//W3C//DTD SVG 1.1//EN" "http://www.w3.org/Graphics/SVG/1.1/DTD/svg11.dtd">
<svg width="100%" height="100%" viewBox="0 0 600 1050" version="1.1" xmlns="http://www.w3.org/2000/svg" xmlns:xlink="http://www.w3.org/1999/xlink" xml:space="preserve" xmlns:serif="http://www.serif.com/" style="fill-rule:evenodd;clip-rule:evenodd;stroke-linecap:round;stroke-linejoin:round;stroke-miterlimit:1.5;">
    <g transform="matrix(0.323941,0,0,0.323941,120.658,201.285)">
        <circle cx="268.444" cy="560.898" r="114.602" style="fill:url(#_Radial1);stroke:rgb(255,204,0);stroke-width:6.43px;"/>
    </g>
    <g transform="matrix(1,0,0,1,-869.475,35.3523)">
        <g transform="matrix(0.179023,0,0,0.179023,1058.07,652.355)">
            <circle cx="268.444" cy="560.898" r="114.602" style="fill:url(#_Radial2);stroke:rgb(255,204,0);stroke-width:11.64px;"/>
        </g>
        <g transform="matrix(0.50292,0,0,0.50292,897.733,551.933)">
            <path d="M405.77,471.38L337.75,403.36L362.439,378.67L372.515,388.746L357.901,403.36L414.375,459.833L470.848,403.36L456.16,388.671L466.235,378.596L490.999,403.36L423.007,471.352L423.007,542.19L405.77,542.19L405.77,471.38Z" style="fill:rgb(51,30,225);"/>
        </g>
    </g>
    <g transform="matrix(1,0,0,1,-702.927,-235.835)">
        <g transform="matrix(0.187588,0,0,0.187588,1097.33,616.983)">
            <circle cx="268.444" cy="560.898" r="114.602" style="fill:url(#_Radial3);stroke:rgb(255,204,0);stroke-width:11.11px;"/>
        </g>
        <g transform="matrix(0.50292,0,0,0.50292,826.283,522.476)">
            <path d="M630.576,471.488L564.173,405.085L584.324,405.085L639.073,459.833L693.821,405.085L713.973,405.085L647.813,471.244L647.813,542.19L630.576,542.19L630.576,471.488Z" style="fill:rgb(137,123,255);"/>
        </g>
    </g>
    <g transform="matrix(1,0,0,1,-1086.05,80.9741)">
        <g transform="matrix(0.237185,0,0,0.237185,1143.3,404.519)">
            <circle cx="268.444" cy="560.898" r="114.602" style="fill:url(#_Radial4);stroke:rgb(255,204,0);stroke-width:8.78px;"/>
        </g>
        <g transform="matrix(0.50292,0,0,0.50292,1083.76,276.435)">
            <path d="M236.291,596.012C198.051,591.723 168.284,559.244 168.284,519.867C168.284,492.969 182.388,468.04 205.445,454.187L215.22,470.455C197.874,480.877 187.264,499.631 187.264,519.867C187.264,551.682 213.094,577.513 244.909,577.513C276.725,577.513 302.555,551.682 302.555,519.867C302.555,499.272 291.568,480.242 273.732,469.945L283.222,453.508C306.93,467.196 321.534,492.492 321.534,519.867C321.534,559.244 291.768,591.723 253.528,596.012L253.528,661.305L236.291,661.305L236.291,596.012Z" style="fill:rgb(0,157,99);"/>
        </g>
    </g>
    <g transform="matrix(1,0,0,1,-1086.05,80.9741)">
        <g transform="matrix(0.237185,0,0,0.237185,1249.99,404.519)">
            <circle cx="268.444" cy="560.898" r="114.602" style="fill:url(#_Radial5);stroke:rgb(255,204,0);stroke-width:8.78px;"/>
        </g>
        <g transform="matrix(0.50292,0,0,0.50292,1080.85,281.059)">
            <path d="M454.445,585.364C416.204,581.075 386.438,548.596 386.438,509.219C386.438,500.281 388.002,491.411 391.059,483.012L408.894,489.503C406.594,495.822 405.418,502.495 405.418,509.219C405.418,541.034 431.248,566.864 463.063,566.864C494.878,566.864 520.708,541.034 520.708,509.219C520.708,502.495 519.532,495.822 517.232,489.503L535.067,483.012C538.124,491.411 539.688,500.281 539.688,509.219C539.688,548.596 509.922,581.075 471.681,585.364L471.681,652.112L454.445,652.112L454.445,585.364Z" style="fill:rgb(34,213,147);"/>
        </g>
    </g>
    <g transform="matrix(1,0,0,1,-1086.05,80.9741)">
        <g transform="matrix(0.237185,0,0,0.237185,1360.52,399.659)">
            <circle cx="268.444" cy="560.898" r="114.602" style="fill:url(#_Radial6);stroke:rgb(255,204,0);stroke-width:8.78px;"/>
        </g>
        <g transform="matrix(0.50292,0,0,0.50292,1077.91,281.061)">
            <path d="M679.582,576.182C646.615,572.524 619.313,547.838 612.861,514.646L631.492,511.025C636.758,538.114 660.483,557.671 688.078,557.671C716.053,557.671 739.99,537.586 744.848,510.036L763.539,513.331C757.594,547.048 730.151,572.354 696.819,576.155L696.819,640.112L679.582,640.112L679.582,576.182Z" style="fill:rgb(114,252,201);"/>
        </g>
    </g>
    <g transform="matrix(0.343904,0,0,0.343904,90.015,147.764)">
        <path d="M803.449,619.682L803.449,729.068L726.102,806.415L616.717,806.415L539.37,729.068L539.37,619.682L616.717,542.335L726.102,542.335L803.449,619.682Z" style="fill:url(#_Radial7);stroke:rgb(255,202,0);stroke-width:6.06px;"/>
    </g>
    <g transform="matrix(0.50292,0,0,0.50292,288.971,121.354)">
        <path d="M314.15,423.37L413.949,523.169L314.15,622.969L214.351,523.169L314.15,423.37Z" style="fill:url(#_Radial8);stroke:rgb(255,197,0);stroke-width:4.14px;"/>
    </g>
    <g transform="matrix(1,0,0,1,-871.972,25.364)">
        <g transform="matrix(0.279395,0,0,0.279395,1020.15,735.991)">
            <path d="M314.15,423.37L413.949,523.169L314.15,622.969L214.351,523.169L314.15,423.37Z" style="fill:url(#_Radial9);stroke:rgb(255,197,0);stroke-width:7.46px;"/>
        </g>
        <g transform="matrix(0.50292,0,0,0.50292,875.743,627.325)">
            <path d="M454.445,585.364C416.204,581.075 386.438,548.596 386.438,509.219C386.438,500.281 388.002,491.411 391.059,483.012L408.894,489.503C406.594,495.822 405.418,502.495 405.418,509.219C405.418,541.034 431.248,566.864 463.063,566.864C494.878,566.864 520.708,541.034 520.708,509.219C520.708,502.495 519.532,495.822 517.232,489.503L535.067,483.012C538.124,491.411 539.688,500.281 539.688,509.219C539.688,548.596 509.922,581.075 471.681,585.364L471.681,652.112L454.445,652.112L454.445,585.364Z" style="fill:rgb(34,213,147);"/>
        </g>
    </g>
    <g transform="matrix(0.561214,0,0,0.561214,-335.459,363.812)">
        <g transform="matrix(0.189931,0,0,0.189931,1184.86,669.32)">
            <circle cx="268.444" cy="560.898" r="114.602" style="fill:url(#_Radial10);stroke:rgb(255,204,0);stroke-width:19.54px;"/>
        </g>
        <g transform="matrix(0.50292,0,0,0.50292,1130.79,574.747)">
            <path d="M200.27,471.366L132.263,403.36L179.029,356.593L189.105,366.669L152.415,403.36L208.888,459.833L265.362,403.36L228.671,366.669L238.747,356.593L285.513,403.36L217.507,471.366L217.507,542.19L200.27,542.19L200.27,471.366Z" style="fill:rgb(25,10,152);"/>
        </g>
    </g>
    <g transform="matrix(0.561214,0,0,0.561214,-334.918,358.499)">
        <g transform="matrix(0.290068,0,0,0.290068,1143.75,755.16)">
            <path d="M314.15,423.37L413.949,523.169L314.15,622.969L214.351,523.169L314.15,423.37Z" style="fill:url(#_Radial11);stroke:rgb(255,197,0);stroke-width:12.8px;"/>
        </g>
        <g transform="matrix(0.50292,0,0,0.50292,1111.71,645.516)">
            <path d="M236.291,596.012C198.051,591.723 168.284,559.244 168.284,519.867C168.284,492.969 182.388,468.04 205.445,454.187L215.22,470.455C197.874,480.877 187.264,499.631 187.264,519.867C187.264,551.682 213.094,577.513 244.909,577.513C276.725,577.513 302.555,551.682 302.555,519.867C302.555,499.272 291.568,480.242 273.732,469.945L283.222,453.508C306.93,467.196 321.534,492.492 321.534,519.867C321.534,559.244 291.768,591.723 253.528,596.012L253.528,661.305L236.291,661.305L236.291,596.012Z" style="fill:rgb(0,157,99);"/>
        </g>
    </g>
    <g transform="matrix(1,0,0,1,-702.927,-242.794)">
        <g transform="matrix(0.25146,0,0,0.25146,1068.47,722.821)">
            <path d="M314.15,423.37L413.949,523.169L314.15,622.969L214.351,523.169L314.15,423.37Z" style="fill:url(#_Radial12);stroke:rgb(255,197,0);stroke-width:8.28px;"/>
        </g>
        <g transform="matrix(0.50292,0,0,0.50292,801.355,597.87)">
            <path d="M679.582,576.182C646.615,572.524 619.313,547.838 612.861,514.646L631.492,511.025C636.758,538.114 660.483,557.671 688.078,557.671C716.053,557.671 739.99,537.586 744.848,510.036L763.539,513.331C757.594,547.048 730.151,572.354 696.819,576.155L696.819,640.112L679.582,640.112L679.582,576.182Z" style="fill:rgb(114,252,201);"/>
        </g>
    </g>
    <g transform="matrix(1,0,0,1,-1086.05,80.9741)">
        <g transform="matrix(0.253075,0,0,0.253075,1128.42,275.991)">
            <path d="M314.15,423.37L413.949,523.169L314.15,622.969L214.351,523.169L314.15,423.37Z" style="fill:url(#_Radial13);stroke:rgb(255,197,0);stroke-width:8.23px;"/>
        </g>
        <g transform="matrix(0.50292,0,0,0.50292,1102.84,205.667)">
            <path d="M200.27,471.366L132.263,403.36L179.029,356.593L189.105,366.669L152.415,403.36L208.888,459.833L265.362,403.36L228.671,366.669L238.747,356.593L285.513,403.36L217.507,471.366L217.507,542.19L200.27,542.19L200.27,471.366Z" style="fill:rgb(25,10,152);"/>
        </g>
    </g>
    <g transform="matrix(1,0,0,1,-1086.05,80.9741)">
        <g transform="matrix(0.253075,0,0,0.253075,1232.23,275.991)">
            <path d="M314.15,423.37L413.949,523.169L314.15,622.969L214.351,523.169L314.15,423.37Z" style="fill:url(#_Radial14);stroke:rgb(255,197,0);stroke-width:8.23px;"/>
        </g>
        <g transform="matrix(0.50292,0,0,0.50292,1102.84,205.667)">
            <path d="M405.77,471.38L337.75,403.36L362.439,378.67L372.515,388.746L357.901,403.36L414.375,459.833L470.848,403.36L456.16,388.671L466.235,378.596L490.999,403.36L423.007,471.352L423.007,542.19L405.77,542.19L405.77,471.38Z" style="fill:rgb(51,30,225);"/>
        </g>
    </g>
    <g transform="matrix(1,0,0,1,-1086.05,80.9741)">
        <g transform="matrix(0.253075,0,0,0.253075,1344.52,275.991)">
            <path d="M314.15,423.37L413.949,523.169L314.15,622.969L214.351,523.169L314.15,423.37Z" style="fill:url(#_Radial15);stroke:rgb(255,197,0);stroke-width:8.23px;"/>
        </g>
        <g transform="matrix(0.50292,0,0,0.50292,1102.84,205.667)">
            <path d="M630.576,471.488L564.173,405.085L584.324,405.085L639.073,459.833L693.821,405.085L713.973,405.085L647.813,471.244L647.813,542.19L630.576,542.19L630.576,471.488Z" style="fill:rgb(137,123,255);"/>
        </g>
    </g>
    <g transform="matrix(0.50292,0,0,0.50292,116.433,-109.987)">
        <path d="M200.27,471.366L132.263,403.36L179.029,356.593L189.105,366.669L152.415,403.36L208.888,459.833L265.362,403.36L228.671,366.669L238.747,356.593L285.513,403.36L217.507,471.366L217.507,542.19L200.27,542.19L200.27,471.366Z" style="fill:rgb(25,10,152);"/>
    </g>
    <g transform="matrix(0.50292,0,0,0.50292,116.433,-109.987)">
        <path d="M405.77,471.38L337.75,403.36L362.439,378.67L372.515,388.746L357.901,403.36L414.375,459.833L470.848,403.36L456.16,388.671L466.235,378.596L490.999,403.36L423.007,471.352L423.007,542.19L405.77,542.19L405.77,471.38Z" style="fill:rgb(51,30,225);"/>
    </g>
    <g transform="matrix(0.50292,0,0,0.50292,116.433,-109.987)">
        <path d="M630.576,471.488L564.173,405.085L584.324,405.085L639.073,459.833L693.821,405.085L713.973,405.085L647.813,471.244L647.813,542.19L630.576,542.19L630.576,471.488Z" style="fill:rgb(137,123,255);"/>
    </g>
    <g transform="matrix(0.50292,0,0,0.50292,97.3533,-39.2187)">
        <path d="M236.291,596.012C198.051,591.723 168.284,559.244 168.284,519.867C168.284,492.969 182.388,468.04 205.445,454.187L215.22,470.455C197.874,480.877 187.264,499.631 187.264,519.867C187.264,551.682 213.094,577.513 244.909,577.513C276.725,577.513 302.555,551.682 302.555,519.867C302.555,499.272 291.568,480.242 273.732,469.945L283.222,453.508C306.93,467.196 321.534,492.492 321.534,519.867C321.534,559.244 291.768,591.723 253.528,596.012L253.528,661.305L236.291,661.305L236.291,596.012Z" style="fill:rgb(0,157,99);"/>
    </g>
    <g transform="matrix(0.50292,0,0,0.50292,94.4432,-34.5952)">
        <path d="M454.445,585.364C416.204,581.075 386.438,548.596 386.438,509.219C386.438,500.281 388.002,491.411 391.059,483.012L408.894,489.503C406.594,495.822 405.418,502.495 405.418,509.219C405.418,541.034 431.248,566.864 463.063,566.864C494.878,566.864 520.708,541.034 520.708,509.219C520.708,502.495 519.532,495.822 517.232,489.503L535.067,483.012C538.124,491.411 539.688,500.281 539.688,509.219C539.688,548.596 509.922,581.075 471.681,585.364L471.681,652.112L454.445,652.112L454.445,585.364Z" style="fill:rgb(34,213,147);"/>
    </g>
    <g transform="matrix(0.50292,0,0,0.50292,91.5049,-34.5929)">
        <path d="M679.582,576.182C646.615,572.524 619.313,547.838 612.861,514.646L631.492,511.025C636.758,538.114 660.483,557.671 688.078,557.671C716.053,557.671 739.99,537.586 744.848,510.036L763.539,513.331C757.594,547.048 730.151,572.354 696.819,576.155L696.819,640.112L679.582,640.112L679.582,576.182Z" style="fill:rgb(114,252,201);"/>
    </g>
    <defs>
        <radialGradient id="_Radial1" cx="0" cy="0" r="1" gradientUnits="userSpaceOnUse" gradientTransform="matrix(114.602,0,0,114.602,268.444,560.898)"><stop offset="0" style="stop-color:white;stop-opacity:1"/><stop offset="0.48" style="stop-color:rgb(86,223,172);stop-opacity:1"/><stop offset="1" style="stop-color:rgb(34,213,147);stop-opacity:1"/></radialGradient>
        <radialGradient id="_Radial2" cx="0" cy="0" r="1" gradientUnits="userSpaceOnUse" gradientTransform="matrix(114.602,0,0,114.602,268.444,560.898)"><stop offset="0" style="stop-color:white;stop-opacity:1"/><stop offset="0.48" style="stop-color:rgb(86,223,172);stop-opacity:1"/><stop offset="1" style="stop-color:rgb(34,213,147);stop-opacity:1"/></radialGradient>
        <radialGradient id="_Radial3" cx="0" cy="0" r="1" gradientUnits="userSpaceOnUse" gradientTransform="matrix(114.602,0,0,114.602,268.444,560.898)"><stop offset="0" style="stop-color:white;stop-opacity:1"/><stop offset="0.48" style="stop-color:rgb(86,223,172);stop-opacity:1"/><stop offset="1" style="stop-color:rgb(34,213,147);stop-opacity:1"/></radialGradient>
        <radialGradient id="_Radial4" cx="0" cy="0" r="1" gradientUnits="userSpaceOnUse" gradientTransform="matrix(114.602,0,0,114.602,268.444,560.898)"><stop offset="0" style="stop-color:white;stop-opacity:1"/><stop offset="0.48" style="stop-color:rgb(86,223,172);stop-opacity:1"/><stop offset="1" style="stop-color:rgb(34,213,147);stop-opacity:1"/></radialGradient>
        <radialGradient id="_Radial5" cx="0" cy="0" r="1" gradientUnits="userSpaceOnUse" gradientTransform="matrix(114.602,0,0,114.602,268.444,560.898)"><stop offset="0" style="stop-color:white;stop-opacity:1"/><stop offset="0.48" style="stop-color:rgb(86,223,172);stop-opacity:1"/><stop offset="1" style="stop-color:rgb(34,213,147);stop-opacity:1"/></radialGradient>
        <radialGradient id="_Radial6" cx="0" cy="0" r="1" gradientUnits="userSpaceOnUse" gradientTransform="matrix(114.602,0,0,114.602,268.444,560.898)"><stop offset="0" style="stop-color:white;stop-opacity:1"/><stop offset="0.48" style="stop-color:rgb(86,223,172);stop-opacity:1"/><stop offset="1" style="stop-color:rgb(34,213,147);stop-opacity:1"/></radialGradient>
        <radialGradient id="_Radial7" cx="0" cy="0" r="1" gradientUnits="userSpaceOnUse" gradientTransform="matrix(132.04,0,0,132.04,671.41,674.375)"><stop offset="0" style="stop-color:white;stop-opacity:1"/><stop offset="0.56" style="stop-color:rgb(90,242,244);stop-opacity:1"/><stop offset="1" style="stop-color:rgb(20,237,239);stop-opacity:1"/></radialGradient>
        <radialGradient id="_Radial8" cx="0" cy="0" r="1" gradientUnits="userSpaceOnUse" gradientTransform="matrix(99.7992,0,0,99.7992,314.15,523.169)"><stop offset="0" style="stop-color:white;stop-opacity:1"/><stop offset="1" style="stop-color:rgb(51,30,225);stop-opacity:1"/></radialGradient>
        <radialGradient id="_Radial9" cx="0" cy="0" r="1" gradientUnits="userSpaceOnUse" gradientTransform="matrix(99.7992,0,0,99.7992,314.15,523.169)"><stop offset="0" style="stop-color:white;stop-opacity:1"/><stop offset="1" style="stop-color:rgb(51,30,225);stop-opacity:1"/></radialGradient>
        <radialGradient id="_Radial10" cx="0" cy="0" r="1" gradientUnits="userSpaceOnUse" gradientTransform="matrix(114.602,0,0,114.602,268.444,560.898)"><stop offset="0" style="stop-color:white;stop-opacity:1"/><stop offset="0.48" style="stop-color:rgb(86,223,172);stop-opacity:1"/><stop offset="1" style="stop-color:rgb(34,213,147);stop-opacity:1"/></radialGradient>
        <radialGradient id="_Radial11" cx="0" cy="0" r="1" gradientUnits="userSpaceOnUse" gradientTransform="matrix(99.7992,0,0,99.7992,314.15,523.169)"><stop offset="0" style="stop-color:white;stop-opacity:1"/><stop offset="1" style="stop-color:rgb(51,30,225);stop-opacity:1"/></radialGradient>
        <radialGradient id="_Radial12" cx="0" cy="0" r="1" gradientUnits="userSpaceOnUse" gradientTransform="matrix(99.7992,0,0,99.7992,314.15,523.169)"><stop offset="0" style="stop-color:white;stop-opacity:1"/><stop offset="1" style="stop-color:rgb(51,30,225);stop-opacity:1"/></radialGradient>
        <radialGradient id="_Radial13" cx="0" cy="0" r="1" gradientUnits="userSpaceOnUse" gradientTransform="matrix(99.7992,0,0,99.7992,314.15,523.169)"><stop offset="0" style="stop-color:white;stop-opacity:1"/><stop offset="1" style="stop-color:rgb(51,30,225);stop-opacity:1"/></radialGradient>
        <radialGradient id="_Radial14" cx="0" cy="0" r="1" gradientUnits="userSpaceOnUse" gradientTransform="matrix(99.7992,0,0,99.7992,314.15,523.169)"><stop offset="0" style="stop-color:white;stop-opacity:1"/><stop offset="1" style="stop-color:rgb(51,30,225);stop-opacity:1"/></radialGradient>
        <radialGradient id="_Radial15" cx="0" cy="0" r="1" gradientUnits="userSpaceOnUse" gradientTransform="matrix(99.7992,0,0,99.7992,314.15,523.169)"><stop offset="0" style="stop-color:white;stop-opacity:1"/><stop offset="1" style="stop-color:rgb(51,30,225);stop-opacity:1"/></radialGradient>
    </defs>
</svg>
