<?xml version="1.0" encoding="UTF-8" standalone="no"?><!DOCTYPE svg PUBLIC "-//W3C//DTD SVG 1.1//EN" "http://www.w3.org/Graphics/SVG/1.1/DTD/svg11.dtd"><svg width="100%" height="100%" viewBox="0 0 1500 1500" version="1.1" xmlns="http://www.w3.org/2000/svg" xmlns:xlink="http://www.w3.org/1999/xlink" xml:space="preserve" xmlns:serif="http://www.serif.com/" style="fill-rule:evenodd;clip-rule:evenodd;stroke-linecap:round;stroke-linejoin:round;stroke-miterlimit:1.5;"><path d="M234.212,674.518c-6.56,-0 -17.646,-5.776 -24.577,-2.369c-21.808,10.719 -41.959,10.03 -54.187,34.072c-5.93,11.659 -6.906,43.681 -2.68,56.431c0.813,2.451 2.571,18.323 3.483,18.323" style="fill:none;stroke:#000;stroke-width:12.5px;"/><path d="M556.932,687.732c3.063,0 11.144,-3.637 15.458,-1.48c21.434,10.717 53.737,0.867 64.265,21.923c4.352,8.705 -12.979,58.636 -12.979,69.051c0,0.952 -0.054,3.493 -0.888,3.493" style="fill:none;stroke:#000;stroke-width:12.5px;"/><path d="M1058.29,780.503c-0,-24.053 8.411,-56.623 21.344,-74.163c22.709,-30.797 90.644,0.828 90.644,57.064" style="fill:none;stroke:#000;stroke-width:12.5px;"/><g><path d="M178.226,163.027c-13.942,-27.884 11.639,-46.839 35.476,-52.849c8.346,-2.104 21.595,-5.126 30.499,-2.919c10.029,2.486 21.425,5.159 31.003,8.333c18.813,6.235 59.281,-17.211 59.281,-35.214" style="fill:none;stroke:#000;stroke-width:12.5px;"/><rect x="142.065" y="121.702" width="64.414" height="64.414" style="fill:#5b006d;"/><ellipse cx="317.637" cy="101.467" rx="37.089" ry="38.048" style="fill:#004111;"/></g><g><path d="M299.387,253.648c-0,-15.78 35.022,5.939 39.355,8.577c26.414,16.082 22.672,39.313 34.621,63.212c3.582,7.162 10.577,9.451 17.623,12.974c3.091,1.546 13.353,3.088 9.897,3.088" style="fill:none;stroke:#000;stroke-width:12.5px;"/><rect x="371.676" y="306.934" width="64.414" height="64.414" style="fill:#5b006d;"/><ellipse cx="310.452" cy="242.83" rx="37.089" ry="38.048" style="fill:#004111;"/></g><g><path d="M1210.31,124.372c29.263,-14.884 67.361,-16.555 96.886,5.526c11.252,8.414 24.777,27.227 37.156,27.227" style="fill:none;stroke:#000;stroke-width:12.5px;"/><ellipse cx="1337.35" cy="156.914" rx="37.089" ry="38.048" style="fill:#004111;"/><ellipse cx="1206.22" cy="112.313" rx="37.089" ry="38.048" style="fill:#004111;"/></g><path d="M1107.67,213.912c-16.58,16.299 -21.08,68.102 -1.784,87.399c5.793,5.792 27.254,21.666 27.254,29.127" style="fill:none;stroke:#000;stroke-width:12.5px;"/><rect x="1108.74" y="307.842" width="64.414" height="64.414" style="fill:#5b006d;"/><rect x="1057.18" y="186.116" width="64.414" height="64.414" style="fill:#5b006d;"/><rect x="665.359" y="70.199" width="64.414" height="64.414" style="fill:#5b006d;"/><rect x="716.984" y="302.032" width="64.414" height="64.414" style="fill:#5b006d;"/><rect x="133.13" y="763.147" width="64.414" height="64.414" style="fill:#5b006d;"/><rect x="519.595" y="643.761" width="64.414" height="64.414" style="fill:#5b006d;"/><path d="M432.686,778.747c-0,-20.404 -8.08,-48.032 -20.504,-62.911c-21.814,-26.124 -87.072,0.703 -87.072,48.406" style="fill:none;stroke:#000;stroke-width:12.5px;"/><rect x="292.903" y="763.575" width="64.414" height="64.414" style="fill:#5b006d;"/><ellipse cx="418.582" cy="789.941" rx="37.089" ry="38.048" style="fill:#004111;"/><g><path d="M456.113,768.112c0,15.094 -2.507,36.751 4.424,50.448c7.756,15.328 28.031,19.024 41.431,12.323c1.871,-0.936 10.803,-9.245 11.694,-11.029c6.055,-12.11 10.128,-21.931 10.128,-36.385" style="fill:none;stroke:#ff7a00;stroke-width:24.39px;"/><path d="M486.204,901.532l0.821,-68.246" style="fill:none;stroke:#ff7a00;stroke-width:12.19px;stroke-linecap:butt;"/></g><g><path d="M131.516,766.147c-0,15.094 -2.508,36.751 4.424,50.448c7.756,15.328 28.03,19.024 41.43,12.323c1.872,-0.936 10.803,-9.245 11.694,-11.029c6.056,-12.11 10.129,-21.931 10.129,-36.385" style="fill:none;stroke:#ff7a00;stroke-width:24.39px;"/><path d="M161.607,899.567l0.821,-68.246" style="fill:none;stroke:#ff7a00;stroke-width:12.19px;stroke-linecap:butt;"/></g><g><path d="M293.345,766.575c-0,15.094 -2.508,36.751 4.424,50.448c7.756,15.329 28.031,19.025 41.43,12.324c1.872,-0.937 10.804,-9.246 11.695,-11.029c6.055,-12.111 10.128,-21.932 10.128,-36.385" style="fill:none;stroke:#ff7a00;stroke-width:24.39px;"/><path d="M323.436,899.996l0.821,-68.247" style="fill:none;stroke:#ff7a00;stroke-width:12.19px;stroke-linecap:butt;"/></g><ellipse cx="838.805" cy="172.661" rx="37.089" ry="38.048" style="fill:#004111;"/><ellipse cx="628.269" cy="237.928" rx="37.089" ry="38.048" style="fill:#004111;"/><ellipse cx="621.099" cy="789.513" rx="37.089" ry="38.048" style="fill:#004111;"/><ellipse cx="234.633" cy="670.127" rx="37.089" ry="38.048" style="fill:#004111;"/><g><path d="M384.964,766.575c0,15.094 -2.507,36.751 4.424,50.448c7.756,15.329 28.031,19.025 41.431,12.324c1.871,-0.937 10.803,-9.246 11.694,-11.029c6.055,-12.111 10.128,-21.932 10.128,-36.385" style="fill:none;stroke:#00b0ff;stroke-width:24.39px;"/><path d="M415.055,899.996l0.821,-68.247" style="fill:none;stroke:#00b0ff;stroke-width:12.19px;stroke-linecap:butt;"/></g><g><path d="M587.481,767.683c-0,15.094 -2.507,36.751 4.424,50.448c7.756,15.329 28.031,19.025 41.431,12.324c1.871,-0.937 10.803,-9.246 11.694,-11.029c6.055,-12.111 10.128,-21.932 10.128,-36.385" style="fill:none;stroke:#00b0ff;stroke-width:24.39px;"/><path d="M617.572,901.104l0.821,-68.247" style="fill:none;stroke:#00b0ff;stroke-width:12.19px;stroke-linecap:butt;"/></g><g><path d="M182.113,768.112c-0,15.094 -2.507,36.751 4.424,50.448c7.756,15.328 28.031,19.024 41.431,12.323c1.871,-0.936 10.803,-9.245 11.694,-11.029c6.055,-12.11 10.128,-21.931 10.128,-36.385" style="fill:none;stroke:#00b0ff;stroke-width:24.39px;"/><path d="M212.204,901.532l0.821,-68.246" style="fill:none;stroke:#00b0ff;stroke-width:12.19px;stroke-linecap:butt;"/></g><rect x="40.984" y="901.783" width="692.807" height="11.61" style="fill:#cfcbcb;stroke:#cfcbcb;stroke-width:6.42px;"/><rect x="133.13" y="763.147" width="64.414" height="64.414" style="fill:#5b006d;"/><rect x="1125.8" y="763.103" width="64.414" height="64.414" style="fill:#5b006d;"/><g><path d="M1257.61,767.64c0,15.094 -2.507,36.75 4.425,50.448c7.756,15.328 28.03,19.024 41.43,12.323c1.871,-0.936 10.803,-9.245 11.694,-11.029c6.055,-12.11 10.128,-21.931 10.128,-36.385" style="fill:none;stroke:#ff7a00;stroke-width:24.39px;"/><path d="M1287.7,901.06l0.821,-68.247" style="fill:none;stroke:#ff7a00;stroke-width:12.19px;stroke-linecap:butt;"/></g><g><path d="M131.516,766.147c-0,15.094 -2.508,36.751 4.424,50.448c7.756,15.328 28.03,19.024 41.43,12.323c1.872,-0.936 10.803,-9.245 11.694,-11.029c6.056,-12.11 10.129,-21.931 10.129,-36.385" style="fill:none;stroke:#ff7a00;stroke-width:24.39px;"/><path d="M161.607,899.567l0.821,-68.246" style="fill:none;stroke:#ff7a00;stroke-width:12.19px;stroke-linecap:butt;"/></g><g><path d="M857.403,766.103c0,15.094 -2.507,36.751 4.424,50.448c7.756,15.328 28.031,19.024 41.431,12.324c1.871,-0.937 10.803,-9.246 11.694,-11.029c6.055,-12.111 10.128,-21.932 10.128,-36.385" style="fill:none;stroke:#ff7a00;stroke-width:24.39px;"/><path d="M887.494,899.524l0.821,-68.247" style="fill:none;stroke:#ff7a00;stroke-width:12.19px;stroke-linecap:butt;"/></g><g><path d="M1124.38,767.64c-0,15.094 -2.507,36.75 4.424,50.448c7.756,15.328 28.031,19.024 41.431,12.323c1.871,-0.936 10.803,-9.245 11.694,-11.029c6.055,-12.11 10.128,-21.931 10.128,-36.385" style="fill:none;stroke:#ff7a00;stroke-width:24.39px;"/><path d="M1154.48,901.06l0.821,-68.247" style="fill:none;stroke:#ff7a00;stroke-width:12.19px;stroke-linecap:butt;"/></g><ellipse cx="621.099" cy="789.513" rx="37.089" ry="38.048" style="fill:#004111;"/><ellipse cx="1058.29" cy="789.469" rx="37.089" ry="38.048" style="fill:#004111;"/><g><path d="M1027.7,767.64c-0,15.094 -2.507,36.75 4.424,50.448c7.756,15.328 28.031,19.024 41.431,12.323c1.871,-0.936 10.803,-9.245 11.694,-11.029c6.055,-12.11 10.128,-21.931 10.128,-36.385" style="fill:none;stroke:#00b0ff;stroke-width:24.39px;"/><path d="M1057.79,901.06l0.821,-68.247" style="fill:none;stroke:#00b0ff;stroke-width:12.19px;stroke-linecap:butt;"/></g><g><path d="M587.481,767.683c-0,15.094 -2.507,36.751 4.424,50.448c7.756,15.329 28.031,19.025 41.431,12.324c1.871,-0.937 10.803,-9.246 11.694,-11.029c6.055,-12.111 10.128,-21.932 10.128,-36.385" style="fill:none;stroke:#00b0ff;stroke-width:24.39px;"/><path d="M617.572,901.104l0.821,-68.247" style="fill:none;stroke:#00b0ff;stroke-width:12.19px;stroke-linecap:butt;"/></g><g><path d="M1313.37,767.64c0,15.094 -2.507,36.75 4.425,50.448c7.756,15.328 28.03,19.024 41.43,12.323c1.872,-0.936 10.803,-9.245 11.694,-11.029c6.056,-12.11 10.129,-21.931 10.129,-36.385" style="fill:none;stroke:#00b0ff;stroke-width:24.39px;"/><path d="M1343.46,901.06l0.821,-68.247" style="fill:none;stroke:#00b0ff;stroke-width:12.19px;stroke-linecap:butt;"/></g><g><path d="M949.927,766.103c-0,15.094 -2.507,36.751 4.424,50.448c7.756,15.328 28.031,19.024 41.431,12.324c1.871,-0.937 10.803,-9.246 11.694,-11.029c6.055,-12.111 10.128,-21.932 10.128,-36.385" style="fill:none;stroke:#00b0ff;stroke-width:24.39px;"/><path d="M980.018,899.524l0.821,-68.247" style="fill:none;stroke:#00b0ff;stroke-width:12.19px;stroke-linecap:butt;"/></g><rect x="40.984" y="901.783" width="692.807" height="11.61" style="fill:#cfcbcb;stroke:#cfcbcb;stroke-width:6.42px;"/><rect x="766.871" y="901.739" width="692.807" height="11.61" style="fill:#cfcbcb;stroke:#cfcbcb;stroke-width:6.42px;"/><g transform="matrix(1,0,0,1,-18.8443,-74.8213)"><text x="164.931px" y="544.362px" style="font-family:'ArialMT', 'Arial', sans-serif;font-size:50px;">heterovalent</text><text x="199.709px" y="595.998px" style="font-family:'ArialMT', 'Arial', sans-serif;font-size:50px;">bispeciï¬c</text></g><g transform="matrix(1,0,0,1,-133.004,-74.8213)"><text x="672.863px" y="544.362px" style="font-family:'ArialMT', 'Arial', sans-serif;font-size:50px;">50%-50% mixture</text><text x="700.621px" y="595.998px" style="font-family:'ArialMT', 'Arial', sans-serif;font-size:50px;">of monovalents</text></g><g transform="matrix(1,0,0,1,-250.691,-74.8213)"><text x="1255.94px" y="544.362px" style="font-family:'ArialMT', 'Arial', sans-serif;font-size:50px;">50%-50% mixture</text><text x="1339.28px" y="595.998px" style="font-family:'ArialMT', 'Arial', sans-serif;font-size:50px;">of bivalent</text></g><text x="240.927px" y="975.468px" style="font-family:'ArialMT', 'Arial', sans-serif;font-size:50px;">ligand bound</text><text x="919.686px" y="974.996px" style="font-family:'ArialMT', 'Arial', sans-serif;font-size:50px;">ligand fully bound</text><path d="M701.597,1205.76c-6.271,-7.958 -15.38,-4.724 -24.364,-1.009c-20.832,8.613 -29.403,33.95 -29.403,59.496c-0,5.769 2.109,33.227 4.528,33.227" style="fill:none;stroke:#000;stroke-width:12.5px;"/><path d="M969.858,1313.89c-0,-24.053 8.411,-56.623 21.344,-74.163c22.709,-30.797 90.644,0.828 90.644,57.064" style="fill:none;stroke:#000;stroke-width:12.5px;"/><g><path d="M713.242,1286.02c0,15.094 -2.507,36.75 4.425,50.448c7.756,15.328 28.03,19.024 41.43,12.323c1.872,-0.936 10.803,-9.245 11.694,-11.029c6.055,-12.11 10.129,-21.931 10.129,-36.385" style="fill:none;stroke:#ff7a00;stroke-width:24.39px;"/><path d="M743.333,1419.44l0.821,-68.247" style="fill:none;stroke:#ff7a00;stroke-width:12.19px;stroke-linecap:butt;"/></g><path d="M289.653,1232.74c6.586,-6.699 5.659,-20.34 15.734,-25.42c20.766,-10.472 22.705,-21.452 43.872,-10.869c3.341,1.671 14.413,5.765 17.758,7.438c9.049,4.524 17.923,-6.59 23.621,-6.59" style="fill:none;stroke:#000;stroke-width:12.5px;"/><rect x="1049.64" y="1289.3" width="64.414" height="64.414" style="fill:#5b006d;"/><rect x="685.917" y="1157.18" width="64.414" height="64.414" style="fill:#5b006d;"/><rect x="390.638" y="1164.25" width="64.414" height="64.414" style="fill:#5b006d;"/><g><path d="M781.361,1286.02c0,15.094 -2.507,36.75 4.425,50.448c7.756,15.328 28.03,19.024 41.43,12.323c1.872,-0.936 10.803,-9.245 11.694,-11.029c6.055,-12.11 10.129,-21.931 10.129,-36.385" style="fill:none;stroke:#ff7a00;stroke-width:24.39px;"/><path d="M811.452,1419.44l0.821,-68.247" style="fill:none;stroke:#ff7a00;stroke-width:12.19px;stroke-linecap:butt;"/></g><g><path d="M1048.23,1292.51c-0,15.094 -2.507,36.75 4.424,50.448c7.756,15.328 28.031,19.024 41.431,12.323c1.871,-0.936 10.803,-9.245 11.694,-11.029c6.055,-12.11 10.128,-21.931 10.128,-36.385" style="fill:none;stroke:#ff7a00;stroke-width:24.39px;"/><path d="M1078.32,1425.93l0.821,-68.247" style="fill:none;stroke:#ff7a00;stroke-width:12.19px;stroke-linecap:butt;"/></g><g><path d="M446.261,1284.49c-0,15.094 -2.508,36.751 4.424,50.448c7.756,15.329 28.031,19.024 41.43,12.324c1.872,-0.937 10.803,-9.246 11.694,-11.029c6.056,-12.111 10.129,-21.932 10.129,-36.385" style="fill:none;stroke:#ff7a00;stroke-width:24.39px;"/><path d="M476.352,1417.91l0.821,-68.247" style="fill:none;stroke:#ff7a00;stroke-width:12.19px;stroke-linecap:butt;"/></g><ellipse cx="647.83" cy="1304.77" rx="37.089" ry="38.048" style="fill:#004111;"/><ellipse cx="270.971" cy="1232.74" rx="37.089" ry="38.048" style="fill:#004111;"/><ellipse cx="957.733" cy="1315.66" rx="37.089" ry="38.048" style="fill:#004111;"/><g><path d="M616.554,1286.02c0,15.094 -2.507,36.75 4.425,50.448c7.756,15.328 28.03,19.024 41.43,12.323c1.872,-0.936 10.803,-9.245 11.694,-11.029c6.056,-12.11 10.129,-21.931 10.129,-36.385" style="fill:none;stroke:#00b0ff;stroke-width:24.39px;"/><path d="M646.645,1419.44l0.821,-68.247" style="fill:none;stroke:#00b0ff;stroke-width:12.19px;stroke-linecap:butt;"/></g><g><path d="M927.145,1292.51c-0,15.094 -2.507,36.75 4.424,50.448c7.756,15.328 28.031,19.024 41.431,12.323c1.871,-0.936 10.803,-9.245 11.694,-11.029c6.055,-12.11 10.128,-21.931 10.128,-36.385" style="fill:none;stroke:#00b0ff;stroke-width:24.39px;"/><path d="M957.236,1425.93l0.821,-68.247" style="fill:none;stroke:#00b0ff;stroke-width:12.19px;stroke-linecap:butt;"/></g><g><path d="M512.527,1286.02c0,15.094 -2.507,36.75 4.424,50.448c7.756,15.328 28.031,19.024 41.431,12.323c1.871,-0.936 10.803,-9.245 11.694,-11.029c6.055,-12.11 10.128,-21.931 10.128,-36.385" style="fill:none;stroke:#00b0ff;stroke-width:24.39px;"/><path d="M542.618,1419.44l0.821,-68.247" style="fill:none;stroke:#00b0ff;stroke-width:12.19px;stroke-linecap:butt;"/></g><rect x="355.729" y="1420.12" width="839.913" height="11.61" style="fill:#cfcbcb;stroke:#cfcbcb;stroke-width:6.58px;"/><path d="M566.194,1183.01l24.331,10.3l-0,6.285l-24.331,10.3l-1.744,-4.217l16.951,-6.894l-54.42,-0l17.032,6.894l-1.825,4.217l-24.25,-10.3l0,-6.285l24.25,-10.3l1.825,4.217l-17.032,6.894l54.42,0l-16.951,-6.894l1.744,-4.217Z" style="fill-rule:nonzero;"/><path d="M887.479,1227.69l24.331,10.299l0,6.286l-24.331,10.3l-1.744,-4.218l16.951,-6.894l-54.42,0l17.032,6.894l-1.825,4.218l-24.249,-10.3l-0,-6.286l24.249,-10.299l1.825,4.217l-17.032,6.894l54.42,0l-16.951,-6.894l1.744,-4.217Z" style="fill-rule:nonzero;"/><g transform="matrix(4.16667,0,0,4.16667,-64.5159,770.828)"><text x="142.625px" y="92.86px" style="font-family:'Arial-BoldItalicMT', 'Arial', sans-serif;font-weight:700;font-style:italic;font-size:11px;fill:#004111;">K</text><text x="150.568px" y="95.86px" style="font-family:'Arial-BoldItalicMT', 'Arial', sans-serif;font-weight:700;font-style:italic;font-size:11px;fill:#004111;">a</text></g><g transform="matrix(4.16667,0,0,4.16667,221.741,817.942)"><text x="142.625px" y="92.86px" style="font-family:'Arial-BoldItalicMT', 'Arial', sans-serif;font-weight:700;font-style:italic;font-size:11px;">K</text><text x="150.568px" y="95.86px" style="font-family:'Arial-BoldItalicMT', 'Arial', sans-serif;font-weight:700;font-style:italic;font-size:11px;">x</text><text x="156.686px" y="92.86px" style="font-family:'Arial-BoldItalicMT', 'Arial', sans-serif;font-weight:700;font-style:italic;font-size:11px;">*</text><text x="160.967px" y="92.86px" style="font-family:'Arial-BoldItalicMT', 'Arial', sans-serif;font-weight:700;font-style:italic;font-size:11px;fill:#5b006d;">K</text><text x="168.911px" y="95.86px" style="font-family:'Arial-BoldItalicMT', 'Arial', sans-serif;font-weight:700;font-style:italic;font-size:11px;fill:#5b006d;">a</text></g></svg>