<?xml version="1.0" encoding="UTF-8" standalone="no"?><!DOCTYPE svg PUBLIC "-//W3C//DTD SVG 1.1//EN" "http://www.w3.org/Graphics/SVG/1.1/DTD/svg11.dtd"><svg width="100%" height="100%" viewBox="0 0 16392 6080" version="1.1" xmlns="http://www.w3.org/2000/svg" xmlns:xlink="http://www.w3.org/1999/xlink" xml:space="preserve" xmlns:serif="http://www.serif.com/" style="fill-rule:evenodd;clip-rule:evenodd;stroke-linejoin:round;stroke-miterlimit:1.5;"><g><g><g><path d="M7397.1,2290.16c0,111.265 8.422,198.917 -25.321,305.832c-20.972,66.459 -58.482,165.104 -32.243,240.958c10.215,29.505 22.209,91.836 43.5,112.877c44.042,43.513 92.739,72.045 117.116,120.201c15.607,30.866 70.266,40.484 88.972,77.451c72.282,142.827 23.348,409.704 -26.364,567.22c-26.711,84.609 55.619,182.726 55.619,255.87" style="fill:none;stroke:#000;stroke-width:104.23px;"/></g><g><path d="M7706.93,2942.28c-248.226,0 -111.154,376.975 -291.017,433.733c-117.241,36.995 -74.311,-78.828 -103.969,-138.88c-37.204,-75.297 -122.216,-104.955 -203.864,-104.955" style="fill:none;stroke:#000;stroke-width:104.23px;"/></g></g><g><g><path d="M9400.24,2501.95c0,41.165 -25.724,212.954 -43.402,248.323c-19.749,39.497 -111.626,111.195 -67.584,198.237c70.683,139.699 296.034,184.991 413.372,300.926c73.435,72.559 26.656,171.9 72.073,261.651c15.204,30.033 119.812,189.258 144.564,201.488c32.284,15.941 121.521,94.213 128.484,130.374c6.198,32.132 -7.992,222.071 -51.561,222.071" style="fill:none;stroke:#000;stroke-width:104.23px;"/></g><g><path d="M10074.6,3035.41c-77.354,-0 -166.703,98.729 -231.716,131.235c-171.247,85.624 -451.41,138.282 -541.717,318.91c-27.045,54.076 -7.671,140.728 31.715,179.655c18.678,18.442 83.65,15.982 109.291,28.657c19.582,9.673 58.523,65.903 72.726,87.236c25.697,38.635 1.14,133.251 -8.7,172.581c-3.599,14.398 -2.779,35.717 -2.779,50.574c-0,6.17 -0,25.474 -0,23.07" style="fill:none;stroke:#000;stroke-width:104.23px;"/></g></g><g><ellipse cx="9508.59" cy="4016.61" rx="198.162" ry="220.234" style="fill:#004111;"/></g><g><g><path d="M12084.6,3067.27c0,93.281 -30.964,90.571 -67.82,164.298c-18.401,36.787 -6.532,90.238 -26.308,129.818c-22.126,44.237 -95.992,94.824 -135.169,114.42c-38.26,19.123 -16.552,82.816 -49.406,99.243c-60.427,30.214 -137.379,79.731 -181.143,101.62c-49.378,24.696 -156.07,86.457 -176.375,127.066c-19.206,38.413 7.894,198.917 21.861,180.336" style="fill:none;stroke:#000;stroke-width:104.23px;"/></g><g><path d="M11977,4031.66c0,-146.031 18.746,-291.725 18.746,-433.398c-0,-42.708 -11.477,-70.416 -39.825,-99.913c-13.855,-14.434 -64.086,-40.246 -44.374,-40.246c85.596,0 77.583,94.224 138.964,113.996c63.372,20.414 130.713,39.528 192.168,60.996c20.931,7.31 53.724,-10 73.377,0c140.688,71.487 187.069,210.224 187.069,359.985" style="fill:none;stroke:#000;stroke-width:113.1px;"/></g></g><g><g><path d="M14021.5,3917.48c0,-134.836 -22.931,-267.114 22.417,-399.155c14.996,-43.681 -3.099,-110.501 32.674,-146.273c5.573,-5.573 32.103,2.932 39.233,-0c44.069,-18.123 108.151,-9.742 149.942,-30.631c44.959,-22.486 128.984,-51.81 179.627,-18.748c30.547,19.957 64.791,75.659 79.981,105.678c18.359,36.287 0.348,104.149 47.614,127.497c37.482,18.526 96.144,-12.563 132.403,5.351c80.926,39.984 152.207,73.616 235.523,113.405c86.944,41.512 123.606,218.346 123.606,303.039" style="fill:none;stroke:#000;stroke-width:104.23px;"/></g><g><path d="M14533.4,4006.67c-0,-100.327 -19.387,-207.534 4.614,-302.983c7.491,-29.797 -7.421,-80.037 16.872,-104.344c88.542,-88.528 266.084,-106.637 380.434,-125.76c39.373,-6.587 88.417,-36.634 123.509,-53.367c70.892,-33.799 164.215,-27.851 241.541,-27.851c44.529,0 97.52,-8.95 135.447,-27.92c9.576,-4.795 19.943,-26.322 31.173,-20.777c38.593,19.067 45.987,100.23 54.534,134.015c27.184,107.568 30.936,211.842 30.936,326.762c0,24.196 -15.12,127.358 5.198,147.44" style="fill:none;stroke:#000;stroke-width:104.23px;"/></g></g><g><path d="M4750.7,1507.1c-0,72.212 86.985,106.651 113.933,159.893c30.422,60.121 31.186,137.267 69.683,195.123c26.503,39.83 101.3,43.541 139.185,62.261c71.698,35.425 87.194,97.103 115.003,166.578c14.176,35.397 48.169,61.441 63.165,98.896c24.085,60.163 26.489,124.272 54.979,180.558c28.115,55.577 101.008,74.325 124.217,132.292c17.178,42.902 47.447,82.802 60.469,123.564c3.85,12.077 23.584,58.996 23.584,57.3" style="fill:none;stroke:#000;stroke-width:83.39px;stroke-linecap:round;"/></g><g><path d="M5517.47,1360.01c-0,219.666 19.179,315.088 -95.991,490.171c-6.491,9.853 -6.894,33.854 -13.273,40.219c-36.745,36.76 -116.712,55.383 -156.835,95.505c-18.192,18.192 5.379,80.537 -2.571,105.706c-14.342,45.459 7.421,102.884 -8.13,148.33c-10.979,32.089 -66.751,44.417 -83.066,77.048c-3.614,7.213 4.113,30.033 -5.129,34.661c-26.252,13.12 -78.98,-1.918 -108.93,5.559c-57.063,14.273 -90.765,40.387 -136.711,70.614c-12.702,8.367 -2.835,46.585 -5.128,60.386c-9.02,54.298 -16.9,257.037 -85.888,257.037" style="fill:none;stroke:#000;stroke-width:83.39px;stroke-linecap:round;"/></g><g><rect x="5328.5" y="2500.71" width="372.847" height="372.847" style="fill:#5b006d;"/></g><g><rect x="4564.28" y="1320.68" width="372.847" height="372.847" style="fill:#5b006d;"/></g><g><rect x="3094.09" y="914.237" width="372.847" height="372.847" style="fill:#5b006d;"/></g><g><rect x="1561.59" y="1778.4" width="372.847" height="372.847" style="fill:#5b006d;"/></g><g><rect x="1126.83" y="844.605" width="372.847" height="372.847" style="fill:#5b006d;"/></g><g><rect x="1104.3" y="3886.38" width="372.847" height="372.847" style="fill:#5b006d;"/></g><g><rect x="7222.91" y="2052.05" width="372.847" height="372.847" style="fill:#5b006d;"/></g><g><rect x="9966.26" y="2848.98" width="372.847" height="372.847" style="fill:#5b006d;"/></g><g><rect x="12316.7" y="3965.99" width="372.847" height="372.847" style="fill:#5b006d;"/></g><g><rect x="7676.92" y="2696.73" width="372.847" height="372.847" style="fill:#5b006d;"/></g><g><path d="M4824.55,3774.99c-0,129.012 -21.43,314.115 37.815,431.189c66.292,131.013 239.582,162.602 354.113,105.33c15.996,-8.005 92.336,-79.022 99.952,-94.268c51.755,-103.51 86.569,-187.452 86.569,-310.988" style="fill:none;stroke:#ff7a00;stroke-width:208.46px;stroke-linecap:round;"/></g><g><path d="M5081.74,4915.36l7.017,-583.317" style="fill:none;stroke:#ff7a00;stroke-width:104.23px;"/></g><ellipse cx="7655.28" cy="4074.93" rx="198.162" ry="220.234" style="fill:#004111;"/><g><ellipse cx="7111.27" cy="3069.59" rx="198.162" ry="220.234" style="fill:#004111;"/></g><g><ellipse cx="9384.98" cy="2423.77" rx="198.162" ry="220.234" style="fill:#004111;"/></g><g><ellipse cx="5522.64" cy="1355.47" rx="198.162" ry="220.234" style="fill:#004111;"/></g><g><ellipse cx="4831.07" cy="2748.63" rx="198.162" ry="220.234" style="fill:#004111;"/></g><g><ellipse cx="890.245" cy="2424.21" rx="198.162" ry="220.234" style="fill:#004111;"/></g><g><ellipse cx="3061.86" cy="2431.66" rx="198.162" ry="220.234" style="fill:#004111;"/><ellipse cx="2901.09" cy="4057.96" rx="198.162" ry="220.234" style="fill:#004111;"/></g><g><ellipse cx="2357.45" cy="741.025" rx="198.162" ry="220.234" style="fill:#004111;"/></g><g><ellipse cx="12101.9" cy="2920.66" rx="198.162" ry="220.234" style="fill:#004111;"/></g><g><ellipse cx="11467.6" cy="4031.68" rx="198.162" ry="220.234" style="fill:#004111;"/></g><g><ellipse cx="14061.7" cy="4031.05" rx="198.162" ry="220.234" style="fill:#004111;"/></g><g><ellipse cx="15549.4" cy="4057.61" rx="198.162" ry="220.234" style="fill:#004111;"/></g><g><path d="M7391.32,3784.53c-0,129.012 -21.43,314.115 37.815,431.189c66.292,131.013 239.582,162.603 354.113,105.33c15.996,-8.005 92.336,-79.022 99.952,-94.267c51.755,-103.51 86.569,-187.452 86.569,-310.989" style="fill:none;stroke:#00b0ff;stroke-width:208.46px;stroke-linecap:round;"/></g><g><path d="M7648.52,4924.9l7.017,-583.317" style="fill:none;stroke:#00b0ff;stroke-width:104.23px;"/></g><g><g><path d="M9239.71,3770.64c0,129.012 -21.43,314.115 37.816,431.189c66.292,131.013 239.582,162.603 354.113,105.33c15.996,-8.005 92.336,-79.022 99.952,-94.268c51.754,-103.509 86.568,-187.451 86.568,-310.988" style="fill:none;stroke:#00b0ff;stroke-width:208.46px;stroke-linecap:round;"/></g><g><path d="M9496.9,4911l7.018,-583.316" style="fill:none;stroke:#00b0ff;stroke-width:104.23px;"/></g></g><g><path d="M11213.2,3784.53c0,129.012 -21.43,314.115 37.816,431.189c66.291,131.013 239.581,162.603 354.112,105.33c15.996,-8.005 92.336,-79.022 99.952,-94.267c51.755,-103.51 86.569,-187.452 86.569,-310.989" style="fill:none;stroke:#ff7a00;stroke-width:208.46px;stroke-linecap:round;"/></g><g><rect x="9837.85" y="3878.59" width="372.847" height="372.847" style="fill:#5b006d;"/></g><g><path d="M11470.4,4924.9l7.017,-583.317" style="fill:none;stroke:#ff7a00;stroke-width:104.23px;"/></g><g><path d="M13798.1,3784.53c-0,129.012 -21.43,314.115 37.816,431.189c66.291,131.013 239.581,162.603 354.112,105.33c15.996,-8.005 92.336,-79.022 99.952,-94.267c51.755,-103.51 86.569,-187.452 86.569,-310.989" style="fill:none;stroke:#00b0ff;stroke-width:208.46px;stroke-linecap:round;"/></g><g><path d="M14055.3,4924.9l7.017,-583.317" style="fill:none;stroke:#00b0ff;stroke-width:104.23px;"/></g><g><path d="M6401.51,3774.99c0,129.012 -21.43,314.115 37.816,431.189c66.292,131.014 239.582,162.603 354.112,105.331c15.997,-8.005 92.336,-79.022 99.952,-94.268c51.755,-103.51 86.569,-187.452 86.569,-310.988" style="fill:none;stroke:#00b0ff;stroke-width:208.46px;stroke-linecap:round;"/></g><g><path d="M6658.7,4915.36l7.017,-583.317" style="fill:none;stroke:#00b0ff;stroke-width:104.23px;"/></g><g><path d="M6401.51,3774.99c0,129.012 -21.43,314.115 37.816,431.189c66.292,131.014 239.582,162.603 354.112,105.331c15.997,-8.005 92.336,-79.022 99.952,-94.268c51.755,-103.51 86.569,-187.452 86.569,-310.988" style="fill:none;stroke:#00b0ff;stroke-width:208.46px;stroke-linecap:round;"/></g><g><path d="M5705.12,3774.99c-0,129.012 -21.43,314.115 37.815,431.189c66.292,131.014 239.582,162.603 354.113,105.331c15.996,-8.005 92.336,-79.022 99.952,-94.268c51.755,-103.51 86.568,-187.452 86.568,-310.988" style="fill:none;stroke:#00b0ff;stroke-width:208.46px;stroke-linecap:round;"/></g><g><path d="M6658.7,4915.36l7.017,-583.317" style="fill:none;stroke:#00b0ff;stroke-width:104.23px;"/></g><g><path d="M5962.32,4915.36l7.017,-583.317" style="fill:none;stroke:#00b0ff;stroke-width:104.23px;"/></g><g><path d="M8347.18,3774.99c-0,129.012 -21.431,314.115 37.815,431.189c66.292,131.014 239.582,162.603 354.113,105.331c15.996,-8.005 92.336,-79.022 99.952,-94.268c51.755,-103.51 86.568,-187.452 86.568,-310.988" style="fill:none;stroke:#ff7a00;stroke-width:208.46px;stroke-linecap:round;"/></g><g><path d="M8604.38,4915.36l7.018,-583.317" style="fill:none;stroke:#ff7a00;stroke-width:104.23px;"/></g><g><rect x="11814.2" y="3933.63" width="304.988" height="304.988" style="fill:#5b006d;"/></g><g><rect x="14855.4" y="3973.05" width="372.847" height="372.847" style="fill:#5b006d;"/></g><g><path d="M10449.4,3777.65c0,129.012 -21.43,314.115 37.816,431.189c66.291,131.014 239.581,162.603 354.112,105.331c15.996,-8.005 92.336,-79.022 99.952,-94.268c51.755,-103.51 86.569,-187.452 86.569,-310.988" style="fill:none;stroke:#00b0ff;stroke-width:208.46px;stroke-linecap:round;"/></g><g><path d="M10706.6,4918.02l7.017,-583.317" style="fill:none;stroke:#00b0ff;stroke-width:104.23px;"/></g><g><path d="M12191.1,3804.2c0,129.012 -21.43,314.115 37.816,431.189c66.292,131.014 239.582,162.603 354.113,105.331c15.996,-8.005 92.336,-79.022 99.952,-94.268c51.754,-103.51 86.568,-187.452 86.568,-310.988" style="fill:none;stroke:#00b0ff;stroke-width:208.46px;stroke-linecap:round;"/></g><g><path d="M14794.9,3782.04c0,129.012 -21.43,314.115 37.816,431.189c66.292,131.014 239.582,162.603 354.113,105.331c15.996,-8.005 92.336,-79.022 99.952,-94.268c51.754,-103.51 86.568,-187.452 86.568,-310.988" style="fill:none;stroke:#00b0ff;stroke-width:208.46px;stroke-linecap:round;"/></g><g><path d="M12448.3,4944.57l7.018,-583.317" style="fill:none;stroke:#00b0ff;stroke-width:104.23px;"/></g><g><path d="M12988.2,3782.04c-0,129.012 -21.43,314.115 37.815,431.189c66.292,131.014 239.582,162.603 354.113,105.331c15.996,-8.005 92.336,-79.022 99.952,-94.268c51.755,-103.51 86.569,-187.452 86.569,-310.988" style="fill:none;stroke:#ff7a00;stroke-width:208.46px;stroke-linecap:round;"/></g><g><path d="M13245.4,4922.41l7.017,-583.317" style="fill:none;stroke:#ff7a00;stroke-width:104.23px;"/></g><g><path d="M15052.1,4922.41l7.018,-583.317" style="fill:none;stroke:#00b0ff;stroke-width:104.23px;"/></g><g><rect x="14339.6" y="3965.99" width="372.847" height="372.847" style="fill:#5b006d;"/></g><g><path d="M15267.4,3782.05c0,129.012 -21.43,314.115 37.816,431.189c66.292,131.013 239.582,162.603 354.112,105.33c15.996,-8.005 92.336,-79.022 99.952,-94.268c51.755,-103.509 86.569,-187.451 86.569,-310.988" style="fill:none;stroke:#ff7a00;stroke-width:208.46px;stroke-linecap:round;"/></g><g><path d="M15524.6,4922.41l7.017,-583.316" style="fill:none;stroke:#ff7a00;stroke-width:104.23px;"/></g><g><text x="6153.85px" y="1862.45px" style="font-family:'Arial-BoldItalicMT', 'Arial', sans-serif;font-weight:700;font-style:italic;font-size:416.93px;fill:#004111;">K</text><text x="6454.95px" y="1959.73px" style="font-family:'Arial-BoldItalicMT', 'Arial', sans-serif;font-weight:700;font-style:italic;font-size:416.93px;fill:#004111;">a</text></g><g><text x="3196.99px" y="3293.86px" style="font-family:'Arial-BoldItalicMT', 'Arial', sans-serif;font-weight:700;font-style:italic;font-size:416.93px;fill:#004111;">K</text><text x="3498.09px" y="3391.14px" style="font-family:'Arial-BoldItalicMT', 'Arial', sans-serif;font-weight:700;font-style:italic;font-size:416.93px;fill:#004111;">a</text></g><g><text x="1498.7px" y="3277.68px" style="font-family:'Arial-BoldItalicMT', 'Arial', sans-serif;font-weight:700;font-style:italic;font-size:416.93px;fill:#5b006d;">K</text><text x="1799.79px" y="3374.97px" style="font-family:'Arial-BoldItalicMT', 'Arial', sans-serif;font-weight:700;font-style:italic;font-size:416.93px;fill:#5b006d;">a</text></g><g><text x="7918.92px" y="2535.06px" style="font-family:'Arial-BoldItalicMT', 'Arial', sans-serif;font-weight:700;font-style:italic;font-size:416.93px;">K</text><text x="8220.01px" y="2618.45px" style="font-family:'Arial-BoldItalicMT', 'Arial', sans-serif;font-weight:700;font-style:italic;font-size:416.93px;">x</text><text x="8451.88px" y="2535.06px" style="font-family:'Arial-BoldItalicMT', 'Arial', sans-serif;font-weight:700;font-style:italic;font-size:416.93px;">*</text><text x="8614.14px" y="2535.06px" style="font-family:'Arial-BoldItalicMT', 'Arial', sans-serif;font-weight:700;font-style:italic;font-size:416.93px;fill:#5b006d;">K</text><text x="8915.23px" y="2632.35px" style="font-family:'Arial-BoldItalicMT', 'Arial', sans-serif;font-weight:700;font-style:italic;font-size:416.93px;fill:#5b006d;">a</text></g><g><text x="10513px" y="2876.86px" style="font-family:'Arial-BoldItalicMT', 'Arial', sans-serif;font-weight:700;font-style:italic;font-size:416.93px;">K</text><text x="10814.1px" y="2960.25px" style="font-family:'Arial-BoldItalicMT', 'Arial', sans-serif;font-weight:700;font-style:italic;font-size:416.93px;">x</text><text x="11046px" y="2876.86px" style="font-family:'Arial-BoldItalicMT', 'Arial', sans-serif;font-weight:700;font-style:italic;font-size:416.93px;">*</text><text x="11208.2px" y="2876.86px" style="font-family:'Arial-BoldItalicMT', 'Arial', sans-serif;font-weight:700;font-style:italic;font-size:416.93px;fill:#5b006d;">K</text><text x="11509.3px" y="2974.15px" style="font-family:'Arial-BoldItalicMT', 'Arial', sans-serif;font-weight:700;font-style:italic;font-size:416.93px;fill:#5b006d;">a</text></g><g><text x="12839.7px" y="3011.1px" style="font-family:'Arial-BoldItalicMT', 'Arial', sans-serif;font-weight:700;font-style:italic;font-size:416.93px;">K</text><text x="13140.8px" y="3094.49px" style="font-family:'Arial-BoldItalicMT', 'Arial', sans-serif;font-weight:700;font-style:italic;font-size:416.93px;">x</text><text x="13372.7px" y="3011.1px" style="font-family:'Arial-BoldItalicMT', 'Arial', sans-serif;font-weight:700;font-style:italic;font-size:416.93px;">*</text><text x="13535px" y="3011.1px" style="font-family:'Arial-BoldItalicMT', 'Arial', sans-serif;font-weight:700;font-style:italic;font-size:416.93px;fill:#004111;">K</text><text x="13836px" y="3108.38px" style="font-family:'Arial-BoldItalicMT', 'Arial', sans-serif;font-weight:700;font-style:italic;font-size:416.93px;fill:#004111;">a</text></g><g><path d="M9736.94,3774.99c0,129.012 -21.43,314.115 37.816,431.189c66.292,131.014 239.582,162.603 354.112,105.331c15.996,-8.005 92.336,-79.022 99.952,-94.268c51.755,-103.51 86.569,-187.452 86.569,-310.988" style="fill:none;stroke:#ff7a00;stroke-width:208.46px;stroke-linecap:round;"/></g><g><path d="M9994.15,4915.36l7.017,-583.317" style="fill:none;stroke:#ff7a00;stroke-width:104.23px;"/></g><g><path d="M1758.72,3789.84c0,129.012 -21.43,314.115 37.816,431.189c66.292,131.013 239.582,162.602 354.112,105.33c15.997,-8.005 92.336,-79.022 99.952,-94.268c51.755,-103.51 86.569,-187.451 86.569,-310.988" style="fill:none;stroke:#ff7a00;stroke-width:208.46px;stroke-linecap:round;"/></g><g><path d="M2015.91,4930.2l7.017,-583.317" style="fill:none;stroke:#ff7a00;stroke-width:104.23px;"/></g><g><path d="M4041.92,3774.99c0,129.012 -21.43,314.115 37.816,431.189c66.291,131.013 239.581,162.602 354.112,105.33c15.996,-8.005 92.336,-79.022 99.952,-94.268c51.755,-103.51 86.569,-187.452 86.569,-310.988" style="fill:none;stroke:#ff7a00;stroke-width:208.46px;stroke-linecap:round;"/></g><g><path d="M4299.11,4915.36l7.017,-583.317" style="fill:none;stroke:#ff7a00;stroke-width:104.23px;"/></g><g><path d="M1003.77,3789.84c-0,129.012 -21.43,314.115 37.815,431.189c66.292,131.013 239.582,162.602 354.113,105.33c15.996,-8.005 92.336,-79.022 99.952,-94.268c51.755,-103.51 86.568,-187.451 86.568,-310.988" style="fill:none;stroke:#00b0ff;stroke-width:208.46px;stroke-linecap:round;"/></g><g><path d="M1260.96,4930.2l7.017,-583.317" style="fill:none;stroke:#00b0ff;stroke-width:104.23px;"/></g><g><path d="M3459.69,3774.99c0,129.012 -21.43,314.115 37.816,431.189c66.292,131.013 239.582,162.602 354.112,105.33c15.997,-8.005 92.337,-79.022 99.952,-94.268c51.755,-103.51 86.569,-187.452 86.569,-310.988" style="fill:none;stroke:#00b0ff;stroke-width:208.46px;stroke-linecap:round;"/></g><g><path d="M3716.88,4915.36l7.018,-583.317" style="fill:none;stroke:#00b0ff;stroke-width:104.23px;"/></g><g><path d="M2648.73,3774.99c-0,129.012 -21.43,314.115 37.815,431.189c66.292,131.013 239.582,162.602 354.113,105.33c15.996,-8.005 92.336,-79.022 99.952,-94.268c51.755,-103.51 86.569,-187.452 86.569,-310.988" style="fill:none;stroke:#00b0ff;stroke-width:208.46px;stroke-linecap:round;"/></g><g><path d="M2905.92,4915.36l7.017,-583.317" style="fill:none;stroke:#00b0ff;stroke-width:104.23px;"/></g><g><path d="M387.86,3787.18c0,129.012 -21.43,314.115 37.816,431.189c66.292,131.013 239.582,162.603 354.112,105.33c15.996,-8.005 92.336,-79.022 99.952,-94.268c51.755,-103.509 86.569,-187.451 86.569,-310.988" style="fill:none;stroke:#ff7a00;stroke-width:208.46px;stroke-linecap:round;"/></g><g><path d="M645.066,4927.55l7.017,-583.317" style="fill:none;stroke:#ff7a00;stroke-width:104.23px;"/></g><g><g><path d="M12312.9,3774.99c0,129.012 21.431,314.115 -37.815,431.189c-66.292,131.013 -239.582,162.603 -354.113,105.33c-15.996,-8.005 -92.336,-79.022 -99.952,-94.268c-51.755,-103.509 -86.568,-187.451 -86.568,-310.988" style="fill:none;stroke:#00b0ff;stroke-width:208.46px;stroke-linecap:round;"/></g><g><path d="M12055.7,4915.36l-7.018,-583.317" style="fill:none;stroke:#00b0ff;stroke-width:104.23px;"/></g></g><g><path d="M14281.5,3774.99c-0,129.012 -21.43,314.115 37.816,431.189c66.291,131.014 239.581,162.603 354.112,105.331c15.996,-8.005 92.336,-79.022 99.952,-94.268c51.755,-103.51 86.569,-187.452 86.569,-310.988" style="fill:none;stroke:#ff7a00;stroke-width:208.46px;stroke-linecap:round;"/></g><g><path d="M14538.7,4915.36l7.017,-583.317" style="fill:none;stroke:#ff7a00;stroke-width:104.23px;"/></g><g><rect x="143.663" y="4925.49" width="16101.6" height="94.01" style="fill:#cfcbcb;stroke:#cfcbcb;stroke-width:69.44px;stroke-linecap:round;"/></g><g><path d="M6535.84,2078.08l227.88,96.463l-0,58.871l-227.88,96.463l-16.33,-39.497l158.753,-64.568l-509.683,-0l159.518,64.568l-17.095,39.497l-227.115,-96.463l-0,-58.871l227.115,-96.463l17.095,39.497l-159.518,64.568l509.683,0l-158.753,-64.568l16.33,-39.497Z" style="fill-rule:nonzero;"/></g><g><path d="M1420.71,3342.43l-96.464,227.88l-58.87,0l-96.464,-227.88l39.497,-16.33l64.569,158.753l-0,-509.683l-64.569,159.518l-39.497,-17.094l96.464,-227.116l58.87,-0l96.464,227.116l-39.497,17.094l-64.569,-159.518l0,509.683l64.569,-158.753l39.497,16.33Z" style="fill-rule:nonzero;"/></g><g><path d="M3061.42,3356.84l-96.463,227.88l-58.871,-0l-96.464,-227.88l39.498,-16.33l64.568,158.753l0,-509.683l-64.568,159.517l-39.498,-17.094l96.464,-227.115l58.871,-0l96.463,227.115l-39.497,17.094l-64.568,-159.517l-0,509.683l64.568,-158.753l39.497,16.33Z" style="fill-rule:nonzero;"/></g><g><path d="M8747.62,2913.68l227.88,96.464l0,58.871l-227.88,96.463l-16.33,-39.497l158.753,-64.568l-509.683,-0l159.518,64.568l-17.094,39.497l-227.116,-96.463l-0,-58.871l227.116,-96.464l17.094,39.498l-159.518,64.568l509.683,0l-158.753,-64.568l16.33,-39.498Z" style="fill-rule:nonzero;"/></g><g><path d="M11015.7,3103.13l227.88,96.464l-0,58.87l-227.88,96.464l-16.33,-39.497l158.753,-64.569l-509.683,0l159.518,64.569l-17.095,39.497l-227.115,-96.464l-0,-58.87l227.115,-96.464l17.095,39.497l-159.518,64.569l509.683,-0l-158.753,-64.569l16.33,-39.497Z" style="fill-rule:nonzero;"/></g><g><path d="M13366.6,3247.94l227.88,96.463l-0,58.871l-227.88,96.464l-16.33,-39.498l158.753,-64.568l-509.683,-0l159.517,64.568l-17.094,39.498l-227.115,-96.464l-0,-58.871l227.115,-96.463l17.094,39.497l-159.517,64.568l509.683,0l-158.753,-64.568l16.33,-39.497Z" style="fill-rule:nonzero;"/></g></g></svg>