<?xml version="1.0" encoding="UTF-8" standalone="no"?>
<!DOCTYPE svg PUBLIC "-//W3C//DTD SVG 1.1//EN" "http://www.w3.org/Graphics/SVG/1.1/DTD/svg11.dtd">
<svg width="100%" height="100%" viewBox="0 0 3934 1459" version="1.1" xmlns="http://www.w3.org/2000/svg" xmlns:xlink="http://www.w3.org/1999/xlink" xml:space="preserve" xmlns:serif="http://www.serif.com/" style="fill-rule:evenodd;clip-rule:evenodd;stroke-linejoin:round;stroke-miterlimit:1.5;">
    <g transform="matrix(4.16667,0,0,4.16667,0,0)">
        <g transform="matrix(1,0,0,1,0,-171.5)">
            <g transform="matrix(1,0,0,1,-7.99,172.121)">
                <path d="M242.092,93.189C242.092,101.195 242.698,107.502 240.27,115.195C238.761,119.977 236.062,127.075 237.95,132.533C238.685,134.656 239.548,139.141 241.08,140.655C244.249,143.786 247.753,145.839 249.507,149.304C250.63,151.525 254.563,152.217 255.909,154.877C261.11,165.154 257.589,184.357 254.012,195.691C252.09,201.779 258.014,208.839 258.014,214.102" style="fill:none;stroke:black;stroke-width:7.5px;"/>
            </g>
            <g transform="matrix(1,0,0,1,-7.99,172.121)">
                <path d="M264.385,140.112C246.524,140.112 256.387,167.237 243.445,171.321C235.009,173.983 238.098,165.649 235.964,161.328C233.287,155.91 227.17,153.776 221.295,153.776" style="fill:none;stroke:black;stroke-width:7.5px;"/>
            </g>
        </g>
        <g transform="matrix(1,0,0,1,0,-171.5)">
            <g transform="matrix(1,0,0,1,-7.99,172.121)">
                <path d="M386.227,108.428C386.227,111.39 384.376,123.751 383.104,126.296C381.683,129.138 375.072,134.297 378.241,140.56C383.327,150.612 399.542,153.871 407.985,162.213C413.269,167.434 409.903,174.582 413.171,181.04C414.265,183.201 421.792,194.658 423.573,195.538C425.896,196.685 432.317,202.317 432.818,204.919C433.264,207.231 432.243,220.898 429.108,220.898" style="fill:none;stroke:black;stroke-width:7.5px;"/>
            </g>
            <g transform="matrix(1,0,0,1,-7.99,172.121)">
                <path d="M434.749,146.813C429.183,146.813 422.754,153.917 418.076,156.256C405.754,162.417 385.595,166.206 379.097,179.203C377.151,183.094 378.545,189.329 381.379,192.13C382.723,193.457 387.398,193.28 389.243,194.192C390.652,194.888 393.454,198.934 394.476,200.469C396.325,203.249 394.558,210.057 393.85,212.887C393.591,213.923 393.65,215.457 393.65,216.526C393.65,216.97 393.65,218.359 393.65,218.186" style="fill:none;stroke:black;stroke-width:7.5px;"/>
            </g>
        </g>
        <g transform="matrix(0.931207,0,0,0.957975,325.603,128.637)">
            <ellipse cx="64.894" cy="93.321" rx="15.312" ry="16.542" style="fill:rgb(0,65,17);"/>
        </g>
        <g transform="matrix(1,0,0,1,-2,-169.5)">
            <g transform="matrix(1,0,0,1,-7.99,172.121)">
                <path d="M581.379,147.106C581.379,153.818 579.151,153.623 576.499,158.928C575.175,161.575 576.029,165.421 574.606,168.269C573.014,171.452 567.699,175.092 564.88,176.502C562.127,177.878 563.689,182.461 561.325,183.643C556.977,185.817 551.44,189.38 548.291,190.955C544.738,192.732 537.061,197.176 535.6,200.098C534.218,202.862 536.168,214.411 537.173,213.074" style="fill:none;stroke:black;stroke-width:7.5px;"/>
            </g>
            <g transform="matrix(1.06965,0,0,1.10027,-47.5903,154.55)">
                <path d="M573.307,212.738C573.307,203.188 574.568,193.66 574.568,184.395C574.568,181.602 573.796,179.79 571.889,177.861C570.957,176.917 567.578,175.229 568.904,175.229C574.662,175.229 574.123,181.391 578.252,182.684C582.515,184.019 587.045,185.269 591.179,186.673C592.587,187.151 594.793,186.019 596.115,186.673C605.579,191.348 608.699,200.421 608.699,210.215" style="fill:none;stroke:black;stroke-width:7.5px;"/>
            </g>
        </g>
        <g transform="matrix(1,0,0,1,0,-171.5)">
            <g transform="matrix(1,0,0,1,-7.99,172.121)">
                <path d="M718.747,210.282C718.747,200.58 717.097,191.062 720.36,181.561C721.439,178.418 720.137,173.61 722.711,171.036C723.112,170.635 725.021,171.247 725.534,171.036C728.705,169.732 733.316,170.335 736.323,168.832C739.558,167.214 745.604,165.104 749.248,167.483C751.446,168.919 753.91,172.927 755.003,175.087C756.324,177.698 755.028,182.581 758.429,184.261C761.126,185.594 765.347,183.357 767.956,184.646C773.779,187.523 778.908,189.943 784.903,192.806C791.159,195.793 793.797,208.517 793.797,214.611" style="fill:none;stroke:black;stroke-width:7.5px;"/>
            </g>
            <g transform="matrix(1,0,0,1,-7.99,172.121)">
                <path d="M755.581,216.7C755.581,209.481 754.186,201.767 755.913,194.899C756.452,192.755 755.379,189.14 757.127,187.391C763.498,181.021 776.273,179.718 784.501,178.342C787.334,177.868 790.863,175.706 793.388,174.502C798.489,172.07 805.204,172.498 810.768,172.498C813.972,172.498 817.785,171.854 820.514,170.489C821.203,170.144 821.949,168.595 822.757,168.994C825.534,170.366 826.066,176.206 826.681,178.637C828.637,186.377 828.907,193.88 828.907,202.149C828.907,203.89 827.819,211.313 829.281,212.758" style="fill:none;stroke:black;stroke-width:7.5px;"/>
            </g>
        </g>
        <g transform="matrix(1,0,0,1,-7.99,0.621223)">
            <path d="M61.388,89.47C61.388,94.666 67.647,97.144 69.586,100.975C71.775,105.301 71.83,110.852 74.6,115.015C76.507,117.881 81.889,118.148 84.615,119.495C89.774,122.044 90.889,126.482 92.89,131.481C93.91,134.028 96.356,135.902 97.435,138.597C99.168,142.926 99.341,147.539 101.391,151.589C103.414,155.588 108.659,156.937 110.329,161.108C111.565,164.195 113.743,167.066 114.68,169.999C114.957,170.868 116.377,174.244 116.377,174.122" style="fill:none;stroke:black;stroke-width:6px;stroke-linecap:round;"/>
        </g>
        <g transform="matrix(1,0,0,1,-7.99,0.621223)">
            <path d="M116.56,78.886C116.56,94.692 117.94,101.558 109.653,114.156C109.186,114.865 109.157,116.592 108.698,117.05C106.054,119.695 100.3,121.035 97.413,123.922C96.104,125.231 97.8,129.717 97.228,131.528C96.196,134.799 97.762,138.931 96.643,142.201C95.853,144.51 91.84,145.397 90.666,147.745C90.406,148.264 90.962,149.906 90.297,150.239C88.408,151.183 84.614,150.101 82.459,150.639C78.353,151.666 75.928,153.545 72.622,155.72C71.708,156.322 72.418,159.072 72.253,160.065C71.604,163.972 71.037,178.56 66.073,178.56" style="fill:none;stroke:black;stroke-width:6px;stroke-linecap:round;"/>
        </g>
        <g transform="matrix(1,3.46945e-18,-3.46945e-18,1,175.134,-476.927)">
            <g transform="matrix(1,0,0,1,-195.508,551.495)">
                <rect x="115.347" y="87.018" width="26.828" height="26.828" style="fill:rgb(91,0,109);"/>
            </g>
            <g transform="matrix(1,0,0,1,-250.497,466.586)">
                <rect x="115.347" y="87.018" width="26.828" height="26.828" style="fill:rgb(91,0,109);"/>
            </g>
            <g transform="matrix(1,0,0,1,-68.9131,466.586)">
                <rect x="115.347" y="87.018" width="26.828" height="26.828" style="fill:rgb(91,0,109);"/>
            </g>
            <g transform="matrix(1,0,0,1,128.483,523.929)">
                <rect x="115.347" y="87.018" width="26.828" height="26.828" style="fill:rgb(91,0,109);"/>
            </g>
            <g transform="matrix(1,0,0,1,297.607,604.303)">
                <rect x="115.347" y="87.018" width="26.828" height="26.828" style="fill:rgb(91,0,109);"/>
            </g>
            <g transform="matrix(1,0,0,1,-36.2451,512.974)">
                <rect x="115.347" y="87.018" width="26.828" height="26.828" style="fill:rgb(91,0,109);"/>
            </g>
        </g>
        <g transform="matrix(1,0,0,1,-8.17242,6.67789)">
            <path d="M74.858,194.659C74.858,203.942 73.316,217.261 77.579,225.685C82.349,235.112 94.818,237.385 103.059,233.264C104.21,232.688 109.703,227.578 110.251,226.481C113.975,219.033 116.48,212.993 116.48,204.104" style="fill:none;stroke:rgb(255,122,0);stroke-width:15px;stroke-linecap:round;"/>
        </g>
        <g transform="matrix(0.999818,-0.019088,0.019088,0.999818,-12.8163,8.28416)">
            <path d="M92.739,276.928L94.045,234.973" style="fill:none;stroke:rgb(255,122,0);stroke-width:7.5px;"/>
        </g>
        <g transform="matrix(0.931207,0,-3.46945e-18,0.957975,192.249,132.833)">
            <ellipse cx="64.894" cy="93.321" rx="15.312" ry="16.542" style="fill:rgb(0,65,17);"/>
            <g transform="matrix(1,0,0,1,-42.0358,-75.5123)">
                <ellipse cx="64.894" cy="93.321" rx="15.312" ry="16.542" style="fill:rgb(0,65,17);"/>
            </g>
            <g transform="matrix(1,0,0,1,-146.014,-224.762)">
                <g transform="matrix(1,0,0,1,279.668,100.742)">
                    <ellipse cx="64.894" cy="93.321" rx="15.312" ry="16.542" style="fill:rgb(0,65,17);"/>
                </g>
                <g transform="matrix(1,0,0,1,-8.34143,75.4349)">
                    <ellipse cx="64.894" cy="93.321" rx="15.312" ry="16.542" style="fill:rgb(0,65,17);"/>
                </g>
            </g>
            <g transform="matrix(1,0,0,1,-207.793,-44.6856)">
                <ellipse cx="64.894" cy="93.321" rx="15.312" ry="16.542" style="fill:rgb(0,65,17);"/>
            </g>
            <g transform="matrix(1,0,0,1,343.59,-86.698)">
                <ellipse cx="64.894" cy="93.321" rx="15.312" ry="16.542" style="fill:rgb(0,65,17);"/>
            </g>
            <g transform="matrix(1,0,0,1,294.581,-3.24852)">
                <ellipse cx="64.894" cy="93.321" rx="15.312" ry="16.542" style="fill:rgb(0,65,17);"/>
            </g>
            <g transform="matrix(1,0,0,1,495.025,-3.29549)">
                <ellipse cx="64.894" cy="93.321" rx="15.312" ry="16.542" style="fill:rgb(0,65,17);"/>
            </g>
            <g transform="matrix(1,0,0,1,609.977,-1.30066)">
                <ellipse cx="64.894" cy="93.321" rx="15.312" ry="16.542" style="fill:rgb(0,65,17);"/>
            </g>
        </g>
        <g transform="matrix(1,0,0,1,158.828,6.67789)">
            <path d="M74.858,194.659C74.858,203.942 73.316,217.261 77.579,225.685C82.349,235.112 94.818,237.385 103.059,233.264C104.21,232.688 109.703,227.578 110.251,226.481C113.975,219.033 116.48,212.993 116.48,204.104" style="fill:none;stroke:rgb(0,176,255);stroke-width:15px;stroke-linecap:round;"/>
        </g>
        <g transform="matrix(0.999818,-0.019088,0.019088,0.999818,154.184,8.28416)">
            <path d="M92.739,276.928L94.045,234.973" style="fill:none;stroke:rgb(0,176,255);stroke-width:7.5px;"/>
        </g>
        <g transform="matrix(1,0,0,1,1,-172.5)">
            <g transform="matrix(1,0,0,1,290.828,178.178)">
                <path d="M74.858,194.659C74.858,203.942 73.316,217.261 77.579,225.685C82.349,235.112 94.818,237.385 103.059,233.264C104.21,232.688 109.703,227.578 110.251,226.481C113.975,219.033 116.48,212.993 116.48,204.104" style="fill:none;stroke:rgb(0,176,255);stroke-width:15px;stroke-linecap:round;"/>
            </g>
            <g transform="matrix(0.999818,-0.019088,0.019088,0.999818,286.184,179.784)">
                <path d="M92.739,276.928L94.045,234.973" style="fill:none;stroke:rgb(0,176,255);stroke-width:7.5px;"/>
            </g>
        </g>
        <g transform="matrix(1,0,0,1,433.828,6.67789)">
            <path d="M74.858,194.659C74.858,203.942 73.316,217.261 77.579,225.685C82.349,235.112 94.818,237.385 103.059,233.264C104.21,232.688 109.703,227.578 110.251,226.481C113.975,219.033 116.48,212.993 116.48,204.104" style="fill:none;stroke:rgb(255,122,0);stroke-width:15px;stroke-linecap:round;"/>
        </g>
        <g transform="matrix(1,0,0,1,294.378,121.087)">
            <rect x="115.347" y="87.018" width="26.828" height="26.828" style="fill:rgb(91,0,109);"/>
        </g>
        <g transform="matrix(0.999818,-0.019088,0.019088,0.999818,429.184,8.28416)">
            <path d="M92.739,276.928L94.045,234.973" style="fill:none;stroke:rgb(255,122,0);stroke-width:7.5px;"/>
        </g>
        <g transform="matrix(1,0,0,1,619.828,6.67789)">
            <path d="M74.858,194.659C74.858,203.942 73.316,217.261 77.579,225.685C82.349,235.112 94.818,237.385 103.059,233.264C104.21,232.688 109.703,227.578 110.251,226.481C113.975,219.033 116.48,212.993 116.48,204.104" style="fill:none;stroke:rgb(0,176,255);stroke-width:15px;stroke-linecap:round;"/>
        </g>
        <g transform="matrix(0.999818,-0.019088,0.019088,0.999818,615.184,8.28416)">
            <path d="M92.739,276.928L94.045,234.973" style="fill:none;stroke:rgb(0,176,255);stroke-width:7.5px;"/>
        </g>
        <g transform="matrix(1,0,0,1,87.6065,5.99133)">
            <path d="M74.858,194.659C74.858,203.942 73.316,217.261 77.579,225.685C82.349,235.112 94.818,237.385 103.059,233.264C104.21,232.688 109.703,227.578 110.251,226.481C113.975,219.033 116.48,212.993 116.48,204.104" style="fill:none;stroke:rgb(0,176,255);stroke-width:15px;stroke-linecap:round;"/>
        </g>
        <g transform="matrix(0.999818,-0.019088,0.019088,0.999818,82.9626,7.59761)">
            <path d="M92.739,276.928L94.045,234.973" style="fill:none;stroke:rgb(0,176,255);stroke-width:7.5px;"/>
        </g>
        <g transform="matrix(1,0,0,1,227.606,5.99133)">
            <path d="M74.858,194.659C74.858,203.942 73.316,217.261 77.579,225.685C82.349,235.112 94.818,237.385 103.059,233.264C104.21,232.688 109.703,227.578 110.251,226.481C113.975,219.033 116.48,212.993 116.48,204.104" style="fill:none;stroke:rgb(255,122,0);stroke-width:15px;stroke-linecap:round;"/>
        </g>
        <g transform="matrix(0.999818,-0.019088,0.019088,0.999818,222.963,7.59761)">
            <path d="M92.739,276.928L94.045,234.973" style="fill:none;stroke:rgb(255,122,0);stroke-width:7.5px;"/>
        </g>
        <g transform="matrix(0.817998,0,0,0.817998,457.577,140.885)">
            <rect x="115.347" y="87.018" width="26.828" height="26.828" style="fill:rgb(91,0,109);"/>
        </g>
        <g transform="matrix(1,0,0,1,655.414,127.884)">
            <rect x="115.347" y="87.018" width="26.828" height="26.828" style="fill:rgb(91,0,109);"/>
        </g>
        <g transform="matrix(1,0,0,1,378.871,6.18265)">
            <path d="M74.858,194.659C74.858,203.942 73.316,217.261 77.579,225.685C82.349,235.112 94.818,237.385 103.059,233.264C104.21,232.688 109.703,227.578 110.251,226.481C113.975,219.033 116.48,212.993 116.48,204.104" style="fill:none;stroke:rgb(0,176,255);stroke-width:15px;stroke-linecap:round;"/>
        </g>
        <g transform="matrix(0.999818,-0.019088,0.019088,0.999818,374.227,7.78892)">
            <path d="M92.739,276.928L94.045,234.973" style="fill:none;stroke:rgb(0,176,255);stroke-width:7.5px;"/>
        </g>
        <g transform="matrix(1,0,0,1,504.192,8.09355)">
            <path d="M74.858,194.659C74.858,203.942 73.316,217.261 77.579,225.685C82.349,235.112 94.818,237.385 103.059,233.264C104.21,232.688 109.703,227.578 110.251,226.481C113.975,219.033 116.48,212.993 116.48,204.104" style="fill:none;stroke:rgb(0,176,255);stroke-width:15px;stroke-linecap:round;"/>
        </g>
        <g transform="matrix(1,0,0,1,691.549,6.49854)">
            <path d="M74.858,194.659C74.858,203.942 73.316,217.261 77.579,225.685C82.349,235.112 94.818,237.385 103.059,233.264C104.21,232.688 109.703,227.578 110.251,226.481C113.975,219.033 116.48,212.993 116.48,204.104" style="fill:none;stroke:rgb(0,176,255);stroke-width:15px;stroke-linecap:round;"/>
        </g>
        <g transform="matrix(0.999818,-0.019088,0.019088,0.999818,499.548,9.69983)">
            <path d="M92.739,276.928L94.045,234.973" style="fill:none;stroke:rgb(0,176,255);stroke-width:7.5px;"/>
        </g>
        <g transform="matrix(1,0,0,1,561.549,6.49854)">
            <path d="M74.858,194.659C74.858,203.942 73.316,217.261 77.579,225.685C82.349,235.112 94.818,237.385 103.059,233.264C104.21,232.688 109.703,227.578 110.251,226.481C113.975,219.033 116.48,212.993 116.48,204.104" style="fill:none;stroke:rgb(255,122,0);stroke-width:15px;stroke-linecap:round;"/>
        </g>
        <g transform="matrix(0.999818,-0.019088,0.019088,0.999818,556.905,8.10481)">
            <path d="M92.739,276.928L94.045,234.973" style="fill:none;stroke:rgb(255,122,0);stroke-width:7.5px;"/>
        </g>
        <g transform="matrix(0.999818,-0.019088,0.019088,0.999818,686.905,8.10481)">
            <path d="M92.739,276.928L94.045,234.973" style="fill:none;stroke:rgb(0,176,255);stroke-width:7.5px;"/>
        </g>
        <g transform="matrix(1,3.46945e-18,-3.46945e-18,1,618.298,127.376)">
            <rect x="115.347" y="87.018" width="26.828" height="26.828" style="fill:rgb(91,0,109);"/>
        </g>
        <g transform="matrix(1,0,0,1,0,-171.5)">
            <g transform="matrix(1,0,0,1,725.549,177.999)">
                <path d="M74.858,194.659C74.858,203.942 73.316,217.261 77.579,225.685C82.349,235.112 94.818,237.385 103.059,233.264C104.21,232.688 109.703,227.578 110.251,226.481C113.975,219.033 116.48,212.993 116.48,204.104" style="fill:none;stroke:rgb(255,122,0);stroke-width:15px;stroke-linecap:round;"/>
            </g>
            <g transform="matrix(0.999818,-0.019088,0.019088,0.999818,720.905,179.605)">
                <path d="M92.739,276.928L94.045,234.973" style="fill:none;stroke:rgb(255,122,0);stroke-width:7.5px;"/>
            </g>
            <g transform="matrix(1,0,0,1,-1.84043,124.453)">
                <text x="142.625px" y="106.461px" style="font-family:'Arial-BoldItalicMT', 'Arial', sans-serif;font-weight:700;font-style:italic;font-size:30px;fill:rgb(0,65,17);">K</text>
                <text x="164.29px" y="113.461px" style="font-family:'Arial-BoldItalicMT', 'Arial', sans-serif;font-weight:700;font-style:italic;font-size:30px;fill:rgb(0,65,17);">a</text>
            </g>
            <g transform="matrix(1,0,0,1,129.024,176.471)">
                <text x="142.625px" y="106.461px" style="font-family:'Arial-BoldItalicMT', 'Arial', sans-serif;font-weight:700;font-style:italic;font-size:30px;">K</text>
                <text x="164.29px" y="112.461px" style="font-family:'Arial-BoldItalicMT', 'Arial', sans-serif;font-weight:700;font-style:italic;font-size:30px;">x</text>
                <text x="180.974px" y="106.461px" style="font-family:'Arial-BoldItalicMT', 'Arial', sans-serif;font-weight:700;font-style:italic;font-size:30px;">*</text>
                <text x="192.649px" y="106.461px" style="font-family:'Arial-BoldItalicMT', 'Arial', sans-serif;font-weight:700;font-style:italic;font-size:30px;fill:rgb(91,0,109);">K</text>
                <text x="214.314px" y="113.461px" style="font-family:'Arial-BoldItalicMT', 'Arial', sans-serif;font-weight:700;font-style:italic;font-size:30px;fill:rgb(91,0,109);">a</text>
            </g>
            <g transform="matrix(1,0,0,1,315.681,201.065)">
                <text x="142.625px" y="106.461px" style="font-family:'Arial-BoldItalicMT', 'Arial', sans-serif;font-weight:700;font-style:italic;font-size:30px;">K</text>
                <text x="164.29px" y="112.461px" style="font-family:'Arial-BoldItalicMT', 'Arial', sans-serif;font-weight:700;font-style:italic;font-size:30px;">x</text>
                <text x="180.974px" y="106.461px" style="font-family:'Arial-BoldItalicMT', 'Arial', sans-serif;font-weight:700;font-style:italic;font-size:30px;">*</text>
                <text x="192.649px" y="106.461px" style="font-family:'Arial-BoldItalicMT', 'Arial', sans-serif;font-weight:700;font-style:italic;font-size:30px;fill:rgb(91,0,109);">K</text>
                <text x="214.314px" y="113.461px" style="font-family:'Arial-BoldItalicMT', 'Arial', sans-serif;font-weight:700;font-style:italic;font-size:30px;fill:rgb(91,0,109);">a</text>
            </g>
            <g transform="matrix(1,0,0,1,483.099,210.724)">
                <text x="142.625px" y="106.461px" style="font-family:'Arial-BoldItalicMT', 'Arial', sans-serif;font-weight:700;font-style:italic;font-size:30px;">K</text>
                <text x="164.29px" y="112.461px" style="font-family:'Arial-BoldItalicMT', 'Arial', sans-serif;font-weight:700;font-style:italic;font-size:30px;">x</text>
                <text x="180.974px" y="106.461px" style="font-family:'Arial-BoldItalicMT', 'Arial', sans-serif;font-weight:700;font-style:italic;font-size:30px;">*</text>
                <text x="192.649px" y="106.461px" style="font-family:'Arial-BoldItalicMT', 'Arial', sans-serif;font-weight:700;font-style:italic;font-size:30px;fill:rgb(0,65,17);">K</text>
                <text x="214.314px" y="113.461px" style="font-family:'Arial-BoldItalicMT', 'Arial', sans-serif;font-weight:700;font-style:italic;font-size:30px;fill:rgb(0,65,17);">a</text>
            </g>
        </g>
        <g transform="matrix(1,0,0,1,327.606,5.99133)">
            <path d="M74.858,194.659C74.858,203.942 73.316,217.261 77.579,225.685C82.349,235.112 94.818,237.385 103.059,233.264C104.21,232.688 109.703,227.578 110.251,226.481C113.975,219.033 116.48,212.993 116.48,204.104" style="fill:none;stroke:rgb(255,122,0);stroke-width:15px;stroke-linecap:round;"/>
        </g>
        <g transform="matrix(0.999818,-0.019088,0.019088,0.999818,322.963,7.59761)">
            <path d="M92.739,276.928L94.045,234.973" style="fill:none;stroke:rgb(255,122,0);stroke-width:7.5px;"/>
        </g>
        <g transform="matrix(-1,0,0,1,1150.26,-171.5)">
            <g transform="matrix(1,0,0,1,487.586,177.491)">
                <path d="M74.858,194.659C74.858,203.942 73.316,217.261 77.579,225.685C82.349,235.112 94.818,237.385 103.059,233.264C104.21,232.688 109.703,227.578 110.251,226.481C113.975,219.033 116.48,212.993 116.48,204.104" style="fill:none;stroke:rgb(0,176,255);stroke-width:15px;stroke-linecap:round;"/>
            </g>
            <g transform="matrix(0.999818,-0.019088,0.019088,0.999818,482.943,179.098)">
                <path d="M92.739,276.928L94.045,234.973" style="fill:none;stroke:rgb(0,176,255);stroke-width:7.5px;"/>
            </g>
        </g>
        <g transform="matrix(1,0,0,1,654.606,5.99133)">
            <path d="M74.858,194.659C74.858,203.942 73.316,217.261 77.579,225.685C82.349,235.112 94.818,237.385 103.059,233.264C104.21,232.688 109.703,227.578 110.251,226.481C113.975,219.033 116.48,212.993 116.48,204.104" style="fill:none;stroke:rgb(255,122,0);stroke-width:15px;stroke-linecap:round;"/>
        </g>
        <g transform="matrix(0.999818,-0.019088,0.019088,0.999818,649.963,7.59761)">
            <path d="M92.739,276.928L94.045,234.973" style="fill:none;stroke:rgb(255,122,0);stroke-width:7.5px;"/>
        </g>
        <g transform="matrix(1,0,0,1,801.606,5.99133)">
            <path d="M74.858,194.659C74.858,203.942 73.316,217.261 77.579,225.685C82.349,235.112 94.818,237.385 103.059,233.264C104.21,232.688 109.703,227.578 110.251,226.481C113.975,219.033 116.48,212.993 116.48,204.104" style="fill:none;stroke:rgb(255,122,0);stroke-width:15px;stroke-linecap:round;"/>
        </g>
        <g transform="matrix(0.999818,-0.019088,0.019088,0.999818,796.963,7.59761)">
            <path d="M92.739,276.928L94.045,234.973" style="fill:none;stroke:rgb(255,122,0);stroke-width:7.5px;"/>
        </g>
        <g transform="matrix(1,0,0,1,-7.99,1.62122)">
            <rect x="16.265" y="282.087" width="927.45" height="5.415" style="fill:rgb(207,203,203);stroke:rgb(207,203,203);stroke-width:4px;stroke-linecap:round;"/>
        </g>
        <g transform="matrix(1,0,0,1,-51.4737,-255.354)">
            <path d="M217.263,340.296L233.66,347.237L233.66,351.473L217.263,358.414L216.088,355.572L227.511,350.926L190.837,350.926L202.315,355.572L201.085,358.414L184.743,351.473L184.743,347.237L201.085,340.296L202.315,343.138L190.837,347.784L227.511,347.784L216.088,343.138L217.263,340.296Z" style="fill-rule:nonzero;"/>
        </g>
        <g transform="matrix(1,0,0,1,103.766,-188.065)">
            <path d="M217.263,340.296L233.66,347.237L233.66,351.473L217.263,358.414L216.088,355.572L227.511,350.926L190.837,350.926L202.315,355.572L201.085,358.414L184.743,351.473L184.743,347.237L201.085,340.296L202.315,343.138L190.837,347.784L227.511,347.784L216.088,343.138L217.263,340.296Z" style="fill-rule:nonzero;"/>
        </g>
        <g transform="matrix(1,0,0,1,277.216,-187.989)">
            <path d="M217.263,340.296L233.66,347.237L233.66,351.473L217.263,358.414L216.088,355.572L227.511,350.926L190.837,350.926L202.315,355.572L201.085,358.414L184.743,351.473L184.743,347.237L201.085,340.296L202.315,343.138L190.837,347.784L227.511,347.784L216.088,343.138L217.263,340.296Z" style="fill-rule:nonzero;"/>
        </g>
        <g transform="matrix(1,0,0,1,446.37,-177.569)">
            <path d="M217.263,340.296L233.66,347.237L233.66,351.473L217.263,358.414L216.088,355.572L227.511,350.926L190.837,350.926L202.315,355.572L201.085,358.414L184.743,351.473L184.743,347.237L201.085,340.296L202.315,343.138L190.837,347.784L227.511,347.784L216.088,343.138L217.263,340.296Z" style="fill-rule:nonzero;"/>
        </g>
    </g>
</svg>
