<?xml version="1.0" encoding="UTF-8" standalone="no"?><!DOCTYPE svg PUBLIC "-//W3C//DTD SVG 1.1//EN" "http://www.w3.org/Graphics/SVG/1.1/DTD/svg11.dtd"><svg width="100%" height="100%" viewBox="0 0 79167 25334" version="1.1" xmlns="http://www.w3.org/2000/svg" xmlns:xlink="http://www.w3.org/1999/xlink" xml:space="preserve" xmlns:serif="http://www.serif.com/" style="fill-rule:evenodd;clip-rule:evenodd;stroke-linejoin:round;stroke-miterlimit:1.5;"><g><g><g><path d="M41751.8,9542.33c0,463.625 35.083,828.834 -105.5,1274.29c-87.375,276.917 -243.667,687.958 -134.333,1004c42.541,122.917 92.5,382.667 181.25,470.333c183.5,181.292 386.416,300.167 487.958,500.834c65.042,128.583 292.792,168.666 370.708,322.708c301.209,595.125 97.292,1707.08 -109.833,2363.42c-111.292,352.541 231.75,761.375 231.75,1066.12" style="fill:none;stroke:#000;stroke-width:434.29px;"/></g><g><path d="M43042.8,12259.5c-1034.29,0 -463.125,1570.75 -1212.58,1807.21c-488.5,154.167 -309.625,-328.458 -433.208,-578.666c-155,-313.709 -509.209,-437.292 -849.417,-437.292" style="fill:none;stroke:#000;stroke-width:434.29px;"/></g></g><g><g><path d="M50098.2,10424.8c-0,171.541 -107.167,887.291 -180.834,1034.67c-82.291,164.584 -465.125,463.334 -281.625,826c294.542,582.084 1233.5,770.792 1722.42,1253.88c305.958,302.292 111.042,716.25 300.292,1090.21c63.333,125.125 499.208,788.583 602.333,839.541c134.542,66.417 506.417,392.542 535.167,543.209c25.833,133.875 -32.917,925.291 -214.625,925.291" style="fill:none;stroke:#000;stroke-width:434.29px;"/></g><g><path d="M52908.1,12647.5c-322.292,-0 -694.583,411.375 -965.5,546.791c-713.5,356.792 -1880.88,576.209 -2257.12,1328.83c-112.708,225.291 -31.958,586.333 132.125,748.541c77.833,76.834 348.542,66.584 455.375,119.417c81.625,40.292 243.875,274.583 303.042,363.458c107.083,161 4.75,555.209 -36.25,719.084c-15,60 -11.584,148.833 -11.584,210.75c0,25.708 0,106.125 0,96.125" style="fill:none;stroke:#000;stroke-width:434.29px;"/></g></g><g><ellipse cx="50549.7" cy="16735.9" rx="825.675" ry="917.642" style="fill:#44995a;"/></g><g><g><path d="M61283.1,12780.3c0,388.666 -129.167,377.375 -282.5,684.583c-76.667,153.292 -27.5,376 -109.583,540.917c-92.5,184.291 -400,395.083 -563.334,476.75c-159.583,79.666 -68.75,345.041 -205.833,413.5c-251.667,125.875 -572.5,332.208 -754.583,423.416c-205.834,102.917 -650.417,360.25 -735,529.459c-80,160.041 32.916,828.791 90.833,751.375" style="fill:none;stroke:#000;stroke-width:434.29px;"/></g><g><path d="M60834.7,16798.6c-0,-608.458 77.916,-1215.54 77.916,-1805.83c0,-177.958 -47.5,-293.375 -165.833,-416.292c-57.5,-60.166 -267.083,-167.708 -185,-167.708c356.667,0 323.333,392.625 579.167,475c264.166,85.042 544.583,164.708 800.833,254.167c87.083,30.458 223.75,-41.667 305.833,-0c585.834,297.833 779.167,875.916 779.167,1499.92" style="fill:none;stroke:#000;stroke-width:471.25px;"/></g></g><g><g><path d="M69353.5,16322.8c-0,-561.833 -95.417,-1112.96 93.333,-1663.12c62.5,-182.041 -12.917,-460.458 136.25,-609.5c23.333,-23.208 133.75,12.209 163.333,0c183.75,-75.5 450.834,-40.583 625,-127.625c187.084,-93.708 537.5,-215.875 748.334,-78.125c127.083,83.167 270,315.25 333.333,440.334c76.25,151.208 1.25,433.958 198.333,531.25c156.25,77.166 400.417,-52.375 551.667,22.291c337.083,166.584 634.167,306.75 981.25,472.5c362.5,173 515,909.792 515,1262.67" style="fill:none;stroke:#000;stroke-width:434.29px;"/></g><g><path d="M71486.4,16694.5c0,-418.041 -80.833,-864.708 19.167,-1262.42c31.25,-124.167 -30.833,-333.5 70.417,-434.792c368.75,-368.833 1108.75,-444.292 1585,-524c164.166,-27.417 368.333,-152.625 514.583,-222.333c295.417,-140.834 684.167,-116.042 1006.67,-116.042c185.416,0 406.25,-37.333 564.166,-116.333c40,-20 83.334,-109.709 130,-86.584c160.834,79.459 191.667,417.625 227.084,558.375c113.333,448.209 129.166,882.709 129.166,1361.54c0,100.792 -63.333,530.625 21.667,614.333" style="fill:none;stroke:#000;stroke-width:434.29px;"/></g></g><g><path d="M30584.5,3699.46c-0,300.875 362.458,444.375 474.708,666.208c126.792,250.5 129.959,571.958 290.375,813.042c110.417,165.958 422.084,181.416 579.917,259.416c298.75,147.584 363.292,404.584 479.167,694.042c59.083,147.5 200.708,256.042 263.208,412.083c100.333,250.667 110.375,517.792 229.083,752.334c117.125,231.583 420.875,309.666 517.542,551.208c71.583,178.75 197.708,345 251.958,514.833c16.042,50.334 98.292,245.834 98.292,238.792" style="fill:none;stroke:#000;stroke-width:347.46px;stroke-linecap:round;"/></g><g><path d="M33779.4,3086.59c-0,915.291 79.917,1312.88 -399.958,2042.38c-27.042,41.041 -28.709,141.083 -55.292,167.583c-153.125,153.167 -486.333,230.75 -653.5,397.917c-75.792,75.833 22.417,335.583 -10.708,440.458c-59.75,189.417 30.916,428.667 -33.875,618.042c-45.75,133.708 -278.125,185.083 -346.125,321.041c-15.042,30.042 17.166,125.125 -21.334,144.417c-109.416,54.667 -329.125,-8 -453.875,23.167c-237.791,59.458 -378.208,168.291 -569.666,294.208c-52.917,34.875 -11.792,194.125 -21.334,251.625c-37.583,226.25 -70.416,1071 -357.875,1071" style="fill:none;stroke:#000;stroke-width:347.46px;stroke-linecap:round;"/></g><g><rect x="4784.94" y="16169.3" width="1553.53" height="1553.53" style="fill:#ec142d;"/></g><g><rect x="41026" y="8550.21" width="1553.53" height="1553.53" style="fill:#ff00e6;"/></g><g><rect x="41026" y="8550.21" width="1553.53" height="1553.53" style="fill:#ec142d;"/></g><g><rect x="52684.5" y="11779.3" width="1553.53" height="1553.53" style="fill:#ec142d;"/></g><g><rect x="21792" y="2150.03" width="1553.53" height="1553.53" style="fill:#ec142d;"/><rect x="13782.9" y="7689" width="1553.53" height="1553.53" style="fill:#ec142d;"/></g><g><rect x="17993.7" y="16100.7" width="1553.53" height="1553.53" style="fill:#ec142d;"/></g><g><rect x="17993.7" y="9942.37" width="1553.53" height="1553.53" style="fill:#ec142d;"/><rect x="22568.8" y="8465.76" width="1553.53" height="1553.53" style="fill:#ec142d;"/></g><g><rect x="4812.59" y="9864.4" width="1553.53" height="1553.53" style="fill:#ec142d;"/></g><g><rect x="9482.96" y="3641.96" width="1553.53" height="1553.53" style="fill:#ec142d;"/></g><g><rect x="28967.1" y="2517.89" width="1553.53" height="1553.53" style="fill:#ec142d;"/></g><g><rect x="42976.1" y="11415.7" width="1553.53" height="1553.53" style="fill:#ec142d;"/></g><g><path d="M31032.8,15729.1c-0,537.542 -89.292,1308.83 157.541,1796.62c276.25,545.875 998.292,677.5 1475.5,438.875c66.625,-33.375 384.709,-329.25 416.459,-392.792c215.666,-431.291 360.708,-781.041 360.708,-1295.79" style="fill:none;stroke:#ff7a00;stroke-width:868.58px;stroke-linecap:round;"/></g><g><path d="M17682.7,15702.8c0,537.542 -89.291,1308.83 157.542,1796.62c276.25,545.875 998.292,677.5 1475.5,438.875c66.625,-33.375 384.708,-329.25 416.458,-392.791c215.667,-431.292 360.709,-781.042 360.709,-1295.79" style="fill:none;stroke:#ff7a00;stroke-width:868.58px;stroke-linecap:round;"/></g><g><path d="M32104.5,20480.7l29.25,-2430.5" style="fill:none;stroke:#ff7a00;stroke-width:434.29px;"/></g><g><path d="M18754.3,20454.3l29.25,-2430.5" style="fill:none;stroke:#ff7a00;stroke-width:434.29px;"/></g><ellipse cx="42827.6" cy="16978.9" rx="825.675" ry="917.642" style="fill:#44995a;"/><g><ellipse cx="40560.8" cy="12790" rx="825.675" ry="917.642" style="fill:#44995a;"/></g><g><ellipse cx="50034.6" cy="10099" rx="825.675" ry="917.642" style="fill:#44995a;"/></g><g><ellipse cx="33800.9" cy="3067.67" rx="825.675" ry="917.642" style="fill:#44995a;"/></g><g><ellipse cx="30919.4" cy="8872.5" rx="825.675" ry="917.642" style="fill:#44995a;"/></g><g><ellipse cx="9043.37" cy="8121.16" rx="825.675" ry="917.642" style="fill:#44995a;"/><ellipse cx="5153.15" cy="6285.88" rx="825.675" ry="917.642" style="fill:#44995a;"/></g><ellipse cx="10742.3" cy="10578.3" rx="825.675" ry="917.642" style="fill:#44995a;"/><ellipse cx="22254.6" cy="5986.46" rx="825.675" ry="917.642" style="fill:#44995a;"/><ellipse cx="18815.7" cy="7548.12" rx="825.675" ry="917.642" style="fill:#44995a;"/><ellipse cx="28160.2" cy="16768.2" rx="825.675" ry="917.642" style="fill:#44995a;"/><ellipse cx="28141.4" cy="10707.8" rx="825.675" ry="917.642" style="fill:#44995a;"/><ellipse cx="10780.2" cy="16961.5" rx="825.675" ry="917.642" style="fill:#44995a;"/><g><ellipse cx="15256" cy="3087.6" rx="825.675" ry="917.642" style="fill:#44995a;"/></g><g><ellipse cx="61355.1" cy="12169.4" rx="825.675" ry="917.642" style="fill:#44995a;"/></g><g><ellipse cx="69521" cy="16796" rx="825.675" ry="917.642" style="fill:#44995a;"/></g><g><ellipse cx="75719.7" cy="16906.7" rx="825.675" ry="917.642" style="fill:#44995a;"/></g><g><path d="M41727.7,15768.9c-0,537.542 -89.292,1308.83 157.583,1796.62c276.208,545.875 998.25,677.5 1475.46,438.875c66.625,-33.375 384.709,-329.25 416.459,-392.792c215.625,-431.291 360.708,-781.041 360.708,-1295.79" style="fill:none;stroke:#00b0ff;stroke-width:868.58px;stroke-linecap:round;"/></g><g><path d="M42799.4,20520.4l29.25,-2430.5" style="fill:none;stroke:#00b0ff;stroke-width:434.29px;"/></g><g><g><path d="M49429.3,15711c-0,537.542 -89.292,1308.83 157.583,1796.62c276.208,545.875 998.25,677.5 1475.46,438.875c66.667,-33.375 384.75,-329.25 416.459,-392.792c215.625,-431.291 360.708,-781.041 360.708,-1295.79" style="fill:none;stroke:#00b0ff;stroke-width:868.58px;stroke-linecap:round;"/></g><g><path d="M50501,20462.5l29.25,-2430.5" style="fill:none;stroke:#00b0ff;stroke-width:434.29px;"/></g></g><g><rect x="57391.8" y="16127.1" width="1553.53" height="1553.53" style="fill:#ec142d;"/></g><g><path d="M56971.4,15729.1c0,537.542 -89.166,1308.83 157.5,1796.62c276.25,545.875 998.334,677.5 1475.42,438.875c66.667,-33.375 385,-329.25 416.667,-392.792c215.416,-431.291 360.416,-781.041 360.416,-1295.79" style="fill:none;stroke:#ff7a00;stroke-width:868.58px;stroke-linecap:round;"/></g><g><ellipse cx="61008.2" cy="16933.2" rx="825.675" ry="917.642" style="fill:#44995a;"/></g><g><path d="M58043.1,20480.7l29.167,-2430.5" style="fill:none;stroke:#ff7a00;stroke-width:434.29px;"/></g><g><path d="M68422.6,15768.9c0,537.542 -89.166,1308.83 157.5,1796.62c276.25,545.875 998.334,677.5 1475.42,438.875c66.667,-33.375 385,-329.25 416.667,-392.792c215.416,-431.291 360.416,-781.041 360.416,-1295.79" style="fill:none;stroke:#00b0ff;stroke-width:868.58px;stroke-linecap:round;"/></g><g><path d="M69494.3,20520.4l29.167,-2430.5" style="fill:none;stroke:#00b0ff;stroke-width:434.29px;"/></g><g><path d="M37603.5,15729.1c0,537.542 -89.291,1308.83 157.584,1796.62c276.208,545.875 998.25,677.5 1475.46,438.875c66.667,-33.333 384.708,-329.25 416.458,-392.792c215.667,-431.291 360.709,-781.041 360.709,-1295.79" style="fill:none;stroke:#00b0ff;stroke-width:868.58px;stroke-linecap:round;"/></g><g><path d="M38675.1,20480.7l29.25,-2430.5" style="fill:none;stroke:#00b0ff;stroke-width:434.29px;"/></g><g><path d="M37603.5,15729.1c0,537.542 -89.291,1308.83 157.584,1796.62c276.208,545.875 998.25,677.5 1475.46,438.875c66.667,-33.333 384.708,-329.25 416.458,-392.792c215.667,-431.291 360.709,-781.041 360.709,-1295.79" style="fill:none;stroke:#00b0ff;stroke-width:868.58px;stroke-linecap:round;"/></g><g><path d="M34701.9,15729.1c0,537.542 -89.291,1308.83 157.584,1796.62c276.208,545.875 998.25,677.5 1475.46,438.875c66.625,-33.333 384.708,-329.25 416.458,-392.792c215.667,-431.291 360.709,-781.041 360.709,-1295.79" style="fill:none;stroke:#00b0ff;stroke-width:868.58px;stroke-linecap:round;"/></g><g><path d="M38675.1,20480.7l29.25,-2430.5" style="fill:none;stroke:#00b0ff;stroke-width:434.29px;"/></g><g><rect x="51890.3" y="16067.4" width="1553.53" height="1553.53" style="fill:#ec142d;"/></g><g><rect x="62686.1" y="16156.4" width="1553.53" height="1553.53" style="fill:#ec142d;"/></g><g><rect x="70737.6" y="16156.4" width="1553.53" height="1553.53" style="fill:#ec142d;"/></g><g><rect x="72922.5" y="16156.4" width="1553.53" height="1553.53" style="fill:#ec142d;"/></g><g><path d="M35773.6,20480.7l29.25,-2430.5" style="fill:none;stroke:#00b0ff;stroke-width:434.29px;"/></g><g><path d="M45710.5,15729.1c-0,537.542 -89.292,1308.83 157.583,1796.62c276.208,545.875 998.25,677.5 1475.46,438.875c66.625,-33.333 384.709,-329.25 416.459,-392.792c215.666,-431.291 360.708,-781.041 360.708,-1295.79" style="fill:none;stroke:#ff7a00;stroke-width:868.58px;stroke-linecap:round;"/></g><g><path d="M46782.1,20480.7l29.25,-2430.5" style="fill:none;stroke:#ff7a00;stroke-width:434.29px;"/></g><g><path d="M54044.1,15729.1c-0,537.542 -89.167,1308.79 157.5,1796.62c276.25,545.875 998.333,677.5 1475.42,438.875c66.667,-33.375 385,-329.25 416.667,-392.792c215.417,-431.291 360.417,-781.041 360.417,-1295.79" style="fill:none;stroke:#00b0ff;stroke-width:868.58px;stroke-linecap:round;"/></g><g><path d="M55115.8,20480.7l29.167,-2430.5" style="fill:none;stroke:#00b0ff;stroke-width:434.29px;"/></g><g><path d="M62265.7,15758.5c0,537.542 -89.166,1308.83 157.5,1796.62c276.25,545.875 998.334,677.5 1475.42,438.875c66.667,-33.333 385,-329.25 416.667,-392.792c215.416,-431.291 360.416,-781.041 360.416,-1295.79" style="fill:none;stroke:#00b0ff;stroke-width:868.58px;stroke-linecap:round;"/></g><g><path d="M72576,15758.5c-0,537.542 -89.167,1308.79 157.5,1796.62c276.25,545.875 998.333,677.5 1475.42,438.875c66.667,-33.333 385,-329.25 416.667,-392.792c215.417,-431.291 360.417,-781.041 360.417,-1295.79" style="fill:none;stroke:#00b0ff;stroke-width:868.58px;stroke-linecap:round;"/></g><g><path d="M63462.9,20538.4l29.166,-2430.5" style="fill:none;stroke:#00b0ff;stroke-width:434.29px;"/></g><g><path d="M65048.1,15758.5c0,537.542 -89.167,1308.79 157.5,1796.62c276.25,545.875 998.333,677.5 1475.42,438.875c66.666,-33.333 385,-329.25 416.666,-392.792c215.417,-431.291 360.417,-781.041 360.417,-1295.79" style="fill:none;stroke:#ff7a00;stroke-width:868.58px;stroke-linecap:round;"/></g><g><path d="M66119.7,20510l29.166,-2430.5" style="fill:none;stroke:#ff7a00;stroke-width:434.29px;"/></g><g><path d="M73647.6,20510l29.167,-2430.5" style="fill:none;stroke:#00b0ff;stroke-width:434.29px;"/></g><g><path d="M74544.7,15758.5c-0,537.541 -89.167,1308.79 157.5,1796.62c276.25,545.875 998.333,677.5 1475.42,438.875c66.667,-33.375 385,-329.25 416.667,-392.792c215.417,-431.292 360.417,-781.042 360.417,-1295.79" style="fill:none;stroke:#ff7a00;stroke-width:868.58px;stroke-linecap:round;"/></g><g><path d="M75616.4,20510l29.167,-2430.5" style="fill:none;stroke:#ff7a00;stroke-width:434.29px;"/></g><g><g><text x="36728px" y="6464.33px" style="font-family:'Arial-BoldItalicMT', 'Arial', sans-serif;font-weight:700;font-style:italic;font-size:1737.21px;fill:#44995a;">K</text></g><g><text x="37982.6px" y="6869.66px" style="font-family:'Arial-BoldItalicMT', 'Arial', sans-serif;font-weight:700;font-style:italic;font-size:1737.21px;fill:#44995a;">a,</text><text x="39431.4px" y="6869.66px" style="font-family:'Arial-BoldMT', 'Arial', sans-serif;font-weight:700;font-size:1250px;fill:#44995a;">2</text></g></g><g><g><text x="11844.2px" y="13724.4px" style="font-family:'Arial-BoldItalicMT', 'Arial', sans-serif;font-weight:700;font-style:italic;font-size:1737.21px;fill:#44995a;">K</text></g><g><text x="13098.8px" y="14129.8px" style="font-family:'Arial-BoldItalicMT', 'Arial', sans-serif;font-weight:700;font-style:italic;font-size:1737.21px;fill:#44995a;">a,</text><text x="14547.6px" y="14129.8px" style="font-family:'Arial-BoldMT', 'Arial', sans-serif;font-weight:700;font-size:1250px;fill:#44995a;">2</text></g></g><g><g><text x="24053.6px" y="13910.2px" style="font-family:'Arial-BoldItalicMT', 'Arial', sans-serif;font-weight:700;font-style:italic;font-size:1737.21px;fill:#44995a;">K</text></g><g><text x="25308.2px" y="14315.5px" style="font-family:'Arial-BoldItalicMT', 'Arial', sans-serif;font-weight:700;font-style:italic;font-size:1737.21px;fill:#44995a;">a,</text><text x="26757px" y="14315.5px" style="font-family:'Arial-BoldMT', 'Arial', sans-serif;font-weight:700;font-size:1250px;fill:#44995a;">4</text></g></g><g><g><text x="1470.82px" y="13804.2px" style="font-family:'Arial-BoldItalicMT', 'Arial', sans-serif;font-weight:700;font-style:italic;font-size:1737.21px;fill:#ec142d;">K</text></g><g><text x="2725.36px" y="14209.6px" style="font-family:'Arial-BoldItalicMT', 'Arial', sans-serif;font-weight:700;font-style:italic;font-size:1737.21px;fill:#ec142d;">a,</text><text x="4174.16px" y="14209.6px" style="font-family:'Arial-BoldMT', 'Arial', sans-serif;font-weight:700;font-size:1250px;fill:#ec142d;">1</text></g></g><g><g><text x="19504.3px" y="13910.2px" style="font-family:'Arial-BoldItalicMT', 'Arial', sans-serif;font-weight:700;font-style:italic;font-size:1737.21px;fill:#ec142d;">K</text></g><g><text x="20758.8px" y="14315.6px" style="font-family:'Arial-BoldItalicMT', 'Arial', sans-serif;font-weight:700;font-style:italic;font-size:1737.21px;fill:#ec142d;">a,</text><text x="22207.6px" y="14315.6px" style="font-family:'Arial-BoldMT', 'Arial', sans-serif;font-weight:700;font-size:1250px;fill:#ec142d;">3</text></g></g><g><g><text x="43146.7px" y="8631.57px" style="font-family:'Arial-BoldItalicMT', 'Arial', sans-serif;font-weight:700;font-style:italic;font-size:1737.21px;">K</text></g><g><text x="44401.2px" y="8979.03px" style="font-family:'Arial-BoldItalicMT', 'Arial', sans-serif;font-weight:700;font-style:italic;font-size:1737.21px;">x</text></g><g><text x="45367.3px" y="8631.57px" style="font-family:'Arial-BoldItalicMT', 'Arial', sans-serif;font-weight:700;font-style:italic;font-size:1737.21px;">*</text></g><g><text x="46043.4px" y="8631.57px" style="font-family:'Arial-BoldItalicMT', 'Arial', sans-serif;font-weight:700;font-style:italic;font-size:1737.21px;fill:#ec142d;">K</text></g><g><text x="47298px" y="9036.95px" style="font-family:'Arial-BoldItalicMT', 'Arial', sans-serif;font-weight:700;font-style:italic;font-size:1737.21px;fill:#ec142d;">a,</text><text x="48746.8px" y="9036.95px" style="font-family:'Arial-BoldMT', 'Arial', sans-serif;font-weight:700;font-size:1250px;fill:#ec142d;">3</text></g></g><g><g><text x="53162.2px" y="10674.2px" style="font-family:'Arial-BoldItalicMT', 'Arial', sans-serif;font-weight:700;font-style:italic;font-size:1737.21px;">K</text></g><g><text x="54416.8px" y="11021.7px" style="font-family:'Arial-BoldItalicMT', 'Arial', sans-serif;font-weight:700;font-style:italic;font-size:1737.21px;">x</text></g><g><text x="55383.1px" y="10674.2px" style="font-family:'Arial-BoldItalicMT', 'Arial', sans-serif;font-weight:700;font-style:italic;font-size:1737.21px;">*</text></g><g><text x="56058.9px" y="10674.2px" style="font-family:'Arial-BoldItalicMT', 'Arial', sans-serif;font-weight:700;font-style:italic;font-size:1737.21px;fill:#ec142d;">K</text></g><g><text x="57313.5px" y="11079.6px" style="font-family:'Arial-BoldItalicMT', 'Arial', sans-serif;font-weight:700;font-style:italic;font-size:1737.21px;fill:#ec142d;">a,</text><text x="58762.3px" y="11079.6px" style="font-family:'Arial-BoldMT', 'Arial', sans-serif;font-weight:700;font-size:1250px;fill:#ec142d;">1</text></g></g><g><g><text x="63198.3px" y="12332.5px" style="font-family:'Arial-BoldItalicMT', 'Arial', sans-serif;font-weight:700;font-style:italic;font-size:1737.21px;">K</text></g><g><text x="64452.8px" y="12680px" style="font-family:'Arial-BoldItalicMT', 'Arial', sans-serif;font-weight:700;font-style:italic;font-size:1737.21px;">x</text></g><g><text x="65419.1px" y="12332.5px" style="font-family:'Arial-BoldItalicMT', 'Arial', sans-serif;font-weight:700;font-style:italic;font-size:1737.21px;">*</text></g><g><text x="66095.3px" y="12332.5px" style="font-family:'Arial-BoldItalicMT', 'Arial', sans-serif;font-weight:700;font-style:italic;font-size:1737.21px;fill:#44995a;">K</text></g><g><text x="67349.5px" y="12737.9px" style="font-family:'Arial-BoldItalicMT', 'Arial', sans-serif;font-weight:700;font-style:italic;font-size:1737.21px;fill:#44995a;">a,</text><text x="68798.3px" y="12737.9px" style="font-family:'Arial-BoldMT', 'Arial', sans-serif;font-weight:700;font-size:1250px;fill:#44995a;">4</text></g></g><g><path d="M51501.1,15729.1c0,537.542 -89.291,1308.83 157.584,1796.62c276.208,545.875 998.083,677.5 1475.58,438.875c66.667,-33.333 384.583,-329.25 416.25,-392.792c215.833,-431.291 360.833,-781.041 360.833,-1295.79" style="fill:none;stroke:#ff7a00;stroke-width:868.58px;stroke-linecap:round;"/></g><g><path d="M52572.8,20480.7l29.375,-2430.5" style="fill:none;stroke:#ff7a00;stroke-width:434.29px;"/></g><g><path d="M12761.3,15791c0,537.542 -89.291,1308.79 157.584,1796.62c276.208,545.875 998.25,677.5 1475.46,438.875c66.625,-33.375 384.708,-329.25 416.458,-392.792c215.667,-431.291 360.709,-781.041 360.709,-1295.79" style="fill:none;stroke:#ff7a00;stroke-width:868.58px;stroke-linecap:round;"/></g><g><path d="M1966.18,15702.8c0,537.542 -89.291,1308.79 157.584,1796.62c276.208,545.875 998.25,677.5 1475.46,438.875c66.625,-33.375 384.708,-329.25 416.458,-392.792c215.667,-431.291 360.709,-781.041 360.709,-1295.79" style="fill:none;stroke:#ff7a00;stroke-width:868.58px;stroke-linecap:round;"/></g><g><path d="M13833,20542.5l29.25,-2430.5" style="fill:none;stroke:#ff7a00;stroke-width:434.29px;"/></g><g><path d="M3037.8,20454.3l29.25,-2430.5" style="fill:none;stroke:#ff7a00;stroke-width:434.29px;"/></g><g><path d="M22274.7,15729.1c-0,537.542 -89.292,1308.83 157.583,1796.62c276.208,545.875 998.25,677.5 1475.46,438.875c66.625,-33.375 384.709,-329.25 416.459,-392.792c215.666,-431.291 360.708,-781.041 360.708,-1295.79" style="fill:none;stroke:#ff7a00;stroke-width:868.58px;stroke-linecap:round;"/></g><g><path d="M27017.8,15782.4c0,537.541 -89.291,1308.83 157.584,1796.62c276.208,545.875 998.25,677.5 1475.46,438.875c66.625,-33.375 384.708,-329.25 416.458,-392.792c215.667,-431.292 360.709,-781.042 360.709,-1295.79" style="fill:none;stroke:#ff7a00;stroke-width:868.58px;stroke-linecap:round;"/></g><g><path d="M23417.1,20540.9l29.25,-2430.5" style="fill:none;stroke:#ff7a00;stroke-width:434.29px;"/></g><g><path d="M28160.2,20594.2l29.25,-2430.5" style="fill:none;stroke:#ff7a00;stroke-width:434.29px;"/></g><g><path d="M9615.71,15791c0,537.542 -89.291,1308.79 157.584,1796.62c276.208,545.875 998.25,677.5 1475.46,438.875c66.625,-33.375 384.708,-329.25 416.458,-392.792c215.625,-431.291 360.709,-781.041 360.709,-1295.79" style="fill:none;stroke:#00b0ff;stroke-width:868.58px;stroke-linecap:round;"/></g><g><path d="M4392.12,15771.4c-0,537.542 -89.292,1308.79 157.583,1796.62c276.208,545.875 998.25,677.5 1475.46,438.875c66.625,-33.375 384.709,-329.25 416.459,-392.792c215.625,-431.291 360.708,-781.041 360.708,-1295.79" style="fill:none;stroke:#00b0ff;stroke-width:868.58px;stroke-linecap:round;"/></g><g><path d="M10687.3,20542.5l29.25,-2430.5" style="fill:none;stroke:#00b0ff;stroke-width:434.29px;"/></g><g><path d="M5463.74,20522.9l29.25,-2430.5" style="fill:none;stroke:#00b0ff;stroke-width:434.29px;"/></g><g><path d="M20108.6,15702.8c-0,537.542 -89.292,1308.83 157.583,1796.62c276.208,545.875 998.25,677.5 1475.46,438.875c66.667,-33.375 384.709,-329.25 416.459,-392.791c215.666,-431.292 360.708,-781.042 360.708,-1295.79" style="fill:none;stroke:#00b0ff;stroke-width:868.58px;stroke-linecap:round;"/></g><g><path d="M24017.1,15782.4c0,537.541 -89.291,1308.83 157.584,1796.62c276.208,545.875 998.25,677.5 1475.46,438.875c66.667,-33.375 384.708,-329.25 416.458,-392.792c215.667,-431.292 360.709,-781.042 360.709,-1295.79" style="fill:none;stroke:#00b0ff;stroke-width:868.58px;stroke-linecap:round;"/></g><g><path d="M21180.2,20454.3l29.25,-2430.5" style="fill:none;stroke:#00b0ff;stroke-width:434.29px;"/></g><g><path d="M25088.7,20533.9l29.25,-2430.5" style="fill:none;stroke:#00b0ff;stroke-width:434.29px;"/></g><g><path d="M14611.7,15702.8c-0,537.542 -89.292,1308.83 157.583,1796.62c276.209,545.875 998.25,677.5 1475.46,438.875c66.625,-33.375 384.708,-329.25 416.458,-392.791c215.667,-431.292 360.708,-781.042 360.708,-1295.79" style="fill:none;stroke:#00b0ff;stroke-width:868.58px;stroke-linecap:round;"/></g><g><path d="M15683.3,20454.3l29.25,-2430.5" style="fill:none;stroke:#00b0ff;stroke-width:434.29px;"/></g><g><path d="M7049.42,15779.9c-0,537.541 -89.292,1308.83 157.566,1796.62c276.217,545.875 998.259,677.5 1475.47,438.875c66.65,-33.375 384.733,-329.25 416.467,-392.792c215.645,-431.292 360.704,-781.042 360.704,-1295.79" style="fill:none;stroke:#ff7a00;stroke-width:868.58px;stroke-linecap:round;"/></g><g><path d="M8121.11,20531.5l29.238,-2430.5" style="fill:none;stroke:#ff7a00;stroke-width:434.29px;"/></g><g><g><path d="M62234.3,15729.1c0,537.542 89.167,1308.83 -157.5,1796.62c-276.25,545.875 -998.333,677.5 -1475.42,438.875c-66.666,-33.375 -385,-329.25 -416.666,-392.792c-215.417,-431.291 -360.417,-781.041 -360.417,-1295.79" style="fill:none;stroke:#00b0ff;stroke-width:868.58px;stroke-linecap:round;"/></g><g><path d="M61162.6,20480.7l-29.166,-2430.5" style="fill:none;stroke:#00b0ff;stroke-width:434.29px;"/></g></g><g><path d="M70436.8,15729.1c0,537.542 -89.167,1308.83 157.5,1796.62c276.25,545.875 998.333,677.5 1475.42,438.875c66.666,-33.333 385,-329.25 416.666,-392.792c215.417,-431.291 360.417,-781.041 360.417,-1295.79" style="fill:none;stroke:#ff7a00;stroke-width:868.58px;stroke-linecap:round;"/></g><g><path d="M71508.5,20480.7l29.166,-2430.5" style="fill:none;stroke:#ff7a00;stroke-width:434.29px;"/></g><g><rect x="989.166" y="20522.9" width="77188.3" height="391.708" style="fill:#cfcbcb;stroke:#cfcbcb;stroke-width:311.87px;stroke-linecap:round;"/></g><g><path d="M38608.9,8667.3l412.916,944.769l-168.69,178.077l-965.752,-361.17l63.789,-166.278l665.231,259.575l-1541.74,-1460.48l297.512,652.42l-164.912,70.485l-410.558,-942.593l168.69,-178.077l963.394,358.994l-61.46,168.484l-667.531,-261.811l1541.74,1460.48l-295.212,-650.184l162.583,-72.691Z" style="fill-rule:nonzero;"/></g><g><path d="M6202.32,14227.8l-401.917,949.5l-245.291,-0l-401.959,-949.5l164.584,-68.042l269.041,661.458l0,-2123.67l-269.041,664.666l-164.584,-71.25l401.959,-946.291l245.291,-0l401.917,946.291l-164.583,71.25l-269.042,-664.666l-0,2123.67l269.042,-661.458l164.583,68.042Z" style="fill-rule:nonzero;"/></g><g><path d="M19403.8,14195.3l-401.916,949.5l-245.292,0l-401.958,-949.5l164.583,-68.041l269.042,661.458l-0,-2123.67l-269.042,664.667l-164.583,-71.25l401.958,-946.292l245.292,0l401.916,946.292l-164.583,71.25l-269.042,-664.667l0,2123.67l269.042,-661.458l164.583,68.041Z" style="fill-rule:nonzero;"/></g><g><path d="M11304.8,14160.5l-401.917,949.5l-245.292,-0l-401.958,-949.5l164.583,-68.042l269.042,661.458l-0,-2123.67l-269.042,664.666l-164.583,-71.25l401.958,-946.291l245.292,-0l401.917,946.291l-164.584,71.25l-269,-664.666l0,2123.67l269,-661.458l164.584,68.042Z" style="fill-rule:nonzero;"/></g><g><path d="M28750,14216.2l-401.917,949.5l-245.292,-0l-401.958,-949.5l164.583,-68.042l269.042,661.458l-0,-2123.67l-269.042,664.666l-164.583,-71.25l401.958,-946.291l245.292,-0l401.917,946.291l-164.584,71.25l-269,-664.666l0,2123.67l269,-661.458l164.584,68.042Z" style="fill-rule:nonzero;"/></g><g><path d="M47379,12140.3l949.5,401.917l-0,245.292l-949.5,401.958l-68.042,-164.583l661.458,-269.042l-2123.67,0l664.666,269.042l-71.25,164.583l-946.291,-401.958l-0,-245.292l946.291,-401.917l71.25,164.584l-664.666,269.041l2123.67,0l-661.458,-269.041l68.042,-164.584Z" style="fill-rule:nonzero;"/></g><g><path d="M56829.3,12929.7l949.583,401.917l0,245.292l-949.583,401.958l-67.917,-164.583l661.25,-269.042l-2123.75,0l665,269.042l-71.25,164.583l-946.666,-401.958l-0,-245.292l946.666,-401.917l71.25,164.584l-665,269.041l2123.75,0l-661.25,-269.041l67.917,-164.584Z" style="fill-rule:nonzero;"/></g><g><path d="M66624.7,13533.1l949.583,401.917l0,245.292l-949.583,401.958l-67.917,-164.583l661.25,-269.042l-2123.75,0l665,269.042l-71.25,164.583l-946.667,-401.958l0,-245.292l946.667,-401.917l71.25,164.584l-665,269.041l2123.75,0l-661.25,-269.041l67.917,-164.584Z" style="fill-rule:nonzero;"/></g><g><rect x="33443.9" y="8204.17" width="1553.53" height="1553.53" style="fill:#ec142d;"/></g></g></svg>