<?xml version="1.0" encoding="UTF-8" standalone="no"?>
<!DOCTYPE svg PUBLIC "-//W3C//DTD SVG 1.1//EN" "http://www.w3.org/Graphics/SVG/1.1/DTD/svg11.dtd">
<svg width="100%" height="100%" viewBox="0 0 16392 6080" version="1.1" xmlns="http://www.w3.org/2000/svg" xmlns:xlink="http://www.w3.org/1999/xlink" xml:space="preserve" xmlns:serif="http://www.serif.com/" style="fill-rule:evenodd;clip-rule:evenodd;stroke-linejoin:round;stroke-miterlimit:1.5;">
    <g>
        <g>
            <g>
                <path d="M7397.1,2290.16C7397.1,2401.43 7405.52,2489.08 7371.78,2595.99C7350.81,2662.45 7313.3,2761.1 7339.54,2836.95C7349.75,2866.45 7361.74,2928.79 7383.04,2949.83C7427.08,2993.34 7475.78,3021.87 7500.15,3070.03C7515.76,3100.89 7570.42,3110.51 7589.12,3147.48C7661.41,3290.31 7612.47,3557.18 7562.76,3714.7C7536.05,3799.31 7618.38,3897.43 7618.38,3970.57" style="fill:none;stroke:black;stroke-width:104.23px;"/>
            </g>
            <g>
                <path d="M7706.93,2942.28C7458.7,2942.28 7595.78,3319.26 7415.91,3376.01C7298.67,3413.01 7341.6,3297.18 7311.94,3237.13C7274.74,3161.84 7189.73,3132.18 7108.08,3132.18" style="fill:none;stroke:black;stroke-width:104.23px;"/>
            </g>
        </g>
        <g>
            <g>
                <path d="M9400.24,2501.95C9400.24,2543.12 9374.52,2714.9 9356.84,2750.27C9337.09,2789.77 9245.21,2861.47 9289.25,2948.51C9359.94,3088.21 9585.29,3133.5 9702.63,3249.44C9776.06,3321.99 9729.28,3421.34 9774.7,3511.09C9789.9,3541.12 9894.51,3700.35 9919.26,3712.58C9951.55,3728.52 10040.8,3806.79 10047.7,3842.95C10053.9,3875.08 10039.8,4065.02 9996.19,4065.02" style="fill:none;stroke:black;stroke-width:104.23px;"/>
            </g>
            <g>
                <path d="M10074.6,3035.41C9997.25,3035.41 9907.9,3134.14 9842.88,3166.64C9671.64,3252.27 9391.47,3304.93 9301.17,3485.56C9274.12,3539.63 9293.5,3626.28 9332.88,3665.21C9351.56,3683.65 9416.53,3681.19 9442.17,3693.87C9461.76,3703.54 9500.7,3759.77 9514.9,3781.1C9540.6,3819.74 9516.04,3914.35 9506.2,3953.68C9502.6,3968.08 9503.42,3989.4 9503.42,4004.26C9503.42,4010.43 9503.42,4029.73 9503.42,4027.33" style="fill:none;stroke:black;stroke-width:104.23px;"/>
            </g>
        </g>
        <g>
            <ellipse cx="9508.59" cy="4016.61" rx="198.162" ry="220.234" style="fill:rgb(68,153,90);"/>
        </g>
        <g>
            <g>
                <path d="M12084.6,3067.27C12084.6,3160.55 12053.6,3157.84 12016.8,3231.57C11998.4,3268.36 12010.2,3321.81 11990.5,3361.39C11968.3,3405.62 11894.5,3456.21 11855.3,3475.81C11817,3494.93 11838.8,3558.62 11805.9,3575.05C11745.5,3605.26 11668.5,3654.78 11624.8,3676.67C11575.4,3701.37 11468.7,3763.13 11448.4,3803.74C11429.2,3842.15 11456.3,4002.65 11470.2,3984.07" style="fill:none;stroke:black;stroke-width:104.23px;"/>
            </g>
            <g>
                <path d="M11977,4031.66C11977,3885.63 11995.7,3739.93 11995.7,3598.26C11995.7,3555.55 11984.3,3527.85 11955.9,3498.35C11942.1,3483.91 11891.8,3458.1 11911.5,3458.1C11997.1,3458.1 11989.1,3552.33 12050.5,3572.1C12113.9,3592.51 12181.2,3611.63 12242.7,3633.1C12263.6,3640.41 12296.4,3623.1 12316.1,3633.1C12456.7,3704.58 12503.1,3843.32 12503.1,3993.08" style="fill:none;stroke:black;stroke-width:113.1px;"/>
            </g>
        </g>
        <g>
            <g>
                <path d="M14021.5,3917.48C14021.5,3782.64 13998.6,3650.37 14043.9,3518.33C14058.9,3474.64 14040.8,3407.82 14076.6,3372.05C14082.2,3366.48 14108.7,3374.98 14115.8,3372.05C14159.9,3353.93 14224,3362.31 14265.8,3341.42C14310.7,3318.93 14394.8,3289.61 14445.4,3322.67C14475.9,3342.63 14510.2,3398.33 14525.4,3428.35C14543.7,3464.64 14525.7,3532.5 14573,3555.85C14610.5,3574.37 14669.1,3543.28 14705.4,3561.2C14786.3,3601.18 14857.6,3634.82 14940.9,3674.6C15027.9,3716.12 15064.5,3892.95 15064.5,3977.64" style="fill:none;stroke:black;stroke-width:104.23px;"/>
            </g>
            <g>
                <path d="M14533.4,4006.67C14533.4,3906.34 14514,3799.14 14538,3703.69C14545.5,3673.89 14530.6,3623.65 14554.9,3599.34C14643.4,3510.82 14821,3492.71 14935.3,3473.58C14974.7,3467 15023.7,3436.95 15058.8,3420.22C15129.7,3386.42 15223,3392.37 15300.4,3392.37C15344.9,3392.37 15397.9,3383.41 15435.8,3364.45C15445.4,3359.65 15455.8,3338.12 15467,3343.67C15505.6,3362.74 15513,3443.9 15521.5,3477.68C15548.7,3585.25 15552.5,3689.53 15552.5,3804.45C15552.5,3828.64 15537.3,3931.8 15557.7,3951.89" style="fill:none;stroke:black;stroke-width:104.23px;"/>
            </g>
        </g>
        <g>
            <path d="M4750.7,1507.1C4750.7,1579.31 4837.69,1613.75 4864.63,1666.99C4895.06,1727.11 4895.82,1804.26 4934.32,1862.12C4960.82,1901.95 5035.62,1905.66 5073.5,1924.38C5145.2,1959.8 5160.69,2021.48 5188.5,2090.95C5202.68,2126.35 5236.67,2152.4 5251.67,2189.85C5275.75,2250.01 5278.16,2314.12 5306.65,2370.41C5334.76,2425.99 5407.66,2444.73 5430.86,2502.7C5448.04,2545.6 5478.31,2585.5 5491.33,2626.26C5495.18,2638.34 5514.92,2685.26 5514.92,2683.57" style="fill:none;stroke:black;stroke-width:83.39px;stroke-linecap:round;"/>
        </g>
        <g>
            <path d="M5517.47,1360.01C5517.47,1579.68 5536.65,1675.1 5421.48,1850.18C5414.99,1860.03 5414.59,1884.04 5408.21,1890.4C5371.46,1927.16 5291.49,1945.78 5251.37,1985.9C5233.18,2004.1 5256.75,2066.44 5248.8,2091.61C5234.46,2137.07 5256.22,2194.49 5240.67,2239.94C5229.69,2272.03 5173.92,2284.36 5157.6,2316.99C5153.99,2324.2 5161.72,2347.02 5152.48,2351.65C5126.22,2364.77 5073.49,2349.73 5043.55,2357.21C4986.48,2371.48 4952.78,2397.6 4906.83,2427.82C4894.13,2436.19 4904,2474.41 4901.71,2488.21C4892.69,2542.51 4884.81,2745.25 4815.82,2745.25" style="fill:none;stroke:black;stroke-width:83.39px;stroke-linecap:round;"/>
        </g>
        <g>
            <rect x="1104.3" y="3886.38" width="372.847" height="372.847" style="fill:rgb(236,20,45);"/>
        </g>
        <g>
            <rect x="7222.91" y="2052.05" width="372.847" height="372.847" style="fill:rgb(255,0,230);"/>
        </g>
        <g>
            <rect x="7222.91" y="2052.05" width="372.847" height="372.847" style="fill:rgb(236,20,45);"/>
        </g>
        <g transform="matrix(1,0,0,1,2798.04,774.972)">
            <rect x="7222.91" y="2052.05" width="372.847" height="372.847" style="fill:rgb(236,20,45);"/>
        </g>
        <g transform="matrix(1,0,0,1,-4268.62,-955.295)">
            <rect x="7222.91" y="2052.05" width="372.847" height="372.847" style="fill:rgb(236,20,45);"/>
        </g>
        <g transform="matrix(1,0,0,1,-5584.3,-245.453)">
            <rect x="7222.91" y="2052.05" width="372.847" height="372.847" style="fill:rgb(236,20,45);"/>
        </g>
        <g transform="matrix(1,0,0,1,-6251,-1177.98)">
            <rect x="7222.91" y="2052.05" width="372.847" height="372.847" style="fill:rgb(236,20,45);"/>
        </g>
        <g transform="matrix(1,0,0,1,-2860.39,-828.526)">
            <rect x="7222.91" y="2052.05" width="372.847" height="372.847" style="fill:rgb(236,20,45);"/>
        </g>
        <g transform="matrix(1,0,0,1,468.01,687.721)">
            <rect x="7222.91" y="2052.05" width="372.847" height="372.847" style="fill:rgb(236,20,45);"/>
        </g>
        <g>
            <path d="M4824.55,3774.99C4824.55,3904 4803.12,4089.11 4862.36,4206.18C4928.66,4337.19 5101.95,4368.78 5216.48,4311.51C5232.47,4303.5 5308.81,4232.49 5316.43,4217.24C5368.19,4113.73 5403,4029.79 5403,3906.25" style="fill:none;stroke:rgb(255,122,0);stroke-width:208.46px;stroke-linecap:round;"/>
        </g>
        <g>
            <path d="M5081.74,4915.36L5088.76,4332.04" style="fill:none;stroke:rgb(255,122,0);stroke-width:104.23px;"/>
        </g>
        <ellipse cx="7655.28" cy="4074.93" rx="198.162" ry="220.234" style="fill:rgb(68,153,90);"/>
        <g>
            <ellipse cx="7111.27" cy="3069.59" rx="198.162" ry="220.234" style="fill:rgb(68,153,90);"/>
        </g>
        <g>
            <ellipse cx="9384.98" cy="2423.77" rx="198.162" ry="220.234" style="fill:rgb(68,153,90);"/>
        </g>
        <g>
            <ellipse cx="5522.64" cy="1355.47" rx="198.162" ry="220.234" style="fill:rgb(68,153,90);"/>
        </g>
        <g>
            <ellipse cx="4831.07" cy="2748.63" rx="198.162" ry="220.234" style="fill:rgb(68,153,90);"/>
        </g>
        <g>
            <ellipse cx="890.245" cy="2424.21" rx="198.162" ry="220.234" style="fill:rgb(68,153,90);"/>
        </g>
        <g>
            <ellipse cx="3061.86" cy="2431.66" rx="198.162" ry="220.234" style="fill:rgb(68,153,90);"/>
            <ellipse cx="2901.09" cy="4057.96" rx="198.162" ry="220.234" style="fill:rgb(68,153,90);"/>
        </g>
        <g>
            <ellipse cx="2357.45" cy="741.025" rx="198.162" ry="220.234" style="fill:rgb(68,153,90);"/>
        </g>
        <g>
            <ellipse cx="12101.9" cy="2920.66" rx="198.162" ry="220.234" style="fill:rgb(68,153,90);"/>
        </g>
        <g>
            <ellipse cx="11467.6" cy="4031.68" rx="198.162" ry="220.234" style="fill:rgb(68,153,90);"/>
        </g>
        <g>
            <ellipse cx="14061.7" cy="4031.05" rx="198.162" ry="220.234" style="fill:rgb(68,153,90);"/>
        </g>
        <g>
            <ellipse cx="15549.4" cy="4057.61" rx="198.162" ry="220.234" style="fill:rgb(68,153,90);"/>
        </g>
        <g>
            <path d="M7391.32,3784.53C7391.32,3913.54 7369.89,4098.65 7429.14,4215.72C7495.43,4346.73 7668.72,4378.32 7783.25,4321.05C7799.24,4313.04 7875.58,4242.03 7883.2,4226.78C7934.95,4123.27 7969.77,4039.33 7969.77,3915.79" style="fill:none;stroke:rgb(0,176,255);stroke-width:208.46px;stroke-linecap:round;"/>
        </g>
        <g>
            <path d="M7648.52,4924.9L7655.54,4341.58" style="fill:none;stroke:rgb(0,176,255);stroke-width:104.23px;"/>
        </g>
        <g>
            <g>
                <path d="M9239.71,3770.64C9239.71,3899.65 9218.28,4084.76 9277.53,4201.83C9343.82,4332.84 9517.11,4364.43 9631.64,4307.16C9647.64,4299.15 9723.98,4228.14 9731.59,4212.89C9783.34,4109.38 9818.16,4025.44 9818.16,3901.9" style="fill:none;stroke:rgb(0,176,255);stroke-width:208.46px;stroke-linecap:round;"/>
            </g>
            <g>
                <path d="M9496.9,4911L9503.92,4327.68" style="fill:none;stroke:rgb(0,176,255);stroke-width:104.23px;"/>
            </g>
        </g>
        <g>
            <path d="M11213.2,3784.53C11213.2,3913.54 11191.8,4098.65 11251,4215.72C11317.3,4346.73 11490.6,4378.32 11605.1,4321.05C11621.1,4313.04 11697.5,4242.03 11705.1,4226.78C11756.8,4123.27 11791.6,4039.33 11791.6,3915.79" style="fill:none;stroke:rgb(255,122,0);stroke-width:208.46px;stroke-linecap:round;"/>
        </g>
        <g>
            <path d="M11470.4,4924.9L11477.4,4341.58" style="fill:none;stroke:rgb(255,122,0);stroke-width:104.23px;"/>
        </g>
        <g>
            <path d="M13798.1,3784.53C13798.1,3913.54 13776.7,4098.65 13835.9,4215.72C13902.2,4346.73 14075.5,4378.32 14190,4321.05C14206,4313.04 14282.4,4242.03 14290,4226.78C14341.7,4123.27 14376.5,4039.33 14376.5,3915.79" style="fill:none;stroke:rgb(0,176,255);stroke-width:208.46px;stroke-linecap:round;"/>
        </g>
        <g>
            <path d="M14055.3,4924.9L14062.3,4341.58" style="fill:none;stroke:rgb(0,176,255);stroke-width:104.23px;"/>
        </g>
        <g>
            <path d="M6401.51,3774.99C6401.51,3904 6380.08,4089.11 6439.33,4206.18C6505.62,4337.19 6678.91,4368.78 6793.44,4311.51C6809.44,4303.51 6885.77,4232.49 6893.39,4217.24C6945.15,4113.73 6979.96,4029.79 6979.96,3906.25" style="fill:none;stroke:rgb(0,176,255);stroke-width:208.46px;stroke-linecap:round;"/>
        </g>
        <g>
            <path d="M6658.7,4915.36L6665.72,4332.04" style="fill:none;stroke:rgb(0,176,255);stroke-width:104.23px;"/>
        </g>
        <g>
            <path d="M6401.51,3774.99C6401.51,3904 6380.08,4089.11 6439.33,4206.18C6505.62,4337.19 6678.91,4368.78 6793.44,4311.51C6809.44,4303.51 6885.77,4232.49 6893.39,4217.24C6945.15,4113.73 6979.96,4029.79 6979.96,3906.25" style="fill:none;stroke:rgb(0,176,255);stroke-width:208.46px;stroke-linecap:round;"/>
        </g>
        <g>
            <path d="M5705.12,3774.99C5705.12,3904 5683.69,4089.11 5742.94,4206.18C5809.23,4337.19 5982.52,4368.78 6097.05,4311.51C6113.04,4303.51 6189.38,4232.49 6197,4217.24C6248.76,4113.73 6283.57,4029.79 6283.57,3906.25" style="fill:none;stroke:rgb(0,176,255);stroke-width:208.46px;stroke-linecap:round;"/>
        </g>
        <g>
            <path d="M6658.7,4915.36L6665.72,4332.04" style="fill:none;stroke:rgb(0,176,255);stroke-width:104.23px;"/>
        </g>
        <g transform="matrix(1,0,0,1,2607.43,1804.13)">
            <rect x="7222.91" y="2052.05" width="372.847" height="372.847" style="fill:rgb(236,20,45);"/>
        </g>
        <g transform="matrix(1,0,0,1,4627.45,1832.2)">
            <rect x="7222.91" y="2052.05" width="372.847" height="372.847" style="fill:rgb(236,20,45);"/>
        </g>
        <g transform="matrix(1,0,0,1,5109.05,1898.24)">
            <rect x="7222.91" y="2052.05" width="372.847" height="372.847" style="fill:rgb(236,20,45);"/>
        </g>
        <g transform="matrix(1,0,0,1,7142.14,1849.66)">
            <rect x="7222.91" y="2052.05" width="372.847" height="372.847" style="fill:rgb(236,20,45);"/>
        </g>
        <g transform="matrix(1,0,0,1,7612.35,1907.36)">
            <rect x="7222.91" y="2052.05" width="372.847" height="372.847" style="fill:rgb(236,20,45);"/>
        </g>
        <g>
            <path d="M5962.32,4915.36L5969.34,4332.04" style="fill:none;stroke:rgb(0,176,255);stroke-width:104.23px;"/>
        </g>
        <g>
            <path d="M8347.18,3774.99C8347.18,3904 8325.75,4089.11 8385,4206.18C8451.29,4337.19 8624.58,4368.78 8739.11,4311.51C8755.1,4303.51 8831.44,4232.49 8839.06,4217.24C8890.82,4113.73 8925.63,4029.79 8925.63,3906.25" style="fill:none;stroke:rgb(255,122,0);stroke-width:208.46px;stroke-linecap:round;"/>
        </g>
        <g>
            <path d="M8604.38,4915.36L8611.4,4332.04" style="fill:none;stroke:rgb(255,122,0);stroke-width:104.23px;"/>
        </g>
        <g>
            <path d="M10449.4,3777.65C10449.4,3906.66 10428,4091.76 10487.2,4208.84C10553.5,4339.85 10726.8,4371.44 10841.3,4314.17C10857.3,4306.16 10933.7,4235.15 10941.3,4219.9C10993,4116.39 11027.8,4032.45 11027.8,3908.91" style="fill:none;stroke:rgb(0,176,255);stroke-width:208.46px;stroke-linecap:round;"/>
        </g>
        <g>
            <path d="M10706.6,4918.02L10713.6,4334.7" style="fill:none;stroke:rgb(0,176,255);stroke-width:104.23px;"/>
        </g>
        <g>
            <path d="M12191.1,3804.2C12191.1,3933.21 12169.7,4118.32 12228.9,4235.39C12295.2,4366.4 12468.5,4397.99 12583,4340.72C12599,4332.72 12675.4,4261.7 12683,4246.45C12734.7,4142.94 12769.5,4059 12769.5,3935.46" style="fill:none;stroke:rgb(0,176,255);stroke-width:208.46px;stroke-linecap:round;"/>
        </g>
        <g>
            <path d="M14794.9,3782.04C14794.9,3911.05 14773.5,4096.15 14832.7,4213.23C14899,4344.24 15072.3,4375.83 15186.8,4318.56C15202.8,4310.56 15279.2,4239.54 15286.8,4224.29C15338.5,4120.78 15373.3,4036.84 15373.3,3913.3" style="fill:none;stroke:rgb(0,176,255);stroke-width:208.46px;stroke-linecap:round;"/>
        </g>
        <g>
            <path d="M12448.3,4944.57L12455.3,4361.25" style="fill:none;stroke:rgb(0,176,255);stroke-width:104.23px;"/>
        </g>
        <g>
            <path d="M12988.2,3782.04C12988.2,3911.05 12966.8,4096.15 13026,4213.23C13092.3,4344.24 13265.6,4375.83 13380.1,4318.56C13396.1,4310.56 13472.5,4239.54 13480.1,4224.29C13531.8,4120.78 13566.6,4036.84 13566.6,3913.3" style="fill:none;stroke:rgb(255,122,0);stroke-width:208.46px;stroke-linecap:round;"/>
        </g>
        <g>
            <path d="M13245.4,4922.41L13252.4,4339.09" style="fill:none;stroke:rgb(255,122,0);stroke-width:104.23px;"/>
        </g>
        <g>
            <path d="M15052.1,4922.41L15059.1,4339.09" style="fill:none;stroke:rgb(0,176,255);stroke-width:104.23px;"/>
        </g>
        <g>
            <path d="M15267.4,3782.05C15267.4,3911.06 15246,4096.16 15305.2,4213.24C15371.5,4344.25 15544.8,4375.84 15659.3,4318.57C15675.3,4310.56 15751.7,4239.55 15759.3,4224.3C15811,4120.79 15845.8,4036.85 15845.8,3913.31" style="fill:none;stroke:rgb(255,122,0);stroke-width:208.46px;stroke-linecap:round;"/>
        </g>
        <g>
            <path d="M15524.6,4922.41L15531.6,4339.09" style="fill:none;stroke:rgb(255,122,0);stroke-width:104.23px;"/>
        </g>
        <g transform="matrix(1,0,0,1,-101.35,-4.13939)">
            <g transform="matrix(1,0,0,1,6153.85,1862.45)">
                <text x="0px" y="0px" style="font-family:'Arial-BoldItalicMT', 'Arial', sans-serif;font-weight:700;font-style:italic;font-size:416.93px;fill:rgb(68,153,90);">K</text>
            </g>
            <g transform="matrix(1,0,0,1,6454.95,1959.73)">
                <text x="0px" y="0px" style="font-family:'Arial-BoldItalicMT', 'Arial', sans-serif;font-weight:700;font-style:italic;font-size:416.93px;fill:rgb(68,153,90);">a,</text>
                <text x="347.713px" y="0px" style="font-family:'Arial-BoldItalicMT', 'Arial', sans-serif;font-weight:700;font-style:italic;font-size:300px;fill:rgb(68,153,90);">2</text>
            </g>
        </g>
        <g>
            <g transform="matrix(1,0,0,1,3196.99,3293.86)">
                <text x="0px" y="0px" style="font-family:'Arial-BoldItalicMT', 'Arial', sans-serif;font-weight:700;font-style:italic;font-size:416.93px;fill:rgb(68,153,90);">K</text>
            </g>
            <g transform="matrix(1,0,0,1,3498.09,3391.14)">
                <text x="0px" y="0px" style="font-family:'Arial-BoldItalicMT', 'Arial', sans-serif;font-weight:700;font-style:italic;font-size:416.93px;fill:rgb(68,153,90);">a,</text>
                <text x="347.713px" y="0px" style="font-family:'Arial-BoldItalicMT', 'Arial', sans-serif;font-weight:700;font-style:italic;font-size:300px;fill:rgb(68,153,90);">2</text>
            </g>
        </g>
        <g>
            <g transform="matrix(1,0,0,1,1498.7,3277.68)">
                <text x="0px" y="0px" style="font-family:'Arial-BoldItalicMT', 'Arial', sans-serif;font-weight:700;font-style:italic;font-size:416.93px;fill:rgb(236,20,45);">K</text>
            </g>
            <g transform="matrix(1,0,0,1,1799.79,3374.97)">
                <text x="0px" y="0px" style="font-family:'Arial-BoldItalicMT', 'Arial', sans-serif;font-weight:700;font-style:italic;font-size:416.93px;fill:rgb(236,20,45);">a,</text>
                <text x="347.713px" y="0px" style="font-family:'Arial-BoldItalicMT', 'Arial', sans-serif;font-weight:700;font-style:italic;font-size:300px;fill:rgb(236,20,45);">1</text>
            </g>
        </g>
        <g transform="matrix(1,0,0,1,-187.049,-463.483)">
            <g transform="matrix(1,0,0,1,7918.92,2535.06)">
                <text x="0px" y="0px" style="font-family:'Arial-BoldItalicMT', 'Arial', sans-serif;font-weight:700;font-style:italic;font-size:416.93px;">K</text>
            </g>
            <g transform="matrix(1,0,0,1,8220.01,2618.45)">
                <text x="0px" y="0px" style="font-family:'Arial-BoldItalicMT', 'Arial', sans-serif;font-weight:700;font-style:italic;font-size:416.93px;">x</text>
            </g>
            <g transform="matrix(1,0,0,1,8451.88,2535.06)">
                <text x="0px" y="0px" style="font-family:'Arial-BoldItalicMT', 'Arial', sans-serif;font-weight:700;font-style:italic;font-size:416.93px;">*</text>
            </g>
            <g transform="matrix(1,0,0,1,8614.14,2535.06)">
                <text x="0px" y="0px" style="font-family:'Arial-BoldItalicMT', 'Arial', sans-serif;font-weight:700;font-style:italic;font-size:416.93px;fill:rgb(236,20,45);">K</text>
            </g>
            <g transform="matrix(1,0,0,1,8915.23,2632.35)">
                <text x="0px" y="0px" style="font-family:'Arial-BoldItalicMT', 'Arial', sans-serif;font-weight:700;font-style:italic;font-size:416.93px;fill:rgb(236,20,45);">a,</text>
                <text x="347.713px" y="0px" style="font-family:'Arial-BoldItalicMT', 'Arial', sans-serif;font-weight:700;font-style:italic;font-size:300px;fill:rgb(236,20,45);">1</text>
            </g>
        </g>
        <g transform="matrix(1,0,0,1,-377.396,-315.047)">
            <g transform="matrix(1,0,0,1,10513,2876.86)">
                <text x="0px" y="0px" style="font-family:'Arial-BoldItalicMT', 'Arial', sans-serif;font-weight:700;font-style:italic;font-size:416.93px;">K</text>
            </g>
            <g transform="matrix(1,0,0,1,10814.1,2960.25)">
                <text x="0px" y="0px" style="font-family:'Arial-BoldItalicMT', 'Arial', sans-serif;font-weight:700;font-style:italic;font-size:416.93px;">x</text>
            </g>
            <g transform="matrix(1,0,0,1,11046,2876.86)">
                <text x="0px" y="0px" style="font-family:'Arial-BoldItalicMT', 'Arial', sans-serif;font-weight:700;font-style:italic;font-size:416.93px;">*</text>
            </g>
            <g transform="matrix(1,0,0,1,11208.2,2876.86)">
                <text x="0px" y="0px" style="font-family:'Arial-BoldItalicMT', 'Arial', sans-serif;font-weight:700;font-style:italic;font-size:416.93px;fill:rgb(236,20,45);">K</text>
            </g>
            <g transform="matrix(1,0,0,1,11509.3,2974.15)">
                <text x="0px" y="0px" style="font-family:'Arial-BoldItalicMT', 'Arial', sans-serif;font-weight:700;font-style:italic;font-size:416.93px;fill:rgb(236,20,45);">a,</text>
                <text x="347.713px" y="0px" style="font-family:'Arial-BoldItalicMT', 'Arial', sans-serif;font-weight:700;font-style:italic;font-size:300px;fill:rgb(236,20,45);">1</text>
            </g>
        </g>
        <g transform="matrix(1,0,0,1,-295.449,-51.2897)">
            <g transform="matrix(1,0,0,1,12839.7,3011.1)">
                <text x="0px" y="0px" style="font-family:'Arial-BoldItalicMT', 'Arial', sans-serif;font-weight:700;font-style:italic;font-size:416.93px;">K</text>
            </g>
            <g transform="matrix(1,0,0,1,13140.8,3094.49)">
                <text x="0px" y="0px" style="font-family:'Arial-BoldItalicMT', 'Arial', sans-serif;font-weight:700;font-style:italic;font-size:416.93px;">x</text>
            </g>
            <g transform="matrix(1,0,0,1,13372.7,3011.1)">
                <text x="0px" y="0px" style="font-family:'Arial-BoldItalicMT', 'Arial', sans-serif;font-weight:700;font-style:italic;font-size:416.93px;">*</text>
            </g>
            <g transform="matrix(1,0,0,1,13535,3011.1)">
                <text x="0px" y="0px" style="font-family:'Arial-BoldItalicMT', 'Arial', sans-serif;font-weight:700;font-style:italic;font-size:416.93px;fill:rgb(68,153,90);">K</text>
            </g>
            <g transform="matrix(1,0,0,1,13836,3108.38)">
                <text x="0px" y="0px" style="font-family:'Arial-BoldItalicMT', 'Arial', sans-serif;font-weight:700;font-style:italic;font-size:416.93px;fill:rgb(68,153,90);">a,</text>
                <text x="347.713px" y="0px" style="font-family:'Arial-BoldItalicMT', 'Arial', sans-serif;font-weight:700;font-style:italic;font-size:300px;fill:rgb(68,153,90);">2</text>
            </g>
        </g>
        <g>
            <path d="M9736.94,3774.99C9736.94,3904 9715.51,4089.11 9774.76,4206.18C9841.05,4337.19 10014.3,4368.78 10128.9,4311.51C10144.9,4303.51 10221.2,4232.49 10228.8,4217.24C10280.6,4113.73 10315.4,4029.79 10315.4,3906.25" style="fill:none;stroke:rgb(255,122,0);stroke-width:208.46px;stroke-linecap:round;"/>
        </g>
        <g>
            <path d="M9994.15,4915.36L10001.2,4332.04" style="fill:none;stroke:rgb(255,122,0);stroke-width:104.23px;"/>
        </g>
        <g>
            <path d="M1758.72,3789.84C1758.72,3918.85 1737.29,4103.95 1796.54,4221.03C1862.83,4352.04 2036.12,4383.63 2150.65,4326.36C2166.64,4318.35 2242.98,4247.34 2250.6,4232.09C2302.36,4128.58 2337.17,4044.64 2337.17,3921.1" style="fill:none;stroke:rgb(255,122,0);stroke-width:208.46px;stroke-linecap:round;"/>
        </g>
        <g>
            <path d="M2015.91,4930.2L2022.93,4346.88" style="fill:none;stroke:rgb(255,122,0);stroke-width:104.23px;"/>
        </g>
        <g>
            <path d="M4041.92,3774.99C4041.92,3904 4020.49,4089.11 4079.74,4206.18C4146.03,4337.19 4319.32,4368.78 4433.85,4311.51C4449.84,4303.5 4526.18,4232.49 4533.8,4217.24C4585.56,4113.73 4620.37,4029.79 4620.37,3906.25" style="fill:none;stroke:rgb(255,122,0);stroke-width:208.46px;stroke-linecap:round;"/>
        </g>
        <g>
            <path d="M4299.11,4915.36L4306.13,4332.04" style="fill:none;stroke:rgb(255,122,0);stroke-width:104.23px;"/>
        </g>
        <g>
            <path d="M1003.77,3789.84C1003.77,3918.85 982.34,4103.95 1041.59,4221.03C1107.88,4352.04 1281.17,4383.63 1395.7,4326.36C1411.69,4318.35 1488.03,4247.34 1495.65,4232.09C1547.4,4128.58 1582.22,4044.64 1582.22,3921.1" style="fill:none;stroke:rgb(0,176,255);stroke-width:208.46px;stroke-linecap:round;"/>
        </g>
        <g>
            <path d="M1260.96,4930.2L1267.98,4346.88" style="fill:none;stroke:rgb(0,176,255);stroke-width:104.23px;"/>
        </g>
        <g>
            <path d="M3459.69,3774.99C3459.69,3904 3438.26,4089.11 3497.51,4206.18C3563.8,4337.19 3737.09,4368.78 3851.62,4311.51C3867.62,4303.5 3943.95,4232.49 3951.57,4217.24C4003.33,4113.73 4038.14,4029.79 4038.14,3906.25" style="fill:none;stroke:rgb(0,176,255);stroke-width:208.46px;stroke-linecap:round;"/>
        </g>
        <g>
            <path d="M3716.88,4915.36L3723.9,4332.04" style="fill:none;stroke:rgb(0,176,255);stroke-width:104.23px;"/>
        </g>
        <g>
            <path d="M2648.73,3774.99C2648.73,3904 2627.3,4089.11 2686.55,4206.18C2752.84,4337.19 2926.13,4368.78 3040.66,4311.51C3056.65,4303.5 3132.99,4232.49 3140.61,4217.24C3192.37,4113.73 3227.18,4029.79 3227.18,3906.25" style="fill:none;stroke:rgb(0,176,255);stroke-width:208.46px;stroke-linecap:round;"/>
        </g>
        <g>
            <path d="M2905.92,4915.36L2912.94,4332.04" style="fill:none;stroke:rgb(0,176,255);stroke-width:104.23px;"/>
        </g>
        <g>
            <path d="M387.86,3787.18C387.86,3916.19 366.43,4101.3 425.676,4218.37C491.968,4349.38 665.258,4380.97 779.788,4323.7C795.784,4315.69 872.124,4244.68 879.74,4229.43C931.495,4125.92 966.309,4041.98 966.309,3918.44" style="fill:none;stroke:rgb(255,122,0);stroke-width:208.46px;stroke-linecap:round;"/>
        </g>
        <g>
            <path d="M645.066,4927.55L652.083,4344.23" style="fill:none;stroke:rgb(255,122,0);stroke-width:104.23px;"/>
        </g>
        <g>
            <g>
                <path d="M12312.9,3774.99C12312.9,3904 12334.3,4089.11 12275.1,4206.18C12208.8,4337.19 12035.5,4368.78 11921,4311.51C11905,4303.5 11828.6,4232.49 11821,4217.24C11769.3,4113.73 11734.5,4029.79 11734.5,3906.25" style="fill:none;stroke:rgb(0,176,255);stroke-width:208.46px;stroke-linecap:round;"/>
            </g>
            <g>
                <path d="M12055.7,4915.36L12048.7,4332.04" style="fill:none;stroke:rgb(0,176,255);stroke-width:104.23px;"/>
            </g>
        </g>
        <g>
            <path d="M14281.5,3774.99C14281.5,3904 14260.1,4089.11 14319.3,4206.18C14385.6,4337.19 14558.9,4368.78 14673.4,4311.51C14689.4,4303.51 14765.8,4232.49 14773.4,4217.24C14825.1,4113.73 14859.9,4029.79 14859.9,3906.25" style="fill:none;stroke:rgb(255,122,0);stroke-width:208.46px;stroke-linecap:round;"/>
        </g>
        <g>
            <path d="M14538.7,4915.36L14545.7,4332.04" style="fill:none;stroke:rgb(255,122,0);stroke-width:104.23px;"/>
        </g>
        <g>
            <rect x="143.663" y="4925.49" width="16101.6" height="94.01" style="fill:rgb(207,203,203);stroke:rgb(207,203,203);stroke-width:69.44px;stroke-linecap:round;"/>
        </g>
        <g>
            <path d="M6535.84,2078.08L6763.72,2174.54L6763.72,2233.41L6535.84,2329.88L6519.51,2290.38L6678.26,2225.81L6168.58,2225.81L6328.1,2290.38L6311,2329.88L6083.89,2233.41L6083.89,2174.54L6311,2078.08L6328.1,2117.58L6168.58,2182.14L6678.26,2182.14L6519.51,2117.58L6535.84,2078.08Z" style="fill-rule:nonzero;"/>
        </g>
        <g>
            <path d="M1420.71,3342.43L1324.25,3570.31L1265.38,3570.31L1168.91,3342.43L1208.41,3326.1L1272.98,3484.85L1272.98,2975.17L1208.41,3134.69L1168.91,3117.59L1265.38,2890.48L1324.25,2890.48L1420.71,3117.59L1381.21,3134.69L1316.64,2975.17L1316.64,3484.85L1381.21,3326.1L1420.71,3342.43Z" style="fill-rule:nonzero;"/>
        </g>
        <g>
            <path d="M3061.42,3356.84L2964.96,3584.72L2906.09,3584.72L2809.62,3356.84L2849.12,3340.51L2913.69,3499.26L2913.69,2989.58L2849.12,3149.1L2809.62,3132L2906.09,2904.89L2964.96,2904.89L3061.42,3132L3021.92,3149.1L2957.36,2989.58L2957.36,3499.26L3021.92,3340.51L3061.42,3356.84Z" style="fill-rule:nonzero;"/>
        </g>
        <g>
            <path d="M8747.62,2913.68L8975.5,3010.14L8975.5,3069.01L8747.62,3165.48L8731.29,3125.98L8890.04,3061.41L8380.36,3061.41L8539.88,3125.98L8522.78,3165.48L8295.67,3069.01L8295.67,3010.14L8522.78,2913.68L8539.88,2953.18L8380.36,3017.75L8890.04,3017.75L8731.29,2953.18L8747.62,2913.68Z" style="fill-rule:nonzero;"/>
        </g>
        <g>
            <path d="M11015.7,3103.13L11243.6,3199.59L11243.6,3258.46L11015.7,3354.93L10999.4,3315.43L11158.1,3250.86L10648.4,3250.86L10808,3315.43L10790.9,3354.93L10563.7,3258.46L10563.7,3199.59L10790.9,3103.13L10808,3142.63L10648.4,3207.2L11158.1,3207.2L10999.4,3142.63L11015.7,3103.13Z" style="fill-rule:nonzero;"/>
        </g>
        <g>
            <path d="M13366.6,3247.94L13594.5,3344.4L13594.5,3403.27L13366.6,3499.74L13350.3,3460.24L13509,3395.67L12999.3,3395.67L13158.9,3460.24L13141.8,3499.74L12914.6,3403.27L12914.6,3344.4L13141.8,3247.94L13158.9,3287.44L12999.3,3352.01L13509,3352.01L13350.3,3287.44L13366.6,3247.94Z" style="fill-rule:nonzero;"/>
        </g>
        <g transform="matrix(1,0,0,1,-1785.95,536.181)">
            <rect x="7222.91" y="2052.05" width="372.847" height="372.847" style="fill:rgb(236,20,45);"/>
        </g>
    </g>
</svg>
