<?xml version="1.0" encoding="UTF-8" standalone="no"?><!DOCTYPE svg PUBLIC "-//W3C//DTD SVG 1.1//EN" "http://www.w3.org/Graphics/SVG/1.1/DTD/svg11.dtd"><svg width="100%" height="100%" viewBox="0 0 1200 1200" version="1.1" xmlns="http://www.w3.org/2000/svg" xmlns:xlink="http://www.w3.org/1999/xlink" xml:space="preserve" xmlns:serif="http://www.serif.com/" style="fill-rule:evenodd;clip-rule:evenodd;stroke-linejoin:round;stroke-miterlimit:1.5;"><g><g><path d="M708.203,157.8c0,13.318 -4.426,12.931 -9.68,23.457c-2.627,5.253 -0.942,12.884 -3.754,18.534c-3.17,6.315 -13.706,13.538 -19.303,16.336c-5.468,2.73 -2.355,11.823 -7.052,14.168c-8.624,4.313 -19.617,11.383 -25.856,14.508c-7.053,3.527 -22.286,12.344 -25.184,18.142c-2.741,5.484 1.128,28.398 3.112,25.745" style="fill:none;stroke:#000;stroke-width:14.88px;"/></g><g><path d="M692.839,295.485c-0,-20.848 2.67,-41.65 2.67,-61.876c-0,-6.097 -1.628,-10.052 -5.682,-14.264c-1.971,-2.061 -9.152,-5.746 -6.339,-5.746c12.221,-0 11.078,13.453 19.844,16.276c9.052,2.913 18.66,5.643 27.44,8.708c2.984,1.044 7.667,-1.427 10.48,0c20.073,10.205 26.697,30.013 26.697,51.394" style="fill:none;stroke:#000;stroke-width:16.15px;"/></g></g><g><g><path d="M687.37,719.66c-0,-19.251 -3.269,-38.135 3.198,-56.986c2.141,-6.238 -0.443,-15.778 4.668,-20.884c0.8,-0.796 4.583,0.418 5.597,-0c6.296,-2.587 15.448,-1.391 21.415,-4.373c6.411,-3.211 18.417,-7.397 25.641,-2.677c4.355,2.849 9.252,10.802 11.422,15.088c2.613,5.181 0.043,14.869 6.796,18.202c5.353,2.645 13.72,-1.794 18.902,0.764c11.55,5.708 21.729,10.511 33.622,16.19c12.421,5.928 17.646,31.174 17.646,43.265" style="fill:none;stroke:#000;stroke-width:14.88px;"/></g><g><path d="M760.452,732.396c0,-14.324 -2.769,-29.629 0.657,-43.256c1.071,-4.255 -1.056,-11.428 2.413,-14.898c12.635,-12.638 37.991,-15.224 54.309,-17.955c5.625,-0.939 12.621,-5.229 17.632,-7.618c10.122,-4.826 23.442,-3.976 34.493,-3.976c6.353,-0 13.92,-1.279 19.331,-3.986c1.37,-0.685 2.855,-3.759 4.454,-2.967c5.511,2.723 6.567,14.31 7.781,19.133c3.883,15.357 4.426,30.245 4.426,46.652c-0,3.453 -2.17,18.181 0.742,21.05" style="fill:none;stroke:#000;stroke-width:14.88px;"/></g></g><g><rect x="439.146" y="1038.56" width="47.909" height="47.909" style="fill:#ec142d;"/></g><ellipse cx="710.67" cy="143.408" rx="28.291" ry="31.442" style="fill:#44995a;"/><ellipse cx="616.425" cy="308.413" rx="28.291" ry="31.442" style="fill:#44995a;"/><ellipse cx="776.031" cy="308.413" rx="28.291" ry="31.442" style="fill:#44995a;"/><path d="M427.55,591.676c3.685,3.685 7.584,17.387 10.581,22.633c8.282,14.494 24.501,29.458 38.748,38.079c9.268,5.608 23.058,4.35 33.406,5.291c49.43,4.494 76.893,-23.279 97.292,-64.078c2.979,-5.957 12.933,-27.484 12.933,-32.626" style="fill:none;stroke:#000;stroke-width:14.58px;stroke-linecap:round;"/><path d="M525.661,602.081c-15.231,15.231 -10.66,30.473 -18.223,49.381c-4.582,11.453 -12.607,27.504 -9.994,40.563c2.143,10.715 8.396,19.602 11.757,29.687c0.999,2.998 -2.351,4.841 -2.351,6.467" style="fill:none;stroke:#000;stroke-width:16.67px;stroke-linecap:round;"/><ellipse cx="509.159" cy="735.873" rx="28.291" ry="31.442" style="fill:#44995a;"/><ellipse cx="423.979" cy="576.98" rx="28.291" ry="31.442" style="fill:#44995a;"/><ellipse cx="613.866" cy="545.537" rx="28.291" ry="31.442" style="fill:#44995a;"/><g><ellipse cx="693.109" cy="735.873" rx="28.291" ry="31.442" style="fill:#44995a;"/></g><g><ellipse cx="749.692" cy="735.873" rx="28.291" ry="31.442" style="fill:#44995a;"/></g><g><ellipse cx="823.001" cy="739.332" rx="28.291" ry="31.442" style="fill:#44995a;"/></g><g><ellipse cx="917.579" cy="735.873" rx="28.291" ry="31.442" style="fill:#44995a;"/></g><g><path d="M947.939,1038.81c2.484,4.966 9.725,8.891 14.332,11.504c9.41,5.339 20.702,14.304 32.309,12.854c8.169,-1.022 15.651,-2.882 23.722,-4.496c4.687,-0.938 10.631,-3.149 15.575,-1.913c12.701,3.175 22.471,7.152 29.236,18.992c0.818,1.431 4.113,4.954 4.113,6.313" style="fill:none;stroke:#000;stroke-width:16.67px;stroke-linecap:round;"/><path d="M1019.09,1017.9c-0,2.237 2.527,3.956 3.539,5.643c3.156,5.26 8.364,15.797 5.261,22c-0.635,1.269 -1.946,1.724 -2.774,2.966c-5.854,8.781 -13.617,7.538 -22.191,13.774c-8.734,6.351 -10.983,15.092 -13.349,25.027c-0.821,3.45 -3.252,7.85 -3.252,11.288" style="fill:none;stroke:#000;stroke-width:16.67px;stroke-linecap:round;"/><g><ellipse cx="942.226" cy="1038.81" rx="25.463" ry="28.299" style="fill:#44995a;"/></g><g><ellipse cx="1069.54" cy="1086.22" rx="25.463" ry="28.299" style="fill:#44995a;"/></g><g><ellipse cx="1018.61" cy="1010.51" rx="25.463" ry="28.299" style="fill:#44995a;"/></g><g><ellipse cx="983.371" cy="1114.52" rx="25.463" ry="28.299" style="fill:#44995a;"/></g></g><g><path d="M433.38,201.599c-3.238,-5.252 -11.638,-8.884 -16.993,-11.323c-10.94,-4.982 -24.318,-13.794 -37.021,-11.046c-8.941,1.933 -17.038,4.728 -25.812,7.309c-5.095,1.498 -11.456,4.53 -17.048,3.649c-14.37,-2.265 -25.573,-5.705 -34.225,-18.143c-1.046,-1.503 -5.04,-5.078 -5.173,-6.582" style="fill:none;stroke:#000;stroke-width:16.67px;stroke-linecap:round;"/><path d="M356.693,231.743c-0.22,-2.477 -3.185,-4.13 -4.472,-5.898c-4.01,-5.511 -10.81,-16.66 -7.986,-23.83c0.577,-1.467 1.984,-2.1 2.778,-3.555c5.615,-10.294 14.329,-9.682 23.205,-17.427c9.041,-7.888 10.67,-17.783 12.311,-29.011c0.569,-3.899 2.827,-9.008 2.489,-12.812" style="fill:none;stroke:#000;stroke-width:16.67px;stroke-linecap:round;"/><g><path d="M442.487,232.356c-15.553,1.382 -29.428,-11.529 -30.964,-28.814c-1.537,-17.286 9.843,-32.442 25.396,-33.824c15.553,-1.383 29.428,11.529 30.964,28.814c1.536,17.286 -9.843,32.441 -25.396,33.824Z" style="fill:#44995a;"/></g><g><path d="M296.922,192.41c-15.553,1.383 -29.427,-11.529 -30.964,-28.814c-1.536,-17.285 9.844,-32.441 25.397,-33.824c15.553,-1.382 29.427,11.529 30.964,28.814c1.536,17.286 -9.844,32.442 -25.397,33.824Z" style="fill:#44995a;"/></g><g><path d="M360.73,271.189c-15.553,1.382 -29.428,-11.529 -30.964,-28.814c-1.536,-17.286 9.843,-32.441 25.396,-33.824c15.554,-1.382 29.428,11.529 30.964,28.814c1.537,17.286 -9.843,32.442 -25.396,33.824Z" style="fill:#44995a;"/></g><g><path d="M389.503,152.615c-15.553,1.382 -29.427,-11.529 -30.963,-28.814c-1.537,-17.286 9.843,-32.442 25.396,-33.824c15.553,-1.383 29.427,11.529 30.964,28.814c1.536,17.286 -9.844,32.441 -25.397,33.824Z" style="fill:#44995a;"/></g></g><g><ellipse cx="692.187" cy="308.413" rx="28.291" ry="31.442" style="fill:#44995a;"/></g><g><ellipse cx="518.748" cy="592.672" rx="28.291" ry="31.442" style="fill:#44995a;"/></g><g><path d="M670.299,289.771c-0,12.806 -2.124,31.179 3.752,42.799c6.581,13.004 23.782,16.14 35.147,10.455c1.588,-0.795 9.171,-7.843 9.926,-9.357c5.131,-10.274 8.586,-18.606 8.586,-30.868" style="fill:none;stroke:#00b0ff;stroke-width:20.69px;stroke-linecap:round;"/></g><g><path d="M695.829,402.961l0.695,-57.899" style="fill:none;stroke:#00b0ff;stroke-width:10.35px;"/></g><g><path d="M939.253,278.176l-52.434,9.176l9.175,52.434l52.434,-9.176l-9.175,-52.434Z" style="fill:#ec142d;"/></g><path d="M578.698,135.867l-42.605,-31.912l-31.912,42.605l42.605,31.912l31.912,-42.605Z" style="fill:#ec142d;"/><path d="M395.688,733.985l-42.605,-31.911l-31.912,42.605l42.605,31.911l31.912,-42.605Z" style="fill:#ec142d;"/><path d="M300.946,555.883l-42.605,-31.911l-31.911,42.604l42.604,31.912l31.912,-42.605Z" style="fill:#ec142d;"/><path d="M794.709,555.883l-42.604,-31.911l-31.912,42.604l42.605,31.912l31.911,-42.605Z" style="fill:#ec142d;"/><g><rect x="278.193" y="290.224" width="53.231" height="53.231" style="fill:#ec142d;"/></g><g><path d="M752.873,289.524c0,12.805 -2.124,31.177 3.752,42.798c6.581,13.004 23.783,16.14 35.148,10.455c1.588,-0.794 9.171,-7.843 9.925,-9.357c5.132,-10.274 8.586,-18.606 8.586,-30.868" style="fill:none;stroke:#00b0ff;stroke-width:20.69px;stroke-linecap:round;"/></g><g><path d="M589.912,289.524c-0,12.805 -2.124,31.177 3.752,42.798c6.581,13.004 23.782,16.14 35.147,10.455c1.588,-0.794 9.172,-7.843 9.926,-9.357c5.131,-10.274 8.586,-18.606 8.586,-30.868" style="fill:none;stroke:#ff7a00;stroke-width:20.69px;stroke-linecap:round;"/></g><g><path d="M615.439,402.713l0.695,-57.899" style="fill:none;stroke:#ff7a00;stroke-width:10.35px;"/></g><g><path d="M778.401,402.713l0.695,-57.899" style="fill:none;stroke:#00b0ff;stroke-width:10.35px;"/></g><g><path d="M890.046,289.524c0,12.805 -2.124,31.177 3.752,42.798c6.581,13.004 23.782,16.14 35.147,10.455c1.588,-0.795 9.172,-7.843 9.926,-9.357c5.132,-10.274 8.586,-18.606 8.586,-30.868" style="fill:none;stroke:#ff7a00;stroke-width:20.69px;stroke-linecap:round;"/></g><g><path d="M915.576,402.713l0.695,-57.899" style="fill:none;stroke:#ff7a00;stroke-width:10.35px;"/></g><g><path d="M276.947,289.524c0,12.805 -2.127,31.178 3.754,42.798c6.58,13.004 23.776,16.14 35.151,10.455c1.588,-0.794 9.162,-7.843 9.916,-9.357c5.142,-10.274 8.596,-18.606 8.596,-30.868" style="fill:none;stroke:#ff7a00;stroke-width:20.69px;stroke-linecap:round;"/></g><g><path d="M302.477,402.716l0.7,-57.899" style="fill:none;stroke:#ff7a00;stroke-width:10.35px;"/></g><g><g><path d="M493.991,288.823c-0,12.805 2.124,31.179 -3.752,42.799c-6.581,13.004 -23.783,16.139 -35.148,10.455c-1.588,-0.795 -9.171,-7.843 -9.926,-9.357c-5.131,-10.274 -8.585,-18.606 -8.585,-30.868" style="fill:none;stroke:#00b0ff;stroke-width:20.69px;stroke-linecap:round;"/></g><g><path d="M468.461,402.015l-0.695,-57.899" style="fill:none;stroke:#00b0ff;stroke-width:10.35px;"/></g></g><g><rect x="122.065" y="403.39" width="862.997" height="5.706" style="fill:#cfcbcb;stroke:#cfcbcb;stroke-width:4.05px;stroke-linecap:round;"/></g><g><path d="M334.179,715.886c0,12.805 -2.124,31.179 3.752,42.799c6.581,13.004 23.782,16.139 35.148,10.455c1.588,-0.795 9.171,-7.843 9.925,-9.357c5.132,-10.274 8.586,-18.606 8.586,-30.868" style="fill:none;stroke:#ff7a00;stroke-width:20.69px;stroke-linecap:round;"/></g><g><path d="M362.003,829.078l0.695,-57.899" style="fill:none;stroke:#ff7a00;stroke-width:10.35px;"/></g><g><path d="M667.741,716.834c-0,12.806 -2.124,31.179 3.752,42.799c6.58,13.004 23.782,16.139 35.147,10.455c1.588,-0.795 9.171,-7.843 9.926,-9.357c5.131,-10.274 8.586,-18.606 8.586,-30.868" style="fill:none;stroke:#00b0ff;stroke-width:20.69px;stroke-linecap:round;"/></g><g><path d="M693.271,830.024l0.694,-57.899" style="fill:none;stroke:#00b0ff;stroke-width:10.35px;"/></g><g><path d="M264.445,715.886c0,12.805 -2.124,31.178 3.752,42.799c6.581,13.004 23.783,16.139 35.148,10.455c1.588,-0.795 9.171,-7.843 9.925,-9.357c5.132,-10.274 8.586,-18.606 8.586,-30.868" style="fill:none;stroke:#00b0ff;stroke-width:20.69px;stroke-linecap:round;"/></g><g><path d="M289.975,829.078l0.695,-57.899" style="fill:none;stroke:#00b0ff;stroke-width:10.35px;"/></g><g><path d="M722.416,711.349c-0,12.805 -2.124,31.178 3.752,42.798c6.581,13.004 23.782,16.14 35.147,10.455c1.588,-0.794 9.172,-7.843 9.926,-9.357c5.132,-10.274 8.586,-18.606 8.586,-30.868" style="fill:none;stroke:#00b0ff;stroke-width:20.69px;stroke-linecap:round;"/></g><g><path d="M170.282,714.649c0,12.805 -2.124,31.179 3.752,42.799c6.581,13.004 23.782,16.139 35.148,10.455c1.588,-0.794 9.171,-7.844 9.925,-9.357c5.132,-10.274 8.586,-18.606 8.586,-30.868" style="fill:none;stroke:#00b0ff;stroke-width:20.69px;stroke-linecap:round;"/></g><g><path d="M792.642,716.587c-0,12.805 -2.125,31.177 3.752,42.798c6.58,13.004 23.782,16.14 35.147,10.455c1.588,-0.794 9.171,-7.843 9.926,-9.357c5.131,-10.274 8.585,-18.606 8.585,-30.868" style="fill:none;stroke:#00b0ff;stroke-width:20.69px;stroke-linecap:round;"/></g><g><path d="M737.388,827.654l0.695,-57.9" style="fill:none;stroke:#00b0ff;stroke-width:10.35px;"/></g><g><path d="M185.254,830.954l0.695,-57.899" style="fill:none;stroke:#00b0ff;stroke-width:10.35px;"/></g><g><path d="M587.354,716.587c-0,12.805 -2.124,31.177 3.752,42.798c6.58,13.004 23.782,16.14 35.147,10.455c1.588,-0.794 9.171,-7.843 9.926,-9.357c5.131,-10.274 8.586,-18.606 8.586,-30.868" style="fill:none;stroke:#ff7a00;stroke-width:20.69px;stroke-linecap:round;"/></g><g><path d="M612.881,829.776l0.695,-57.899" style="fill:none;stroke:#ff7a00;stroke-width:10.35px;"/></g><g><path d="M818.169,829.776l0.695,-57.899" style="fill:none;stroke:#00b0ff;stroke-width:10.35px;"/></g><g><path d="M888.459,711.349c0,12.805 -2.124,31.177 3.752,42.798c6.581,13.004 23.783,16.14 35.148,10.455c1.588,-0.795 9.171,-7.843 9.925,-9.357c5.132,-10.274 8.586,-18.606 8.586,-30.868" style="fill:none;stroke:#ff7a00;stroke-width:20.69px;stroke-linecap:round;"/></g><g><path d="M913.018,829.776l0.695,-57.899" style="fill:none;stroke:#ff7a00;stroke-width:10.35px;"/></g><g><g><path d="M531.702,715.886c-0,12.805 2.124,31.179 -3.752,42.799c-6.581,13.004 -23.782,16.139 -35.148,10.455c-1.588,-0.795 -9.171,-7.843 -9.925,-9.357c-5.132,-10.274 -8.586,-18.606 -8.586,-30.868" style="fill:none;stroke:#00b0ff;stroke-width:20.69px;stroke-linecap:round;"/></g><g><path d="M506.172,829.078l-0.695,-57.899" style="fill:none;stroke:#00b0ff;stroke-width:10.35px;"/></g></g><g><rect x="119.507" y="830.453" width="862.997" height="5.706" style="fill:#cfcbcb;stroke:#cfcbcb;stroke-width:4.05px;stroke-linecap:round;"/></g><text x="633.848px" y="1080.72px" style="font-family:'ArialMT', 'Arial', sans-serif;font-size:50px;">antagonist</text><text x="151.089px" y="1080.72px" style="font-family:'ArialMT', 'Arial', sans-serif;font-size:50px;">agonist</text><text x="320.474px" y="467.299px" style="font-family:'ArialMT', 'Arial', sans-serif;font-size:50px;">target cell population</text><text x="298.358px" y="893.113px" style="font-family:'ArialMT', 'Arial', sans-serif;font-size:50px;">of<tspan x="339.154px 353.045px " y="893.113px 893.113px ">f-</tspan>target cell population</text></svg>