<?xml version="1.0" encoding="UTF-8" standalone="no"?><!DOCTYPE svg PUBLIC "-//W3C//DTD SVG 1.1//EN" "http://www.w3.org/Graphics/SVG/1.1/DTD/svg11.dtd"><svg width="100%" height="100%" viewBox="0 0 3000 900" version="1.1" xmlns="http://www.w3.org/2000/svg" xmlns:xlink="http://www.w3.org/1999/xlink" xml:space="preserve" xmlns:serif="http://www.serif.com/" style="fill-rule:evenodd;clip-rule:evenodd;stroke-linecap:round;stroke-linejoin:round;stroke-miterlimit:1.5;"><path d="M1657.76,115.189c-6.568,0 -17.667,-5.782 -24.606,-2.372c-21.833,10.732 -42.008,10.042 -54.25,34.112c-5.937,11.673 -6.914,43.732 -2.683,56.497c0.814,2.454 2.574,18.344 3.487,18.344" style="fill:none;stroke:#000;stroke-width:27.08px;"/><path d="M1980.86,128.419c3.067,-0 11.157,-3.642 15.476,-1.482c21.459,10.729 53.8,0.868 64.34,21.948c4.357,8.716 -12.994,58.705 -12.994,69.132c-0,0.953 -0.054,3.497 -0.889,3.497" style="fill:none;stroke:#000;stroke-width:27.08px;"/><path d="M2482.8,221.298c-0,-24.081 8.42,-56.689 21.368,-74.25c22.736,-30.833 90.75,0.829 90.75,57.131" style="fill:none;stroke:#000;stroke-width:27.08px;"/><path d="M165.312,329.031c-13.32,-26.641 11.12,-44.751 33.894,-50.493c7.974,-2.01 20.632,-4.897 29.139,-2.789c9.582,2.376 20.47,4.929 29.621,7.962c17.974,5.957 56.637,-16.444 56.637,-33.644" style="fill:none;stroke:#000;stroke-width:27.08px;"/><path d="M203.6,308.705l-53.209,-30.922l-30.922,53.21l53.21,30.921l30.921,-53.209Z" style="fill:#ec142d;"/><ellipse cx="314.603" cy="255.648" rx="35.435" ry="36.351" style="fill:#44995a;"/><path d="M281.07,415.611c0,-15.077 33.461,5.674 37.601,8.194c25.236,15.365 21.661,37.56 33.077,60.394c3.422,6.842 10.105,9.029 16.837,12.395c2.953,1.477 12.758,2.95 9.456,2.95" style="fill:none;stroke:#000;stroke-width:27.08px;"/><path d="M429.601,484.468l-59.339,-16.316l-16.317,59.339l59.339,16.317l16.317,-59.34Z" style="fill:#ec142d;"/><ellipse cx="291.642" cy="405.275" rx="35.435" ry="36.351" style="fill:#44995a;"/><path d="M1151.37,292.099c27.958,-14.22 64.358,-15.816 92.566,5.28c10.75,8.039 23.672,26.013 35.499,26.013" style="fill:none;stroke:#000;stroke-width:27.08px;"/><ellipse cx="1272.75" cy="323.19" rx="35.435" ry="36.351" style="fill:#44995a;"/><ellipse cx="1147.47" cy="280.578" rx="35.435" ry="36.351" style="fill:#44995a;"/><path d="M1053.31,377.647c-15.841,15.572 -20.14,65.065 -1.704,83.501c5.534,5.534 26.038,20.7 26.038,27.829" style="fill:none;stroke:#000;stroke-width:27.08px;"/><rect x="1054.33" y="467.388" width="61.542" height="61.542" style="fill:#ec142d;"/><rect x="1005.07" y="351.09" width="61.542" height="61.542" style="fill:#ec142d;"/><rect x="630.723" y="240.342" width="61.542" height="61.542" style="fill:#ec142d;"/><rect x="680.046" y="461.837" width="61.542" height="61.542" style="fill:#ec142d;"/><rect x="1556.56" y="203.921" width="64.489" height="64.489" style="fill:#5b006d;"/><rect x="1943.48" y="84.396" width="64.489" height="64.489" style="fill:#ec142d;"/><path d="M1856.47,219.539c-0,-20.427 -8.09,-48.087 -20.528,-62.984c-21.839,-26.154 -87.173,0.704 -87.173,48.463" style="fill:none;stroke:#000;stroke-width:27.08px;"/><rect x="1716.52" y="204.35" width="64.489" height="64.489" style="fill:#ec142d;"/><ellipse cx="1842.34" cy="230.747" rx="37.132" ry="38.092" style="fill:#44995a;"/><path d="M1879.92,208.892c-0,15.112 -2.51,36.794 4.429,50.507c7.765,15.346 28.064,19.046 41.479,12.337c1.874,-0.937 10.816,-9.256 11.708,-11.042c6.062,-12.124 10.14,-21.956 10.14,-36.427" style="fill:none;stroke:#ff7a00;stroke-width:29.17px;"/><path d="M1910.05,342.467l0.822,-68.325" style="fill:none;stroke:#ff7a00;stroke-width:29.17px;stroke-linecap:butt;"/><path d="M1554.94,206.925c0,15.111 -2.511,36.794 4.43,50.507c7.765,15.345 28.062,19.046 41.478,12.337c1.874,-0.937 10.815,-9.256 11.707,-11.042c6.063,-12.124 10.141,-21.956 10.141,-36.427" style="fill:none;stroke:#ff7a00;stroke-width:29.17px;"/><path d="M1585.07,340.5l0.822,-68.325" style="fill:none;stroke:#ff7a00;stroke-width:29.17px;stroke-linecap:butt;"/><path d="M1716.96,207.353c-0,15.112 -2.511,36.794 4.429,50.507c7.765,15.347 28.063,19.047 41.478,12.338c1.874,-0.938 10.817,-9.256 11.709,-11.041c6.062,-12.126 10.139,-21.958 10.139,-36.428" style="fill:none;stroke:#ff7a00;stroke-width:29.17px;"/><path d="M1747.09,340.93l0.822,-68.327" style="fill:none;stroke:#ff7a00;stroke-width:29.17px;stroke-linecap:butt;"/><ellipse cx="796.435" cy="338.235" rx="35.435" ry="36.351" style="fill:#44995a;"/><ellipse cx="595.287" cy="400.592" rx="35.435" ry="36.351" style="fill:#44995a;"/><ellipse cx="2045.1" cy="230.318" rx="37.132" ry="38.092" style="fill:#004111;"/><ellipse cx="1658.18" cy="110.793" rx="37.132" ry="38.092" style="fill:#44995a;"/><path d="M1808.69,207.353c0,15.112 -2.51,36.794 4.429,50.507c7.765,15.347 28.064,19.047 41.48,12.338c1.873,-0.938 10.815,-9.256 11.707,-11.041c6.062,-12.126 10.14,-21.958 10.14,-36.428" style="fill:none;stroke:#00b0ff;stroke-width:29.17px;"/><path d="M1838.81,340.93l0.822,-68.327" style="fill:none;stroke:#00b0ff;stroke-width:29.17px;stroke-linecap:butt;"/><path d="M2011.44,208.463c-0,15.111 -2.51,36.793 4.429,50.506c7.765,15.347 28.064,19.047 41.479,12.339c1.873,-0.938 10.816,-9.257 11.708,-11.042c6.062,-12.125 10.14,-21.958 10.14,-36.428" style="fill:none;stroke:#00b0ff;stroke-width:29.17px;"/><path d="M2041.57,342.039l0.822,-68.327" style="fill:none;stroke:#00b0ff;stroke-width:29.17px;stroke-linecap:butt;"/><path d="M1605.6,208.892c0,15.112 -2.51,36.794 4.429,50.507c7.765,15.346 28.064,19.046 41.48,12.337c1.873,-0.937 10.815,-9.256 11.707,-11.042c6.062,-12.124 10.14,-21.956 10.14,-36.427" style="fill:none;stroke:#00b0ff;stroke-width:29.17px;"/><path d="M1635.73,342.467l0.822,-68.325" style="fill:none;stroke:#00b0ff;stroke-width:29.17px;stroke-linecap:butt;"/><rect x="1464.31" y="342.719" width="693.613" height="11.624" style="fill:#cfcbcb;stroke:#cfcbcb;stroke-width:26.78px;"/><rect x="1556.56" y="203.921" width="64.489" height="64.489" style="fill:#ec142d;"/><rect x="2550.39" y="203.877" width="64.489" height="64.489" style="fill:#ec142d;"/><path d="M2682.35,208.42c0,15.111 -2.51,36.792 4.431,50.506c7.765,15.346 28.062,19.046 41.478,12.338c1.873,-0.937 10.815,-9.256 11.707,-11.042c6.062,-12.124 10.14,-21.957 10.14,-36.428" style="fill:none;stroke:#ff7a00;stroke-width:29.17px;"/><path d="M2712.47,341.995l0.822,-68.327" style="fill:none;stroke:#ff7a00;stroke-width:29.17px;stroke-linecap:butt;"/><path d="M1554.94,206.925c0,15.111 -2.511,36.794 4.43,50.507c7.765,15.345 28.062,19.046 41.478,12.337c1.874,-0.937 10.815,-9.256 11.707,-11.042c6.063,-12.124 10.141,-21.956 10.141,-36.427" style="fill:none;stroke:#ff7a00;stroke-width:29.17px;"/><path d="M1585.07,340.5l0.822,-68.325" style="fill:none;stroke:#ff7a00;stroke-width:29.17px;stroke-linecap:butt;"/><path d="M2281.68,206.881c-0,15.111 -2.51,36.794 4.429,50.506c7.765,15.346 28.064,19.047 41.479,12.339c1.873,-0.938 10.816,-9.257 11.708,-11.042c6.062,-12.125 10.14,-21.958 10.14,-36.427" style="fill:none;stroke:#ff7a00;stroke-width:29.17px;"/><path d="M2311.8,340.457l0.822,-68.326" style="fill:none;stroke:#ff7a00;stroke-width:29.17px;stroke-linecap:butt;"/><path d="M2548.96,208.42c0,15.111 -2.51,36.792 4.43,50.506c7.765,15.346 28.063,19.046 41.479,12.338c1.873,-0.937 10.815,-9.256 11.707,-11.042c6.062,-12.124 10.14,-21.957 10.14,-36.428" style="fill:none;stroke:#ff7a00;stroke-width:29.17px;"/><path d="M2579.1,341.995l0.822,-68.327" style="fill:none;stroke:#ff7a00;stroke-width:29.17px;stroke-linecap:butt;"/><ellipse cx="2045.1" cy="230.318" rx="37.132" ry="38.092" style="fill:#44995a;"/><ellipse cx="2482.8" cy="230.274" rx="37.132" ry="38.092" style="fill:#44995a;"/><path d="M2452.17,208.42c-0,15.111 -2.51,36.792 4.429,50.506c7.765,15.346 28.064,19.046 41.479,12.338c1.873,-0.937 10.816,-9.256 11.708,-11.042c6.062,-12.124 10.14,-21.957 10.14,-36.428" style="fill:none;stroke:#00b0ff;stroke-width:29.17px;"/><path d="M2482.3,341.995l0.822,-68.327" style="fill:none;stroke:#00b0ff;stroke-width:29.17px;stroke-linecap:butt;"/><path d="M2011.44,208.463c-0,15.111 -2.51,36.793 4.429,50.506c7.765,15.347 28.064,19.047 41.479,12.339c1.873,-0.938 10.816,-9.257 11.708,-11.042c6.062,-12.125 10.14,-21.958 10.14,-36.428" style="fill:none;stroke:#00b0ff;stroke-width:29.17px;"/><path d="M2041.57,342.039l0.822,-68.327" style="fill:none;stroke:#00b0ff;stroke-width:29.17px;stroke-linecap:butt;"/><path d="M2738.17,208.42c0,15.111 -2.51,36.792 4.43,50.506c7.765,15.346 28.063,19.046 41.479,12.338c1.874,-0.937 10.815,-9.256 11.707,-11.042c6.063,-12.124 10.141,-21.957 10.141,-36.428" style="fill:none;stroke:#00b0ff;stroke-width:29.17px;"/><path d="M2768.3,341.995l0.822,-68.327" style="fill:none;stroke:#00b0ff;stroke-width:29.17px;stroke-linecap:butt;"/><path d="M2374.31,206.881c0,15.111 -2.509,36.794 4.43,50.506c7.765,15.346 28.063,19.047 41.479,12.339c1.873,-0.938 10.815,-9.257 11.707,-11.042c6.062,-12.125 10.14,-21.958 10.14,-36.427" style="fill:none;stroke:#00b0ff;stroke-width:29.17px;"/><path d="M2404.43,340.457l0.822,-68.326" style="fill:none;stroke:#00b0ff;stroke-width:29.17px;stroke-linecap:butt;"/><rect x="1464.31" y="342.719" width="693.613" height="11.624" style="fill:#cfcbcb;stroke:#cfcbcb;stroke-width:26.78px;"/><rect x="2191.04" y="342.675" width="693.613" height="11.624" style="fill:#cfcbcb;stroke:#cfcbcb;stroke-width:26.78px;"/><text x="134.606px" y="621.877px" style="font-family:'ArialMT', 'Arial', sans-serif;font-size:47.77px;">heterovalent</text><text x="167.833px" y="671.21px" style="font-family:'ArialMT', 'Arial', sans-serif;font-size:47.77px;">bispeciï¬c</text><text x="510.82px" y="621.877px" style="font-family:'ArialMT', 'Arial', sans-serif;font-size:47.77px;">50%-50% mixture</text><text x="537.34px" y="671.21px" style="font-family:'ArialMT', 'Arial', sans-serif;font-size:47.77px;">of monovalents</text><text x="955.457px" y="621.877px" style="font-family:'ArialMT', 'Arial', sans-serif;font-size:47.77px;">50%-50% mixture</text><text x="1035.08px" y="671.21px" style="font-family:'ArialMT', 'Arial', sans-serif;font-size:47.77px;">of bivalent</text><text x="1664.48px" y="416.489px" style="font-family:'ArialMT', 'Arial', sans-serif;font-size:50.058px;">ligand bound</text><text x="2344.03px" y="416.017px" style="font-family:'ArialMT', 'Arial', sans-serif;font-size:50.058px;">ligand fully bound</text><path d="M2106.34,572.253c-7.078,-8.982 -17.359,-5.332 -27.499,-1.139c-23.513,9.722 -33.187,38.319 -33.187,67.152c0,6.511 2.381,37.502 5.111,37.502" style="fill:none;stroke:#000;stroke-width:27.08px;"/><path d="M2409.12,694.296c0,-27.148 9.493,-63.908 24.091,-83.705c25.631,-34.76 102.307,0.934 102.307,64.406" style="fill:none;stroke:#000;stroke-width:27.08px;"/><path d="M2119.48,662.84c-0,17.036 -2.83,41.479 4.994,56.94c8.754,17.3 31.637,21.471 46.761,13.908c2.113,-1.056 12.193,-10.434 13.199,-12.448c6.834,-13.668 11.432,-24.753 11.432,-41.067" style="fill:none;stroke:#ff7a00;stroke-width:29.17px;"/><path d="M2153.44,813.428l0.926,-77.029" style="fill:none;stroke:#ff7a00;stroke-width:29.17px;stroke-linecap:butt;"/><path d="M1641.39,602.705c7.433,-7.561 6.387,-22.958 17.758,-28.691c23.438,-11.82 25.627,-24.212 49.517,-12.268c3.771,1.886 16.268,6.507 20.043,8.395c10.214,5.106 20.23,-7.438 26.661,-7.438" style="fill:none;stroke:#000;stroke-width:27.08px;"/><rect x="2499.16" y="666.542" width="72.702" height="72.702" style="fill:#ec142d;"/><rect x="2088.64" y="517.422" width="72.702" height="72.702" style="fill:#ec142d;"/><rect x="1755.37" y="525.402" width="72.702" height="72.702" style="fill:#ec142d;"/><path d="M2196.37,662.84c-0,17.036 -2.83,41.479 4.994,56.94c8.754,17.3 31.637,21.471 46.761,13.908c2.113,-1.056 12.193,-10.434 13.199,-12.448c6.834,-13.668 11.432,-24.753 11.432,-41.067" style="fill:none;stroke:#ff7a00;stroke-width:29.17px;"/><path d="M2230.33,813.428l0.926,-77.029" style="fill:none;stroke:#ff7a00;stroke-width:29.17px;stroke-linecap:butt;"/><path d="M2497.57,670.165c-0,17.037 -2.83,41.479 4.993,56.94c8.754,17.3 31.638,21.472 46.762,13.908c2.112,-1.056 12.193,-10.434 13.198,-12.448c6.835,-13.668 11.432,-24.753 11.432,-41.067" style="fill:none;stroke:#ff7a00;stroke-width:29.17px;"/><path d="M2531.53,820.753l0.927,-77.029" style="fill:none;stroke:#ff7a00;stroke-width:29.17px;stroke-linecap:butt;"/><path d="M1818.15,661.113c-0,17.037 -2.831,41.48 4.993,56.94c8.754,17.301 31.638,21.472 46.761,13.909c2.113,-1.057 12.193,-10.435 13.199,-12.448c6.835,-13.669 11.432,-24.754 11.432,-41.066" style="fill:none;stroke:#ff7a00;stroke-width:29.17px;"/><path d="M1852.11,811.701l0.926,-77.029" style="fill:none;stroke:#ff7a00;stroke-width:29.17px;stroke-linecap:butt;"/><ellipse cx="2045.65" cy="684.003" rx="41.861" ry="42.944" style="fill:#44995a;"/><ellipse cx="1620.3" cy="602.705" rx="41.861" ry="42.944" style="fill:#44995a;"/><ellipse cx="2395.43" cy="696.294" rx="41.861" ry="42.944" style="fill:#44995a;"/><path d="M2010.35,662.84c-0,17.036 -2.83,41.479 4.994,56.94c8.754,17.3 31.637,21.471 46.761,13.908c2.113,-1.056 12.193,-10.434 13.199,-12.448c6.835,-13.668 11.432,-24.753 11.432,-41.067" style="fill:none;stroke:#00b0ff;stroke-width:29.17px;"/><path d="M2044.32,813.428l0.926,-77.029" style="fill:none;stroke:#00b0ff;stroke-width:29.17px;stroke-linecap:butt;"/><path d="M2360.91,670.165c0,17.037 -2.829,41.479 4.994,56.94c8.753,17.3 31.637,21.472 46.762,13.908c2.111,-1.056 12.193,-10.434 13.198,-12.448c6.834,-13.668 11.431,-24.753 11.431,-41.067" style="fill:none;stroke:#00b0ff;stroke-width:29.17px;"/><path d="M2394.87,820.753l0.927,-77.029" style="fill:none;stroke:#00b0ff;stroke-width:29.17px;stroke-linecap:butt;"/><path d="M1892.94,662.84c0,17.036 -2.829,41.479 4.994,56.94c8.754,17.3 31.638,21.471 46.762,13.908c2.111,-1.056 12.193,-10.434 13.198,-12.448c6.835,-13.668 11.432,-24.753 11.432,-41.067" style="fill:none;stroke:#00b0ff;stroke-width:29.17px;"/><path d="M1926.9,813.428l0.927,-77.029" style="fill:none;stroke:#00b0ff;stroke-width:29.17px;stroke-linecap:butt;"/><rect x="1715.97" y="814.195" width="947.986" height="13.104" style="fill:#cfcbcb;stroke:#cfcbcb;stroke-width:30.94px;"/><path d="M1953.51,546.576l27.462,11.625l-0,7.094l-27.462,11.625l-1.968,-4.759l19.132,-7.782l-61.423,0l19.224,7.782l-2.06,4.759l-27.37,-11.625l-0,-7.094l27.37,-11.625l2.06,4.759l-19.224,7.781l61.423,0l-19.132,-7.781l1.968,-4.759Z" style="fill-rule:nonzero;"/><path d="M2316.14,597.005l27.462,11.624l0,7.095l-27.462,11.625l-1.968,-4.761l19.132,-7.781l-61.422,0l19.223,7.781l-2.06,4.761l-27.369,-11.625l0,-7.095l27.369,-11.624l2.06,4.759l-19.223,7.782l61.422,-0l-19.132,-7.782l1.968,-4.759Z" style="fill-rule:nonzero;"/><text x="1912.38px" y="518.06px" style="font-family:'Arial-BoldItalicMT', 'Arial', sans-serif;font-weight:700;font-style:italic;font-size:51.731px;fill:#44995a;">K</text><text x="1949.74px" y="532.168px" style="font-family:'Arial-BoldItalicMT', 'Arial', sans-serif;font-weight:700;font-style:italic;font-size:51.731px;fill:#44995a;">a</text><text x="2235.47px" y="571.236px" style="font-family:'Arial-BoldItalicMT', 'Arial', sans-serif;font-weight:700;font-style:italic;font-size:51.731px;">K</text><text x="2272.83px" y="585.345px" style="font-family:'Arial-BoldItalicMT', 'Arial', sans-serif;font-weight:700;font-style:italic;font-size:51.731px;">x</text><text x="2301.6px" y="571.236px" style="font-family:'Arial-BoldItalicMT', 'Arial', sans-serif;font-weight:700;font-style:italic;font-size:51.731px;">*</text><text x="2321.73px" y="571.236px" style="font-family:'Arial-BoldItalicMT', 'Arial', sans-serif;font-weight:700;font-style:italic;font-size:51.731px;fill:#ec142d;">K</text><text x="2359.09px" y="585.345px" style="font-family:'Arial-BoldItalicMT', 'Arial', sans-serif;font-weight:700;font-style:italic;font-size:51.731px;fill:#ec142d;">a</text></svg>