<?xml version="1.0" encoding="UTF-8" standalone="no"?><!DOCTYPE svg PUBLIC "-//W3C//DTD SVG 1.1//EN" "http://www.w3.org/Graphics/SVG/1.1/DTD/svg11.dtd"><svg width="100%" height="100%" viewBox="0 0 900 750" version="1.1" xmlns="http://www.w3.org/2000/svg" xmlns:xlink="http://www.w3.org/1999/xlink" xml:space="preserve" xmlns:serif="http://www.serif.com/" style="fill-rule:evenodd;clip-rule:evenodd;stroke-linecap:round;stroke-linejoin:round;stroke-miterlimit:1.5;"><g><g><g><path d="M518.317,78.027c2.56,4.976 5.408,12.542 10.017,15.881c5.157,3.738 12.468,1.517 15.749,-2.966c0.458,-0.626 1.993,-4.88 1.984,-5.62c-0.058,-5.019 -0.381,-8.948 -2.833,-13.713" style="fill:none;stroke:#ff7a00;stroke-width:9.04px;"/></g><g><path d="M551.813,117.129l-11.307,-22.639" style="fill:none;stroke:#ff7a00;stroke-width:4.52px;stroke-linecap:butt;"/></g></g><g><g><path d="M592.447,56.361c0,5.596 -0.929,13.626 1.641,18.704c2.876,5.683 10.393,7.053 15.361,4.569c0.693,-0.347 4.005,-3.428 4.336,-4.089c2.245,-4.49 3.755,-8.131 3.755,-13.49" style="fill:none;stroke:#ff7a00;stroke-width:9.04px;"/></g><g><path d="M604.341,106.456l0.304,-25.304" style="fill:none;stroke:#ff7a00;stroke-width:4.52px;stroke-linecap:butt;"/></g></g><g><g><path d="M642.421,56.361c-0,5.596 -0.93,13.626 1.641,18.704c2.875,5.683 10.392,7.053 15.36,4.569c0.694,-0.347 4.005,-3.428 4.336,-4.089c2.245,-4.49 3.755,-8.131 3.755,-13.49" style="fill:none;stroke:#ff7a00;stroke-width:9.04px;"/></g><g><path d="M654.314,106.456l0.305,-25.304" style="fill:none;stroke:#ff7a00;stroke-width:4.52px;stroke-linecap:butt;"/></g></g><g><g><path d="M743.145,56.361c0,5.596 -0.929,13.626 1.641,18.704c2.875,5.683 10.393,7.053 15.361,4.569c0.693,-0.347 4.005,-3.428 4.335,-4.089c2.246,-4.49 3.756,-8.131 3.756,-13.49" style="fill:none;stroke:#ff7a00;stroke-width:9.04px;"/></g><g><path d="M755.039,106.456l0.304,-25.304" style="fill:none;stroke:#ff7a00;stroke-width:4.52px;stroke-linecap:butt;"/></g></g><g><g><path d="M840.2,90.311c-4.233,3.66 -10.915,8.209 -13.075,13.475c-2.417,5.892 1.463,12.475 6.592,14.608c0.716,0.297 5.212,0.787 5.929,0.604c4.865,-1.238 8.607,-2.478 12.66,-5.983" style="fill:none;stroke:#ff7a00;stroke-width:9.04px;"/></g><g><path d="M810.088,132.074l19.339,-16.321" style="fill:none;stroke:#ff7a00;stroke-width:4.52px;stroke-linecap:butt;"/></g></g><g><g><path d="M462.961,155.431c5.473,1.165 13.134,3.746 18.636,2.29c6.157,-1.629 9.063,-8.696 7.667,-14.073c-0.195,-0.751 -2.519,-4.631 -3.097,-5.092c-3.924,-3.131 -7.171,-5.366 -12.412,-6.482" style="fill:none;stroke:#ff7a00;stroke-width:9.04px;"/></g><g><path d="M514.434,154.229l-24.685,-5.567" style="fill:none;stroke:#ff7a00;stroke-width:4.52px;stroke-linecap:butt;"/></g></g><g><g><path d="M506.979,274.562c4.054,-3.858 10.511,-8.721 12.417,-14.084c2.134,-6.001 -2.056,-12.391 -7.281,-14.276c-0.73,-0.263 -5.244,-0.538 -5.951,-0.322c-4.8,1.47 -8.479,2.886 -12.36,6.581" style="fill:none;stroke:#ff7a00;stroke-width:9.04px;"/></g><g><path d="M535.065,231.409l-18.538,17.225" style="fill:none;stroke:#ff7a00;stroke-width:4.52px;stroke-linecap:butt;"/></g></g><g><g><path d="M591.562,303.687c0.325,-5.587 1.72,-13.549 -0.551,-18.768c-2.541,-5.841 -9.965,-7.645 -15.069,-5.454c-0.713,0.307 -4.198,3.19 -4.566,3.831c-2.503,4.352 -4.222,7.899 -4.533,13.249" style="fill:none;stroke:#ff7a00;stroke-width:9.04px;"/></g><g><path d="M582.599,252.986l-1.774,25.243" style="fill:none;stroke:#ff7a00;stroke-width:4.52px;stroke-linecap:butt;"/></g></g><g><g><path d="M642.702,303.687c-0.068,-5.596 0.763,-13.636 -1.87,-18.683c-2.945,-5.647 -10.478,-6.925 -15.415,-4.38c-0.69,0.356 -3.963,3.476 -4.285,4.142c-2.191,4.517 -3.656,8.177 -3.59,13.535" style="fill:none;stroke:#ff7a00;stroke-width:9.04px;"/></g><g><path d="M630.196,253.742l0.005,25.305" style="fill:none;stroke:#ff7a00;stroke-width:4.52px;stroke-linecap:butt;"/></g></g><g><g><path d="M720.046,303.91c0.034,-5.597 1.014,-13.62 -1.525,-18.715c-2.84,-5.7 -10.348,-7.117 -15.332,-4.664c-0.696,0.343 -4.026,3.403 -4.361,4.062c-2.273,4.476 -3.806,8.108 -3.839,13.467" style="fill:none;stroke:#ff7a00;stroke-width:9.04px;"/></g><g><path d="M708.464,253.742l-0.462,25.301" style="fill:none;stroke:#ff7a00;stroke-width:4.52px;stroke-linecap:butt;"/></g></g></g><g><g><path d="M519.37,647.754c-0,5.596 -0.93,13.626 1.64,18.704c2.876,5.683 10.393,7.054 15.361,4.569c0.694,-0.347 4.005,-3.427 4.336,-4.089c2.245,-4.49 3.755,-8.131 3.755,-13.49" style="fill:none;stroke:#00b0ff;stroke-width:9.04px;"/></g><g><path d="M530.527,697.222l0.304,-25.303" style="fill:none;stroke:#00b0ff;stroke-width:4.52px;stroke-linecap:butt;"/></g></g><g><g><path d="M152.727,339.899c0,5.597 -0.929,13.626 1.641,18.705c2.876,5.683 10.393,7.053 15.361,4.569c0.693,-0.347 4.005,-3.428 4.336,-4.09c2.245,-4.49 3.755,-8.131 3.755,-13.49" style="fill:none;stroke:#00b0ff;stroke-width:9.04px;"/></g><g><path d="M163.885,389.367l0.304,-25.303" style="fill:none;stroke:#00b0ff;stroke-width:4.52px;stroke-linecap:butt;"/></g></g><g><g><path d="M862.332,515.395c-4.764,-2.937 -11.111,-7.942 -16.783,-8.419c-6.347,-0.534 -11.458,5.146 -11.95,10.679c-0.069,0.772 0.816,5.208 1.206,5.836c2.644,4.268 4.951,7.464 9.513,10.276" style="fill:none;stroke:#00b0ff;stroke-width:9.04px;"/></g><g><path d="M814.367,498.934l21.38,13.537" style="fill:none;stroke:#00b0ff;stroke-width:4.52px;stroke-linecap:butt;"/></g></g><g><g><g><path d="M795.478,64.457c-2.243,5.127 -6.313,12.111 -5.994,17.794c0.356,6.359 6.694,10.628 12.241,10.343c0.775,-0.04 5.043,-1.535 5.611,-2.009c3.857,-3.213 6.7,-5.944 8.848,-10.853" style="fill:none;stroke:#00b0ff;stroke-width:9.04px;"/></g><g><path d="M785.871,114.25l10.422,-23.06" style="fill:none;stroke:#00b0ff;stroke-width:4.52px;stroke-linecap:butt;"/></g></g><g><g><path d="M680.088,56.169c0.081,5.596 -0.732,13.639 1.911,18.679c2.958,5.641 10.494,6.902 15.426,4.346c0.688,-0.357 3.955,-3.486 4.276,-4.152c2.179,-4.522 3.637,-8.185 3.559,-13.543" style="fill:none;stroke:#00b0ff;stroke-width:9.04px;"/></g><g><path d="M691.961,105.471l-0.062,-25.306" style="fill:none;stroke:#00b0ff;stroke-width:4.52px;stroke-linecap:butt;"/></g></g><g><g><path d="M550.435,65.896c1.542,5.38 2.861,13.355 6.73,17.529c4.33,4.671 11.934,3.917 16.025,0.161c0.572,-0.525 2.906,-4.399 3.042,-5.126c0.921,-4.935 1.37,-8.851 -0.107,-14.003" style="fill:none;stroke:#00b0ff;stroke-width:9.04px;"/></g><g><path d="M574.789,110.377l-6.678,-24.409" style="fill:none;stroke:#00b0ff;stroke-width:4.52px;stroke-linecap:butt;"/></g></g><g><g><path d="M464.261,231.842c5.282,-1.852 13.167,-3.631 17.109,-7.736c4.412,-4.594 3.218,-12.141 -0.77,-16.008c-0.557,-0.539 -4.559,-2.645 -5.293,-2.738c-4.98,-0.634 -8.916,-0.854 -13.973,0.918" style="fill:none;stroke:#00b0ff;stroke-width:9.04px;"/></g><g><path d="M507.254,204.948l-23.98,8.083" style="fill:none;stroke:#00b0ff;stroke-width:4.52px;stroke-linecap:butt;"/></g></g><g><g><path d="M546.75,297.04c1.385,-5.422 4.273,-12.972 3.039,-18.528c-1.38,-6.218 -8.324,-9.406 -13.752,-8.229c-0.758,0.165 -4.729,2.33 -5.213,2.889c-3.287,3.795 -5.651,6.949 -6.977,12.142" style="fill:none;stroke:#00b0ff;stroke-width:9.04px;"/></g><g><path d="M548.182,246.349l-6.557,24.442" style="fill:none;stroke:#00b0ff;stroke-width:4.52px;stroke-linecap:butt;"/></g></g><g><g><path d="M678.118,305.81c-0.119,-5.595 0.641,-13.643 -2.036,-18.666c-2.996,-5.62 -10.54,-6.831 -15.455,-4.242c-0.686,0.361 -3.931,3.511 -4.248,4.18c-2.149,4.536 -3.582,8.209 -3.469,13.566" style="fill:none;stroke:#00b0ff;stroke-width:9.04px;"/></g><g><path d="M665.916,256.589l0.231,25.304" style="fill:none;stroke:#00b0ff;stroke-width:4.52px;stroke-linecap:butt;"/></g></g><g><g><path d="M772.689,298.473c-0.894,-5.524 -1.258,-13.6 -4.607,-18.202c-3.746,-5.151 -11.386,-5.303 -15.893,-2.057c-0.629,0.453 -3.406,4.023 -3.627,4.729c-1.499,4.791 -2.408,8.627 -1.552,13.917" style="fill:none;stroke:#00b0ff;stroke-width:9.04px;"/></g><g><path d="M753.774,251.422l3.741,25.027" style="fill:none;stroke:#00b0ff;stroke-width:4.52px;stroke-linecap:butt;"/></g></g><g><g><path d="M819.161,286.836c-3.047,-4.694 -6.64,-11.935 -11.562,-14.795c-5.506,-3.2 -12.557,-0.256 -15.371,4.533c-0.393,0.669 -1.493,5.056 -1.41,5.791c0.562,4.989 1.279,8.865 4.197,13.36" style="fill:none;stroke:#00b0ff;stroke-width:9.04px;"/></g><g><path d="M782.864,251.422l13.525,21.388" style="fill:none;stroke:#00b0ff;stroke-width:4.52px;stroke-linecap:butt;"/></g></g><g><g><path d="M865.537,230.487c-4.764,-2.936 -11.111,-7.941 -16.783,-8.418c-6.347,-0.534 -11.458,5.145 -11.95,10.678c-0.069,0.773 0.816,5.208 1.206,5.837c2.644,4.267 4.951,7.463 9.513,10.276" style="fill:none;stroke:#00b0ff;stroke-width:9.04px;"/></g><g><path d="M817.572,214.027l21.38,13.537" style="fill:none;stroke:#00b0ff;stroke-width:4.52px;stroke-linecap:butt;"/></g></g><g><g><path d="M873.693,166.883c-5.574,-0.505 -13.487,-2.156 -18.777,-0.054c-5.919,2.351 -7.962,9.713 -5.936,14.885c0.283,0.722 3.052,4.299 3.681,4.687c4.269,2.642 7.759,4.474 13.096,4.958" style="fill:none;stroke:#00b0ff;stroke-width:9.04px;"/></g><g><path d="M823.419,173.53l25.173,2.587" style="fill:none;stroke:#00b0ff;stroke-width:4.52px;stroke-linecap:butt;"/></g></g></g><g><g><g><path d="M360.451,62.557c-2.243,5.127 -6.313,12.111 -5.994,17.794c0.357,6.359 6.694,10.627 12.242,10.343c0.774,-0.04 5.043,-1.535 5.611,-2.009c3.857,-3.213 6.7,-5.944 8.848,-10.854" style="fill:none;stroke:#00b0ff;stroke-width:9.04px;"/></g><g><path d="M350.845,112.35l10.421,-23.06" style="fill:none;stroke:#00b0ff;stroke-width:4.52px;stroke-linecap:butt;"/></g></g><g><g><path d="M256.252,52.151c0.082,5.596 -0.731,13.638 1.912,18.679c2.958,5.641 10.494,6.902 15.426,4.346c0.688,-0.357 3.955,-3.486 4.275,-4.152c2.18,-4.522 3.637,-8.185 3.56,-13.543" style="fill:none;stroke:#00b0ff;stroke-width:9.04px;"/></g><g><path d="M268.126,101.452l-0.063,-25.305" style="fill:none;stroke:#00b0ff;stroke-width:4.52px;stroke-linecap:butt;"/></g></g><g><g><path d="M115.409,63.996c1.542,5.38 2.86,13.355 6.73,17.529c4.33,4.671 11.933,3.917 16.025,0.16c0.571,-0.524 2.906,-4.398 3.041,-5.125c0.922,-4.935 1.37,-8.851 -0.106,-14.003" style="fill:none;stroke:#00b0ff;stroke-width:9.04px;"/></g><g><path d="M139.762,108.477l-6.678,-24.409" style="fill:none;stroke:#00b0ff;stroke-width:4.52px;stroke-linecap:butt;"/></g></g><g><g><path d="M29.235,229.941c5.281,-1.851 13.166,-3.63 17.108,-7.735c4.412,-4.594 3.219,-12.141 -0.769,-16.008c-0.557,-0.54 -4.56,-2.646 -5.293,-2.739c-4.981,-0.633 -8.916,-0.854 -13.974,0.919" style="fill:none;stroke:#00b0ff;stroke-width:9.04px;"/></g><g><path d="M72.227,203.048l-23.98,8.083" style="fill:none;stroke:#00b0ff;stroke-width:4.52px;stroke-linecap:butt;"/></g></g><g><g><path d="M111.723,295.14c1.385,-5.422 4.273,-12.972 3.04,-18.529c-1.38,-6.218 -8.324,-9.406 -13.753,-8.228c-0.758,0.164 -4.729,2.33 -5.213,2.889c-3.286,3.795 -5.65,6.949 -6.977,12.141" style="fill:none;stroke:#00b0ff;stroke-width:9.04px;"/></g><g><path d="M113.155,244.449l-6.557,24.441" style="fill:none;stroke:#00b0ff;stroke-width:4.52px;stroke-linecap:butt;"/></g></g><g><g><path d="M243.091,303.91c-0.118,-5.595 0.641,-13.643 -2.036,-18.666c-2.995,-5.621 -10.54,-6.832 -15.454,-4.243c-0.686,0.362 -3.932,3.512 -4.248,4.18c-2.15,4.537 -3.583,8.209 -3.469,13.567" style="fill:none;stroke:#00b0ff;stroke-width:9.04px;"/></g><g><path d="M230.889,254.689l0.231,25.304" style="fill:none;stroke:#00b0ff;stroke-width:4.52px;stroke-linecap:butt;"/></g></g><g><g><path d="M341.393,299.137c-0.894,-5.524 -1.259,-13.599 -4.607,-18.202c-3.746,-5.151 -11.386,-5.303 -15.893,-2.057c-0.63,0.454 -3.406,4.024 -3.627,4.73c-1.499,4.791 -2.408,8.626 -1.552,13.917" style="fill:none;stroke:#00b0ff;stroke-width:9.04px;"/></g><g><path d="M322.478,252.086l3.741,25.028" style="fill:none;stroke:#00b0ff;stroke-width:4.52px;stroke-linecap:butt;"/></g></g><g><g><path d="M394.86,282.373c-3.048,-4.694 -6.641,-11.935 -11.562,-14.794c-5.507,-3.201 -12.558,-0.256 -15.372,4.533c-0.392,0.669 -1.492,5.056 -1.409,5.791c0.562,4.988 1.278,8.864 4.197,13.359" style="fill:none;stroke:#00b0ff;stroke-width:9.04px;"/></g><g><path d="M358.563,246.959l13.524,21.389" style="fill:none;stroke:#00b0ff;stroke-width:4.52px;stroke-linecap:butt;"/></g></g><g><g><path d="M430.51,228.587c-4.763,-2.937 -11.111,-7.941 -16.783,-8.418c-6.346,-0.535 -11.457,5.145 -11.95,10.678c-0.068,0.772 0.816,5.208 1.206,5.837c2.644,4.267 4.951,7.463 9.513,10.275" style="fill:none;stroke:#00b0ff;stroke-width:9.04px;"/></g><g><path d="M382.545,212.126l21.38,13.538" style="fill:none;stroke:#00b0ff;stroke-width:4.52px;stroke-linecap:butt;"/></g></g><g><g><path d="M438.666,164.983c-5.573,-0.505 -13.487,-2.156 -18.776,-0.055c-5.92,2.351 -7.963,9.714 -5.937,14.886c0.283,0.722 3.052,4.298 3.681,4.687c4.269,2.642 7.759,4.474 13.097,4.958" style="fill:none;stroke:#00b0ff;stroke-width:9.04px;"/></g><g><path d="M388.393,171.63l25.172,2.587" style="fill:none;stroke:#00b0ff;stroke-width:4.52px;stroke-linecap:butt;"/></g></g></g><g><g><path d="M290.437,647.754c-0,5.596 -0.93,13.626 1.641,18.704c2.875,5.683 10.392,7.054 15.36,4.569c0.694,-0.347 4.006,-3.427 4.336,-4.089c2.245,-4.49 3.755,-8.131 3.755,-13.49" style="fill:none;stroke:#ff7a00;stroke-width:9.04px;"/></g><g><path d="M302.33,697.849l0.305,-25.304" style="fill:none;stroke:#ff7a00;stroke-width:4.52px;stroke-linecap:butt;"/></g></g><g><g><path d="M298.864,341.51c0,5.596 -0.93,13.626 1.641,18.704c2.875,5.683 10.392,7.054 15.36,4.57c0.694,-0.348 4.006,-3.428 4.336,-4.09c2.245,-4.49 3.755,-8.131 3.755,-13.49" style="fill:none;stroke:#ff7a00;stroke-width:9.04px;"/></g><g><path d="M310.757,391.605l0.305,-25.304" style="fill:none;stroke:#ff7a00;stroke-width:4.52px;stroke-linecap:butt;"/></g></g><g><g><path d="M203.099,296.317c-0.182,-5.594 0.485,-13.649 -2.249,-18.641c-3.06,-5.586 -10.617,-6.711 -15.502,-4.066c-0.682,0.37 -3.891,3.556 -4.2,4.228c-2.098,4.561 -3.488,8.25 -3.313,13.606" style="fill:none;stroke:#ff7a00;stroke-width:9.04px;"/></g><g><path d="M189.579,246.636l0.521,25.3" style="fill:none;stroke:#ff7a00;stroke-width:4.52px;stroke-linecap:butt;"/></g></g><g><g><g><path d="M505.037,361.566c2.561,4.976 5.408,12.541 10.017,15.881c5.157,3.737 12.468,1.516 15.749,-2.966c0.458,-0.626 1.993,-4.881 1.984,-5.62c-0.058,-5.02 -0.381,-8.949 -2.833,-13.714" style="fill:none;stroke:#ff7a00;stroke-width:9.04px;"/></g><g><path d="M538.534,400.667l-11.307,-22.639" style="fill:none;stroke:#ff7a00;stroke-width:4.52px;stroke-linecap:butt;"/></g></g><g><g><path d="M579.168,339.899c-0,5.597 -0.93,13.626 1.64,18.705c2.876,5.683 10.393,7.053 15.361,4.569c0.694,-0.348 4.005,-3.428 4.336,-4.09c2.245,-4.49 3.755,-8.131 3.755,-13.49" style="fill:none;stroke:#ff7a00;stroke-width:9.04px;"/></g><g><path d="M591.061,389.994l0.305,-25.303" style="fill:none;stroke:#ff7a00;stroke-width:4.52px;stroke-linecap:butt;"/></g></g><g><g><path d="M629.141,339.899c0,5.597 -0.929,13.626 1.641,18.705c2.875,5.683 10.393,7.053 15.361,4.569c0.693,-0.348 4.005,-3.428 4.335,-4.09c2.246,-4.49 3.756,-8.131 3.756,-13.49" style="fill:none;stroke:#ff7a00;stroke-width:9.04px;"/></g><g><path d="M641.035,389.994l0.304,-25.303" style="fill:none;stroke:#ff7a00;stroke-width:4.52px;stroke-linecap:butt;"/></g></g><g><g><path d="M729.866,339.899c-0,5.597 -0.93,13.626 1.64,18.705c2.876,5.683 10.393,7.053 15.361,4.569c0.694,-0.348 4.005,-3.428 4.336,-4.09c2.245,-4.49 3.755,-8.131 3.755,-13.49" style="fill:none;stroke:#ff7a00;stroke-width:9.04px;"/></g><g><path d="M741.759,389.994l0.305,-25.303" style="fill:none;stroke:#ff7a00;stroke-width:4.52px;stroke-linecap:butt;"/></g></g><g><g><path d="M836.946,369.112c-4.233,3.661 -10.915,8.21 -13.075,13.476c-2.417,5.892 1.463,12.475 6.592,14.608c0.716,0.297 5.212,0.787 5.929,0.604c4.865,-1.238 8.607,-2.478 12.66,-5.983" style="fill:none;stroke:#ff7a00;stroke-width:9.04px;"/></g><g><path d="M806.834,410.876l19.339,-16.321" style="fill:none;stroke:#ff7a00;stroke-width:4.52px;stroke-linecap:butt;"/></g></g><g><g><path d="M453.564,455.99c5.473,1.165 13.133,3.746 18.636,2.29c6.157,-1.629 9.062,-8.696 7.667,-14.073c-0.195,-0.751 -2.519,-4.631 -3.097,-5.092c-3.924,-3.131 -7.171,-5.366 -12.413,-6.482" style="fill:none;stroke:#ff7a00;stroke-width:9.04px;"/></g><g><path d="M505.037,454.788l-24.686,-5.567" style="fill:none;stroke:#ff7a00;stroke-width:4.52px;stroke-linecap:butt;"/></g></g><g><g><path d="M493.699,558.1c4.054,-3.858 10.511,-8.721 12.418,-14.083c2.134,-6.001 -2.057,-12.391 -7.281,-14.277c-0.73,-0.263 -5.244,-0.538 -5.952,-0.321c-4.8,1.469 -8.478,2.886 -12.36,6.581" style="fill:none;stroke:#ff7a00;stroke-width:9.04px;"/></g><g><path d="M521.785,514.948l-18.538,17.225" style="fill:none;stroke:#ff7a00;stroke-width:4.52px;stroke-linecap:butt;"/></g></g><g><g><path d="M578.283,587.226c0.325,-5.587 1.719,-13.549 -0.552,-18.769c-2.54,-5.84 -9.965,-7.645 -15.069,-5.453c-0.713,0.306 -4.198,3.189 -4.566,3.83c-2.502,4.352 -4.221,7.9 -4.533,13.25" style="fill:none;stroke:#ff7a00;stroke-width:9.04px;"/></g><g><path d="M569.32,536.524l-1.774,25.243" style="fill:none;stroke:#ff7a00;stroke-width:4.52px;stroke-linecap:butt;"/></g></g><g><g><path d="M629.423,587.226c-0.069,-5.596 0.762,-13.637 -1.87,-18.683c-2.945,-5.648 -10.479,-6.926 -15.416,-4.381c-0.689,0.356 -3.963,3.477 -4.285,4.142c-2.19,4.518 -3.655,8.177 -3.59,13.536" style="fill:none;stroke:#ff7a00;stroke-width:9.04px;"/></g><g><path d="M616.916,537.28l0.006,25.306" style="fill:none;stroke:#ff7a00;stroke-width:4.52px;stroke-linecap:butt;"/></g></g><g><g><path d="M706.766,587.448c0.035,-5.596 1.014,-13.62 -1.524,-18.714c-2.84,-5.701 -10.349,-7.118 -15.332,-4.665c-0.696,0.344 -4.027,3.403 -4.361,4.063c-2.274,4.476 -3.806,8.108 -3.839,13.466" style="fill:none;stroke:#ff7a00;stroke-width:9.04px;"/></g><g><path d="M695.184,537.28l-0.462,25.301" style="fill:none;stroke:#ff7a00;stroke-width:4.52px;stroke-linecap:butt;"/></g></g></g><path d="M405.783,178.618c-0,-47.144 -38.276,-85.42 -85.42,-85.42l-174.715,0c-47.144,0 -85.42,38.276 -85.42,85.42c0,47.145 38.276,85.42 85.42,85.42l174.715,0c47.144,0 85.42,-38.275 85.42,-85.42Z" style="fill:#fbe07f;"/><path d="M839.072,179.931c-0,-47.145 -38.276,-85.42 -85.42,-85.42l-174.715,-0c-47.144,-0 -85.42,38.275 -85.42,85.42c0,47.144 38.276,85.42 85.42,85.42l174.715,-0c47.144,-0 85.42,-38.276 85.42,-85.42Z" style="fill:#fbe07f;"/><path d="M405.783,463.512c-0,-47.145 -38.276,-85.42 -85.42,-85.42l-174.715,-0c-47.144,-0 -85.42,38.275 -85.42,85.42c0,47.144 38.276,85.42 85.42,85.42l174.715,-0c47.144,-0 85.42,-38.276 85.42,-85.42Z" style="fill:#fbe07f;"/><path d="M835.245,464.388c-0,-47.144 -38.275,-85.42 -85.42,-85.42l-174.715,0c-47.144,0 -85.419,38.276 -85.419,85.42c-0,47.145 38.275,85.42 85.419,85.42l174.715,0c47.145,0 85.42,-38.275 85.42,-85.42Z" style="fill:#fbe07f;"/><text x="143.219px" y="186.672px" style="font-family:'Arial-BoldItalicMT', 'Arial', sans-serif;font-weight:700;font-style:italic;font-size:48.327px;">R</text><text x="178.12px" y="194.728px" style="font-family:'Arial-BoldMT', 'Arial', sans-serif;font-weight:700;font-size:37.587px;">1</text><text x="199.023px" y="178.618px" style="font-family:'Arial-BoldItalicMT', 'Arial', sans-serif;font-weight:700;font-style:italic;font-size:37.587px;">lo</text><text x="232.427px" y="186.672px" style="font-family:'Arial-BoldItalicMT', 'Arial', sans-serif;font-weight:700;font-style:italic;font-size:48.327px;">R</text><text x="267.326px" y="194.728px" style="font-family:'Arial-BoldMT', 'Arial', sans-serif;font-weight:700;font-size:37.587px;">2</text><text x="288.231px" y="178.618px" style="font-family:'Arial-BoldItalicMT', 'Arial', sans-serif;font-weight:700;font-style:italic;font-size:37.587px;">hi</text><text x="142.074px" y="480.808px" style="font-family:'Arial-BoldItalicMT', 'Arial', sans-serif;font-weight:700;font-style:italic;font-size:48.327px;">R</text><text x="176.973px" y="488.862px" style="font-family:'Arial-BoldMT', 'Arial', sans-serif;font-weight:700;font-size:37.587px;">1</text><text x="197.878px" y="472.753px" style="font-family:'Arial-BoldItalicMT', 'Arial', sans-serif;font-weight:700;font-style:italic;font-size:37.587px;">lo</text><text x="231.282px" y="480.808px" style="font-family:'Arial-BoldItalicMT', 'Arial', sans-serif;font-weight:700;font-style:italic;font-size:48.327px;">R</text><text x="266.181px" y="488.862px" style="font-family:'Arial-BoldMT', 'Arial', sans-serif;font-weight:700;font-size:37.587px;">2</text><text x="287.086px" y="472.753px" style="font-family:'Arial-BoldItalicMT', 'Arial', sans-serif;font-weight:700;font-style:italic;font-size:37.587px;">lo</text><text x="574.185px" y="477.483px" style="font-family:'Arial-BoldItalicMT', 'Arial', sans-serif;font-weight:700;font-style:italic;font-size:48.327px;">R</text><text x="609.084px" y="485.538px" style="font-family:'Arial-BoldMT', 'Arial', sans-serif;font-weight:700;font-size:37.587px;">1</text><text x="629.989px" y="469.429px" style="font-family:'Arial-BoldItalicMT', 'Arial', sans-serif;font-weight:700;font-style:italic;font-size:37.587px;">hi</text><text x="663.393px" y="477.483px" style="font-family:'Arial-BoldItalicMT', 'Arial', sans-serif;font-weight:700;font-style:italic;font-size:48.327px;">R</text><text x="698.292px" y="485.538px" style="font-family:'Arial-BoldMT', 'Arial', sans-serif;font-weight:700;font-size:37.587px;">2</text><text x="719.197px" y="469.429px" style="font-family:'Arial-BoldItalicMT', 'Arial', sans-serif;font-weight:700;font-style:italic;font-size:37.587px;">lo</text><text x="574.963px" y="189.686px" style="font-family:'Arial-BoldItalicMT', 'Arial', sans-serif;font-weight:700;font-style:italic;font-size:48.327px;">R</text><text x="609.862px" y="197.74px" style="font-family:'Arial-BoldMT', 'Arial', sans-serif;font-weight:700;font-size:37.587px;">1</text><text x="630.767px" y="181.632px" style="font-family:'Arial-BoldItalicMT', 'Arial', sans-serif;font-weight:700;font-style:italic;font-size:37.587px;">hi</text><text x="664.171px" y="189.686px" style="font-family:'Arial-BoldItalicMT', 'Arial', sans-serif;font-weight:700;font-style:italic;font-size:48.327px;">R</text><text x="699.07px" y="197.74px" style="font-family:'Arial-BoldMT', 'Arial', sans-serif;font-weight:700;font-size:37.587px;">2</text><text x="719.975px" y="181.632px" style="font-family:'Arial-BoldItalicMT', 'Arial', sans-serif;font-weight:700;font-style:italic;font-size:37.587px;">hi</text><text x="342.976px" y="683.402px" style="font-family:'Arial-BoldItalicMT', 'Arial', sans-serif;font-weight:700;font-style:italic;font-size:41.239px;">R</text><text x="372.758px" y="691.134px" style="font-family:'Arial-BoldMT', 'Arial', sans-serif;font-weight:700;font-size:30.929px;">1</text><text x="565.899px" y="683.402px" style="font-family:'Arial-BoldItalicMT', 'Arial', sans-serif;font-weight:700;font-style:italic;font-size:41.239px;">R</text><text x="595.68px" y="691.134px" style="font-family:'Arial-BoldMT', 'Arial', sans-serif;font-weight:700;font-size:30.929px;">2</text></svg>