<?xml version="1.0" encoding="UTF-8" standalone="no"?>
<!DOCTYPE svg PUBLIC "-//W3C//DTD SVG 1.1//EN" "http://www.w3.org/Graphics/SVG/1.1/DTD/svg11.dtd">
<svg width="100%" height="100%" viewBox="0 0 4200 1800" version="1.1" xmlns="http://www.w3.org/2000/svg" xmlns:xlink="http://www.w3.org/1999/xlink" xml:space="preserve" xmlns:serif="http://www.serif.com/" style="fill-rule:evenodd;clip-rule:evenodd;stroke-linecap:round;stroke-linejoin:round;stroke-miterlimit:1.5;">
    <g transform="matrix(0.714694,0,0,0.71205,-52.0028,251.441)">
        <circle cx="268.444" cy="560.898" r="114.602" style="fill:url(#_Radial1);stroke:rgb(255,204,0);stroke-width:26.79px;"/>
    </g>
    <g transform="matrix(0.226058,0,0,0.21851,3701.91,431.859)">
        <circle cx="268.444" cy="560.898" r="114.602" style="fill:url(#_Radial2);stroke:rgb(255,204,0);stroke-width:26.79px;"/>
    </g>
    <g transform="matrix(0.226058,0,0,0.21851,3701.91,431.859)">
        <circle cx="268.444" cy="560.898" r="114.602" style="fill:url(#_Radial3);stroke:rgb(255,204,0);stroke-width:26.79px;"/>
    </g>
    <g transform="matrix(0.226058,0,0,0.21851,3701.91,431.859)">
        <circle cx="268.444" cy="560.898" r="114.602" style="fill:url(#_Radial4);stroke:rgb(255,204,0);stroke-width:26.79px;"/>
    </g>
    <g transform="matrix(0.226058,0,0,0.21851,3522.62,487.963)">
        <circle cx="268.444" cy="560.898" r="114.602" style="fill:url(#_Radial5);stroke:rgb(255,204,0);stroke-width:26.79px;"/>
    </g>
    <g transform="matrix(0.226058,0,0,0.21851,3911.21,325.904)">
        <circle cx="268.444" cy="560.898" r="114.602" style="fill:url(#_Radial6);stroke:rgb(255,204,0);stroke-width:26.79px;"/>
    </g>
    <g transform="matrix(0.226058,0,0,0.21851,3434.78,933.59)">
        <circle cx="268.444" cy="560.898" r="114.602" style="fill:url(#_Radial7);stroke:rgb(255,204,0);stroke-width:26.79px;"/>
    </g>
    <g transform="matrix(0.226058,0,0,0.21851,3676.64,257.563)">
        <circle cx="268.444" cy="560.898" r="114.602" style="fill:url(#_Radial8);stroke:rgb(255,204,0);stroke-width:26.79px;"/>
    </g>
    <g transform="matrix(0.226058,0,0,0.21851,3914.73,968.865)">
        <circle cx="268.444" cy="560.898" r="114.602" style="fill:url(#_Radial9);stroke:rgb(255,204,0);stroke-width:26.79px;"/>
    </g>
    <g transform="matrix(0.164744,0,0,0.168764,3914.89,853.942)">
        <circle cx="268.444" cy="560.898" r="114.602" style="fill:url(#_Radial10);stroke:rgb(255,204,0);stroke-width:26.79px;"/>
    </g>
    <g transform="matrix(0.226058,0,0,0.21851,3750.79,981.55)">
        <circle cx="268.444" cy="560.898" r="114.602" style="fill:url(#_Radial11);stroke:rgb(255,204,0);stroke-width:26.79px;"/>
    </g>
    <g transform="matrix(0.226058,0,0,0.21851,3436.92,320.261)">
        <circle cx="268.444" cy="560.898" r="114.602" style="fill:url(#_Radial12);stroke:rgb(255,204,0);stroke-width:26.79px;"/>
    </g>
    <g transform="matrix(0.226058,0,0,0.21851,3448.53,653.602)">
        <circle cx="268.444" cy="560.898" r="114.602" style="fill:url(#_Radial13);stroke:rgb(255,204,0);stroke-width:26.79px;"/>
    </g>
    <g transform="matrix(0.226058,0,0,0.21851,3960.85,657.829)">
        <circle cx="268.444" cy="560.898" r="114.602" style="fill:url(#_Radial14);stroke:rgb(255,204,0);stroke-width:26.79px;"/>
    </g>
    <g transform="matrix(0.714694,0,0,0.71205,652.621,273.101)">
        <circle cx="268.444" cy="560.898" r="114.602" style="fill:url(#_Radial15);stroke:rgb(255,204,0);stroke-width:26.79px;"/>
    </g>
    <g transform="matrix(-0.395298,-0.77279,1.15122,-0.475252,-147.503,1200.21)">
        <path d="M179.401,409.25L179.401,445.288L102.094,391.23L179.401,337.173L179.401,373.211L307.33,373.211L307.33,409.25L179.401,409.25Z" style="fill:rgb(54,140,214);"/>
    </g>
    <g transform="matrix(0.441561,-0.752303,1.1207,0.530873,638.237,818.275)">
        <path d="M178.642,409.25L178.642,445.288L102.094,391.23L178.642,337.173L178.642,373.211L307.33,373.211L307.33,409.25L178.642,409.25Z" style="fill:rgb(54,140,214);"/>
    </g>
    <g transform="matrix(-0.506603,-0.900399,0.582593,-0.264547,800.941,1154.65)">
        <path d="M174.439,399.88L174.439,445.288L102.094,391.23L174.439,337.173L174.439,382.581L307.33,382.581L307.33,399.88L174.439,399.88Z" style="fill:rgb(54,140,214);"/>
    </g>
    <g transform="matrix(0.499056,-0.903794,0.58479,0.260606,106.267,937.428)">
        <path d="M174.439,399.88L174.439,445.288L102.094,391.23L174.439,337.173L174.439,382.581L307.33,382.581L307.33,399.88L174.439,399.88Z" style="fill:rgb(54,140,214);"/>
    </g>
    <g transform="matrix(1.15656,0,0,0.878256,176.034,201.029)">
        <path d="M314.15,423.37L413.949,523.169L314.15,622.969L214.351,523.169L314.15,423.37Z" style="fill:url(#_Radial16);stroke:rgb(255,197,0);stroke-width:17.25px;"/>
    </g>
    <g transform="matrix(1.15656,0,0,0.878256,898.516,206.645)">
        <path d="M314.15,423.37L413.949,523.169L314.15,622.969L214.351,523.169L314.15,423.37Z" style="fill:url(#_Radial17);stroke:rgb(255,197,0);stroke-width:17.25px;"/>
    </g>
    <g transform="matrix(0.264462,0,0,0.27294,3068.75,289.765)">
        <path d="M314.15,423.37L413.949,523.169L314.15,622.969L214.351,523.169L314.15,423.37Z" style="fill:url(#_Radial18);stroke:rgb(255,197,0);stroke-width:17.25px;"/>
    </g>
    <g transform="matrix(0.264462,0,0,0.27294,2629.16,929.308)">
        <path d="M314.15,423.37L413.949,523.169L314.15,622.969L214.351,523.169L314.15,423.37Z" style="fill:url(#_Radial19);stroke:rgb(255,197,0);stroke-width:17.25px;"/>
    </g>
    <g transform="matrix(0.264462,0,0,0.27294,3053.44,987.302)">
        <path d="M314.15,423.37L413.949,523.169L314.15,622.969L214.351,523.169L314.15,423.37Z" style="fill:url(#_Radial20);stroke:rgb(255,197,0);stroke-width:17.25px;"/>
    </g>
    <g transform="matrix(0.264462,0,0,0.27294,2673.57,263.99)">
        <path d="M314.15,423.37L413.949,523.169L314.15,622.969L214.351,523.169L314.15,423.37Z" style="fill:url(#_Radial21);stroke:rgb(255,197,0);stroke-width:17.25px;"/>
    </g>
    <g transform="matrix(0.264462,0,0,0.27294,2111.71,275.986)">
        <path d="M314.15,423.37L413.949,523.169L314.15,622.969L214.351,523.169L314.15,423.37Z" style="fill:url(#_Radial22);stroke:rgb(255,197,0);stroke-width:17.25px;"/>
    </g>
    <g transform="matrix(0.264462,0,0,0.27294,1621.17,385.07)">
        <path d="M314.15,423.37L413.949,523.169L314.15,622.969L214.351,523.169L314.15,423.37Z" style="fill:url(#_Radial23);stroke:rgb(255,197,0);stroke-width:17.25px;"/>
    </g>
    <g transform="matrix(0.264462,0,0,0.27294,1778.17,439.439)">
        <path d="M314.15,423.37L413.949,523.169L314.15,622.969L214.351,523.169L314.15,423.37Z" style="fill:url(#_Radial24);stroke:rgb(255,197,0);stroke-width:17.25px;"/>
    </g>
    <g transform="matrix(0.264462,0,0,0.27294,2144.62,928.267)">
        <path d="M314.15,423.37L413.949,523.169L314.15,622.969L214.351,523.169L314.15,423.37Z" style="fill:url(#_Radial25);stroke:rgb(255,197,0);stroke-width:17.25px;"/>
    </g>
    <g transform="matrix(0.264462,0,0,0.27294,1945.04,930.776)">
        <path d="M314.15,423.37L413.949,523.169L314.15,622.969L214.351,523.169L314.15,423.37Z" style="fill:url(#_Radial26);stroke:rgb(255,197,0);stroke-width:17.25px;"/>
    </g>
    <g transform="matrix(0.264462,0,0,0.27294,1748.05,888.151)">
        <path d="M314.15,423.37L413.949,523.169L314.15,622.969L214.351,523.169L314.15,423.37Z" style="fill:url(#_Radial27);stroke:rgb(255,197,0);stroke-width:17.25px;"/>
    </g>
    <g transform="matrix(0.264462,0,0,0.27294,2279.8,372.737)">
        <path d="M314.15,423.37L413.949,523.169L314.15,622.969L214.351,523.169L314.15,423.37Z" style="fill:url(#_Radial28);stroke:rgb(255,197,0);stroke-width:17.25px;"/>
    </g>
    <g transform="matrix(0.264462,0,0,0.27294,1793.67,224.661)">
        <path d="M314.15,423.37L413.949,523.169L314.15,622.969L214.351,523.169L314.15,423.37Z" style="fill:url(#_Radial29);stroke:rgb(255,197,0);stroke-width:17.25px;"/>
    </g>
    <g transform="matrix(0.20294,-0.178347,0.166403,0.209446,2967.19,881.994)">
        <path d="M314.15,423.37L413.949,523.169L314.15,622.969L214.351,523.169L314.15,423.37Z" style="fill:url(#_Radial30);stroke:rgb(255,197,0);stroke-width:17.25px;"/>
    </g>
    <g transform="matrix(0.20294,-0.178347,0.166403,0.209446,2967.19,881.994)">
        <path d="M314.15,423.37L413.949,523.169L314.15,622.969L214.351,523.169L314.15,423.37Z" style="fill:url(#_Radial31);stroke:rgb(255,197,0);stroke-width:17.25px;"/>
    </g>
    <g transform="matrix(0.20294,-0.178347,0.166403,0.209446,2088.3,865.081)">
        <path d="M314.15,423.37L413.949,523.169L314.15,622.969L214.351,523.169L314.15,423.37Z" style="fill:url(#_Radial32);stroke:rgb(255,197,0);stroke-width:17.25px;"/>
    </g>
    <g transform="matrix(0.169508,0.213497,-0.199199,0.174942,1908.69,758.678)">
        <path d="M314.15,423.37L413.949,523.169L314.15,622.969L214.351,523.169L314.15,423.37Z" style="fill:url(#_Radial33);stroke:rgb(255,197,0);stroke-width:17.25px;"/>
    </g>
    <g transform="matrix(0.187003,0.196677,-0.183505,0.192998,3161.3,431.294)">
        <path d="M314.15,423.37L413.949,523.169L314.15,622.969L214.351,523.169L314.15,423.37Z" style="fill:url(#_Radial34);stroke:rgb(255,197,0);stroke-width:17.25px;"/>
    </g>
    <g transform="matrix(1.69493,0,0,1.49795,697.319,469.068)">
        <path d="M200.27,471.366L132.263,403.36L179.029,356.593L189.105,366.669L152.415,403.36L208.888,459.833L265.362,403.36L228.671,366.669L238.747,356.593L285.513,403.36L217.507,471.366L217.507,542.19L200.27,542.19L200.27,471.366Z" style="fill:rgb(25,10,152);"/>
    </g>
    <g transform="matrix(-0.40217,-0.466798,0.516587,-0.361687,3451.37,1190.31)">
        <path d="M200.27,471.366L132.263,403.36L179.029,356.593L189.105,366.669L152.415,403.36L208.888,459.833L265.362,403.36L228.671,366.669L238.747,356.593L285.513,403.36L217.507,471.366L217.507,542.19L200.27,542.19L200.27,471.366Z" style="fill:rgb(25,10,152);"/>
    </g>
    <g transform="matrix(-0.484028,0.398684,-0.441208,-0.435304,4238.23,1041.27)">
        <path d="M200.27,471.366L132.263,403.36L179.029,356.593L189.105,366.669L152.415,403.36L208.888,459.833L265.362,403.36L228.671,366.669L238.747,356.593L285.513,403.36L217.507,471.366L217.507,542.19L200.27,542.19L200.27,471.366Z" style="fill:rgb(25,10,152);"/>
    </g>
    <g transform="matrix(1.63374,0,0,1.46769,-72.5,327.818)">
        <path d="M236.291,596.012C198.051,591.723 168.284,559.244 168.284,519.867C168.284,492.969 182.388,468.04 205.445,454.187L215.22,470.455C197.874,480.877 187.264,499.631 187.264,519.867C187.264,551.682 213.094,577.513 244.909,577.513C276.725,577.513 302.555,551.682 302.555,519.867C302.555,499.272 291.568,480.242 273.732,469.945L283.222,453.508C306.93,467.196 321.534,492.492 321.534,519.867C321.534,559.244 291.768,591.723 253.528,596.012L253.528,661.305L236.291,661.305L236.291,596.012Z" style="fill:rgb(0,157,99);"/>
    </g>
    <g transform="matrix(0.643884,0,0,0.534907,3603.44,276.128)">
        <path d="M236.291,596.012C198.051,591.723 168.284,559.244 168.284,519.867C168.284,492.969 182.388,468.04 205.445,454.187L215.22,470.455C197.874,480.877 187.264,499.631 187.264,519.867C187.264,551.682 213.094,577.513 244.909,577.513C276.725,577.513 302.555,551.682 302.555,519.867C302.555,499.272 291.568,480.242 273.732,469.945L283.222,453.508C306.93,467.196 321.534,492.492 321.534,519.867C321.534,559.244 291.768,591.723 253.528,596.012L253.528,661.305L236.291,661.305L236.291,596.012Z" style="fill:rgb(0,157,99);"/>
    </g>
    <g transform="matrix(0.455294,0.410437,-0.419574,0.378236,4061.57,319.318)">
        <path d="M236.291,596.012C198.051,591.723 168.284,559.244 168.284,519.867C168.284,492.969 182.388,468.04 205.445,454.187L215.22,470.455C197.874,480.877 187.264,499.631 187.264,519.867C187.264,551.682 213.094,577.513 244.909,577.513C276.725,577.513 302.555,551.682 302.555,519.867C302.555,499.272 291.568,480.242 273.732,469.945L283.222,453.508C306.93,467.196 321.534,492.492 321.534,519.867C321.534,559.244 291.768,591.723 253.528,596.012L253.528,661.305L236.291,661.305L236.291,596.012Z" style="fill:rgb(0,157,99);"/>
    </g>
    <g transform="matrix(0.456363,-0.409472,0.418587,0.379124,3253.38,514.13)">
        <path d="M236.291,596.012C198.051,591.723 168.284,559.244 168.284,519.867C168.284,492.969 182.388,468.04 205.445,454.187L215.22,470.455C197.874,480.877 187.264,499.631 187.264,519.867C187.264,551.682 213.094,577.513 244.909,577.513C276.725,577.513 302.555,551.682 302.555,519.867C302.555,499.272 291.568,480.242 273.732,469.945L283.222,453.508C306.93,467.196 321.534,492.492 321.534,519.867C321.534,559.244 291.768,591.723 253.528,596.012L253.528,661.305L236.291,661.305L236.291,596.012Z" style="fill:rgb(0,157,99);"/>
    </g>
    <g transform="matrix(0.00604545,-0.58042,0.593341,0.00502226,3200.1,916.082)">
        <path d="M236.291,596.012C198.051,591.723 168.284,559.244 168.284,519.867C168.284,492.969 182.388,468.04 205.445,454.187L215.22,470.455C197.874,480.877 187.264,499.631 187.264,519.867C187.264,551.682 213.094,577.513 244.909,577.513C276.725,577.513 302.555,551.682 302.555,519.867C302.555,499.272 291.568,480.242 273.732,469.945L283.222,453.508C306.93,467.196 321.534,492.492 321.534,519.867C321.534,559.244 291.768,591.723 253.528,596.012L253.528,661.305L236.291,661.305L236.291,596.012Z" style="fill:rgb(0,157,99);"/>
    </g>
    <g transform="matrix(-0.000341128,0.580446,-0.593368,-0.000283392,4332.18,638.4)">
        <path d="M236.291,596.012C198.051,591.723 168.284,559.244 168.284,519.867C168.284,492.969 182.388,468.04 205.445,454.187L215.22,470.455C197.874,480.877 187.264,499.631 187.264,519.867C187.264,551.682 213.094,577.513 244.909,577.513C276.725,577.513 302.555,551.682 302.555,519.867C302.555,499.272 291.568,480.242 273.732,469.945L283.222,453.508C306.93,467.196 321.534,492.492 321.534,519.867C321.534,559.244 291.768,591.723 253.528,596.012L253.528,661.305L236.291,661.305L236.291,596.012Z" style="fill:rgb(0,157,99);"/>
    </g>
    <g transform="matrix(0.902287,0,0,0.763879,1455.62,207.641)">
        <ellipse cx="2558.14" cy="751.769" rx="208.491" ry="230.542" style="fill:rgb(95,180,75);"/>
    </g>
    <g transform="matrix(0.226058,0,0,0.21851,2976.33,301.323)">
        <circle cx="268.444" cy="560.898" r="114.602" style="fill:url(#_Radial35);stroke:rgb(255,204,0);stroke-width:26.79px;"/>
    </g>
    <g transform="matrix(0.226058,0,0,0.21851,2849.26,910.703)">
        <circle cx="268.444" cy="560.898" r="114.602" style="fill:url(#_Radial36);stroke:rgb(255,204,0);stroke-width:26.79px;"/>
    </g>
    <g transform="matrix(0.226058,0,0,0.21851,2562.34,369.673)">
        <circle cx="268.444" cy="560.898" r="114.602" style="fill:url(#_Radial37);stroke:rgb(255,204,0);stroke-width:26.79px;"/>
    </g>
    <g transform="matrix(0.226058,0,0,0.21851,2611.81,633.937)">
        <circle cx="268.444" cy="560.898" r="114.602" style="fill:url(#_Radial38);stroke:rgb(255,204,0);stroke-width:26.79px;"/>
    </g>
    <g transform="matrix(0.226058,0,0,0.21851,3124.13,638.165)">
        <circle cx="268.444" cy="560.898" r="114.602" style="fill:url(#_Radial39);stroke:rgb(255,204,0);stroke-width:26.79px;"/>
    </g>
    <g transform="matrix(-0.40217,-0.466798,0.516587,-0.361687,2614.66,1170.64)">
        <path d="M200.27,471.366L132.263,403.36L179.029,356.593L189.105,366.669L152.415,403.36L208.888,459.833L265.362,403.36L228.671,366.669L238.747,356.593L285.513,403.36L217.507,471.366L217.507,542.19L200.27,542.19L200.27,471.366Z" style="fill:rgb(25,10,152);"/>
    </g>
    <g transform="matrix(-0.503615,0.370877,-0.418432,-0.459507,3393.98,1044.04)">
        <path d="M200.27,471.366L132.263,403.36L179.029,356.593L189.105,366.669L152.415,403.36L208.888,459.833L265.362,403.36L228.671,366.669L238.747,356.593L285.513,403.36L217.507,471.366L217.507,542.19L200.27,542.19L200.27,471.366Z" style="fill:rgb(25,10,152);"/>
    </g>
    <g transform="matrix(0.643884,0,0,0.534907,2766.72,256.463)">
        <path d="M236.291,596.012C198.051,591.723 168.284,559.244 168.284,519.867C168.284,492.969 182.388,468.04 205.445,454.187L215.22,470.455C197.874,480.877 187.264,499.631 187.264,519.867C187.264,551.682 213.094,577.513 244.909,577.513C276.725,577.513 302.555,551.682 302.555,519.867C302.555,499.272 291.568,480.242 273.732,469.945L283.222,453.508C306.93,467.196 321.534,492.492 321.534,519.867C321.534,559.244 291.768,591.723 253.528,596.012L253.528,661.305L236.291,661.305L236.291,596.012Z" style="fill:rgb(0,157,99);"/>
    </g>
    <g transform="matrix(0.455294,0.410437,-0.419574,0.378236,3224.86,299.653)">
        <path d="M236.291,596.012C198.051,591.723 168.284,559.244 168.284,519.867C168.284,492.969 182.388,468.04 205.445,454.187L215.22,470.455C197.874,480.877 187.264,499.631 187.264,519.867C187.264,551.682 213.094,577.513 244.909,577.513C276.725,577.513 302.555,551.682 302.555,519.867C302.555,499.272 291.568,480.242 273.732,469.945L283.222,453.508C306.93,467.196 321.534,492.492 321.534,519.867C321.534,559.244 291.768,591.723 253.528,596.012L253.528,661.305L236.291,661.305L236.291,596.012Z" style="fill:rgb(0,157,99);"/>
    </g>
    <g transform="matrix(0.456363,-0.409472,0.418587,0.379124,2416.67,494.465)">
        <path d="M236.291,596.012C198.051,591.723 168.284,559.244 168.284,519.867C168.284,492.969 182.388,468.04 205.445,454.187L215.22,470.455C197.874,480.877 187.264,499.631 187.264,519.867C187.264,551.682 213.094,577.513 244.909,577.513C276.725,577.513 302.555,551.682 302.555,519.867C302.555,499.272 291.568,480.242 273.732,469.945L283.222,453.508C306.93,467.196 321.534,492.492 321.534,519.867C321.534,559.244 291.768,591.723 253.528,596.012L253.528,661.305L236.291,661.305L236.291,596.012Z" style="fill:rgb(0,157,99);"/>
    </g>
    <g transform="matrix(0.00604545,-0.58042,0.593341,0.00502226,2363.39,896.418)">
        <path d="M236.291,596.012C198.051,591.723 168.284,559.244 168.284,519.867C168.284,492.969 182.388,468.04 205.445,454.187L215.22,470.455C197.874,480.877 187.264,499.631 187.264,519.867C187.264,551.682 213.094,577.513 244.909,577.513C276.725,577.513 302.555,551.682 302.555,519.867C302.555,499.272 291.568,480.242 273.732,469.945L283.222,453.508C306.93,467.196 321.534,492.492 321.534,519.867C321.534,559.244 291.768,591.723 253.528,596.012L253.528,661.305L236.291,661.305L236.291,596.012Z" style="fill:rgb(0,157,99);"/>
    </g>
    <g transform="matrix(-0.000341128,0.580446,-0.593368,-0.000283392,3495.46,618.735)">
        <path d="M236.291,596.012C198.051,591.723 168.284,559.244 168.284,519.867C168.284,492.969 182.388,468.04 205.445,454.187L215.22,470.455C197.874,480.877 187.264,499.631 187.264,519.867C187.264,551.682 213.094,577.513 244.909,577.513C276.725,577.513 302.555,551.682 302.555,519.867C302.555,499.272 291.568,480.242 273.732,469.945L283.222,453.508C306.93,467.196 321.534,492.492 321.534,519.867C321.534,559.244 291.768,591.723 253.528,596.012L253.528,661.305L236.291,661.305L236.291,596.012Z" style="fill:rgb(0,157,99);"/>
    </g>
    <g transform="matrix(0.902287,0,0,0.763879,618.9,187.976)">
        <ellipse cx="2558.14" cy="751.769" rx="208.491" ry="230.542" style="fill:rgb(95,180,75);"/>
    </g>
    <g transform="matrix(-0.40217,-0.466798,0.516587,-0.361687,1731.2,1160.81)">
        <path d="M200.27,471.366L132.263,403.36L179.029,356.593L189.105,366.669L152.415,403.36L208.888,459.833L265.362,403.36L228.671,366.669L238.747,356.593L285.513,403.36L217.507,471.366L217.507,542.19L200.27,542.19L200.27,471.366Z" style="fill:rgb(25,10,152);"/>
    </g>
    <g transform="matrix(-0.484028,0.398684,-0.441208,-0.435304,2518.05,1011.77)">
        <path d="M200.27,471.366L132.263,403.36L179.029,356.593L189.105,366.669L152.415,403.36L208.888,459.833L265.362,403.36L228.671,366.669L238.747,356.593L285.513,403.36L217.507,471.366L217.507,542.19L200.27,542.19L200.27,471.366Z" style="fill:rgb(25,10,152);"/>
    </g>
    <g transform="matrix(0.643884,0,0,0.534907,1883.27,246.631)">
        <path d="M236.291,596.012C198.051,591.723 168.284,559.244 168.284,519.867C168.284,492.969 182.388,468.04 205.445,454.187L215.22,470.455C197.874,480.877 187.264,499.631 187.264,519.867C187.264,551.682 213.094,577.513 244.909,577.513C276.725,577.513 302.555,551.682 302.555,519.867C302.555,499.272 291.568,480.242 273.732,469.945L283.222,453.508C306.93,467.196 321.534,492.492 321.534,519.867C321.534,559.244 291.768,591.723 253.528,596.012L253.528,661.305L236.291,661.305L236.291,596.012Z" style="fill:rgb(0,157,99);"/>
    </g>
    <g transform="matrix(0.455294,0.410437,-0.419574,0.378236,2341.4,289.82)">
        <path d="M236.291,596.012C198.051,591.723 168.284,559.244 168.284,519.867C168.284,492.969 182.388,468.04 205.445,454.187L215.22,470.455C197.874,480.877 187.264,499.631 187.264,519.867C187.264,551.682 213.094,577.513 244.909,577.513C276.725,577.513 302.555,551.682 302.555,519.867C302.555,499.272 291.568,480.242 273.732,469.945L283.222,453.508C306.93,467.196 321.534,492.492 321.534,519.867C321.534,559.244 291.768,591.723 253.528,596.012L253.528,661.305L236.291,661.305L236.291,596.012Z" style="fill:rgb(0,157,99);"/>
    </g>
    <g transform="matrix(0.456363,-0.409472,0.418587,0.379124,1533.21,484.633)">
        <path d="M236.291,596.012C198.051,591.723 168.284,559.244 168.284,519.867C168.284,492.969 182.388,468.04 205.445,454.187L215.22,470.455C197.874,480.877 187.264,499.631 187.264,519.867C187.264,551.682 213.094,577.513 244.909,577.513C276.725,577.513 302.555,551.682 302.555,519.867C302.555,499.272 291.568,480.242 273.732,469.945L283.222,453.508C306.93,467.196 321.534,492.492 321.534,519.867C321.534,559.244 291.768,591.723 253.528,596.012L253.528,661.305L236.291,661.305L236.291,596.012Z" style="fill:rgb(0,157,99);"/>
    </g>
    <g transform="matrix(0.00604545,-0.58042,0.593341,0.00502226,1479.93,886.585)">
        <path d="M236.291,596.012C198.051,591.723 168.284,559.244 168.284,519.867C168.284,492.969 182.388,468.04 205.445,454.187L215.22,470.455C197.874,480.877 187.264,499.631 187.264,519.867C187.264,551.682 213.094,577.513 244.909,577.513C276.725,577.513 302.555,551.682 302.555,519.867C302.555,499.272 291.568,480.242 273.732,469.945L283.222,453.508C306.93,467.196 321.534,492.492 321.534,519.867C321.534,559.244 291.768,591.723 253.528,596.012L253.528,661.305L236.291,661.305L236.291,596.012Z" style="fill:rgb(0,157,99);"/>
    </g>
    <g transform="matrix(-0.000341128,0.580446,-0.593368,-0.000283392,2612,608.903)">
        <path d="M236.291,596.012C198.051,591.723 168.284,559.244 168.284,519.867C168.284,492.969 182.388,468.04 205.445,454.187L215.22,470.455C197.874,480.877 187.264,499.631 187.264,519.867C187.264,551.682 213.094,577.513 244.909,577.513C276.725,577.513 302.555,551.682 302.555,519.867C302.555,499.272 291.568,480.242 273.732,469.945L283.222,453.508C306.93,467.196 321.534,492.492 321.534,519.867C321.534,559.244 291.768,591.723 253.528,596.012L253.528,661.305L236.291,661.305L236.291,596.012Z" style="fill:rgb(0,157,99);"/>
    </g>
    <g transform="matrix(0.902287,0,0,0.763879,-264.56,178.144)">
        <ellipse cx="2558.14" cy="751.769" rx="208.491" ry="230.542" style="fill:rgb(95,180,75);"/>
    </g>
    <g transform="matrix(4.84265e-17,0.498589,-7.40877,4.77292e-16,14249.6,730.367)">
        <path d="M1052.78,1385.15L1487.79,1690.1L1048.85,1690.1L1052.78,1385.15Z" style="fill:rgb(97,41,158);"/>
    </g>
    <g transform="matrix(1.21401,0,0,1.04036,-827.108,-103.955)">
        <path d="M3968.98,1306.6L3968.98,1514.52L2097.69,1514.52L3968.98,1306.6Z" style="fill:rgb(41,158,55);"/>
    </g>
    <g transform="matrix(3.27774,0,0,3.53572,237.589,-2070.42)">
        <text x="638.12px" y="1043.12px" style="font-family:'Arial-ItalicMT', 'Arial', sans-serif;font-style:italic;font-size:40.124px;">Mixture Composition</text>
    </g>
    <defs>
        <radialGradient id="_Radial1" cx="0" cy="0" r="1" gradientUnits="userSpaceOnUse" gradientTransform="matrix(114.602,0,0,114.602,268.444,560.898)"><stop offset="0" style="stop-color:white;stop-opacity:1"/><stop offset="0.48" style="stop-color:rgb(86,223,172);stop-opacity:1"/><stop offset="1" style="stop-color:rgb(34,213,147);stop-opacity:1"/></radialGradient>
        <radialGradient id="_Radial2" cx="0" cy="0" r="1" gradientUnits="userSpaceOnUse" gradientTransform="matrix(114.602,0,0,114.602,268.444,560.898)"><stop offset="0" style="stop-color:white;stop-opacity:1"/><stop offset="0.48" style="stop-color:rgb(86,223,172);stop-opacity:1"/><stop offset="1" style="stop-color:rgb(34,213,147);stop-opacity:1"/></radialGradient>
        <radialGradient id="_Radial3" cx="0" cy="0" r="1" gradientUnits="userSpaceOnUse" gradientTransform="matrix(114.602,0,0,114.602,268.444,560.898)"><stop offset="0" style="stop-color:white;stop-opacity:1"/><stop offset="0.48" style="stop-color:rgb(86,223,172);stop-opacity:1"/><stop offset="1" style="stop-color:rgb(34,213,147);stop-opacity:1"/></radialGradient>
        <radialGradient id="_Radial4" cx="0" cy="0" r="1" gradientUnits="userSpaceOnUse" gradientTransform="matrix(114.602,0,0,114.602,268.444,560.898)"><stop offset="0" style="stop-color:white;stop-opacity:1"/><stop offset="0.48" style="stop-color:rgb(86,223,172);stop-opacity:1"/><stop offset="1" style="stop-color:rgb(34,213,147);stop-opacity:1"/></radialGradient>
        <radialGradient id="_Radial5" cx="0" cy="0" r="1" gradientUnits="userSpaceOnUse" gradientTransform="matrix(114.602,0,0,114.602,268.444,560.898)"><stop offset="0" style="stop-color:white;stop-opacity:1"/><stop offset="0.48" style="stop-color:rgb(86,223,172);stop-opacity:1"/><stop offset="1" style="stop-color:rgb(34,213,147);stop-opacity:1"/></radialGradient>
        <radialGradient id="_Radial6" cx="0" cy="0" r="1" gradientUnits="userSpaceOnUse" gradientTransform="matrix(114.602,0,0,114.602,268.444,560.898)"><stop offset="0" style="stop-color:white;stop-opacity:1"/><stop offset="0.48" style="stop-color:rgb(86,223,172);stop-opacity:1"/><stop offset="1" style="stop-color:rgb(34,213,147);stop-opacity:1"/></radialGradient>
        <radialGradient id="_Radial7" cx="0" cy="0" r="1" gradientUnits="userSpaceOnUse" gradientTransform="matrix(114.602,0,0,114.602,268.444,560.898)"><stop offset="0" style="stop-color:white;stop-opacity:1"/><stop offset="0.48" style="stop-color:rgb(86,223,172);stop-opacity:1"/><stop offset="1" style="stop-color:rgb(34,213,147);stop-opacity:1"/></radialGradient>
        <radialGradient id="_Radial8" cx="0" cy="0" r="1" gradientUnits="userSpaceOnUse" gradientTransform="matrix(114.602,0,0,114.602,268.444,560.898)"><stop offset="0" style="stop-color:white;stop-opacity:1"/><stop offset="0.48" style="stop-color:rgb(86,223,172);stop-opacity:1"/><stop offset="1" style="stop-color:rgb(34,213,147);stop-opacity:1"/></radialGradient>
        <radialGradient id="_Radial9" cx="0" cy="0" r="1" gradientUnits="userSpaceOnUse" gradientTransform="matrix(114.602,0,0,114.602,268.444,560.898)"><stop offset="0" style="stop-color:white;stop-opacity:1"/><stop offset="0.48" style="stop-color:rgb(86,223,172);stop-opacity:1"/><stop offset="1" style="stop-color:rgb(34,213,147);stop-opacity:1"/></radialGradient>
        <radialGradient id="_Radial10" cx="0" cy="0" r="1" gradientUnits="userSpaceOnUse" gradientTransform="matrix(114.602,0,0,114.602,268.444,560.898)"><stop offset="0" style="stop-color:white;stop-opacity:1"/><stop offset="0.48" style="stop-color:rgb(86,223,172);stop-opacity:1"/><stop offset="1" style="stop-color:rgb(34,213,147);stop-opacity:1"/></radialGradient>
        <radialGradient id="_Radial11" cx="0" cy="0" r="1" gradientUnits="userSpaceOnUse" gradientTransform="matrix(114.602,0,0,114.602,268.444,560.898)"><stop offset="0" style="stop-color:white;stop-opacity:1"/><stop offset="0.48" style="stop-color:rgb(86,223,172);stop-opacity:1"/><stop offset="1" style="stop-color:rgb(34,213,147);stop-opacity:1"/></radialGradient>
        <radialGradient id="_Radial12" cx="0" cy="0" r="1" gradientUnits="userSpaceOnUse" gradientTransform="matrix(114.602,0,0,114.602,268.444,560.898)"><stop offset="0" style="stop-color:white;stop-opacity:1"/><stop offset="0.48" style="stop-color:rgb(86,223,172);stop-opacity:1"/><stop offset="1" style="stop-color:rgb(34,213,147);stop-opacity:1"/></radialGradient>
        <radialGradient id="_Radial13" cx="0" cy="0" r="1" gradientUnits="userSpaceOnUse" gradientTransform="matrix(114.602,0,0,114.602,268.444,560.898)"><stop offset="0" style="stop-color:white;stop-opacity:1"/><stop offset="0.48" style="stop-color:rgb(86,223,172);stop-opacity:1"/><stop offset="1" style="stop-color:rgb(34,213,147);stop-opacity:1"/></radialGradient>
        <radialGradient id="_Radial14" cx="0" cy="0" r="1" gradientUnits="userSpaceOnUse" gradientTransform="matrix(114.602,0,0,114.602,268.444,560.898)"><stop offset="0" style="stop-color:white;stop-opacity:1"/><stop offset="0.48" style="stop-color:rgb(86,223,172);stop-opacity:1"/><stop offset="1" style="stop-color:rgb(34,213,147);stop-opacity:1"/></radialGradient>
        <radialGradient id="_Radial15" cx="0" cy="0" r="1" gradientUnits="userSpaceOnUse" gradientTransform="matrix(114.602,0,0,114.602,268.444,560.898)"><stop offset="0" style="stop-color:white;stop-opacity:1"/><stop offset="0.48" style="stop-color:rgb(86,223,172);stop-opacity:1"/><stop offset="1" style="stop-color:rgb(34,213,147);stop-opacity:1"/></radialGradient>
        <radialGradient id="_Radial16" cx="0" cy="0" r="1" gradientUnits="userSpaceOnUse" gradientTransform="matrix(99.7992,0,0,99.7992,314.15,523.169)"><stop offset="0" style="stop-color:white;stop-opacity:1"/><stop offset="1" style="stop-color:rgb(51,30,225);stop-opacity:1"/></radialGradient>
        <radialGradient id="_Radial17" cx="0" cy="0" r="1" gradientUnits="userSpaceOnUse" gradientTransform="matrix(99.7992,0,0,99.7992,314.15,523.169)"><stop offset="0" style="stop-color:white;stop-opacity:1"/><stop offset="1" style="stop-color:rgb(51,30,225);stop-opacity:1"/></radialGradient>
        <radialGradient id="_Radial18" cx="0" cy="0" r="1" gradientUnits="userSpaceOnUse" gradientTransform="matrix(99.7992,0,0,99.7992,314.15,523.169)"><stop offset="0" style="stop-color:white;stop-opacity:1"/><stop offset="1" style="stop-color:rgb(51,30,225);stop-opacity:1"/></radialGradient>
        <radialGradient id="_Radial19" cx="0" cy="0" r="1" gradientUnits="userSpaceOnUse" gradientTransform="matrix(99.7992,0,0,99.7992,314.15,523.169)"><stop offset="0" style="stop-color:white;stop-opacity:1"/><stop offset="1" style="stop-color:rgb(51,30,225);stop-opacity:1"/></radialGradient>
        <radialGradient id="_Radial20" cx="0" cy="0" r="1" gradientUnits="userSpaceOnUse" gradientTransform="matrix(99.7992,0,0,99.7992,314.15,523.169)"><stop offset="0" style="stop-color:white;stop-opacity:1"/><stop offset="1" style="stop-color:rgb(51,30,225);stop-opacity:1"/></radialGradient>
        <radialGradient id="_Radial21" cx="0" cy="0" r="1" gradientUnits="userSpaceOnUse" gradientTransform="matrix(99.7992,0,0,99.7992,314.15,523.169)"><stop offset="0" style="stop-color:white;stop-opacity:1"/><stop offset="1" style="stop-color:rgb(51,30,225);stop-opacity:1"/></radialGradient>
        <radialGradient id="_Radial22" cx="0" cy="0" r="1" gradientUnits="userSpaceOnUse" gradientTransform="matrix(99.7992,0,0,99.7992,314.15,523.169)"><stop offset="0" style="stop-color:white;stop-opacity:1"/><stop offset="1" style="stop-color:rgb(51,30,225);stop-opacity:1"/></radialGradient>
        <radialGradient id="_Radial23" cx="0" cy="0" r="1" gradientUnits="userSpaceOnUse" gradientTransform="matrix(99.7992,0,0,99.7992,314.15,523.169)"><stop offset="0" style="stop-color:white;stop-opacity:1"/><stop offset="1" style="stop-color:rgb(51,30,225);stop-opacity:1"/></radialGradient>
        <radialGradient id="_Radial24" cx="0" cy="0" r="1" gradientUnits="userSpaceOnUse" gradientTransform="matrix(99.7992,0,0,99.7992,314.15,523.169)"><stop offset="0" style="stop-color:white;stop-opacity:1"/><stop offset="1" style="stop-color:rgb(51,30,225);stop-opacity:1"/></radialGradient>
        <radialGradient id="_Radial25" cx="0" cy="0" r="1" gradientUnits="userSpaceOnUse" gradientTransform="matrix(99.7992,0,0,99.7992,314.15,523.169)"><stop offset="0" style="stop-color:white;stop-opacity:1"/><stop offset="1" style="stop-color:rgb(51,30,225);stop-opacity:1"/></radialGradient>
        <radialGradient id="_Radial26" cx="0" cy="0" r="1" gradientUnits="userSpaceOnUse" gradientTransform="matrix(99.7992,0,0,99.7992,314.15,523.169)"><stop offset="0" style="stop-color:white;stop-opacity:1"/><stop offset="1" style="stop-color:rgb(51,30,225);stop-opacity:1"/></radialGradient>
        <radialGradient id="_Radial27" cx="0" cy="0" r="1" gradientUnits="userSpaceOnUse" gradientTransform="matrix(99.7992,0,0,99.7992,314.15,523.169)"><stop offset="0" style="stop-color:white;stop-opacity:1"/><stop offset="1" style="stop-color:rgb(51,30,225);stop-opacity:1"/></radialGradient>
        <radialGradient id="_Radial28" cx="0" cy="0" r="1" gradientUnits="userSpaceOnUse" gradientTransform="matrix(99.7992,0,0,99.7992,314.15,523.169)"><stop offset="0" style="stop-color:white;stop-opacity:1"/><stop offset="1" style="stop-color:rgb(51,30,225);stop-opacity:1"/></radialGradient>
        <radialGradient id="_Radial29" cx="0" cy="0" r="1" gradientUnits="userSpaceOnUse" gradientTransform="matrix(99.7992,0,0,99.7992,314.15,523.169)"><stop offset="0" style="stop-color:white;stop-opacity:1"/><stop offset="1" style="stop-color:rgb(51,30,225);stop-opacity:1"/></radialGradient>
        <radialGradient id="_Radial30" cx="0" cy="0" r="1" gradientUnits="userSpaceOnUse" gradientTransform="matrix(99.7992,0,0,99.7992,314.15,523.169)"><stop offset="0" style="stop-color:white;stop-opacity:1"/><stop offset="1" style="stop-color:rgb(51,30,225);stop-opacity:1"/></radialGradient>
        <radialGradient id="_Radial31" cx="0" cy="0" r="1" gradientUnits="userSpaceOnUse" gradientTransform="matrix(99.7992,0,0,99.7992,314.15,523.169)"><stop offset="0" style="stop-color:white;stop-opacity:1"/><stop offset="1" style="stop-color:rgb(51,30,225);stop-opacity:1"/></radialGradient>
        <radialGradient id="_Radial32" cx="0" cy="0" r="1" gradientUnits="userSpaceOnUse" gradientTransform="matrix(99.7992,0,0,99.7992,314.15,523.169)"><stop offset="0" style="stop-color:white;stop-opacity:1"/><stop offset="1" style="stop-color:rgb(51,30,225);stop-opacity:1"/></radialGradient>
        <radialGradient id="_Radial33" cx="0" cy="0" r="1" gradientUnits="userSpaceOnUse" gradientTransform="matrix(99.7992,0,0,99.7992,314.15,523.169)"><stop offset="0" style="stop-color:white;stop-opacity:1"/><stop offset="1" style="stop-color:rgb(51,30,225);stop-opacity:1"/></radialGradient>
        <radialGradient id="_Radial34" cx="0" cy="0" r="1" gradientUnits="userSpaceOnUse" gradientTransform="matrix(99.7992,0,0,99.7992,314.15,523.169)"><stop offset="0" style="stop-color:white;stop-opacity:1"/><stop offset="1" style="stop-color:rgb(51,30,225);stop-opacity:1"/></radialGradient>
        <radialGradient id="_Radial35" cx="0" cy="0" r="1" gradientUnits="userSpaceOnUse" gradientTransform="matrix(114.602,0,0,114.602,268.444,560.898)"><stop offset="0" style="stop-color:white;stop-opacity:1"/><stop offset="0.48" style="stop-color:rgb(86,223,172);stop-opacity:1"/><stop offset="1" style="stop-color:rgb(34,213,147);stop-opacity:1"/></radialGradient>
        <radialGradient id="_Radial36" cx="0" cy="0" r="1" gradientUnits="userSpaceOnUse" gradientTransform="matrix(114.602,0,0,114.602,268.444,560.898)"><stop offset="0" style="stop-color:white;stop-opacity:1"/><stop offset="0.48" style="stop-color:rgb(86,223,172);stop-opacity:1"/><stop offset="1" style="stop-color:rgb(34,213,147);stop-opacity:1"/></radialGradient>
        <radialGradient id="_Radial37" cx="0" cy="0" r="1" gradientUnits="userSpaceOnUse" gradientTransform="matrix(114.602,0,0,114.602,268.444,560.898)"><stop offset="0" style="stop-color:white;stop-opacity:1"/><stop offset="0.48" style="stop-color:rgb(86,223,172);stop-opacity:1"/><stop offset="1" style="stop-color:rgb(34,213,147);stop-opacity:1"/></radialGradient>
        <radialGradient id="_Radial38" cx="0" cy="0" r="1" gradientUnits="userSpaceOnUse" gradientTransform="matrix(114.602,0,0,114.602,268.444,560.898)"><stop offset="0" style="stop-color:white;stop-opacity:1"/><stop offset="0.48" style="stop-color:rgb(86,223,172);stop-opacity:1"/><stop offset="1" style="stop-color:rgb(34,213,147);stop-opacity:1"/></radialGradient>
        <radialGradient id="_Radial39" cx="0" cy="0" r="1" gradientUnits="userSpaceOnUse" gradientTransform="matrix(114.602,0,0,114.602,268.444,560.898)"><stop offset="0" style="stop-color:white;stop-opacity:1"/><stop offset="0.48" style="stop-color:rgb(86,223,172);stop-opacity:1"/><stop offset="1" style="stop-color:rgb(34,213,147);stop-opacity:1"/></radialGradient>
    </defs>
</svg>
